  0
SECTION
  2
HEADER
  9
$ANGBASE
  50
0.0
  9
$ANGDIR
  70
1
  9
$MEASUREMENT
  70
0
  0
ENDSEC
  0
SECTION
  2
TABLES
  0
TABLE
  2
LTYPE
  70
4
  0
LTYPE
  5
40F
  2
CONTINUOUS
  70
0
  3
Solid line
  72
65
  73
0
  40
0.0
  0
LTYPE
  5
410
  2
DASHDOT
 70
0
  3
Dash Dot ____ _ ____ _
 72
65
 73
4
 40
2.0
 49
1.25
 49
-0.25
 49
0.25
 49
-0.25
  0
LTYPE
  5
411
  2
DASHED
 70
0
  3
Dashed __ __ __ __ __
 72
65
 73
2
 40
0.75
 49
0.5
 49
-0.25
  0
LTYPE
  5
43B
  2
DOTTED
 70
0
  3
Dotted .  .  .  .
 72
65
 73
2
 40
0.2
 49
0.0
 49
-0.2
  0
ENDTAB
  0
TABLE
  2
STYLE
  70
4
  0
STYLE
  2
KICAD
  70
0
  40
0
  41
1
  42
1
  50
0
  71
0
  3
isocp.shx
  0
STYLE
  2
KICADB
  70
0
  40
0
  41
1
  42
1
  50
0
  71
0
  3
isocp.shx
  0
STYLE
  2
KICADI
  70
0
  40
0
  41
1
  42
1
  50
15
  71
0
  3
isocp.shx
  0
STYLE
  2
KICADBI
  70
0
  40
0
  41
1
  42
1
  50
15
  71
0
  3
isocp.shx
  0
ENDTAB
  0
TABLE
  2
LAYER
  70
1
  0
LAYER
  2
BLACK
  70
0
  62
7
  6
CONTINUOUS
  0
ENDTAB
  0
ENDSEC
  0
SECTION
  2
ENTITIES
0
LINE
8
BLACK
6
CONTINUOUS
10
5.7645669291338582
20
-3.2328740157480316
11
5.7731674409448814
21
-3.2334891338582676
0
LINE
8
BLACK
6
CONTINUOUS
10
5.7731674409448814
20
-3.2334891338582676
11
5.7815928740157476
21
-3.2353219685039369
0
LINE
8
BLACK
6
CONTINUOUS
10
5.7815928740157476
20
-3.2353219685039369
11
5.7896717322834643
21
-3.2383352362204723
0
LINE
8
BLACK
6
CONTINUOUS
10
5.7896717322834643
20
-3.2383352362204723
11
5.7972395275590554
21
-3.2424675590551182
0
LINE
8
BLACK
6
CONTINUOUS
10
5.7972395275590554
20
-3.2424675590551182
11
5.8041421653543308
21
-3.2476348031496061
0
LINE
8
BLACK
6
CONTINUOUS
10
5.8041421653543308
20
-3.2476348031496061
11
5.8102392125984252
21
-3.2537318503937005
0
LINE
8
BLACK
6
CONTINUOUS
10
5.8102392125984252
20
-3.2537318503937005
11
5.8154064566929131
21
-3.2606344881889764
0
LINE
8
BLACK
6
CONTINUOUS
10
5.8154064566929131
20
-3.2606344881889764
11
5.8195387795275586
21
-3.268202283464567
0
LINE
8
BLACK
6
CONTINUOUS
10
5.8195387795275586
20
-3.268202283464567
11
5.8225520472440939
21
-3.2762811417322832
0
LINE
8
BLACK
6
CONTINUOUS
10
5.8225520472440939
20
-3.2762811417322832
11
5.8243848818897632
21
-3.2847065748031494
0
LINE
8
BLACK
6
CONTINUOUS
10
5.8243848818897632
20
-3.2847065748031494
11
5.8250000000000002
21
-3.2933070866141732
0
LINE
8
BLACK
6
CONTINUOUS
10
5.8250000000000002
20
-3.2933070866141732
11
5.8250000000000002
21
-3.9901574803149606
0
LINE
8
BLACK
6
CONTINUOUS
10
5.8250000000000002
20
-3.9901574803149606
11
5.8243848818897632
21
-3.9987579921259844
0
LINE
8
BLACK
6
CONTINUOUS
10
5.8243848818897632
20
-3.9987579921259844
11
5.8225520472440939
21
-4.0071834251968506
0
LINE
8
BLACK
6
CONTINUOUS
10
5.8225520472440939
20
-4.0071834251968506
11
5.8195387795275586
21
-4.0152622834645673
0
LINE
8
BLACK
6
CONTINUOUS
10
5.8195387795275586
20
-4.0152622834645673
11
5.8154064566929131
21
-4.0228300787401574
0
LINE
8
BLACK
6
CONTINUOUS
10
5.8154064566929131
20
-4.0228300787401574
11
5.8102392125984252
21
-4.0297327165354329
0
LINE
8
BLACK
6
CONTINUOUS
10
5.8102392125984252
20
-4.0297327165354329
11
5.8041421653543308
21
-4.0358297637795273
0
LINE
8
BLACK
6
CONTINUOUS
10
5.8041421653543308
20
-4.0358297637795273
11
5.7972395275590554
21
-4.0409970078740161
0
LINE
8
BLACK
6
CONTINUOUS
10
5.7972395275590554
20
-4.0409970078740161
11
5.7896717322834643
21
-4.0451293307086615
0
LINE
8
BLACK
6
CONTINUOUS
10
5.7896717322834643
20
-4.0451293307086615
11
5.7815928740157476
21
-4.0481425984251969
0
LINE
8
BLACK
6
CONTINUOUS
10
5.7815928740157476
20
-4.0481425984251969
11
5.7731674409448814
21
-4.0499754330708662
0
LINE
8
BLACK
6
CONTINUOUS
10
5.7731674409448814
20
-4.0499754330708662
11
5.7645669291338582
21
-4.0505905511811022
0
LINE
8
BLACK
6
CONTINUOUS
10
5.7645669291338582
20
-4.0505905511811022
11
5.0598425196850396
21
-4.0505905511811022
0
LINE
8
BLACK
6
CONTINUOUS
10
5.0598425196850396
20
-4.0505905511811022
11
5.0512420078740154
21
-4.0499754330708662
0
LINE
8
BLACK
6
CONTINUOUS
10
5.0512420078740154
20
-4.0499754330708662
11
5.0428165748031493
21
-4.0481425984251969
0
LINE
8
BLACK
6
CONTINUOUS
10
5.0428165748031493
20
-4.0481425984251969
11
5.0347377165354326
21
-4.0451293307086615
0
LINE
8
BLACK
6
CONTINUOUS
10
5.0347377165354326
20
-4.0451293307086615
11
5.0271699212598424
21
-4.0409970078740161
0
LINE
8
BLACK
6
CONTINUOUS
10
5.0271699212598424
20
-4.0409970078740161
11
5.020267283464567
21
-4.0358297637795273
0
LINE
8
BLACK
6
CONTINUOUS
10
5.020267283464567
20
-4.0358297637795273
11
5.0141702362204725
21
-4.0297327165354329
0
LINE
8
BLACK
6
CONTINUOUS
10
5.0141702362204725
20
-4.0297327165354329
11
5.0090029921259838
21
-4.0228300787401574
0
LINE
8
BLACK
6
CONTINUOUS
10
5.0090029921259838
20
-4.0228300787401574
11
5.0048706692913383
21
-4.0152622834645673
0
LINE
8
BLACK
6
CONTINUOUS
10
5.0048706692913383
20
-4.0152622834645673
11
5.001857401574803
21
-4.0071834251968506
0
LINE
8
BLACK
6
CONTINUOUS
10
5.001857401574803
20
-4.0071834251968506
11
5.0000245669291337
21
-3.9987579921259844
0
LINE
8
BLACK
6
CONTINUOUS
10
5.0000245669291337
20
-3.9987579921259844
11
4.9994094488188976
21
-3.9901574803149606
0
LINE
8
BLACK
6
CONTINUOUS
10
4.9994094488188976
20
-3.9901574803149606
11
4.9994094488188976
21
-3.2933070866141732
0
LINE
8
BLACK
6
CONTINUOUS
10
4.9994094488188976
20
-3.2933070866141732
11
5.0000245669291337
21
-3.2847065748031494
0
LINE
8
BLACK
6
CONTINUOUS
10
5.0000245669291337
20
-3.2847065748031494
11
5.001857401574803
21
-3.2762811417322832
0
LINE
8
BLACK
6
CONTINUOUS
10
5.001857401574803
20
-3.2762811417322832
11
5.0048706692913383
21
-3.268202283464567
0
LINE
8
BLACK
6
CONTINUOUS
10
5.0048706692913383
20
-3.268202283464567
11
5.0090029921259838
21
-3.2606344881889764
0
LINE
8
BLACK
6
CONTINUOUS
10
5.0090029921259838
20
-3.2606344881889764
11
5.0141702362204725
21
-3.2537318503937005
0
LINE
8
BLACK
6
CONTINUOUS
10
5.0141702362204725
20
-3.2537318503937005
11
5.020267283464567
21
-3.2476348031496061
0
LINE
8
BLACK
6
CONTINUOUS
10
5.020267283464567
20
-3.2476348031496061
11
5.0271699212598424
21
-3.2424675590551182
0
LINE
8
BLACK
6
CONTINUOUS
10
5.0271699212598424
20
-3.2424675590551182
11
5.0347377165354326
21
-3.2383352362204723
0
LINE
8
BLACK
6
CONTINUOUS
10
5.0347377165354326
20
-3.2383352362204723
11
5.0428165748031493
21
-3.2353219685039369
0
LINE
8
BLACK
6
CONTINUOUS
10
5.0428165748031493
20
-3.2353219685039369
11
5.0512420078740154
21
-3.2334891338582676
0
LINE
8
BLACK
6
CONTINUOUS
10
5.0512420078740154
20
-3.2334891338582676
11
5.0598425196850396
21
-3.2328740157480316
0
LINE
8
BLACK
6
CONTINUOUS
10
5.0598425196850396
20
-3.2328740157480316
11
5.7645669291338582
21
-3.2328740157480316
0
LINE
8
BLACK
6
CONTINUOUS
10
5.0598425196850396
20
-3.2348425196850394
11
5.0556610629921259
21
-3.2348425196850394
0
LINE
8
BLACK
6
CONTINUOUS
10
5.0556610629921259
20
-3.2348425196850394
11
5.0473832283464564
21
-3.236032716535433
0
LINE
8
BLACK
6
CONTINUOUS
10
5.0473832283464564
20
-3.236032716535433
11
5.0393590551181102
21
-3.2383888188976377
0
LINE
8
BLACK
6
CONTINUOUS
10
5.0393590551181102
20
-3.2383888188976377
11
5.0317518503937011
21
-3.2418629133858268
0
LINE
8
BLACK
6
CONTINUOUS
10
5.0317518503937011
20
-3.2418629133858268
11
5.024716535433071
21
-3.2463842519685038
0
LINE
8
BLACK
6
CONTINUOUS
10
5.024716535433071
20
-3.2463842519685038
11
5.0183962204724413
21
-3.2518607874015748
0
LINE
8
BLACK
6
CONTINUOUS
10
5.0183962204724413
20
-3.2518607874015748
11
5.0129196850393702
21
-3.2581811023622045
0
LINE
8
BLACK
6
CONTINUOUS
10
5.0129196850393702
20
-3.2581811023622045
11
5.0083983464566932
21
-3.2652164173228346
0
LINE
8
BLACK
6
CONTINUOUS
10
5.0083983464566932
20
-3.2652164173228346
11
5.0049242519685038
21
-3.2728236220472442
0
LINE
8
BLACK
6
CONTINUOUS
10
5.0049242519685038
20
-3.2728236220472442
11
5.002568149606299
21
-3.2808477952755903
0
LINE
8
BLACK
6
CONTINUOUS
10
5.002568149606299
20
-3.2808477952755903
11
5.001377952755905
21
-3.2891256299212599
0
LINE
8
BLACK
6
CONTINUOUS
10
5.001377952755905
20
-3.2891256299212599
11
5.001377952755905
21
-3.2933070866141732
0
LINE
8
BLACK
6
CONTINUOUS
10
5.001377952755905
20
-3.2933070866141732
11
5.001377952755905
21
-3.9901574803149606
0
LINE
8
BLACK
6
CONTINUOUS
10
5.001377952755905
20
-3.9901574803149606
11
5.001377952755905
21
-3.9943389370078739
0
LINE
8
BLACK
6
CONTINUOUS
10
5.001377952755905
20
-3.9943389370078739
11
5.002568149606299
21
-4.0026167716535435
0
LINE
8
BLACK
6
CONTINUOUS
10
5.002568149606299
20
-4.0026167716535435
11
5.0049242519685038
21
-4.0106409448818896
0
LINE
8
BLACK
6
CONTINUOUS
10
5.0049242519685038
20
-4.0106409448818896
11
5.0083983464566932
21
-4.0182481496062987
0
LINE
8
BLACK
6
CONTINUOUS
10
5.0083983464566932
20
-4.0182481496062987
11
5.0129196850393702
21
-4.0252834645669289
0
LINE
8
BLACK
6
CONTINUOUS
10
5.0129196850393702
20
-4.0252834645669289
11
5.0183962204724413
21
-4.0316037795275586
0
LINE
8
BLACK
6
CONTINUOUS
10
5.0183962204724413
20
-4.0316037795275586
11
5.024716535433071
21
-4.0370803149606296
0
LINE
8
BLACK
6
CONTINUOUS
10
5.024716535433071
20
-4.0370803149606296
11
5.0317518503937011
21
-4.0416016535433066
0
LINE
8
BLACK
6
CONTINUOUS
10
5.0317518503937011
20
-4.0416016535433066
11
5.0393590551181102
21
-4.0450757480314961
0
LINE
8
BLACK
6
CONTINUOUS
10
5.0393590551181102
20
-4.0450757480314961
11
5.0473832283464564
21
-4.0474318503937008
0
LINE
8
BLACK
6
CONTINUOUS
10
5.0473832283464564
20
-4.0474318503937008
11
5.0556610629921259
21
-4.0486220472440948
0
LINE
8
BLACK
6
CONTINUOUS
10
5.0556610629921259
20
-4.0486220472440948
11
5.0598425196850396
21
-4.0486220472440948
0
LINE
8
BLACK
6
CONTINUOUS
10
5.0598425196850396
20
-4.0486220472440948
11
5.7645669291338582
21
-4.0486220472440948
0
LINE
8
BLACK
6
CONTINUOUS
10
5.7645669291338582
20
-4.0486220472440948
11
5.7687483858267719
21
-4.0486220472440948
0
LINE
8
BLACK
6
CONTINUOUS
10
5.7687483858267719
20
-4.0486220472440948
11
5.7770262204724405
21
-4.0474318503937008
0
LINE
8
BLACK
6
CONTINUOUS
10
5.7770262204724405
20
-4.0474318503937008
11
5.7850503937007876
21
-4.0450757480314961
0
LINE
8
BLACK
6
CONTINUOUS
10
5.7850503937007876
20
-4.0450757480314961
11
5.7926575984251967
21
-4.0416016535433066
0
LINE
8
BLACK
6
CONTINUOUS
10
5.7926575984251967
20
-4.0416016535433066
11
5.7996929133858268
21
-4.0370803149606296
0
LINE
8
BLACK
6
CONTINUOUS
10
5.7996929133858268
20
-4.0370803149606296
11
5.8060132283464565
21
-4.0316037795275586
0
LINE
8
BLACK
6
CONTINUOUS
10
5.8060132283464565
20
-4.0316037795275586
11
5.8114897637795275
21
-4.0252834645669289
0
LINE
8
BLACK
6
CONTINUOUS
10
5.8114897637795275
20
-4.0252834645669289
11
5.8160111023622045
21
-4.0182481496062987
0
LINE
8
BLACK
6
CONTINUOUS
10
5.8160111023622045
20
-4.0182481496062987
11
5.819485196850394
21
-4.0106409448818896
0
LINE
8
BLACK
6
CONTINUOUS
10
5.819485196850394
20
-4.0106409448818896
11
5.8218412992125979
21
-4.0026167716535435
0
LINE
8
BLACK
6
CONTINUOUS
10
5.8218412992125979
20
-4.0026167716535435
11
5.8230314960629919
21
-3.9943389370078739
0
LINE
8
BLACK
6
CONTINUOUS
10
5.8230314960629919
20
-3.9943389370078739
11
5.8230314960629919
21
-3.9901574803149606
0
LINE
8
BLACK
6
CONTINUOUS
10
5.8230314960629919
20
-3.9901574803149606
11
5.8230314960629919
21
-3.2933070866141732
0
LINE
8
BLACK
6
CONTINUOUS
10
5.8230314960629919
20
-3.2933070866141732
11
5.8230314960629919
21
-3.2891256299212599
0
LINE
8
BLACK
6
CONTINUOUS
10
5.8230314960629919
20
-3.2891256299212599
11
5.8218412992125979
21
-3.2808477952755903
0
LINE
8
BLACK
6
CONTINUOUS
10
5.8218412992125979
20
-3.2808477952755903
11
5.819485196850394
21
-3.2728236220472442
0
LINE
8
BLACK
6
CONTINUOUS
10
5.819485196850394
20
-3.2728236220472442
11
5.8160111023622045
21
-3.2652164173228346
0
LINE
8
BLACK
6
CONTINUOUS
10
5.8160111023622045
20
-3.2652164173228346
11
5.8114897637795275
21
-3.2581811023622045
0
LINE
8
BLACK
6
CONTINUOUS
10
5.8114897637795275
20
-3.2581811023622045
11
5.8060132283464565
21
-3.2518607874015748
0
LINE
8
BLACK
6
CONTINUOUS
10
5.8060132283464565
20
-3.2518607874015748
11
5.7996929133858268
21
-3.2463842519685038
0
LINE
8
BLACK
6
CONTINUOUS
10
5.7996929133858268
20
-3.2463842519685038
11
5.7926575984251967
21
-3.2418629133858268
0
LINE
8
BLACK
6
CONTINUOUS
10
5.7926575984251967
20
-3.2418629133858268
11
5.7850503937007876
21
-3.2383888188976377
0
LINE
8
BLACK
6
CONTINUOUS
10
5.7850503937007876
20
-3.2383888188976377
11
5.7770262204724405
21
-3.236032716535433
0
LINE
8
BLACK
6
CONTINUOUS
10
5.7770262204724405
20
-3.236032716535433
11
5.7687483858267719
21
-3.2348425196850394
0
LINE
8
BLACK
6
CONTINUOUS
10
5.7687483858267719
20
-3.2348425196850394
11
5.7645669291338582
21
-3.2348425196850394
0
LINE
8
BLACK
6
CONTINUOUS
10
5.7645669291338582
20
-3.2348425196850394
11
5.0598425196850396
21
-3.2348425196850394
  0
ENDSEC
  0
EOF
