  0
SECTION
  2
HEADER
  9
$ANGBASE
  50
0.0
  9
$ANGDIR
  70
1
  9
$MEASUREMENT
  70
0
  0
ENDSEC
  0
SECTION
  2
TABLES
  0
TABLE
  2
LTYPE
  70
4
  0
LTYPE
  5
40F
  2
CONTINUOUS
  70
0
  3
Solid line
  72
65
  73
0
  40
0.0
  0
LTYPE
  5
410
  2
DASHDOT
 70
0
  3
Dash Dot ____ _ ____ _
 72
65
 73
4
 40
2.0
 49
1.25
 49
-0.25
 49
0.25
 49
-0.25
  0
LTYPE
  5
411
  2
DASHED
 70
0
  3
Dashed __ __ __ __ __
 72
65
 73
2
 40
0.75
 49
0.5
 49
-0.25
  0
LTYPE
  5
43B
  2
DOTTED
 70
0
  3
Dotted .  .  .  .
 72
65
 73
2
 40
0.2
 49
0.0
 49
-0.2
  0
ENDTAB
  0
TABLE
  2
STYLE
  70
4
  0
STYLE
  2
KICAD
  70
0
  40
0
  41
1
  42
1
  50
0
  71
0
  3
isocp.shx
  0
STYLE
  2
KICADB
  70
0
  40
0
  41
1
  42
1
  50
0
  71
0
  3
isocp.shx
  0
STYLE
  2
KICADI
  70
0
  40
0
  41
1
  42
1
  50
15
  71
0
  3
isocp.shx
  0
STYLE
  2
KICADBI
  70
0
  40
0
  41
1
  42
1
  50
15
  71
0
  3
isocp.shx
  0
ENDTAB
  0
TABLE
  2
LAYER
  70
1
  0
LAYER
  2
BLACK
  70
0
  62
7
  6
CONTINUOUS
  0
ENDTAB
  0
ENDSEC
  0
SECTION
  2
ENTITIES
0
LINE
8
BLACK
6
CONTINUOUS
10
5.5860500393700789
20
-3.9560641732283464
11
5.5892431889763774
21
-3.9581977559055117
0
LINE
8
BLACK
6
CONTINUOUS
10
5.5892431889763774
20
-3.9581977559055117
11
5.5913767716535432
21
-3.9613909055118111
0
LINE
8
BLACK
6
CONTINUOUS
10
5.5913767716535432
20
-3.9613909055118111
11
5.5921259842519682
21
-3.9651574803149607
0
LINE
8
BLACK
6
CONTINUOUS
10
5.5921259842519682
20
-3.9651574803149607
11
5.5921259842519682
21
-4.0163385826771654
0
LINE
8
BLACK
6
CONTINUOUS
10
5.5921259842519682
20
-4.0163385826771654
11
5.5913767716535432
21
-4.0201051574803151
0
LINE
8
BLACK
6
CONTINUOUS
10
5.5913767716535432
20
-4.0201051574803151
11
5.5892431889763774
21
-4.0232983070866144
0
LINE
8
BLACK
6
CONTINUOUS
10
5.5892431889763774
20
-4.0232983070866144
11
5.5860500393700789
21
-4.0254318897637793
0
LINE
8
BLACK
6
CONTINUOUS
10
5.5860500393700789
20
-4.0254318897637793
11
5.5822834645669293
21
-4.0261811023622043
0
LINE
8
BLACK
6
CONTINUOUS
10
5.5822834645669293
20
-4.0261811023622043
11
5.5547244094488191
21
-4.0261811023622043
0
LINE
8
BLACK
6
CONTINUOUS
10
5.5547244094488191
20
-4.0261811023622043
11
5.5509578346456694
21
-4.0254318897637793
0
LINE
8
BLACK
6
CONTINUOUS
10
5.5509578346456694
20
-4.0254318897637793
11
5.54776468503937
21
-4.0232983070866144
0
LINE
8
BLACK
6
CONTINUOUS
10
5.54776468503937
20
-4.0232983070866144
11
5.5456311023622042
21
-4.0201051574803151
0
LINE
8
BLACK
6
CONTINUOUS
10
5.5456311023622042
20
-4.0201051574803151
11
5.5448818897637793
21
-4.0163385826771654
0
LINE
8
BLACK
6
CONTINUOUS
10
5.5448818897637793
20
-4.0163385826771654
11
5.5448818897637793
21
-3.9651574803149607
0
LINE
8
BLACK
6
CONTINUOUS
10
5.5448818897637793
20
-3.9651574803149607
11
5.5456311023622042
21
-3.9613909055118111
0
LINE
8
BLACK
6
CONTINUOUS
10
5.5456311023622042
20
-3.9613909055118111
11
5.54776468503937
21
-3.9581977559055117
0
LINE
8
BLACK
6
CONTINUOUS
10
5.54776468503937
20
-3.9581977559055117
11
5.5509578346456694
21
-3.9560641732283464
0
LINE
8
BLACK
6
CONTINUOUS
10
5.5509578346456694
20
-3.9560641732283464
11
5.5547244094488191
21
-3.9553149606299214
0
LINE
8
BLACK
6
CONTINUOUS
10
5.5547244094488191
20
-3.9553149606299214
11
5.5822834645669293
21
-3.9553149606299214
0
LINE
8
BLACK
6
CONTINUOUS
10
5.5822834645669293
20
-3.9553149606299214
11
5.5860500393700789
21
-3.9560641732283464
0
LINE
8
BLACK
6
CONTINUOUS
10
5.767152401574803
20
-3.9560641732283464
11
5.7703455511811024
21
-3.9581977559055117
0
LINE
8
BLACK
6
CONTINUOUS
10
5.7703455511811024
20
-3.9581977559055117
11
5.7724791338582673
21
-3.9613909055118111
0
LINE
8
BLACK
6
CONTINUOUS
10
5.7724791338582673
20
-3.9613909055118111
11
5.7732283464566931
21
-3.9651574803149607
0
LINE
8
BLACK
6
CONTINUOUS
10
5.7732283464566931
20
-3.9651574803149607
11
5.7732283464566931
21
-4.0163385826771654
0
LINE
8
BLACK
6
CONTINUOUS
10
5.7732283464566931
20
-4.0163385826771654
11
5.7724791338582673
21
-4.0201051574803151
0
LINE
8
BLACK
6
CONTINUOUS
10
5.7724791338582673
20
-4.0201051574803151
11
5.7703455511811024
21
-4.0232983070866144
0
LINE
8
BLACK
6
CONTINUOUS
10
5.7703455511811024
20
-4.0232983070866144
11
5.767152401574803
21
-4.0254318897637793
0
LINE
8
BLACK
6
CONTINUOUS
10
5.767152401574803
20
-4.0254318897637793
11
5.7633858267716533
21
-4.0261811023622043
0
LINE
8
BLACK
6
CONTINUOUS
10
5.7633858267716533
20
-4.0261811023622043
11
5.7358267716535432
21
-4.0261811023622043
0
LINE
8
BLACK
6
CONTINUOUS
10
5.7358267716535432
20
-4.0261811023622043
11
5.7320601968503935
21
-4.0254318897637793
0
LINE
8
BLACK
6
CONTINUOUS
10
5.7320601968503935
20
-4.0254318897637793
11
5.7288670472440941
21
-4.0232983070866144
0
LINE
8
BLACK
6
CONTINUOUS
10
5.7288670472440941
20
-4.0232983070866144
11
5.7267334645669292
21
-4.0201051574803151
0
LINE
8
BLACK
6
CONTINUOUS
10
5.7267334645669292
20
-4.0201051574803151
11
5.7259842519685042
21
-4.0163385826771654
0
LINE
8
BLACK
6
CONTINUOUS
10
5.7259842519685042
20
-4.0163385826771654
11
5.7259842519685042
21
-3.9651574803149607
0
LINE
8
BLACK
6
CONTINUOUS
10
5.7259842519685042
20
-3.9651574803149607
11
5.7267334645669292
21
-3.9613909055118111
0
LINE
8
BLACK
6
CONTINUOUS
10
5.7267334645669292
20
-3.9613909055118111
11
5.7288670472440941
21
-3.9581977559055117
0
LINE
8
BLACK
6
CONTINUOUS
10
5.7288670472440941
20
-3.9581977559055117
11
5.7320601968503935
21
-3.9560641732283464
0
LINE
8
BLACK
6
CONTINUOUS
10
5.7320601968503935
20
-3.9560641732283464
11
5.7358267716535432
21
-3.9553149606299214
0
LINE
8
BLACK
6
CONTINUOUS
10
5.7358267716535432
20
-3.9553149606299214
11
5.7633858267716533
21
-3.9553149606299214
0
LINE
8
BLACK
6
CONTINUOUS
10
5.7633858267716533
20
-3.9553149606299214
11
5.767152401574803
21
-3.9560641732283464
0
LINE
8
BLACK
6
CONTINUOUS
10
5.2033728740157477
20
-3.9617728346456693
11
5.206566023622047
21
-3.9639064173228347
0
LINE
8
BLACK
6
CONTINUOUS
10
5.206566023622047
20
-3.9639064173228347
11
5.2086996062992128
21
-3.9670995669291336
0
LINE
8
BLACK
6
CONTINUOUS
10
5.2086996062992128
20
-3.9670995669291336
11
5.2094488188976378
21
-3.9708661417322832
0
LINE
8
BLACK
6
CONTINUOUS
10
5.2094488188976378
20
-3.9708661417322832
11
5.2094488188976378
21
-3.9984251968503934
0
LINE
8
BLACK
6
CONTINUOUS
10
5.2094488188976378
20
-3.9984251968503934
11
5.2086996062992128
21
-4.0021917716535436
0
LINE
8
BLACK
6
CONTINUOUS
10
5.2086996062992128
20
-4.0021917716535436
11
5.206566023622047
21
-4.005384921259842
0
LINE
8
BLACK
6
CONTINUOUS
10
5.206566023622047
20
-4.005384921259842
11
5.2033728740157477
21
-4.0075185039370078
0
LINE
8
BLACK
6
CONTINUOUS
10
5.2033728740157477
20
-4.0075185039370078
11
5.199606299212598
21
-4.0082677165354328
0
LINE
8
BLACK
6
CONTINUOUS
10
5.199606299212598
20
-4.0082677165354328
11
5.1641732283464563
21
-4.0082677165354328
0
LINE
8
BLACK
6
CONTINUOUS
10
5.1641732283464563
20
-4.0082677165354328
11
5.1604066535433066
21
-4.0075185039370078
0
LINE
8
BLACK
6
CONTINUOUS
10
5.1604066535433066
20
-4.0075185039370078
11
5.1572135039370082
21
-4.005384921259842
0
LINE
8
BLACK
6
CONTINUOUS
10
5.1572135039370082
20
-4.005384921259842
11
5.1550799212598424
21
-4.0021917716535436
0
LINE
8
BLACK
6
CONTINUOUS
10
5.1550799212598424
20
-4.0021917716535436
11
5.1543307086614174
21
-3.9984251968503934
0
LINE
8
BLACK
6
CONTINUOUS
10
5.1543307086614174
20
-3.9984251968503934
11
5.1543307086614174
21
-3.9708661417322832
0
LINE
8
BLACK
6
CONTINUOUS
10
5.1543307086614174
20
-3.9708661417322832
11
5.1550799212598424
21
-3.9670995669291336
0
LINE
8
BLACK
6
CONTINUOUS
10
5.1550799212598424
20
-3.9670995669291336
11
5.1572135039370082
21
-3.9639064173228347
0
LINE
8
BLACK
6
CONTINUOUS
10
5.1572135039370082
20
-3.9639064173228347
11
5.1604066535433066
21
-3.9617728346456693
0
LINE
8
BLACK
6
CONTINUOUS
10
5.1604066535433066
20
-3.9617728346456693
11
5.1641732283464563
21
-3.9610236220472439
0
LINE
8
BLACK
6
CONTINUOUS
10
5.1641732283464563
20
-3.9610236220472439
11
5.199606299212598
21
-3.9610236220472439
0
LINE
8
BLACK
6
CONTINUOUS
10
5.199606299212598
20
-3.9610236220472439
11
5.2033728740157477
21
-3.9617728346456693
0
LINE
8
BLACK
6
CONTINUOUS
10
5.289987047244094
20
-3.9617728346456693
11
5.2931801968503933
21
-3.9639064173228347
0
LINE
8
BLACK
6
CONTINUOUS
10
5.2931801968503933
20
-3.9639064173228347
11
5.2953137795275591
21
-3.9670995669291336
0
LINE
8
BLACK
6
CONTINUOUS
10
5.2953137795275591
20
-3.9670995669291336
11
5.2960629921259841
21
-3.9708661417322832
0
LINE
8
BLACK
6
CONTINUOUS
10
5.2960629921259841
20
-3.9708661417322832
11
5.2960629921259841
21
-3.9984251968503934
0
LINE
8
BLACK
6
CONTINUOUS
10
5.2960629921259841
20
-3.9984251968503934
11
5.2953137795275591
21
-4.0021917716535436
0
LINE
8
BLACK
6
CONTINUOUS
10
5.2953137795275591
20
-4.0021917716535436
11
5.2931801968503933
21
-4.005384921259842
0
LINE
8
BLACK
6
CONTINUOUS
10
5.2931801968503933
20
-4.005384921259842
11
5.289987047244094
21
-4.0075185039370078
0
LINE
8
BLACK
6
CONTINUOUS
10
5.289987047244094
20
-4.0075185039370078
11
5.2862204724409452
21
-4.0082677165354328
0
LINE
8
BLACK
6
CONTINUOUS
10
5.2862204724409452
20
-4.0082677165354328
11
5.2507874015748026
21
-4.0082677165354328
0
LINE
8
BLACK
6
CONTINUOUS
10
5.2507874015748026
20
-4.0082677165354328
11
5.2470208267716538
21
-4.0075185039370078
0
LINE
8
BLACK
6
CONTINUOUS
10
5.2470208267716538
20
-4.0075185039370078
11
5.2438276771653545
21
-4.005384921259842
0
LINE
8
BLACK
6
CONTINUOUS
10
5.2438276771653545
20
-4.005384921259842
11
5.2416940944881887
21
-4.0021917716535436
0
LINE
8
BLACK
6
CONTINUOUS
10
5.2416940944881887
20
-4.0021917716535436
11
5.2409448818897637
21
-3.9984251968503934
0
LINE
8
BLACK
6
CONTINUOUS
10
5.2409448818897637
20
-3.9984251968503934
11
5.2409448818897637
21
-3.9708661417322832
0
LINE
8
BLACK
6
CONTINUOUS
10
5.2409448818897637
20
-3.9708661417322832
11
5.2416940944881887
21
-3.9670995669291336
0
LINE
8
BLACK
6
CONTINUOUS
10
5.2416940944881887
20
-3.9670995669291336
11
5.2438276771653545
21
-3.9639064173228347
0
LINE
8
BLACK
6
CONTINUOUS
10
5.2438276771653545
20
-3.9639064173228347
11
5.2470208267716538
21
-3.9617728346456693
0
LINE
8
BLACK
6
CONTINUOUS
10
5.2470208267716538
20
-3.9617728346456693
11
5.2507874015748026
21
-3.9610236220472439
0
LINE
8
BLACK
6
CONTINUOUS
10
5.2507874015748026
20
-3.9610236220472439
11
5.2862204724409452
21
-3.9610236220472439
0
LINE
8
BLACK
6
CONTINUOUS
10
5.2862204724409452
20
-3.9610236220472439
11
5.289987047244094
21
-3.9617728346456693
0
LINE
8
BLACK
6
CONTINUOUS
10
5.2033728740157477
20
-3.8948437007874013
11
5.206566023622047
21
-3.8969772834645666
0
LINE
8
BLACK
6
CONTINUOUS
10
5.206566023622047
20
-3.8969772834645666
11
5.2086996062992128
21
-3.900170433070866
0
LINE
8
BLACK
6
CONTINUOUS
10
5.2086996062992128
20
-3.900170433070866
11
5.2094488188976378
21
-3.9039370078740157
0
LINE
8
BLACK
6
CONTINUOUS
10
5.2094488188976378
20
-3.9039370078740157
11
5.2094488188976378
21
-3.9314960629921258
0
LINE
8
BLACK
6
CONTINUOUS
10
5.2094488188976378
20
-3.9314960629921258
11
5.2086996062992128
21
-3.9352626377952755
0
LINE
8
BLACK
6
CONTINUOUS
10
5.2086996062992128
20
-3.9352626377952755
11
5.206566023622047
21
-3.9384557874015749
0
LINE
8
BLACK
6
CONTINUOUS
10
5.206566023622047
20
-3.9384557874015749
11
5.2033728740157477
21
-3.9405893700787402
0
LINE
8
BLACK
6
CONTINUOUS
10
5.2033728740157477
20
-3.9405893700787402
11
5.199606299212598
21
-3.9413385826771652
0
LINE
8
BLACK
6
CONTINUOUS
10
5.199606299212598
20
-3.9413385826771652
11
5.1641732283464563
21
-3.9413385826771652
0
LINE
8
BLACK
6
CONTINUOUS
10
5.1641732283464563
20
-3.9413385826771652
11
5.1604066535433066
21
-3.9405893700787402
0
LINE
8
BLACK
6
CONTINUOUS
10
5.1604066535433066
20
-3.9405893700787402
11
5.1572135039370082
21
-3.9384557874015749
0
LINE
8
BLACK
6
CONTINUOUS
10
5.1572135039370082
20
-3.9384557874015749
11
5.1550799212598424
21
-3.9352626377952755
0
LINE
8
BLACK
6
CONTINUOUS
10
5.1550799212598424
20
-3.9352626377952755
11
5.1543307086614174
21
-3.9314960629921258
0
LINE
8
BLACK
6
CONTINUOUS
10
5.1543307086614174
20
-3.9314960629921258
11
5.1543307086614174
21
-3.9039370078740157
0
LINE
8
BLACK
6
CONTINUOUS
10
5.1543307086614174
20
-3.9039370078740157
11
5.1550799212598424
21
-3.900170433070866
0
LINE
8
BLACK
6
CONTINUOUS
10
5.1550799212598424
20
-3.900170433070866
11
5.1572135039370082
21
-3.8969772834645666
0
LINE
8
BLACK
6
CONTINUOUS
10
5.1572135039370082
20
-3.8969772834645666
11
5.1604066535433066
21
-3.8948437007874013
0
LINE
8
BLACK
6
CONTINUOUS
10
5.1604066535433066
20
-3.8948437007874013
11
5.1641732283464563
21
-3.8940944881889763
0
LINE
8
BLACK
6
CONTINUOUS
10
5.1641732283464563
20
-3.8940944881889763
11
5.199606299212598
21
-3.8940944881889763
0
LINE
8
BLACK
6
CONTINUOUS
10
5.199606299212598
20
-3.8940944881889763
11
5.2033728740157477
21
-3.8948437007874013
0
LINE
8
BLACK
6
CONTINUOUS
10
5.289987047244094
20
-3.8948437007874013
11
5.2931801968503933
21
-3.8969772834645666
0
LINE
8
BLACK
6
CONTINUOUS
10
5.2931801968503933
20
-3.8969772834645666
11
5.2953137795275591
21
-3.900170433070866
0
LINE
8
BLACK
6
CONTINUOUS
10
5.2953137795275591
20
-3.900170433070866
11
5.2960629921259841
21
-3.9039370078740157
0
LINE
8
BLACK
6
CONTINUOUS
10
5.2960629921259841
20
-3.9039370078740157
11
5.2960629921259841
21
-3.9314960629921258
0
LINE
8
BLACK
6
CONTINUOUS
10
5.2960629921259841
20
-3.9314960629921258
11
5.2953137795275591
21
-3.9352626377952755
0
LINE
8
BLACK
6
CONTINUOUS
10
5.2953137795275591
20
-3.9352626377952755
11
5.2931801968503933
21
-3.9384557874015749
0
LINE
8
BLACK
6
CONTINUOUS
10
5.2931801968503933
20
-3.9384557874015749
11
5.289987047244094
21
-3.9405893700787402
0
LINE
8
BLACK
6
CONTINUOUS
10
5.289987047244094
20
-3.9405893700787402
11
5.2862204724409452
21
-3.9413385826771652
0
LINE
8
BLACK
6
CONTINUOUS
10
5.2862204724409452
20
-3.9413385826771652
11
5.2507874015748026
21
-3.9413385826771652
0
LINE
8
BLACK
6
CONTINUOUS
10
5.2507874015748026
20
-3.9413385826771652
11
5.2470208267716538
21
-3.9405893700787402
0
LINE
8
BLACK
6
CONTINUOUS
10
5.2470208267716538
20
-3.9405893700787402
11
5.2438276771653545
21
-3.9384557874015749
0
LINE
8
BLACK
6
CONTINUOUS
10
5.2438276771653545
20
-3.9384557874015749
11
5.2416940944881887
21
-3.9352626377952755
0
LINE
8
BLACK
6
CONTINUOUS
10
5.2416940944881887
20
-3.9352626377952755
11
5.2409448818897637
21
-3.9314960629921258
0
LINE
8
BLACK
6
CONTINUOUS
10
5.2409448818897637
20
-3.9314960629921258
11
5.2409448818897637
21
-3.9039370078740157
0
LINE
8
BLACK
6
CONTINUOUS
10
5.2409448818897637
20
-3.9039370078740157
11
5.2416940944881887
21
-3.900170433070866
0
LINE
8
BLACK
6
CONTINUOUS
10
5.2416940944881887
20
-3.900170433070866
11
5.2438276771653545
21
-3.8969772834645666
0
LINE
8
BLACK
6
CONTINUOUS
10
5.2438276771653545
20
-3.8969772834645666
11
5.2470208267716538
21
-3.8948437007874013
0
LINE
8
BLACK
6
CONTINUOUS
10
5.2470208267716538
20
-3.8948437007874013
11
5.2507874015748026
21
-3.8940944881889763
0
LINE
8
BLACK
6
CONTINUOUS
10
5.2507874015748026
20
-3.8940944881889763
11
5.2862204724409452
21
-3.8940944881889763
0
LINE
8
BLACK
6
CONTINUOUS
10
5.2862204724409452
20
-3.8940944881889763
11
5.289987047244094
21
-3.8948437007874013
0
LINE
8
BLACK
6
CONTINUOUS
10
5.4113832283464562
20
-3.9046774015748031
11
5.4120218503937005
21
-3.9051041338582677
0
LINE
8
BLACK
6
CONTINUOUS
10
5.4120218503937005
20
-3.9051041338582677
11
5.4124485826771656
21
-3.9057427559055116
0
LINE
8
BLACK
6
CONTINUOUS
10
5.4124485826771656
20
-3.9057427559055116
11
5.4125984251968502
21
-3.9064960629921259
0
LINE
8
BLACK
6
CONTINUOUS
10
5.4125984251968502
20
-3.9064960629921259
11
5.4125984251968502
21
-3.936023622047244
0
LINE
8
BLACK
6
CONTINUOUS
10
5.4125984251968502
20
-3.936023622047244
11
5.4124485826771656
21
-3.9367769291338583
0
LINE
8
BLACK
6
CONTINUOUS
10
5.4124485826771656
20
-3.9367769291338583
11
5.4120218503937005
21
-3.9374155511811022
0
LINE
8
BLACK
6
CONTINUOUS
10
5.4120218503937005
20
-3.9374155511811022
11
5.4113832283464562
21
-3.9378422834645668
0
LINE
8
BLACK
6
CONTINUOUS
10
5.4113832283464562
20
-3.9378422834645668
11
5.4106299212598428
21
-3.9379921259842519
0
LINE
8
BLACK
6
CONTINUOUS
10
5.4106299212598428
20
-3.9379921259842519
11
5.406692913385827
21
-3.9379921259842519
0
LINE
8
BLACK
6
CONTINUOUS
10
5.406692913385827
20
-3.9379921259842519
11
5.4059396062992127
21
-3.9378422834645668
0
LINE
8
BLACK
6
CONTINUOUS
10
5.4059396062992127
20
-3.9378422834645668
11
5.4053009842519684
21
-3.9374155511811022
0
LINE
8
BLACK
6
CONTINUOUS
10
5.4053009842519684
20
-3.9374155511811022
11
5.4048742519685042
21
-3.9367769291338583
0
LINE
8
BLACK
6
CONTINUOUS
10
5.4048742519685042
20
-3.9367769291338583
11
5.4047244094488187
21
-3.936023622047244
0
LINE
8
BLACK
6
CONTINUOUS
10
5.4047244094488187
20
-3.936023622047244
11
5.4047244094488187
21
-3.9064960629921259
0
LINE
8
BLACK
6
CONTINUOUS
10
5.4047244094488187
20
-3.9064960629921259
11
5.4048742519685042
21
-3.9057427559055116
0
LINE
8
BLACK
6
CONTINUOUS
10
5.4048742519685042
20
-3.9057427559055116
11
5.4053009842519684
21
-3.9051041338582677
0
LINE
8
BLACK
6
CONTINUOUS
10
5.4053009842519684
20
-3.9051041338582677
11
5.4059396062992127
21
-3.9046774015748031
0
LINE
8
BLACK
6
CONTINUOUS
10
5.4059396062992127
20
-3.9046774015748031
11
5.406692913385827
21
-3.9045275590551181
0
LINE
8
BLACK
6
CONTINUOUS
10
5.406692913385827
20
-3.9045275590551181
11
5.4106299212598428
21
-3.9045275590551181
0
LINE
8
BLACK
6
CONTINUOUS
10
5.4106299212598428
20
-3.9045275590551181
11
5.4113832283464562
21
-3.9046774015748031
0
LINE
8
BLACK
6
CONTINUOUS
10
5.4271312598425192
20
-3.9046774015748031
11
5.4277698818897635
21
-3.9051041338582677
0
LINE
8
BLACK
6
CONTINUOUS
10
5.4277698818897635
20
-3.9051041338582677
11
5.4281966141732285
21
-3.9057427559055116
0
LINE
8
BLACK
6
CONTINUOUS
10
5.4281966141732285
20
-3.9057427559055116
11
5.4283464566929132
21
-3.9064960629921259
0
LINE
8
BLACK
6
CONTINUOUS
10
5.4283464566929132
20
-3.9064960629921259
11
5.4283464566929132
21
-3.936023622047244
0
LINE
8
BLACK
6
CONTINUOUS
10
5.4283464566929132
20
-3.936023622047244
11
5.4281966141732285
21
-3.9367769291338583
0
LINE
8
BLACK
6
CONTINUOUS
10
5.4281966141732285
20
-3.9367769291338583
11
5.4277698818897635
21
-3.9374155511811022
0
LINE
8
BLACK
6
CONTINUOUS
10
5.4277698818897635
20
-3.9374155511811022
11
5.4271312598425192
21
-3.9378422834645668
0
LINE
8
BLACK
6
CONTINUOUS
10
5.4271312598425192
20
-3.9378422834645668
11
5.4263779527559057
21
-3.9379921259842519
0
LINE
8
BLACK
6
CONTINUOUS
10
5.4263779527559057
20
-3.9379921259842519
11
5.42244094488189
21
-3.9379921259842519
0
LINE
8
BLACK
6
CONTINUOUS
10
5.42244094488189
20
-3.9379921259842519
11
5.4216876377952756
21
-3.9378422834645668
0
LINE
8
BLACK
6
CONTINUOUS
10
5.4216876377952756
20
-3.9378422834645668
11
5.4210490157480313
21
-3.9374155511811022
0
LINE
8
BLACK
6
CONTINUOUS
10
5.4210490157480313
20
-3.9374155511811022
11
5.4206222834645672
21
-3.9367769291338583
0
LINE
8
BLACK
6
CONTINUOUS
10
5.4206222834645672
20
-3.9367769291338583
11
5.4204724409448817
21
-3.936023622047244
0
LINE
8
BLACK
6
CONTINUOUS
10
5.4204724409448817
20
-3.936023622047244
11
5.4204724409448817
21
-3.9064960629921259
0
LINE
8
BLACK
6
CONTINUOUS
10
5.4204724409448817
20
-3.9064960629921259
11
5.4206222834645672
21
-3.9057427559055116
0
LINE
8
BLACK
6
CONTINUOUS
10
5.4206222834645672
20
-3.9057427559055116
11
5.4210490157480313
21
-3.9051041338582677
0
LINE
8
BLACK
6
CONTINUOUS
10
5.4210490157480313
20
-3.9051041338582677
11
5.4216876377952756
21
-3.9046774015748031
0
LINE
8
BLACK
6
CONTINUOUS
10
5.4216876377952756
20
-3.9046774015748031
11
5.42244094488189
21
-3.9045275590551181
0
LINE
8
BLACK
6
CONTINUOUS
10
5.42244094488189
20
-3.9045275590551181
11
5.4263779527559057
21
-3.9045275590551181
0
LINE
8
BLACK
6
CONTINUOUS
10
5.4263779527559057
20
-3.9045275590551181
11
5.4271312598425192
21
-3.9046774015748031
0
LINE
8
BLACK
6
CONTINUOUS
10
5.4428792913385822
20
-3.9046774015748031
11
5.4435179133858265
21
-3.9051041338582677
0
LINE
8
BLACK
6
CONTINUOUS
10
5.4435179133858265
20
-3.9051041338582677
11
5.4439446456692915
21
-3.9057427559055116
0
LINE
8
BLACK
6
CONTINUOUS
10
5.4439446456692915
20
-3.9057427559055116
11
5.4440944881889761
21
-3.9064960629921259
0
LINE
8
BLACK
6
CONTINUOUS
10
5.4440944881889761
20
-3.9064960629921259
11
5.4440944881889761
21
-3.936023622047244
0
LINE
8
BLACK
6
CONTINUOUS
10
5.4440944881889761
20
-3.936023622047244
11
5.4439446456692915
21
-3.9367769291338583
0
LINE
8
BLACK
6
CONTINUOUS
10
5.4439446456692915
20
-3.9367769291338583
11
5.4435179133858265
21
-3.9374155511811022
0
LINE
8
BLACK
6
CONTINUOUS
10
5.4435179133858265
20
-3.9374155511811022
11
5.4428792913385822
21
-3.9378422834645668
0
LINE
8
BLACK
6
CONTINUOUS
10
5.4428792913385822
20
-3.9378422834645668
11
5.4421259842519687
21
-3.9379921259842519
0
LINE
8
BLACK
6
CONTINUOUS
10
5.4421259842519687
20
-3.9379921259842519
11
5.438188976377953
21
-3.9379921259842519
0
LINE
8
BLACK
6
CONTINUOUS
10
5.438188976377953
20
-3.9379921259842519
11
5.4374356692913386
21
-3.9378422834645668
0
LINE
8
BLACK
6
CONTINUOUS
10
5.4374356692913386
20
-3.9378422834645668
11
5.4367970472440943
21
-3.9374155511811022
0
LINE
8
BLACK
6
CONTINUOUS
10
5.4367970472440943
20
-3.9374155511811022
11
5.4363703149606302
21
-3.9367769291338583
0
LINE
8
BLACK
6
CONTINUOUS
10
5.4363703149606302
20
-3.9367769291338583
11
5.4362204724409446
21
-3.936023622047244
0
LINE
8
BLACK
6
CONTINUOUS
10
5.4362204724409446
20
-3.936023622047244
11
5.4362204724409446
21
-3.9064960629921259
0
LINE
8
BLACK
6
CONTINUOUS
10
5.4362204724409446
20
-3.9064960629921259
11
5.4363703149606302
21
-3.9057427559055116
0
LINE
8
BLACK
6
CONTINUOUS
10
5.4363703149606302
20
-3.9057427559055116
11
5.4367970472440943
21
-3.9051041338582677
0
LINE
8
BLACK
6
CONTINUOUS
10
5.4367970472440943
20
-3.9051041338582677
11
5.4374356692913386
21
-3.9046774015748031
0
LINE
8
BLACK
6
CONTINUOUS
10
5.4374356692913386
20
-3.9046774015748031
11
5.438188976377953
21
-3.9045275590551181
0
LINE
8
BLACK
6
CONTINUOUS
10
5.438188976377953
20
-3.9045275590551181
11
5.4421259842519687
21
-3.9045275590551181
0
LINE
8
BLACK
6
CONTINUOUS
10
5.4421259842519687
20
-3.9045275590551181
11
5.4428792913385822
21
-3.9046774015748031
0
LINE
8
BLACK
6
CONTINUOUS
10
5.4586273228346451
20
-3.9046774015748031
11
5.4592659448818894
21
-3.9051041338582677
0
LINE
8
BLACK
6
CONTINUOUS
10
5.4592659448818894
20
-3.9051041338582677
11
5.4596926771653544
21
-3.9057427559055116
0
LINE
8
BLACK
6
CONTINUOUS
10
5.4596926771653544
20
-3.9057427559055116
11
5.4598425196850391
21
-3.9064960629921259
0
LINE
8
BLACK
6
CONTINUOUS
10
5.4598425196850391
20
-3.9064960629921259
11
5.4598425196850391
21
-3.936023622047244
0
LINE
8
BLACK
6
CONTINUOUS
10
5.4598425196850391
20
-3.936023622047244
11
5.4596926771653544
21
-3.9367769291338583
0
LINE
8
BLACK
6
CONTINUOUS
10
5.4596926771653544
20
-3.9367769291338583
11
5.4592659448818894
21
-3.9374155511811022
0
LINE
8
BLACK
6
CONTINUOUS
10
5.4592659448818894
20
-3.9374155511811022
11
5.4586273228346451
21
-3.9378422834645668
0
LINE
8
BLACK
6
CONTINUOUS
10
5.4586273228346451
20
-3.9378422834645668
11
5.4578740157480317
21
-3.9379921259842519
0
LINE
8
BLACK
6
CONTINUOUS
10
5.4578740157480317
20
-3.9379921259842519
11
5.4539370078740159
21
-3.9379921259842519
0
LINE
8
BLACK
6
CONTINUOUS
10
5.4539370078740159
20
-3.9379921259842519
11
5.4531837007874016
21
-3.9378422834645668
0
LINE
8
BLACK
6
CONTINUOUS
10
5.4531837007874016
20
-3.9378422834645668
11
5.4525450787401573
21
-3.9374155511811022
0
LINE
8
BLACK
6
CONTINUOUS
10
5.4525450787401573
20
-3.9374155511811022
11
5.4521183464566931
21
-3.9367769291338583
0
LINE
8
BLACK
6
CONTINUOUS
10
5.4521183464566931
20
-3.9367769291338583
11
5.4519685039370076
21
-3.936023622047244
0
LINE
8
BLACK
6
CONTINUOUS
10
5.4519685039370076
20
-3.936023622047244
11
5.4519685039370076
21
-3.9064960629921259
0
LINE
8
BLACK
6
CONTINUOUS
10
5.4519685039370076
20
-3.9064960629921259
11
5.4521183464566931
21
-3.9057427559055116
0
LINE
8
BLACK
6
CONTINUOUS
10
5.4521183464566931
20
-3.9057427559055116
11
5.4525450787401573
21
-3.9051041338582677
0
LINE
8
BLACK
6
CONTINUOUS
10
5.4525450787401573
20
-3.9051041338582677
11
5.4531837007874016
21
-3.9046774015748031
0
LINE
8
BLACK
6
CONTINUOUS
10
5.4531837007874016
20
-3.9046774015748031
11
5.4539370078740159
21
-3.9045275590551181
0
LINE
8
BLACK
6
CONTINUOUS
10
5.4539370078740159
20
-3.9045275590551181
11
5.4578740157480317
21
-3.9045275590551181
0
LINE
8
BLACK
6
CONTINUOUS
10
5.4578740157480317
20
-3.9045275590551181
11
5.4586273228346451
21
-3.9046774015748031
0
LINE
8
BLACK
6
CONTINUOUS
10
5.4743753543307081
20
-3.9046774015748031
11
5.4750139763779524
21
-3.9051041338582677
0
LINE
8
BLACK
6
CONTINUOUS
10
5.4750139763779524
20
-3.9051041338582677
11
5.4754407086614174
21
-3.9057427559055116
0
LINE
8
BLACK
6
CONTINUOUS
10
5.4754407086614174
20
-3.9057427559055116
11
5.4755905511811021
21
-3.9064960629921259
0
LINE
8
BLACK
6
CONTINUOUS
10
5.4755905511811021
20
-3.9064960629921259
11
5.4755905511811021
21
-3.936023622047244
0
LINE
8
BLACK
6
CONTINUOUS
10
5.4755905511811021
20
-3.936023622047244
11
5.4754407086614174
21
-3.9367769291338583
0
LINE
8
BLACK
6
CONTINUOUS
10
5.4754407086614174
20
-3.9367769291338583
11
5.4750139763779524
21
-3.9374155511811022
0
LINE
8
BLACK
6
CONTINUOUS
10
5.4750139763779524
20
-3.9374155511811022
11
5.4743753543307081
21
-3.9378422834645668
0
LINE
8
BLACK
6
CONTINUOUS
10
5.4743753543307081
20
-3.9378422834645668
11
5.4736220472440946
21
-3.9379921259842519
0
LINE
8
BLACK
6
CONTINUOUS
10
5.4736220472440946
20
-3.9379921259842519
11
5.4696850393700789
21
-3.9379921259842519
0
LINE
8
BLACK
6
CONTINUOUS
10
5.4696850393700789
20
-3.9379921259842519
11
5.4689317322834645
21
-3.9378422834645668
0
LINE
8
BLACK
6
CONTINUOUS
10
5.4689317322834645
20
-3.9378422834645668
11
5.4682931102362202
21
-3.9374155511811022
0
LINE
8
BLACK
6
CONTINUOUS
10
5.4682931102362202
20
-3.9374155511811022
11
5.4678663779527561
21
-3.9367769291338583
0
LINE
8
BLACK
6
CONTINUOUS
10
5.4678663779527561
20
-3.9367769291338583
11
5.4677165354330706
21
-3.936023622047244
0
LINE
8
BLACK
6
CONTINUOUS
10
5.4677165354330706
20
-3.936023622047244
11
5.4677165354330706
21
-3.9064960629921259
0
LINE
8
BLACK
6
CONTINUOUS
10
5.4677165354330706
20
-3.9064960629921259
11
5.4678663779527561
21
-3.9057427559055116
0
LINE
8
BLACK
6
CONTINUOUS
10
5.4678663779527561
20
-3.9057427559055116
11
5.4682931102362202
21
-3.9051041338582677
0
LINE
8
BLACK
6
CONTINUOUS
10
5.4682931102362202
20
-3.9051041338582677
11
5.4689317322834645
21
-3.9046774015748031
0
LINE
8
BLACK
6
CONTINUOUS
10
5.4689317322834645
20
-3.9046774015748031
11
5.4696850393700789
21
-3.9045275590551181
0
LINE
8
BLACK
6
CONTINUOUS
10
5.4696850393700789
20
-3.9045275590551181
11
5.4736220472440946
21
-3.9045275590551181
0
LINE
8
BLACK
6
CONTINUOUS
10
5.4736220472440946
20
-3.9045275590551181
11
5.4743753543307081
21
-3.9046774015748031
0
LINE
8
BLACK
6
CONTINUOUS
10
5.3985879527559053
20
-3.8918821259842518
11
5.3992265748031496
21
-3.8923088582677163
0
LINE
8
BLACK
6
CONTINUOUS
10
5.3992265748031496
20
-3.8923088582677163
11
5.3996533070866137
21
-3.8929474803149606
0
LINE
8
BLACK
6
CONTINUOUS
10
5.3996533070866137
20
-3.8929474803149606
11
5.3998031496062993
21
-3.8937007874015745
0
LINE
8
BLACK
6
CONTINUOUS
10
5.3998031496062993
20
-3.8937007874015745
11
5.3998031496062993
21
-3.8976377952755903
0
LINE
8
BLACK
6
CONTINUOUS
10
5.3998031496062993
20
-3.8976377952755903
11
5.3996533070866137
21
-3.8983911023622047
0
LINE
8
BLACK
6
CONTINUOUS
10
5.3996533070866137
20
-3.8983911023622047
11
5.3992265748031496
21
-3.8990297244094489
0
LINE
8
BLACK
6
CONTINUOUS
10
5.3992265748031496
20
-3.8990297244094489
11
5.3985879527559053
21
-3.8994564566929131
0
LINE
8
BLACK
6
CONTINUOUS
10
5.3985879527559053
20
-3.8994564566929131
11
5.3978346456692909
21
-3.8996062992125982
0
LINE
8
BLACK
6
CONTINUOUS
10
5.3978346456692909
20
-3.8996062992125982
11
5.3683070866141733
21
-3.8996062992125982
0
LINE
8
BLACK
6
CONTINUOUS
10
5.3683070866141733
20
-3.8996062992125982
11
5.367553779527559
21
-3.8994564566929131
0
LINE
8
BLACK
6
CONTINUOUS
10
5.367553779527559
20
-3.8994564566929131
11
5.3669151574803147
21
-3.8990297244094489
0
LINE
8
BLACK
6
CONTINUOUS
10
5.3669151574803147
20
-3.8990297244094489
11
5.3664884251968505
21
-3.8983911023622047
0
LINE
8
BLACK
6
CONTINUOUS
10
5.3664884251968505
20
-3.8983911023622047
11
5.366338582677165
21
-3.8976377952755903
0
LINE
8
BLACK
6
CONTINUOUS
10
5.366338582677165
20
-3.8976377952755903
11
5.366338582677165
21
-3.8937007874015745
0
LINE
8
BLACK
6
CONTINUOUS
10
5.366338582677165
20
-3.8937007874015745
11
5.3664884251968505
21
-3.8929474803149606
0
LINE
8
BLACK
6
CONTINUOUS
10
5.3664884251968505
20
-3.8929474803149606
11
5.3669151574803147
21
-3.8923088582677163
0
LINE
8
BLACK
6
CONTINUOUS
10
5.3669151574803147
20
-3.8923088582677163
11
5.367553779527559
21
-3.8918821259842518
0
LINE
8
BLACK
6
CONTINUOUS
10
5.367553779527559
20
-3.8918821259842518
11
5.3683070866141733
21
-3.8917322834645667
0
LINE
8
BLACK
6
CONTINUOUS
10
5.3683070866141733
20
-3.8917322834645667
11
5.3978346456692909
21
-3.8917322834645667
0
LINE
8
BLACK
6
CONTINUOUS
10
5.3978346456692909
20
-3.8917322834645667
11
5.3985879527559053
21
-3.8918821259842518
0
LINE
8
BLACK
6
CONTINUOUS
10
5.5127611811023618
20
-3.8918821259842518
11
5.5133998031496061
21
-3.8923088582677163
0
LINE
8
BLACK
6
CONTINUOUS
10
5.5133998031496061
20
-3.8923088582677163
11
5.5138265354330711
21
-3.8929474803149606
0
LINE
8
BLACK
6
CONTINUOUS
10
5.5138265354330711
20
-3.8929474803149606
11
5.5139763779527557
21
-3.8937007874015745
0
LINE
8
BLACK
6
CONTINUOUS
10
5.5139763779527557
20
-3.8937007874015745
11
5.5139763779527557
21
-3.8976377952755903
0
LINE
8
BLACK
6
CONTINUOUS
10
5.5139763779527557
20
-3.8976377952755903
11
5.5138265354330711
21
-3.8983911023622047
0
LINE
8
BLACK
6
CONTINUOUS
10
5.5138265354330711
20
-3.8983911023622047
11
5.5133998031496061
21
-3.8990297244094489
0
LINE
8
BLACK
6
CONTINUOUS
10
5.5133998031496061
20
-3.8990297244094489
11
5.5127611811023618
21
-3.8994564566929131
0
LINE
8
BLACK
6
CONTINUOUS
10
5.5127611811023618
20
-3.8994564566929131
11
5.5120078740157483
21
-3.8996062992125982
0
LINE
8
BLACK
6
CONTINUOUS
10
5.5120078740157483
20
-3.8996062992125982
11
5.4824803149606298
21
-3.8996062992125982
0
LINE
8
BLACK
6
CONTINUOUS
10
5.4824803149606298
20
-3.8996062992125982
11
5.4817270078740155
21
-3.8994564566929131
0
LINE
8
BLACK
6
CONTINUOUS
10
5.4817270078740155
20
-3.8994564566929131
11
5.4810883858267712
21
-3.8990297244094489
0
LINE
8
BLACK
6
CONTINUOUS
10
5.4810883858267712
20
-3.8990297244094489
11
5.480661653543307
21
-3.8983911023622047
0
LINE
8
BLACK
6
CONTINUOUS
10
5.480661653543307
20
-3.8983911023622047
11
5.4805118110236215
21
-3.8976377952755903
0
LINE
8
BLACK
6
CONTINUOUS
10
5.4805118110236215
20
-3.8976377952755903
11
5.4805118110236215
21
-3.8937007874015745
0
LINE
8
BLACK
6
CONTINUOUS
10
5.4805118110236215
20
-3.8937007874015745
11
5.480661653543307
21
-3.8929474803149606
0
LINE
8
BLACK
6
CONTINUOUS
10
5.480661653543307
20
-3.8929474803149606
11
5.4810883858267712
21
-3.8923088582677163
0
LINE
8
BLACK
6
CONTINUOUS
10
5.4810883858267712
20
-3.8923088582677163
11
5.4817270078740155
21
-3.8918821259842518
0
LINE
8
BLACK
6
CONTINUOUS
10
5.4817270078740155
20
-3.8918821259842518
11
5.4824803149606298
21
-3.8917322834645667
0
LINE
8
BLACK
6
CONTINUOUS
10
5.4824803149606298
20
-3.8917322834645667
11
5.5120078740157483
21
-3.8917322834645667
0
LINE
8
BLACK
6
CONTINUOUS
10
5.5120078740157483
20
-3.8917322834645667
11
5.5127611811023618
21
-3.8918821259842518
0
LINE
8
BLACK
6
CONTINUOUS
10
5.4331338188976375
20
-3.8676279527559054
11
5.4352732283464569
21
-3.8690574803149604
0
LINE
8
BLACK
6
CONTINUOUS
10
5.4352732283464569
20
-3.8690574803149604
11
5.4367027559055119
21
-3.8711968897637794
0
LINE
8
BLACK
6
CONTINUOUS
10
5.4367027559055119
20
-3.8711968897637794
11
5.4372047244094484
21
-3.8737204724409446
0
LINE
8
BLACK
6
CONTINUOUS
10
5.4372047244094484
20
-3.8737204724409446
11
5.4372047244094484
21
-3.8869094488188973
0
LINE
8
BLACK
6
CONTINUOUS
10
5.4372047244094484
20
-3.8869094488188973
11
5.4367027559055119
21
-3.889433031496063
0
LINE
8
BLACK
6
CONTINUOUS
10
5.4367027559055119
20
-3.889433031496063
11
5.4352732283464569
21
-3.891572440944882
0
LINE
8
BLACK
6
CONTINUOUS
10
5.4352732283464569
20
-3.891572440944882
11
5.4331338188976375
21
-3.893001968503937
0
LINE
8
BLACK
6
CONTINUOUS
10
5.4331338188976375
20
-3.893001968503937
11
5.4306102362204722
21
-3.8935039370078739
0
LINE
8
BLACK
6
CONTINUOUS
10
5.4306102362204722
20
-3.8935039370078739
11
5.41742125984252
21
-3.8935039370078739
0
LINE
8
BLACK
6
CONTINUOUS
10
5.41742125984252
20
-3.8935039370078739
11
5.4148976771653539
21
-3.893001968503937
0
LINE
8
BLACK
6
CONTINUOUS
10
5.4148976771653539
20
-3.893001968503937
11
5.4127582677165353
21
-3.891572440944882
0
LINE
8
BLACK
6
CONTINUOUS
10
5.4127582677165353
20
-3.891572440944882
11
5.4113287401574803
21
-3.889433031496063
0
LINE
8
BLACK
6
CONTINUOUS
10
5.4113287401574803
20
-3.889433031496063
11
5.410826771653543
21
-3.8869094488188973
0
LINE
8
BLACK
6
CONTINUOUS
10
5.410826771653543
20
-3.8869094488188973
11
5.410826771653543
21
-3.8737204724409446
0
LINE
8
BLACK
6
CONTINUOUS
10
5.410826771653543
20
-3.8737204724409446
11
5.4113287401574803
21
-3.8711968897637794
0
LINE
8
BLACK
6
CONTINUOUS
10
5.4113287401574803
20
-3.8711968897637794
11
5.4127582677165353
21
-3.8690574803149604
0
LINE
8
BLACK
6
CONTINUOUS
10
5.4127582677165353
20
-3.8690574803149604
11
5.4148976771653539
21
-3.8676279527559054
0
LINE
8
BLACK
6
CONTINUOUS
10
5.4148976771653539
20
-3.8676279527559054
11
5.41742125984252
21
-3.8671259842519685
0
LINE
8
BLACK
6
CONTINUOUS
10
5.41742125984252
20
-3.8671259842519685
11
5.4306102362204722
21
-3.8671259842519685
0
LINE
8
BLACK
6
CONTINUOUS
10
5.4306102362204722
20
-3.8671259842519685
11
5.4331338188976375
21
-3.8676279527559054
0
LINE
8
BLACK
6
CONTINUOUS
10
5.4654172834645669
20
-3.8676279527559054
11
5.4675566929133854
21
-3.8690574803149604
0
LINE
8
BLACK
6
CONTINUOUS
10
5.4675566929133854
20
-3.8690574803149604
11
5.4689862204724404
21
-3.8711968897637794
0
LINE
8
BLACK
6
CONTINUOUS
10
5.4689862204724404
20
-3.8711968897637794
11
5.4694881889763778
21
-3.8737204724409446
0
LINE
8
BLACK
6
CONTINUOUS
10
5.4694881889763778
20
-3.8737204724409446
11
5.4694881889763778
21
-3.8869094488188973
0
LINE
8
BLACK
6
CONTINUOUS
10
5.4694881889763778
20
-3.8869094488188973
11
5.4689862204724404
21
-3.889433031496063
0
LINE
8
BLACK
6
CONTINUOUS
10
5.4689862204724404
20
-3.889433031496063
11
5.4675566929133854
21
-3.891572440944882
0
LINE
8
BLACK
6
CONTINUOUS
10
5.4675566929133854
20
-3.891572440944882
11
5.4654172834645669
21
-3.893001968503937
0
LINE
8
BLACK
6
CONTINUOUS
10
5.4654172834645669
20
-3.893001968503937
11
5.4628937007874017
21
-3.8935039370078739
0
LINE
8
BLACK
6
CONTINUOUS
10
5.4628937007874017
20
-3.8935039370078739
11
5.4497047244094485
21
-3.8935039370078739
0
LINE
8
BLACK
6
CONTINUOUS
10
5.4497047244094485
20
-3.8935039370078739
11
5.4471811417322833
21
-3.893001968503937
0
LINE
8
BLACK
6
CONTINUOUS
10
5.4471811417322833
20
-3.893001968503937
11
5.4450417322834648
21
-3.891572440944882
0
LINE
8
BLACK
6
CONTINUOUS
10
5.4450417322834648
20
-3.891572440944882
11
5.4436122047244098
21
-3.889433031496063
0
LINE
8
BLACK
6
CONTINUOUS
10
5.4436122047244098
20
-3.889433031496063
11
5.4431102362204724
21
-3.8869094488188973
0
LINE
8
BLACK
6
CONTINUOUS
10
5.4431102362204724
20
-3.8869094488188973
11
5.4431102362204724
21
-3.8737204724409446
0
LINE
8
BLACK
6
CONTINUOUS
10
5.4431102362204724
20
-3.8737204724409446
11
5.4436122047244098
21
-3.8711968897637794
0
LINE
8
BLACK
6
CONTINUOUS
10
5.4436122047244098
20
-3.8711968897637794
11
5.4450417322834648
21
-3.8690574803149604
0
LINE
8
BLACK
6
CONTINUOUS
10
5.4450417322834648
20
-3.8690574803149604
11
5.4471811417322833
21
-3.8676279527559054
0
LINE
8
BLACK
6
CONTINUOUS
10
5.4471811417322833
20
-3.8676279527559054
11
5.4497047244094485
21
-3.8671259842519685
0
LINE
8
BLACK
6
CONTINUOUS
10
5.4497047244094485
20
-3.8671259842519685
11
5.4628937007874017
21
-3.8671259842519685
0
LINE
8
BLACK
6
CONTINUOUS
10
5.4628937007874017
20
-3.8671259842519685
11
5.4654172834645669
21
-3.8676279527559054
0
LINE
8
BLACK
6
CONTINUOUS
10
5.3985879527559053
20
-3.8761340944881888
11
5.3992265748031496
21
-3.8765608267716534
0
LINE
8
BLACK
6
CONTINUOUS
10
5.3992265748031496
20
-3.8765608267716534
11
5.3996533070866137
21
-3.8771994488188977
0
LINE
8
BLACK
6
CONTINUOUS
10
5.3996533070866137
20
-3.8771994488188977
11
5.3998031496062993
21
-3.8779527559055116
0
LINE
8
BLACK
6
CONTINUOUS
10
5.3998031496062993
20
-3.8779527559055116
11
5.3998031496062993
21
-3.8818897637795273
0
LINE
8
BLACK
6
CONTINUOUS
10
5.3998031496062993
20
-3.8818897637795273
11
5.3996533070866137
21
-3.8826430708661417
0
LINE
8
BLACK
6
CONTINUOUS
10
5.3996533070866137
20
-3.8826430708661417
11
5.3992265748031496
21
-3.8832816929133855
0
LINE
8
BLACK
6
CONTINUOUS
10
5.3992265748031496
20
-3.8832816929133855
11
5.3985879527559053
21
-3.8837084251968501
0
LINE
8
BLACK
6
CONTINUOUS
10
5.3985879527559053
20
-3.8837084251968501
11
5.3978346456692909
21
-3.8838582677165352
0
LINE
8
BLACK
6
CONTINUOUS
10
5.3978346456692909
20
-3.8838582677165352
11
5.3683070866141733
21
-3.8838582677165352
0
LINE
8
BLACK
6
CONTINUOUS
10
5.3683070866141733
20
-3.8838582677165352
11
5.367553779527559
21
-3.8837084251968501
0
LINE
8
BLACK
6
CONTINUOUS
10
5.367553779527559
20
-3.8837084251968501
11
5.3669151574803147
21
-3.8832816929133855
0
LINE
8
BLACK
6
CONTINUOUS
10
5.3669151574803147
20
-3.8832816929133855
11
5.3664884251968505
21
-3.8826430708661417
0
LINE
8
BLACK
6
CONTINUOUS
10
5.3664884251968505
20
-3.8826430708661417
11
5.366338582677165
21
-3.8818897637795273
0
LINE
8
BLACK
6
CONTINUOUS
10
5.366338582677165
20
-3.8818897637795273
11
5.366338582677165
21
-3.8779527559055116
0
LINE
8
BLACK
6
CONTINUOUS
10
5.366338582677165
20
-3.8779527559055116
11
5.3664884251968505
21
-3.8771994488188977
0
LINE
8
BLACK
6
CONTINUOUS
10
5.3664884251968505
20
-3.8771994488188977
11
5.3669151574803147
21
-3.8765608267716534
0
LINE
8
BLACK
6
CONTINUOUS
10
5.3669151574803147
20
-3.8765608267716534
11
5.367553779527559
21
-3.8761340944881888
0
LINE
8
BLACK
6
CONTINUOUS
10
5.367553779527559
20
-3.8761340944881888
11
5.3683070866141733
21
-3.8759842519685037
0
LINE
8
BLACK
6
CONTINUOUS
10
5.3683070866141733
20
-3.8759842519685037
11
5.3978346456692909
21
-3.8759842519685037
0
LINE
8
BLACK
6
CONTINUOUS
10
5.3978346456692909
20
-3.8759842519685037
11
5.3985879527559053
21
-3.8761340944881888
0
LINE
8
BLACK
6
CONTINUOUS
10
5.5127611811023618
20
-3.8761340944881888
11
5.5133998031496061
21
-3.8765608267716534
0
LINE
8
BLACK
6
CONTINUOUS
10
5.5133998031496061
20
-3.8765608267716534
11
5.5138265354330711
21
-3.8771994488188977
0
LINE
8
BLACK
6
CONTINUOUS
10
5.5138265354330711
20
-3.8771994488188977
11
5.5139763779527557
21
-3.8779527559055116
0
LINE
8
BLACK
6
CONTINUOUS
10
5.5139763779527557
20
-3.8779527559055116
11
5.5139763779527557
21
-3.8818897637795273
0
LINE
8
BLACK
6
CONTINUOUS
10
5.5139763779527557
20
-3.8818897637795273
11
5.5138265354330711
21
-3.8826430708661417
0
LINE
8
BLACK
6
CONTINUOUS
10
5.5138265354330711
20
-3.8826430708661417
11
5.5133998031496061
21
-3.8832816929133855
0
LINE
8
BLACK
6
CONTINUOUS
10
5.5133998031496061
20
-3.8832816929133855
11
5.5127611811023618
21
-3.8837084251968501
0
LINE
8
BLACK
6
CONTINUOUS
10
5.5127611811023618
20
-3.8837084251968501
11
5.5120078740157483
21
-3.8838582677165352
0
LINE
8
BLACK
6
CONTINUOUS
10
5.5120078740157483
20
-3.8838582677165352
11
5.4824803149606298
21
-3.8838582677165352
0
LINE
8
BLACK
6
CONTINUOUS
10
5.4824803149606298
20
-3.8838582677165352
11
5.4817270078740155
21
-3.8837084251968501
0
LINE
8
BLACK
6
CONTINUOUS
10
5.4817270078740155
20
-3.8837084251968501
11
5.4810883858267712
21
-3.8832816929133855
0
LINE
8
BLACK
6
CONTINUOUS
10
5.4810883858267712
20
-3.8832816929133855
11
5.480661653543307
21
-3.8826430708661417
0
LINE
8
BLACK
6
CONTINUOUS
10
5.480661653543307
20
-3.8826430708661417
11
5.4805118110236215
21
-3.8818897637795273
0
LINE
8
BLACK
6
CONTINUOUS
10
5.4805118110236215
20
-3.8818897637795273
11
5.4805118110236215
21
-3.8779527559055116
0
LINE
8
BLACK
6
CONTINUOUS
10
5.4805118110236215
20
-3.8779527559055116
11
5.480661653543307
21
-3.8771994488188977
0
LINE
8
BLACK
6
CONTINUOUS
10
5.480661653543307
20
-3.8771994488188977
11
5.4810883858267712
21
-3.8765608267716534
0
LINE
8
BLACK
6
CONTINUOUS
10
5.4810883858267712
20
-3.8765608267716534
11
5.4817270078740155
21
-3.8761340944881888
0
LINE
8
BLACK
6
CONTINUOUS
10
5.4817270078740155
20
-3.8761340944881888
11
5.4824803149606298
21
-3.8759842519685037
0
LINE
8
BLACK
6
CONTINUOUS
10
5.4824803149606298
20
-3.8759842519685037
11
5.5120078740157483
21
-3.8759842519685037
0
LINE
8
BLACK
6
CONTINUOUS
10
5.5120078740157483
20
-3.8759842519685037
11
5.5127611811023618
21
-3.8761340944881888
0
LINE
8
BLACK
6
CONTINUOUS
10
5.1273061417322836
20
-3.851206968503937
11
5.1290942913385829
21
-3.8524017716535432
0
LINE
8
BLACK
6
CONTINUOUS
10
5.1290942913385829
20
-3.8524017716535432
11
5.1302890944881891
21
-3.8541899212598425
0
LINE
8
BLACK
6
CONTINUOUS
10
5.1302890944881891
20
-3.8541899212598425
11
5.130708661417323
21
-3.856299212598425
0
LINE
8
BLACK
6
CONTINUOUS
10
5.130708661417323
20
-3.856299212598425
11
5.130708661417323
21
-3.8696850393700788
0
LINE
8
BLACK
6
CONTINUOUS
10
5.130708661417323
20
-3.8696850393700788
11
5.1302890944881891
21
-3.8717943307086613
0
LINE
8
BLACK
6
CONTINUOUS
10
5.1302890944881891
20
-3.8717943307086613
11
5.1290942913385829
21
-3.8735824803149606
0
LINE
8
BLACK
6
CONTINUOUS
10
5.1290942913385829
20
-3.8735824803149606
11
5.1273061417322836
21
-3.8747772834645668
0
LINE
8
BLACK
6
CONTINUOUS
10
5.1273061417322836
20
-3.8747772834645668
11
5.1251968503937011
21
-3.8751968503937007
0
LINE
8
BLACK
6
CONTINUOUS
10
5.1251968503937011
20
-3.8751968503937007
11
5.1141732283464565
21
-3.8751968503937007
0
LINE
8
BLACK
6
CONTINUOUS
10
5.1141732283464565
20
-3.8751968503937007
11
5.112063937007874
21
-3.8747772834645668
0
LINE
8
BLACK
6
CONTINUOUS
10
5.112063937007874
20
-3.8747772834645668
11
5.1102757874015747
21
-3.8735824803149606
0
LINE
8
BLACK
6
CONTINUOUS
10
5.1102757874015747
20
-3.8735824803149606
11
5.1090809842519684
21
-3.8717943307086613
0
LINE
8
BLACK
6
CONTINUOUS
10
5.1090809842519684
20
-3.8717943307086613
11
5.1086614173228346
21
-3.8696850393700788
0
LINE
8
BLACK
6
CONTINUOUS
10
5.1086614173228346
20
-3.8696850393700788
11
5.1086614173228346
21
-3.856299212598425
0
LINE
8
BLACK
6
CONTINUOUS
10
5.1086614173228346
20
-3.856299212598425
11
5.1090809842519684
21
-3.8541899212598425
0
LINE
8
BLACK
6
CONTINUOUS
10
5.1090809842519684
20
-3.8541899212598425
11
5.1102757874015747
21
-3.8524017716535432
0
LINE
8
BLACK
6
CONTINUOUS
10
5.1102757874015747
20
-3.8524017716535432
11
5.112063937007874
21
-3.851206968503937
0
LINE
8
BLACK
6
CONTINUOUS
10
5.112063937007874
20
-3.851206968503937
11
5.1141732283464565
21
-3.8507874015748031
0
LINE
8
BLACK
6
CONTINUOUS
10
5.1141732283464565
20
-3.8507874015748031
11
5.1251968503937011
21
-3.8507874015748031
0
LINE
8
BLACK
6
CONTINUOUS
10
5.1251968503937011
20
-3.8507874015748031
11
5.1273061417322836
21
-3.851206968503937
0
LINE
8
BLACK
6
CONTINUOUS
10
5.1651014173228349
20
-3.851206968503937
11
5.1668895669291341
21
-3.8524017716535432
0
LINE
8
BLACK
6
CONTINUOUS
10
5.1668895669291341
20
-3.8524017716535432
11
5.1680843700787404
21
-3.8541899212598425
0
LINE
8
BLACK
6
CONTINUOUS
10
5.1680843700787404
20
-3.8541899212598425
11
5.1685039370078742
21
-3.856299212598425
0
LINE
8
BLACK
6
CONTINUOUS
10
5.1685039370078742
20
-3.856299212598425
11
5.1685039370078742
21
-3.8696850393700788
0
LINE
8
BLACK
6
CONTINUOUS
10
5.1685039370078742
20
-3.8696850393700788
11
5.1680843700787404
21
-3.8717943307086613
0
LINE
8
BLACK
6
CONTINUOUS
10
5.1680843700787404
20
-3.8717943307086613
11
5.1668895669291341
21
-3.8735824803149606
0
LINE
8
BLACK
6
CONTINUOUS
10
5.1668895669291341
20
-3.8735824803149606
11
5.1651014173228349
21
-3.8747772834645668
0
LINE
8
BLACK
6
CONTINUOUS
10
5.1651014173228349
20
-3.8747772834645668
11
5.1629921259842515
21
-3.8751968503937007
0
LINE
8
BLACK
6
CONTINUOUS
10
5.1629921259842515
20
-3.8751968503937007
11
5.1519685039370078
21
-3.8751968503937007
0
LINE
8
BLACK
6
CONTINUOUS
10
5.1519685039370078
20
-3.8751968503937007
11
5.1498592125984253
21
-3.8747772834645668
0
LINE
8
BLACK
6
CONTINUOUS
10
5.1498592125984253
20
-3.8747772834645668
11
5.148071062992126
21
-3.8735824803149606
0
LINE
8
BLACK
6
CONTINUOUS
10
5.148071062992126
20
-3.8735824803149606
11
5.1468762598425197
21
-3.8717943307086613
0
LINE
8
BLACK
6
CONTINUOUS
10
5.1468762598425197
20
-3.8717943307086613
11
5.1464566929133859
21
-3.8696850393700788
0
LINE
8
BLACK
6
CONTINUOUS
10
5.1464566929133859
20
-3.8696850393700788
11
5.1464566929133859
21
-3.856299212598425
0
LINE
8
BLACK
6
CONTINUOUS
10
5.1464566929133859
20
-3.856299212598425
11
5.1468762598425197
21
-3.8541899212598425
0
LINE
8
BLACK
6
CONTINUOUS
10
5.1468762598425197
20
-3.8541899212598425
11
5.148071062992126
21
-3.8524017716535432
0
LINE
8
BLACK
6
CONTINUOUS
10
5.148071062992126
20
-3.8524017716535432
11
5.1498592125984253
21
-3.851206968503937
0
LINE
8
BLACK
6
CONTINUOUS
10
5.1498592125984253
20
-3.851206968503937
11
5.1519685039370078
21
-3.8507874015748031
0
LINE
8
BLACK
6
CONTINUOUS
10
5.1519685039370078
20
-3.8507874015748031
11
5.1629921259842515
21
-3.8507874015748031
0
LINE
8
BLACK
6
CONTINUOUS
10
5.1629921259842515
20
-3.8507874015748031
11
5.1651014173228349
21
-3.851206968503937
0
LINE
8
BLACK
6
CONTINUOUS
10
5.6278505118110234
20
-3.8081266929133859
11
5.6297663779527554
21
-3.8094068503937009
0
LINE
8
BLACK
6
CONTINUOUS
10
5.6297663779527554
20
-3.8094068503937009
11
5.6310465354330708
21
-3.8113227165354329
0
LINE
8
BLACK
6
CONTINUOUS
10
5.6310465354330708
20
-3.8113227165354329
11
5.6314960629921256
21
-3.8135826771653543
0
LINE
8
BLACK
6
CONTINUOUS
10
5.6314960629921256
20
-3.8135826771653543
11
5.6314960629921256
21
-3.862795275590551
0
LINE
8
BLACK
6
CONTINUOUS
10
5.6314960629921256
20
-3.862795275590551
11
5.6310465354330708
21
-3.8650552362204724
0
LINE
8
BLACK
6
CONTINUOUS
10
5.6310465354330708
20
-3.8650552362204724
11
5.6297663779527554
21
-3.8669711023622044
0
LINE
8
BLACK
6
CONTINUOUS
10
5.6297663779527554
20
-3.8669711023622044
11
5.6278505118110234
21
-3.8682512598425194
0
LINE
8
BLACK
6
CONTINUOUS
10
5.6278505118110234
20
-3.8682512598425194
11
5.6255905511811024
21
-3.8687007874015746
0
LINE
8
BLACK
6
CONTINUOUS
10
5.6255905511811024
20
-3.8687007874015746
11
5.6137795275590552
21
-3.8687007874015746
0
LINE
8
BLACK
6
CONTINUOUS
10
5.6137795275590552
20
-3.8687007874015746
11
5.6115195669291333
21
-3.8682512598425194
0
LINE
8
BLACK
6
CONTINUOUS
10
5.6115195669291333
20
-3.8682512598425194
11
5.6096037007874013
21
-3.8669711023622044
0
LINE
8
BLACK
6
CONTINUOUS
10
5.6096037007874013
20
-3.8669711023622044
11
5.6083235433070868
21
-3.8650552362204724
0
LINE
8
BLACK
6
CONTINUOUS
10
5.6083235433070868
20
-3.8650552362204724
11
5.6078740157480311
21
-3.862795275590551
0
LINE
8
BLACK
6
CONTINUOUS
10
5.6078740157480311
20
-3.862795275590551
11
5.6078740157480311
21
-3.8135826771653543
0
LINE
8
BLACK
6
CONTINUOUS
10
5.6078740157480311
20
-3.8135826771653543
11
5.6083235433070868
21
-3.8113227165354329
0
LINE
8
BLACK
6
CONTINUOUS
10
5.6083235433070868
20
-3.8113227165354329
11
5.6096037007874013
21
-3.8094068503937009
0
LINE
8
BLACK
6
CONTINUOUS
10
5.6096037007874013
20
-3.8094068503937009
11
5.6115195669291333
21
-3.8081266929133859
0
LINE
8
BLACK
6
CONTINUOUS
10
5.6115195669291333
20
-3.8081266929133859
11
5.6137795275590552
21
-3.8076771653543307
0
LINE
8
BLACK
6
CONTINUOUS
10
5.6137795275590552
20
-3.8076771653543307
11
5.6255905511811024
21
-3.8076771653543307
0
LINE
8
BLACK
6
CONTINUOUS
10
5.6255905511811024
20
-3.8076771653543307
11
5.6278505118110234
21
-3.8081266929133859
0
LINE
8
BLACK
6
CONTINUOUS
10
5.6672205905511808
20
-3.8081266929133859
11
5.6691364566929137
21
-3.8094068503937009
0
LINE
8
BLACK
6
CONTINUOUS
10
5.6691364566929137
20
-3.8094068503937009
11
5.6704166141732282
21
-3.8113227165354329
0
LINE
8
BLACK
6
CONTINUOUS
10
5.6704166141732282
20
-3.8113227165354329
11
5.670866141732283
21
-3.8135826771653543
0
LINE
8
BLACK
6
CONTINUOUS
10
5.670866141732283
20
-3.8135826771653543
11
5.670866141732283
21
-3.862795275590551
0
LINE
8
BLACK
6
CONTINUOUS
10
5.670866141732283
20
-3.862795275590551
11
5.6704166141732282
21
-3.8650552362204724
0
LINE
8
BLACK
6
CONTINUOUS
10
5.6704166141732282
20
-3.8650552362204724
11
5.6691364566929137
21
-3.8669711023622044
0
LINE
8
BLACK
6
CONTINUOUS
10
5.6691364566929137
20
-3.8669711023622044
11
5.6672205905511808
21
-3.8682512598425194
0
LINE
8
BLACK
6
CONTINUOUS
10
5.6672205905511808
20
-3.8682512598425194
11
5.6649606299212598
21
-3.8687007874015746
0
LINE
8
BLACK
6
CONTINUOUS
10
5.6649606299212598
20
-3.8687007874015746
11
5.6531496062992126
21
-3.8687007874015746
0
LINE
8
BLACK
6
CONTINUOUS
10
5.6531496062992126
20
-3.8687007874015746
11
5.6508896456692916
21
-3.8682512598425194
0
LINE
8
BLACK
6
CONTINUOUS
10
5.6508896456692916
20
-3.8682512598425194
11
5.6489737795275587
21
-3.8669711023622044
0
LINE
8
BLACK
6
CONTINUOUS
10
5.6489737795275587
20
-3.8669711023622044
11
5.6476936220472442
21
-3.8650552362204724
0
LINE
8
BLACK
6
CONTINUOUS
10
5.6476936220472442
20
-3.8650552362204724
11
5.6472440944881885
21
-3.862795275590551
0
LINE
8
BLACK
6
CONTINUOUS
10
5.6472440944881885
20
-3.862795275590551
11
5.6472440944881885
21
-3.8135826771653543
0
LINE
8
BLACK
6
CONTINUOUS
10
5.6472440944881885
20
-3.8135826771653543
11
5.6476936220472442
21
-3.8113227165354329
0
LINE
8
BLACK
6
CONTINUOUS
10
5.6476936220472442
20
-3.8113227165354329
11
5.6489737795275587
21
-3.8094068503937009
0
LINE
8
BLACK
6
CONTINUOUS
10
5.6489737795275587
20
-3.8094068503937009
11
5.6508896456692916
21
-3.8081266929133859
0
LINE
8
BLACK
6
CONTINUOUS
10
5.6508896456692916
20
-3.8081266929133859
11
5.6531496062992126
21
-3.8076771653543307
0
LINE
8
BLACK
6
CONTINUOUS
10
5.6531496062992126
20
-3.8076771653543307
11
5.6649606299212598
21
-3.8076771653543307
0
LINE
8
BLACK
6
CONTINUOUS
10
5.6649606299212598
20
-3.8076771653543307
11
5.6672205905511808
21
-3.8081266929133859
0
LINE
8
BLACK
6
CONTINUOUS
10
5.7065906692913382
20
-3.8081266929133859
11
5.7085065354330711
21
-3.8094068503937009
0
LINE
8
BLACK
6
CONTINUOUS
10
5.7085065354330711
20
-3.8094068503937009
11
5.7097866929133856
21
-3.8113227165354329
0
LINE
8
BLACK
6
CONTINUOUS
10
5.7097866929133856
20
-3.8113227165354329
11
5.7102362204724404
21
-3.8135826771653543
0
LINE
8
BLACK
6
CONTINUOUS
10
5.7102362204724404
20
-3.8135826771653543
11
5.7102362204724404
21
-3.862795275590551
0
LINE
8
BLACK
6
CONTINUOUS
10
5.7102362204724404
20
-3.862795275590551
11
5.7097866929133856
21
-3.8650552362204724
0
LINE
8
BLACK
6
CONTINUOUS
10
5.7097866929133856
20
-3.8650552362204724
11
5.7085065354330711
21
-3.8669711023622044
0
LINE
8
BLACK
6
CONTINUOUS
10
5.7085065354330711
20
-3.8669711023622044
11
5.7065906692913382
21
-3.8682512598425194
0
LINE
8
BLACK
6
CONTINUOUS
10
5.7065906692913382
20
-3.8682512598425194
11
5.7043307086614172
21
-3.8687007874015746
0
LINE
8
BLACK
6
CONTINUOUS
10
5.7043307086614172
20
-3.8687007874015746
11
5.69251968503937
21
-3.8687007874015746
0
LINE
8
BLACK
6
CONTINUOUS
10
5.69251968503937
20
-3.8687007874015746
11
5.690259724409449
21
-3.8682512598425194
0
LINE
8
BLACK
6
CONTINUOUS
10
5.690259724409449
20
-3.8682512598425194
11
5.6883438582677162
21
-3.8669711023622044
0
LINE
8
BLACK
6
CONTINUOUS
10
5.6883438582677162
20
-3.8669711023622044
11
5.6870637007874016
21
-3.8650552362204724
0
LINE
8
BLACK
6
CONTINUOUS
10
5.6870637007874016
20
-3.8650552362204724
11
5.6866141732283459
21
-3.862795275590551
0
LINE
8
BLACK
6
CONTINUOUS
10
5.6866141732283459
20
-3.862795275590551
11
5.6866141732283459
21
-3.8135826771653543
0
LINE
8
BLACK
6
CONTINUOUS
10
5.6866141732283459
20
-3.8135826771653543
11
5.6870637007874016
21
-3.8113227165354329
0
LINE
8
BLACK
6
CONTINUOUS
10
5.6870637007874016
20
-3.8113227165354329
11
5.6883438582677162
21
-3.8094068503937009
0
LINE
8
BLACK
6
CONTINUOUS
10
5.6883438582677162
20
-3.8094068503937009
11
5.690259724409449
21
-3.8081266929133859
0
LINE
8
BLACK
6
CONTINUOUS
10
5.690259724409449
20
-3.8081266929133859
11
5.69251968503937
21
-3.8076771653543307
0
LINE
8
BLACK
6
CONTINUOUS
10
5.69251968503937
20
-3.8076771653543307
11
5.7043307086614172
21
-3.8076771653543307
0
LINE
8
BLACK
6
CONTINUOUS
10
5.7043307086614172
20
-3.8076771653543307
11
5.7065906692913382
21
-3.8081266929133859
0
LINE
8
BLACK
6
CONTINUOUS
10
5.3985879527559053
20
-3.8603860629921258
11
5.3992265748031496
21
-3.8608127952755904
0
LINE
8
BLACK
6
CONTINUOUS
10
5.3992265748031496
20
-3.8608127952755904
11
5.3996533070866137
21
-3.8614514173228347
0
LINE
8
BLACK
6
CONTINUOUS
10
5.3996533070866137
20
-3.8614514173228347
11
5.3998031496062993
21
-3.8622047244094486
0
LINE
8
BLACK
6
CONTINUOUS
10
5.3998031496062993
20
-3.8622047244094486
11
5.3998031496062993
21
-3.8661417322834644
0
LINE
8
BLACK
6
CONTINUOUS
10
5.3998031496062993
20
-3.8661417322834644
11
5.3996533070866137
21
-3.8668950393700787
0
LINE
8
BLACK
6
CONTINUOUS
10
5.3996533070866137
20
-3.8668950393700787
11
5.3992265748031496
21
-3.8675336614173226
0
LINE
8
BLACK
6
CONTINUOUS
10
5.3992265748031496
20
-3.8675336614173226
11
5.3985879527559053
21
-3.8679603937007871
0
LINE
8
BLACK
6
CONTINUOUS
10
5.3985879527559053
20
-3.8679603937007871
11
5.3978346456692909
21
-3.8681102362204722
0
LINE
8
BLACK
6
CONTINUOUS
10
5.3978346456692909
20
-3.8681102362204722
11
5.3683070866141733
21
-3.8681102362204722
0
LINE
8
BLACK
6
CONTINUOUS
10
5.3683070866141733
20
-3.8681102362204722
11
5.367553779527559
21
-3.8679603937007871
0
LINE
8
BLACK
6
CONTINUOUS
10
5.367553779527559
20
-3.8679603937007871
11
5.3669151574803147
21
-3.8675336614173226
0
LINE
8
BLACK
6
CONTINUOUS
10
5.3669151574803147
20
-3.8675336614173226
11
5.3664884251968505
21
-3.8668950393700787
0
LINE
8
BLACK
6
CONTINUOUS
10
5.3664884251968505
20
-3.8668950393700787
11
5.366338582677165
21
-3.8661417322834644
0
LINE
8
BLACK
6
CONTINUOUS
10
5.366338582677165
20
-3.8661417322834644
11
5.366338582677165
21
-3.8622047244094486
0
LINE
8
BLACK
6
CONTINUOUS
10
5.366338582677165
20
-3.8622047244094486
11
5.3664884251968505
21
-3.8614514173228347
0
LINE
8
BLACK
6
CONTINUOUS
10
5.3664884251968505
20
-3.8614514173228347
11
5.3669151574803147
21
-3.8608127952755904
0
LINE
8
BLACK
6
CONTINUOUS
10
5.3669151574803147
20
-3.8608127952755904
11
5.367553779527559
21
-3.8603860629921258
0
LINE
8
BLACK
6
CONTINUOUS
10
5.367553779527559
20
-3.8603860629921258
11
5.3683070866141733
21
-3.8602362204724407
0
LINE
8
BLACK
6
CONTINUOUS
10
5.3683070866141733
20
-3.8602362204724407
11
5.3978346456692909
21
-3.8602362204724407
0
LINE
8
BLACK
6
CONTINUOUS
10
5.3978346456692909
20
-3.8602362204724407
11
5.3985879527559053
21
-3.8603860629921258
0
LINE
8
BLACK
6
CONTINUOUS
10
5.5127611811023618
20
-3.8603860629921258
11
5.5133998031496061
21
-3.8608127952755904
0
LINE
8
BLACK
6
CONTINUOUS
10
5.5133998031496061
20
-3.8608127952755904
11
5.5138265354330711
21
-3.8614514173228347
0
LINE
8
BLACK
6
CONTINUOUS
10
5.5138265354330711
20
-3.8614514173228347
11
5.5139763779527557
21
-3.8622047244094486
0
LINE
8
BLACK
6
CONTINUOUS
10
5.5139763779527557
20
-3.8622047244094486
11
5.5139763779527557
21
-3.8661417322834644
0
LINE
8
BLACK
6
CONTINUOUS
10
5.5139763779527557
20
-3.8661417322834644
11
5.5138265354330711
21
-3.8668950393700787
0
LINE
8
BLACK
6
CONTINUOUS
10
5.5138265354330711
20
-3.8668950393700787
11
5.5133998031496061
21
-3.8675336614173226
0
LINE
8
BLACK
6
CONTINUOUS
10
5.5133998031496061
20
-3.8675336614173226
11
5.5127611811023618
21
-3.8679603937007871
0
LINE
8
BLACK
6
CONTINUOUS
10
5.5127611811023618
20
-3.8679603937007871
11
5.5120078740157483
21
-3.8681102362204722
0
LINE
8
BLACK
6
CONTINUOUS
10
5.5120078740157483
20
-3.8681102362204722
11
5.4824803149606298
21
-3.8681102362204722
0
LINE
8
BLACK
6
CONTINUOUS
10
5.4824803149606298
20
-3.8681102362204722
11
5.4817270078740155
21
-3.8679603937007871
0
LINE
8
BLACK
6
CONTINUOUS
10
5.4817270078740155
20
-3.8679603937007871
11
5.4810883858267712
21
-3.8675336614173226
0
LINE
8
BLACK
6
CONTINUOUS
10
5.4810883858267712
20
-3.8675336614173226
11
5.480661653543307
21
-3.8668950393700787
0
LINE
8
BLACK
6
CONTINUOUS
10
5.480661653543307
20
-3.8668950393700787
11
5.4805118110236215
21
-3.8661417322834644
0
LINE
8
BLACK
6
CONTINUOUS
10
5.4805118110236215
20
-3.8661417322834644
11
5.4805118110236215
21
-3.8622047244094486
0
LINE
8
BLACK
6
CONTINUOUS
10
5.4805118110236215
20
-3.8622047244094486
11
5.480661653543307
21
-3.8614514173228347
0
LINE
8
BLACK
6
CONTINUOUS
10
5.480661653543307
20
-3.8614514173228347
11
5.4810883858267712
21
-3.8608127952755904
0
LINE
8
BLACK
6
CONTINUOUS
10
5.4810883858267712
20
-3.8608127952755904
11
5.4817270078740155
21
-3.8603860629921258
0
LINE
8
BLACK
6
CONTINUOUS
10
5.4817270078740155
20
-3.8603860629921258
11
5.4824803149606298
21
-3.8602362204724407
0
LINE
8
BLACK
6
CONTINUOUS
10
5.4824803149606298
20
-3.8602362204724407
11
5.5120078740157483
21
-3.8602362204724407
0
LINE
8
BLACK
6
CONTINUOUS
10
5.5120078740157483
20
-3.8602362204724407
11
5.5127611811023618
21
-3.8603860629921258
0
LINE
8
BLACK
6
CONTINUOUS
10
5.4331338188976375
20
-3.8353444881889764
11
5.4352732283464569
21
-3.8367740157480315
0
LINE
8
BLACK
6
CONTINUOUS
10
5.4352732283464569
20
-3.8367740157480315
11
5.4367027559055119
21
-3.8389134251968504
0
LINE
8
BLACK
6
CONTINUOUS
10
5.4367027559055119
20
-3.8389134251968504
11
5.4372047244094484
21
-3.8414370078740157
0
LINE
8
BLACK
6
CONTINUOUS
10
5.4372047244094484
20
-3.8414370078740157
11
5.4372047244094484
21
-3.8546259842519683
0
LINE
8
BLACK
6
CONTINUOUS
10
5.4372047244094484
20
-3.8546259842519683
11
5.4367027559055119
21
-3.8571495669291336
0
LINE
8
BLACK
6
CONTINUOUS
10
5.4367027559055119
20
-3.8571495669291336
11
5.4352732283464569
21
-3.8592889763779525
0
LINE
8
BLACK
6
CONTINUOUS
10
5.4352732283464569
20
-3.8592889763779525
11
5.4331338188976375
21
-3.860718503937008
0
LINE
8
BLACK
6
CONTINUOUS
10
5.4331338188976375
20
-3.860718503937008
11
5.4306102362204722
21
-3.8612204724409449
0
LINE
8
BLACK
6
CONTINUOUS
10
5.4306102362204722
20
-3.8612204724409449
11
5.41742125984252
21
-3.8612204724409449
0
LINE
8
BLACK
6
CONTINUOUS
10
5.41742125984252
20
-3.8612204724409449
11
5.4148976771653539
21
-3.860718503937008
0
LINE
8
BLACK
6
CONTINUOUS
10
5.4148976771653539
20
-3.860718503937008
11
5.4127582677165353
21
-3.8592889763779525
0
LINE
8
BLACK
6
CONTINUOUS
10
5.4127582677165353
20
-3.8592889763779525
11
5.4113287401574803
21
-3.8571495669291336
0
LINE
8
BLACK
6
CONTINUOUS
10
5.4113287401574803
20
-3.8571495669291336
11
5.410826771653543
21
-3.8546259842519683
0
LINE
8
BLACK
6
CONTINUOUS
10
5.410826771653543
20
-3.8546259842519683
11
5.410826771653543
21
-3.8414370078740157
0
LINE
8
BLACK
6
CONTINUOUS
10
5.410826771653543
20
-3.8414370078740157
11
5.4113287401574803
21
-3.8389134251968504
0
LINE
8
BLACK
6
CONTINUOUS
10
5.4113287401574803
20
-3.8389134251968504
11
5.4127582677165353
21
-3.8367740157480315
0
LINE
8
BLACK
6
CONTINUOUS
10
5.4127582677165353
20
-3.8367740157480315
11
5.4148976771653539
21
-3.8353444881889764
0
LINE
8
BLACK
6
CONTINUOUS
10
5.4148976771653539
20
-3.8353444881889764
11
5.41742125984252
21
-3.8348425196850391
0
LINE
8
BLACK
6
CONTINUOUS
10
5.41742125984252
20
-3.8348425196850391
11
5.4306102362204722
21
-3.8348425196850391
0
LINE
8
BLACK
6
CONTINUOUS
10
5.4306102362204722
20
-3.8348425196850391
11
5.4331338188976375
21
-3.8353444881889764
0
LINE
8
BLACK
6
CONTINUOUS
10
5.4654172834645669
20
-3.8353444881889764
11
5.4675566929133854
21
-3.8367740157480315
0
LINE
8
BLACK
6
CONTINUOUS
10
5.4675566929133854
20
-3.8367740157480315
11
5.4689862204724404
21
-3.8389134251968504
0
LINE
8
BLACK
6
CONTINUOUS
10
5.4689862204724404
20
-3.8389134251968504
11
5.4694881889763778
21
-3.8414370078740157
0
LINE
8
BLACK
6
CONTINUOUS
10
5.4694881889763778
20
-3.8414370078740157
11
5.4694881889763778
21
-3.8546259842519683
0
LINE
8
BLACK
6
CONTINUOUS
10
5.4694881889763778
20
-3.8546259842519683
11
5.4689862204724404
21
-3.8571495669291336
0
LINE
8
BLACK
6
CONTINUOUS
10
5.4689862204724404
20
-3.8571495669291336
11
5.4675566929133854
21
-3.8592889763779525
0
LINE
8
BLACK
6
CONTINUOUS
10
5.4675566929133854
20
-3.8592889763779525
11
5.4654172834645669
21
-3.860718503937008
0
LINE
8
BLACK
6
CONTINUOUS
10
5.4654172834645669
20
-3.860718503937008
11
5.4628937007874017
21
-3.8612204724409449
0
LINE
8
BLACK
6
CONTINUOUS
10
5.4628937007874017
20
-3.8612204724409449
11
5.4497047244094485
21
-3.8612204724409449
0
LINE
8
BLACK
6
CONTINUOUS
10
5.4497047244094485
20
-3.8612204724409449
11
5.4471811417322833
21
-3.860718503937008
0
LINE
8
BLACK
6
CONTINUOUS
10
5.4471811417322833
20
-3.860718503937008
11
5.4450417322834648
21
-3.8592889763779525
0
LINE
8
BLACK
6
CONTINUOUS
10
5.4450417322834648
20
-3.8592889763779525
11
5.4436122047244098
21
-3.8571495669291336
0
LINE
8
BLACK
6
CONTINUOUS
10
5.4436122047244098
20
-3.8571495669291336
11
5.4431102362204724
21
-3.8546259842519683
0
LINE
8
BLACK
6
CONTINUOUS
10
5.4431102362204724
20
-3.8546259842519683
11
5.4431102362204724
21
-3.8414370078740157
0
LINE
8
BLACK
6
CONTINUOUS
10
5.4431102362204724
20
-3.8414370078740157
11
5.4436122047244098
21
-3.8389134251968504
0
LINE
8
BLACK
6
CONTINUOUS
10
5.4436122047244098
20
-3.8389134251968504
11
5.4450417322834648
21
-3.8367740157480315
0
LINE
8
BLACK
6
CONTINUOUS
10
5.4450417322834648
20
-3.8367740157480315
11
5.4471811417322833
21
-3.8353444881889764
0
LINE
8
BLACK
6
CONTINUOUS
10
5.4471811417322833
20
-3.8353444881889764
11
5.4497047244094485
21
-3.8348425196850391
0
LINE
8
BLACK
6
CONTINUOUS
10
5.4497047244094485
20
-3.8348425196850391
11
5.4628937007874017
21
-3.8348425196850391
0
LINE
8
BLACK
6
CONTINUOUS
10
5.4628937007874017
20
-3.8348425196850391
11
5.4654172834645669
21
-3.8353444881889764
0
LINE
8
BLACK
6
CONTINUOUS
10
5.3985879527559053
20
-3.8446380314960629
11
5.3992265748031496
21
-3.8450647637795274
0
LINE
8
BLACK
6
CONTINUOUS
10
5.3992265748031496
20
-3.8450647637795274
11
5.3996533070866137
21
-3.8457033858267717
0
LINE
8
BLACK
6
CONTINUOUS
10
5.3996533070866137
20
-3.8457033858267717
11
5.3998031496062993
21
-3.8464566929133857
0
LINE
8
BLACK
6
CONTINUOUS
10
5.3998031496062993
20
-3.8464566929133857
11
5.3998031496062993
21
-3.8503937007874014
0
LINE
8
BLACK
6
CONTINUOUS
10
5.3998031496062993
20
-3.8503937007874014
11
5.3996533070866137
21
-3.8511470078740158
0
LINE
8
BLACK
6
CONTINUOUS
10
5.3996533070866137
20
-3.8511470078740158
11
5.3992265748031496
21
-3.8517856299212596
0
LINE
8
BLACK
6
CONTINUOUS
10
5.3992265748031496
20
-3.8517856299212596
11
5.3985879527559053
21
-3.8522123622047242
0
LINE
8
BLACK
6
CONTINUOUS
10
5.3985879527559053
20
-3.8522123622047242
11
5.3978346456692909
21
-3.8523622047244093
0
LINE
8
BLACK
6
CONTINUOUS
10
5.3978346456692909
20
-3.8523622047244093
11
5.3683070866141733
21
-3.8523622047244093
0
LINE
8
BLACK
6
CONTINUOUS
10
5.3683070866141733
20
-3.8523622047244093
11
5.367553779527559
21
-3.8522123622047242
0
LINE
8
BLACK
6
CONTINUOUS
10
5.367553779527559
20
-3.8522123622047242
11
5.3669151574803147
21
-3.8517856299212596
0
LINE
8
BLACK
6
CONTINUOUS
10
5.3669151574803147
20
-3.8517856299212596
11
5.3664884251968505
21
-3.8511470078740158
0
LINE
8
BLACK
6
CONTINUOUS
10
5.3664884251968505
20
-3.8511470078740158
11
5.366338582677165
21
-3.8503937007874014
0
LINE
8
BLACK
6
CONTINUOUS
10
5.366338582677165
20
-3.8503937007874014
11
5.366338582677165
21
-3.8464566929133857
0
LINE
8
BLACK
6
CONTINUOUS
10
5.366338582677165
20
-3.8464566929133857
11
5.3664884251968505
21
-3.8457033858267717
0
LINE
8
BLACK
6
CONTINUOUS
10
5.3664884251968505
20
-3.8457033858267717
11
5.3669151574803147
21
-3.8450647637795274
0
LINE
8
BLACK
6
CONTINUOUS
10
5.3669151574803147
20
-3.8450647637795274
11
5.367553779527559
21
-3.8446380314960629
0
LINE
8
BLACK
6
CONTINUOUS
10
5.367553779527559
20
-3.8446380314960629
11
5.3683070866141733
21
-3.8444881889763778
0
LINE
8
BLACK
6
CONTINUOUS
10
5.3683070866141733
20
-3.8444881889763778
11
5.3978346456692909
21
-3.8444881889763778
0
LINE
8
BLACK
6
CONTINUOUS
10
5.3978346456692909
20
-3.8444881889763778
11
5.3985879527559053
21
-3.8446380314960629
0
LINE
8
BLACK
6
CONTINUOUS
10
5.5127611811023618
20
-3.8446380314960629
11
5.5133998031496061
21
-3.8450647637795274
0
LINE
8
BLACK
6
CONTINUOUS
10
5.5133998031496061
20
-3.8450647637795274
11
5.5138265354330711
21
-3.8457033858267717
0
LINE
8
BLACK
6
CONTINUOUS
10
5.5138265354330711
20
-3.8457033858267717
11
5.5139763779527557
21
-3.8464566929133857
0
LINE
8
BLACK
6
CONTINUOUS
10
5.5139763779527557
20
-3.8464566929133857
11
5.5139763779527557
21
-3.8503937007874014
0
LINE
8
BLACK
6
CONTINUOUS
10
5.5139763779527557
20
-3.8503937007874014
11
5.5138265354330711
21
-3.8511470078740158
0
LINE
8
BLACK
6
CONTINUOUS
10
5.5138265354330711
20
-3.8511470078740158
11
5.5133998031496061
21
-3.8517856299212596
0
LINE
8
BLACK
6
CONTINUOUS
10
5.5133998031496061
20
-3.8517856299212596
11
5.5127611811023618
21
-3.8522123622047242
0
LINE
8
BLACK
6
CONTINUOUS
10
5.5127611811023618
20
-3.8522123622047242
11
5.5120078740157483
21
-3.8523622047244093
0
LINE
8
BLACK
6
CONTINUOUS
10
5.5120078740157483
20
-3.8523622047244093
11
5.4824803149606298
21
-3.8523622047244093
0
LINE
8
BLACK
6
CONTINUOUS
10
5.4824803149606298
20
-3.8523622047244093
11
5.4817270078740155
21
-3.8522123622047242
0
LINE
8
BLACK
6
CONTINUOUS
10
5.4817270078740155
20
-3.8522123622047242
11
5.4810883858267712
21
-3.8517856299212596
0
LINE
8
BLACK
6
CONTINUOUS
10
5.4810883858267712
20
-3.8517856299212596
11
5.480661653543307
21
-3.8511470078740158
0
LINE
8
BLACK
6
CONTINUOUS
10
5.480661653543307
20
-3.8511470078740158
11
5.4805118110236215
21
-3.8503937007874014
0
LINE
8
BLACK
6
CONTINUOUS
10
5.4805118110236215
20
-3.8503937007874014
11
5.4805118110236215
21
-3.8464566929133857
0
LINE
8
BLACK
6
CONTINUOUS
10
5.4805118110236215
20
-3.8464566929133857
11
5.480661653543307
21
-3.8457033858267717
0
LINE
8
BLACK
6
CONTINUOUS
10
5.480661653543307
20
-3.8457033858267717
11
5.4810883858267712
21
-3.8450647637795274
0
LINE
8
BLACK
6
CONTINUOUS
10
5.4810883858267712
20
-3.8450647637795274
11
5.4817270078740155
21
-3.8446380314960629
0
LINE
8
BLACK
6
CONTINUOUS
10
5.4817270078740155
20
-3.8446380314960629
11
5.4824803149606298
21
-3.8444881889763778
0
LINE
8
BLACK
6
CONTINUOUS
10
5.4824803149606298
20
-3.8444881889763778
11
5.5120078740157483
21
-3.8444881889763778
0
LINE
8
BLACK
6
CONTINUOUS
10
5.5120078740157483
20
-3.8444881889763778
11
5.5127611811023618
21
-3.8446380314960629
0
LINE
8
BLACK
6
CONTINUOUS
10
5.3985879527559053
20
-3.8288899999999999
11
5.3992265748031496
21
-3.8293167322834645
0
LINE
8
BLACK
6
CONTINUOUS
10
5.3992265748031496
20
-3.8293167322834645
11
5.3996533070866137
21
-3.8299553543307088
0
LINE
8
BLACK
6
CONTINUOUS
10
5.3996533070866137
20
-3.8299553543307088
11
5.3998031496062993
21
-3.8307086614173227
0
LINE
8
BLACK
6
CONTINUOUS
10
5.3998031496062993
20
-3.8307086614173227
11
5.3998031496062993
21
-3.8346456692913384
0
LINE
8
BLACK
6
CONTINUOUS
10
5.3998031496062993
20
-3.8346456692913384
11
5.3996533070866137
21
-3.8353989763779528
0
LINE
8
BLACK
6
CONTINUOUS
10
5.3996533070866137
20
-3.8353989763779528
11
5.3992265748031496
21
-3.8360375984251966
0
LINE
8
BLACK
6
CONTINUOUS
10
5.3992265748031496
20
-3.8360375984251966
11
5.3985879527559053
21
-3.8364643307086612
0
LINE
8
BLACK
6
CONTINUOUS
10
5.3985879527559053
20
-3.8364643307086612
11
5.3978346456692909
21
-3.8366141732283463
0
LINE
8
BLACK
6
CONTINUOUS
10
5.3978346456692909
20
-3.8366141732283463
11
5.3683070866141733
21
-3.8366141732283463
0
LINE
8
BLACK
6
CONTINUOUS
10
5.3683070866141733
20
-3.8366141732283463
11
5.367553779527559
21
-3.8364643307086612
0
LINE
8
BLACK
6
CONTINUOUS
10
5.367553779527559
20
-3.8364643307086612
11
5.3669151574803147
21
-3.8360375984251966
0
LINE
8
BLACK
6
CONTINUOUS
10
5.3669151574803147
20
-3.8360375984251966
11
5.3664884251968505
21
-3.8353989763779528
0
LINE
8
BLACK
6
CONTINUOUS
10
5.3664884251968505
20
-3.8353989763779528
11
5.366338582677165
21
-3.8346456692913384
0
LINE
8
BLACK
6
CONTINUOUS
10
5.366338582677165
20
-3.8346456692913384
11
5.366338582677165
21
-3.8307086614173227
0
LINE
8
BLACK
6
CONTINUOUS
10
5.366338582677165
20
-3.8307086614173227
11
5.3664884251968505
21
-3.8299553543307088
0
LINE
8
BLACK
6
CONTINUOUS
10
5.3664884251968505
20
-3.8299553543307088
11
5.3669151574803147
21
-3.8293167322834645
0
LINE
8
BLACK
6
CONTINUOUS
10
5.3669151574803147
20
-3.8293167322834645
11
5.367553779527559
21
-3.8288899999999999
0
LINE
8
BLACK
6
CONTINUOUS
10
5.367553779527559
20
-3.8288899999999999
11
5.3683070866141733
21
-3.8287401574803148
0
LINE
8
BLACK
6
CONTINUOUS
10
5.3683070866141733
20
-3.8287401574803148
11
5.3978346456692909
21
-3.8287401574803148
0
LINE
8
BLACK
6
CONTINUOUS
10
5.3978346456692909
20
-3.8287401574803148
11
5.3985879527559053
21
-3.8288899999999999
0
LINE
8
BLACK
6
CONTINUOUS
10
5.5127611811023618
20
-3.8288899999999999
11
5.5133998031496061
21
-3.8293167322834645
0
LINE
8
BLACK
6
CONTINUOUS
10
5.5133998031496061
20
-3.8293167322834645
11
5.5138265354330711
21
-3.8299553543307088
0
LINE
8
BLACK
6
CONTINUOUS
10
5.5138265354330711
20
-3.8299553543307088
11
5.5139763779527557
21
-3.8307086614173227
0
LINE
8
BLACK
6
CONTINUOUS
10
5.5139763779527557
20
-3.8307086614173227
11
5.5139763779527557
21
-3.8346456692913384
0
LINE
8
BLACK
6
CONTINUOUS
10
5.5139763779527557
20
-3.8346456692913384
11
5.5138265354330711
21
-3.8353989763779528
0
LINE
8
BLACK
6
CONTINUOUS
10
5.5138265354330711
20
-3.8353989763779528
11
5.5133998031496061
21
-3.8360375984251966
0
LINE
8
BLACK
6
CONTINUOUS
10
5.5133998031496061
20
-3.8360375984251966
11
5.5127611811023618
21
-3.8364643307086612
0
LINE
8
BLACK
6
CONTINUOUS
10
5.5127611811023618
20
-3.8364643307086612
11
5.5120078740157483
21
-3.8366141732283463
0
LINE
8
BLACK
6
CONTINUOUS
10
5.5120078740157483
20
-3.8366141732283463
11
5.4824803149606298
21
-3.8366141732283463
0
LINE
8
BLACK
6
CONTINUOUS
10
5.4824803149606298
20
-3.8366141732283463
11
5.4817270078740155
21
-3.8364643307086612
0
LINE
8
BLACK
6
CONTINUOUS
10
5.4817270078740155
20
-3.8364643307086612
11
5.4810883858267712
21
-3.8360375984251966
0
LINE
8
BLACK
6
CONTINUOUS
10
5.4810883858267712
20
-3.8360375984251966
11
5.480661653543307
21
-3.8353989763779528
0
LINE
8
BLACK
6
CONTINUOUS
10
5.480661653543307
20
-3.8353989763779528
11
5.4805118110236215
21
-3.8346456692913384
0
LINE
8
BLACK
6
CONTINUOUS
10
5.4805118110236215
20
-3.8346456692913384
11
5.4805118110236215
21
-3.8307086614173227
0
LINE
8
BLACK
6
CONTINUOUS
10
5.4805118110236215
20
-3.8307086614173227
11
5.480661653543307
21
-3.8299553543307088
0
LINE
8
BLACK
6
CONTINUOUS
10
5.480661653543307
20
-3.8299553543307088
11
5.4810883858267712
21
-3.8293167322834645
0
LINE
8
BLACK
6
CONTINUOUS
10
5.4810883858267712
20
-3.8293167322834645
11
5.4817270078740155
21
-3.8288899999999999
0
LINE
8
BLACK
6
CONTINUOUS
10
5.4817270078740155
20
-3.8288899999999999
11
5.4824803149606298
21
-3.8287401574803148
0
LINE
8
BLACK
6
CONTINUOUS
10
5.4824803149606298
20
-3.8287401574803148
11
5.5120078740157483
21
-3.8287401574803148
0
LINE
8
BLACK
6
CONTINUOUS
10
5.5120078740157483
20
-3.8287401574803148
11
5.5127611811023618
21
-3.8288899999999999
0
LINE
8
BLACK
6
CONTINUOUS
10
5.1282442125984247
20
-3.7785007086614173
11
5.1301600787401576
21
-3.7797808661417323
0
LINE
8
BLACK
6
CONTINUOUS
10
5.1301600787401576
20
-3.7797808661417323
11
5.1314402362204721
21
-3.7816967322834647
0
LINE
8
BLACK
6
CONTINUOUS
10
5.1314402362204721
20
-3.7816967322834647
11
5.1318897637795278
21
-3.7839566929133857
0
LINE
8
BLACK
6
CONTINUOUS
10
5.1318897637795278
20
-3.7839566929133857
11
5.1318897637795278
21
-3.8243110236220472
0
LINE
8
BLACK
6
CONTINUOUS
10
5.1318897637795278
20
-3.8243110236220472
11
5.1314402362204721
21
-3.8265709842519686
0
LINE
8
BLACK
6
CONTINUOUS
10
5.1314402362204721
20
-3.8265709842519686
11
5.1301600787401576
21
-3.8284868503937006
0
LINE
8
BLACK
6
CONTINUOUS
10
5.1301600787401576
20
-3.8284868503937006
11
5.1282442125984247
21
-3.8297670078740156
0
LINE
8
BLACK
6
CONTINUOUS
10
5.1282442125984247
20
-3.8297670078740156
11
5.1259842519685037
21
-3.8302165354330708
0
LINE
8
BLACK
6
CONTINUOUS
10
5.1259842519685037
20
-3.8302165354330708
11
5.1141732283464565
21
-3.8302165354330708
0
LINE
8
BLACK
6
CONTINUOUS
10
5.1141732283464565
20
-3.8302165354330708
11
5.1119132677165355
21
-3.8297670078740156
0
LINE
8
BLACK
6
CONTINUOUS
10
5.1119132677165355
20
-3.8297670078740156
11
5.1099974015748026
21
-3.8284868503937006
0
LINE
8
BLACK
6
CONTINUOUS
10
5.1099974015748026
20
-3.8284868503937006
11
5.1087172440944881
21
-3.8265709842519686
0
LINE
8
BLACK
6
CONTINUOUS
10
5.1087172440944881
20
-3.8265709842519686
11
5.1082677165354333
21
-3.8243110236220472
0
LINE
8
BLACK
6
CONTINUOUS
10
5.1082677165354333
20
-3.8243110236220472
11
5.1082677165354333
21
-3.7839566929133857
0
LINE
8
BLACK
6
CONTINUOUS
10
5.1082677165354333
20
-3.7839566929133857
11
5.1087172440944881
21
-3.7816967322834647
0
LINE
8
BLACK
6
CONTINUOUS
10
5.1087172440944881
20
-3.7816967322834647
11
5.1099974015748026
21
-3.7797808661417323
0
LINE
8
BLACK
6
CONTINUOUS
10
5.1099974015748026
20
-3.7797808661417323
11
5.1119132677165355
21
-3.7785007086614173
0
LINE
8
BLACK
6
CONTINUOUS
10
5.1119132677165355
20
-3.7785007086614173
11
5.1141732283464565
21
-3.778051181102362
0
LINE
8
BLACK
6
CONTINUOUS
10
5.1141732283464565
20
-3.778051181102362
11
5.1259842519685037
21
-3.778051181102362
0
LINE
8
BLACK
6
CONTINUOUS
10
5.1259842519685037
20
-3.778051181102362
11
5.1282442125984247
21
-3.7785007086614173
0
LINE
8
BLACK
6
CONTINUOUS
10
5.1656457874015747
20
-3.7785007086614173
11
5.1675616535433067
21
-3.7797808661417323
0
LINE
8
BLACK
6
CONTINUOUS
10
5.1675616535433067
20
-3.7797808661417323
11
5.1688418110236221
21
-3.7816967322834647
0
LINE
8
BLACK
6
CONTINUOUS
10
5.1688418110236221
20
-3.7816967322834647
11
5.1692913385826769
21
-3.7839566929133857
0
LINE
8
BLACK
6
CONTINUOUS
10
5.1692913385826769
20
-3.7839566929133857
11
5.1692913385826769
21
-3.8243110236220472
0
LINE
8
BLACK
6
CONTINUOUS
10
5.1692913385826769
20
-3.8243110236220472
11
5.1688418110236221
21
-3.8265709842519686
0
LINE
8
BLACK
6
CONTINUOUS
10
5.1688418110236221
20
-3.8265709842519686
11
5.1675616535433067
21
-3.8284868503937006
0
LINE
8
BLACK
6
CONTINUOUS
10
5.1675616535433067
20
-3.8284868503937006
11
5.1656457874015747
21
-3.8297670078740156
0
LINE
8
BLACK
6
CONTINUOUS
10
5.1656457874015747
20
-3.8297670078740156
11
5.1633858267716537
21
-3.8302165354330708
0
LINE
8
BLACK
6
CONTINUOUS
10
5.1633858267716537
20
-3.8302165354330708
11
5.1515748031496065
21
-3.8302165354330708
0
LINE
8
BLACK
6
CONTINUOUS
10
5.1515748031496065
20
-3.8302165354330708
11
5.1493148425196846
21
-3.8297670078740156
0
LINE
8
BLACK
6
CONTINUOUS
10
5.1493148425196846
20
-3.8297670078740156
11
5.1473989763779526
21
-3.8284868503937006
0
LINE
8
BLACK
6
CONTINUOUS
10
5.1473989763779526
20
-3.8284868503937006
11
5.1461188188976381
21
-3.8265709842519686
0
LINE
8
BLACK
6
CONTINUOUS
10
5.1461188188976381
20
-3.8265709842519686
11
5.1456692913385824
21
-3.8243110236220472
0
LINE
8
BLACK
6
CONTINUOUS
10
5.1456692913385824
20
-3.8243110236220472
11
5.1456692913385824
21
-3.7839566929133857
0
LINE
8
BLACK
6
CONTINUOUS
10
5.1456692913385824
20
-3.7839566929133857
11
5.1461188188976381
21
-3.7816967322834647
0
LINE
8
BLACK
6
CONTINUOUS
10
5.1461188188976381
20
-3.7816967322834647
11
5.1473989763779526
21
-3.7797808661417323
0
LINE
8
BLACK
6
CONTINUOUS
10
5.1473989763779526
20
-3.7797808661417323
11
5.1493148425196846
21
-3.7785007086614173
0
LINE
8
BLACK
6
CONTINUOUS
10
5.1493148425196846
20
-3.7785007086614173
11
5.1515748031496065
21
-3.778051181102362
0
LINE
8
BLACK
6
CONTINUOUS
10
5.1515748031496065
20
-3.778051181102362
11
5.1633858267716537
21
-3.778051181102362
0
LINE
8
BLACK
6
CONTINUOUS
10
5.1633858267716537
20
-3.778051181102362
11
5.1656457874015747
21
-3.7785007086614173
0
LINE
8
BLACK
6
CONTINUOUS
10
5.2030473622047246
20
-3.7785007086614173
11
5.2049632283464566
21
-3.7797808661417323
0
LINE
8
BLACK
6
CONTINUOUS
10
5.2049632283464566
20
-3.7797808661417323
11
5.2062433858267712
21
-3.7816967322834647
0
LINE
8
BLACK
6
CONTINUOUS
10
5.2062433858267712
20
-3.7816967322834647
11
5.2066929133858268
21
-3.7839566929133857
0
LINE
8
BLACK
6
CONTINUOUS
10
5.2066929133858268
20
-3.7839566929133857
11
5.2066929133858268
21
-3.8243110236220472
0
LINE
8
BLACK
6
CONTINUOUS
10
5.2066929133858268
20
-3.8243110236220472
11
5.2062433858267712
21
-3.8265709842519686
0
LINE
8
BLACK
6
CONTINUOUS
10
5.2062433858267712
20
-3.8265709842519686
11
5.2049632283464566
21
-3.8284868503937006
0
LINE
8
BLACK
6
CONTINUOUS
10
5.2049632283464566
20
-3.8284868503937006
11
5.2030473622047246
21
-3.8297670078740156
0
LINE
8
BLACK
6
CONTINUOUS
10
5.2030473622047246
20
-3.8297670078740156
11
5.2007874015748028
21
-3.8302165354330708
0
LINE
8
BLACK
6
CONTINUOUS
10
5.2007874015748028
20
-3.8302165354330708
11
5.1889763779527556
21
-3.8302165354330708
0
LINE
8
BLACK
6
CONTINUOUS
10
5.1889763779527556
20
-3.8302165354330708
11
5.1867164173228346
21
-3.8297670078740156
0
LINE
8
BLACK
6
CONTINUOUS
10
5.1867164173228346
20
-3.8297670078740156
11
5.1848005511811026
21
-3.8284868503937006
0
LINE
8
BLACK
6
CONTINUOUS
10
5.1848005511811026
20
-3.8284868503937006
11
5.1835203937007872
21
-3.8265709842519686
0
LINE
8
BLACK
6
CONTINUOUS
10
5.1835203937007872
20
-3.8265709842519686
11
5.1830708661417324
21
-3.8243110236220472
0
LINE
8
BLACK
6
CONTINUOUS
10
5.1830708661417324
20
-3.8243110236220472
11
5.1830708661417324
21
-3.7839566929133857
0
LINE
8
BLACK
6
CONTINUOUS
10
5.1830708661417324
20
-3.7839566929133857
11
5.1835203937007872
21
-3.7816967322834647
0
LINE
8
BLACK
6
CONTINUOUS
10
5.1835203937007872
20
-3.7816967322834647
11
5.1848005511811026
21
-3.7797808661417323
0
LINE
8
BLACK
6
CONTINUOUS
10
5.1848005511811026
20
-3.7797808661417323
11
5.1867164173228346
21
-3.7785007086614173
0
LINE
8
BLACK
6
CONTINUOUS
10
5.1867164173228346
20
-3.7785007086614173
11
5.1889763779527556
21
-3.778051181102362
0
LINE
8
BLACK
6
CONTINUOUS
10
5.1889763779527556
20
-3.778051181102362
11
5.2007874015748028
21
-3.778051181102362
0
LINE
8
BLACK
6
CONTINUOUS
10
5.2007874015748028
20
-3.778051181102362
11
5.2030473622047246
21
-3.7785007086614173
0
LINE
8
BLACK
6
CONTINUOUS
10
5.4113832283464562
20
-3.7905041732283462
11
5.4120218503937005
21
-3.7909309055118108
0
LINE
8
BLACK
6
CONTINUOUS
10
5.4120218503937005
20
-3.7909309055118108
11
5.4124485826771656
21
-3.7915695275590551
0
LINE
8
BLACK
6
CONTINUOUS
10
5.4124485826771656
20
-3.7915695275590551
11
5.4125984251968502
21
-3.792322834645669
0
LINE
8
BLACK
6
CONTINUOUS
10
5.4125984251968502
20
-3.792322834645669
11
5.4125984251968502
21
-3.8218503937007875
0
LINE
8
BLACK
6
CONTINUOUS
10
5.4125984251968502
20
-3.8218503937007875
11
5.4124485826771656
21
-3.8226037007874014
0
LINE
8
BLACK
6
CONTINUOUS
10
5.4124485826771656
20
-3.8226037007874014
11
5.4120218503937005
21
-3.8232423228346457
0
LINE
8
BLACK
6
CONTINUOUS
10
5.4120218503937005
20
-3.8232423228346457
11
5.4113832283464562
21
-3.8236690551181103
0
LINE
8
BLACK
6
CONTINUOUS
10
5.4113832283464562
20
-3.8236690551181103
11
5.4106299212598428
21
-3.8238188976377954
0
LINE
8
BLACK
6
CONTINUOUS
10
5.4106299212598428
20
-3.8238188976377954
11
5.406692913385827
21
-3.8238188976377954
0
LINE
8
BLACK
6
CONTINUOUS
10
5.406692913385827
20
-3.8238188976377954
11
5.4059396062992127
21
-3.8236690551181103
0
LINE
8
BLACK
6
CONTINUOUS
10
5.4059396062992127
20
-3.8236690551181103
11
5.4053009842519684
21
-3.8232423228346457
0
LINE
8
BLACK
6
CONTINUOUS
10
5.4053009842519684
20
-3.8232423228346457
11
5.4048742519685042
21
-3.8226037007874014
0
LINE
8
BLACK
6
CONTINUOUS
10
5.4048742519685042
20
-3.8226037007874014
11
5.4047244094488187
21
-3.8218503937007875
0
LINE
8
BLACK
6
CONTINUOUS
10
5.4047244094488187
20
-3.8218503937007875
11
5.4047244094488187
21
-3.792322834645669
0
LINE
8
BLACK
6
CONTINUOUS
10
5.4047244094488187
20
-3.792322834645669
11
5.4048742519685042
21
-3.7915695275590551
0
LINE
8
BLACK
6
CONTINUOUS
10
5.4048742519685042
20
-3.7915695275590551
11
5.4053009842519684
21
-3.7909309055118108
0
LINE
8
BLACK
6
CONTINUOUS
10
5.4053009842519684
20
-3.7909309055118108
11
5.4059396062992127
21
-3.7905041732283462
0
LINE
8
BLACK
6
CONTINUOUS
10
5.4059396062992127
20
-3.7905041732283462
11
5.406692913385827
21
-3.7903543307086611
0
LINE
8
BLACK
6
CONTINUOUS
10
5.406692913385827
20
-3.7903543307086611
11
5.4106299212598428
21
-3.7903543307086611
0
LINE
8
BLACK
6
CONTINUOUS
10
5.4106299212598428
20
-3.7903543307086611
11
5.4113832283464562
21
-3.7905041732283462
0
LINE
8
BLACK
6
CONTINUOUS
10
5.4271312598425192
20
-3.7905041732283462
11
5.4277698818897635
21
-3.7909309055118108
0
LINE
8
BLACK
6
CONTINUOUS
10
5.4277698818897635
20
-3.7909309055118108
11
5.4281966141732285
21
-3.7915695275590551
0
LINE
8
BLACK
6
CONTINUOUS
10
5.4281966141732285
20
-3.7915695275590551
11
5.4283464566929132
21
-3.792322834645669
0
LINE
8
BLACK
6
CONTINUOUS
10
5.4283464566929132
20
-3.792322834645669
11
5.4283464566929132
21
-3.8218503937007875
0
LINE
8
BLACK
6
CONTINUOUS
10
5.4283464566929132
20
-3.8218503937007875
11
5.4281966141732285
21
-3.8226037007874014
0
LINE
8
BLACK
6
CONTINUOUS
10
5.4281966141732285
20
-3.8226037007874014
11
5.4277698818897635
21
-3.8232423228346457
0
LINE
8
BLACK
6
CONTINUOUS
10
5.4277698818897635
20
-3.8232423228346457
11
5.4271312598425192
21
-3.8236690551181103
0
LINE
8
BLACK
6
CONTINUOUS
10
5.4271312598425192
20
-3.8236690551181103
11
5.4263779527559057
21
-3.8238188976377954
0
LINE
8
BLACK
6
CONTINUOUS
10
5.4263779527559057
20
-3.8238188976377954
11
5.42244094488189
21
-3.8238188976377954
0
LINE
8
BLACK
6
CONTINUOUS
10
5.42244094488189
20
-3.8238188976377954
11
5.4216876377952756
21
-3.8236690551181103
0
LINE
8
BLACK
6
CONTINUOUS
10
5.4216876377952756
20
-3.8236690551181103
11
5.4210490157480313
21
-3.8232423228346457
0
LINE
8
BLACK
6
CONTINUOUS
10
5.4210490157480313
20
-3.8232423228346457
11
5.4206222834645672
21
-3.8226037007874014
0
LINE
8
BLACK
6
CONTINUOUS
10
5.4206222834645672
20
-3.8226037007874014
11
5.4204724409448817
21
-3.8218503937007875
0
LINE
8
BLACK
6
CONTINUOUS
10
5.4204724409448817
20
-3.8218503937007875
11
5.4204724409448817
21
-3.792322834645669
0
LINE
8
BLACK
6
CONTINUOUS
10
5.4204724409448817
20
-3.792322834645669
11
5.4206222834645672
21
-3.7915695275590551
0
LINE
8
BLACK
6
CONTINUOUS
10
5.4206222834645672
20
-3.7915695275590551
11
5.4210490157480313
21
-3.7909309055118108
0
LINE
8
BLACK
6
CONTINUOUS
10
5.4210490157480313
20
-3.7909309055118108
11
5.4216876377952756
21
-3.7905041732283462
0
LINE
8
BLACK
6
CONTINUOUS
10
5.4216876377952756
20
-3.7905041732283462
11
5.42244094488189
21
-3.7903543307086611
0
LINE
8
BLACK
6
CONTINUOUS
10
5.42244094488189
20
-3.7903543307086611
11
5.4263779527559057
21
-3.7903543307086611
0
LINE
8
BLACK
6
CONTINUOUS
10
5.4263779527559057
20
-3.7903543307086611
11
5.4271312598425192
21
-3.7905041732283462
0
LINE
8
BLACK
6
CONTINUOUS
10
5.4428792913385822
20
-3.7905041732283462
11
5.4435179133858265
21
-3.7909309055118108
0
LINE
8
BLACK
6
CONTINUOUS
10
5.4435179133858265
20
-3.7909309055118108
11
5.4439446456692915
21
-3.7915695275590551
0
LINE
8
BLACK
6
CONTINUOUS
10
5.4439446456692915
20
-3.7915695275590551
11
5.4440944881889761
21
-3.792322834645669
0
LINE
8
BLACK
6
CONTINUOUS
10
5.4440944881889761
20
-3.792322834645669
11
5.4440944881889761
21
-3.8218503937007875
0
LINE
8
BLACK
6
CONTINUOUS
10
5.4440944881889761
20
-3.8218503937007875
11
5.4439446456692915
21
-3.8226037007874014
0
LINE
8
BLACK
6
CONTINUOUS
10
5.4439446456692915
20
-3.8226037007874014
11
5.4435179133858265
21
-3.8232423228346457
0
LINE
8
BLACK
6
CONTINUOUS
10
5.4435179133858265
20
-3.8232423228346457
11
5.4428792913385822
21
-3.8236690551181103
0
LINE
8
BLACK
6
CONTINUOUS
10
5.4428792913385822
20
-3.8236690551181103
11
5.4421259842519687
21
-3.8238188976377954
0
LINE
8
BLACK
6
CONTINUOUS
10
5.4421259842519687
20
-3.8238188976377954
11
5.438188976377953
21
-3.8238188976377954
0
LINE
8
BLACK
6
CONTINUOUS
10
5.438188976377953
20
-3.8238188976377954
11
5.4374356692913386
21
-3.8236690551181103
0
LINE
8
BLACK
6
CONTINUOUS
10
5.4374356692913386
20
-3.8236690551181103
11
5.4367970472440943
21
-3.8232423228346457
0
LINE
8
BLACK
6
CONTINUOUS
10
5.4367970472440943
20
-3.8232423228346457
11
5.4363703149606302
21
-3.8226037007874014
0
LINE
8
BLACK
6
CONTINUOUS
10
5.4363703149606302
20
-3.8226037007874014
11
5.4362204724409446
21
-3.8218503937007875
0
LINE
8
BLACK
6
CONTINUOUS
10
5.4362204724409446
20
-3.8218503937007875
11
5.4362204724409446
21
-3.792322834645669
0
LINE
8
BLACK
6
CONTINUOUS
10
5.4362204724409446
20
-3.792322834645669
11
5.4363703149606302
21
-3.7915695275590551
0
LINE
8
BLACK
6
CONTINUOUS
10
5.4363703149606302
20
-3.7915695275590551
11
5.4367970472440943
21
-3.7909309055118108
0
LINE
8
BLACK
6
CONTINUOUS
10
5.4367970472440943
20
-3.7909309055118108
11
5.4374356692913386
21
-3.7905041732283462
0
LINE
8
BLACK
6
CONTINUOUS
10
5.4374356692913386
20
-3.7905041732283462
11
5.438188976377953
21
-3.7903543307086611
0
LINE
8
BLACK
6
CONTINUOUS
10
5.438188976377953
20
-3.7903543307086611
11
5.4421259842519687
21
-3.7903543307086611
0
LINE
8
BLACK
6
CONTINUOUS
10
5.4421259842519687
20
-3.7903543307086611
11
5.4428792913385822
21
-3.7905041732283462
0
LINE
8
BLACK
6
CONTINUOUS
10
5.4586273228346451
20
-3.7905041732283462
11
5.4592659448818894
21
-3.7909309055118108
0
LINE
8
BLACK
6
CONTINUOUS
10
5.4592659448818894
20
-3.7909309055118108
11
5.4596926771653544
21
-3.7915695275590551
0
LINE
8
BLACK
6
CONTINUOUS
10
5.4596926771653544
20
-3.7915695275590551
11
5.4598425196850391
21
-3.792322834645669
0
LINE
8
BLACK
6
CONTINUOUS
10
5.4598425196850391
20
-3.792322834645669
11
5.4598425196850391
21
-3.8218503937007875
0
LINE
8
BLACK
6
CONTINUOUS
10
5.4598425196850391
20
-3.8218503937007875
11
5.4596926771653544
21
-3.8226037007874014
0
LINE
8
BLACK
6
CONTINUOUS
10
5.4596926771653544
20
-3.8226037007874014
11
5.4592659448818894
21
-3.8232423228346457
0
LINE
8
BLACK
6
CONTINUOUS
10
5.4592659448818894
20
-3.8232423228346457
11
5.4586273228346451
21
-3.8236690551181103
0
LINE
8
BLACK
6
CONTINUOUS
10
5.4586273228346451
20
-3.8236690551181103
11
5.4578740157480317
21
-3.8238188976377954
0
LINE
8
BLACK
6
CONTINUOUS
10
5.4578740157480317
20
-3.8238188976377954
11
5.4539370078740159
21
-3.8238188976377954
0
LINE
8
BLACK
6
CONTINUOUS
10
5.4539370078740159
20
-3.8238188976377954
11
5.4531837007874016
21
-3.8236690551181103
0
LINE
8
BLACK
6
CONTINUOUS
10
5.4531837007874016
20
-3.8236690551181103
11
5.4525450787401573
21
-3.8232423228346457
0
LINE
8
BLACK
6
CONTINUOUS
10
5.4525450787401573
20
-3.8232423228346457
11
5.4521183464566931
21
-3.8226037007874014
0
LINE
8
BLACK
6
CONTINUOUS
10
5.4521183464566931
20
-3.8226037007874014
11
5.4519685039370076
21
-3.8218503937007875
0
LINE
8
BLACK
6
CONTINUOUS
10
5.4519685039370076
20
-3.8218503937007875
11
5.4519685039370076
21
-3.792322834645669
0
LINE
8
BLACK
6
CONTINUOUS
10
5.4519685039370076
20
-3.792322834645669
11
5.4521183464566931
21
-3.7915695275590551
0
LINE
8
BLACK
6
CONTINUOUS
10
5.4521183464566931
20
-3.7915695275590551
11
5.4525450787401573
21
-3.7909309055118108
0
LINE
8
BLACK
6
CONTINUOUS
10
5.4525450787401573
20
-3.7909309055118108
11
5.4531837007874016
21
-3.7905041732283462
0
LINE
8
BLACK
6
CONTINUOUS
10
5.4531837007874016
20
-3.7905041732283462
11
5.4539370078740159
21
-3.7903543307086611
0
LINE
8
BLACK
6
CONTINUOUS
10
5.4539370078740159
20
-3.7903543307086611
11
5.4578740157480317
21
-3.7903543307086611
0
LINE
8
BLACK
6
CONTINUOUS
10
5.4578740157480317
20
-3.7903543307086611
11
5.4586273228346451
21
-3.7905041732283462
0
LINE
8
BLACK
6
CONTINUOUS
10
5.4743753543307081
20
-3.7905041732283462
11
5.4750139763779524
21
-3.7909309055118108
0
LINE
8
BLACK
6
CONTINUOUS
10
5.4750139763779524
20
-3.7909309055118108
11
5.4754407086614174
21
-3.7915695275590551
0
LINE
8
BLACK
6
CONTINUOUS
10
5.4754407086614174
20
-3.7915695275590551
11
5.4755905511811021
21
-3.792322834645669
0
LINE
8
BLACK
6
CONTINUOUS
10
5.4755905511811021
20
-3.792322834645669
11
5.4755905511811021
21
-3.8218503937007875
0
LINE
8
BLACK
6
CONTINUOUS
10
5.4755905511811021
20
-3.8218503937007875
11
5.4754407086614174
21
-3.8226037007874014
0
LINE
8
BLACK
6
CONTINUOUS
10
5.4754407086614174
20
-3.8226037007874014
11
5.4750139763779524
21
-3.8232423228346457
0
LINE
8
BLACK
6
CONTINUOUS
10
5.4750139763779524
20
-3.8232423228346457
11
5.4743753543307081
21
-3.8236690551181103
0
LINE
8
BLACK
6
CONTINUOUS
10
5.4743753543307081
20
-3.8236690551181103
11
5.4736220472440946
21
-3.8238188976377954
0
LINE
8
BLACK
6
CONTINUOUS
10
5.4736220472440946
20
-3.8238188976377954
11
5.4696850393700789
21
-3.8238188976377954
0
LINE
8
BLACK
6
CONTINUOUS
10
5.4696850393700789
20
-3.8238188976377954
11
5.4689317322834645
21
-3.8236690551181103
0
LINE
8
BLACK
6
CONTINUOUS
10
5.4689317322834645
20
-3.8236690551181103
11
5.4682931102362202
21
-3.8232423228346457
0
LINE
8
BLACK
6
CONTINUOUS
10
5.4682931102362202
20
-3.8232423228346457
11
5.4678663779527561
21
-3.8226037007874014
0
LINE
8
BLACK
6
CONTINUOUS
10
5.4678663779527561
20
-3.8226037007874014
11
5.4677165354330706
21
-3.8218503937007875
0
LINE
8
BLACK
6
CONTINUOUS
10
5.4677165354330706
20
-3.8218503937007875
11
5.4677165354330706
21
-3.792322834645669
0
LINE
8
BLACK
6
CONTINUOUS
10
5.4677165354330706
20
-3.792322834645669
11
5.4678663779527561
21
-3.7915695275590551
0
LINE
8
BLACK
6
CONTINUOUS
10
5.4678663779527561
20
-3.7915695275590551
11
5.4682931102362202
21
-3.7909309055118108
0
LINE
8
BLACK
6
CONTINUOUS
10
5.4682931102362202
20
-3.7909309055118108
11
5.4689317322834645
21
-3.7905041732283462
0
LINE
8
BLACK
6
CONTINUOUS
10
5.4689317322834645
20
-3.7905041732283462
11
5.4696850393700789
21
-3.7903543307086611
0
LINE
8
BLACK
6
CONTINUOUS
10
5.4696850393700789
20
-3.7903543307086611
11
5.4736220472440946
21
-3.7903543307086611
0
LINE
8
BLACK
6
CONTINUOUS
10
5.4736220472440946
20
-3.7903543307086611
11
5.4743753543307081
21
-3.7905041732283462
0
LINE
8
BLACK
6
CONTINUOUS
10
5.2577425984251969
20
-3.7937116535433071
11
5.2594668897637797
21
-3.7948638188976376
0
LINE
8
BLACK
6
CONTINUOUS
10
5.2594668897637797
20
-3.7948638188976376
11
5.2606190551181102
21
-3.7965881102362204
0
LINE
8
BLACK
6
CONTINUOUS
10
5.2606190551181102
20
-3.7965881102362204
11
5.2610236220472437
21
-3.7986220472440944
0
LINE
8
BLACK
6
CONTINUOUS
10
5.2610236220472437
20
-3.7986220472440944
11
5.2610236220472437
21
-3.8092519685039368
0
LINE
8
BLACK
6
CONTINUOUS
10
5.2610236220472437
20
-3.8092519685039368
11
5.2606190551181102
21
-3.8112859055118111
0
LINE
8
BLACK
6
CONTINUOUS
10
5.2606190551181102
20
-3.8112859055118111
11
5.2594668897637797
21
-3.8130101968503936
0
LINE
8
BLACK
6
CONTINUOUS
10
5.2594668897637797
20
-3.8130101968503936
11
5.2577425984251969
21
-3.8141623622047245
0
LINE
8
BLACK
6
CONTINUOUS
10
5.2577425984251969
20
-3.8141623622047245
11
5.255708661417323
21
-3.814566929133858
0
LINE
8
BLACK
6
CONTINUOUS
10
5.255708661417323
20
-3.814566929133858
11
5.2411417322834648
21
-3.814566929133858
0
LINE
8
BLACK
6
CONTINUOUS
10
5.2411417322834648
20
-3.814566929133858
11
5.23910779527559
21
-3.8141623622047245
0
LINE
8
BLACK
6
CONTINUOUS
10
5.23910779527559
20
-3.8141623622047245
11
5.237383503937008
21
-3.8130101968503936
0
LINE
8
BLACK
6
CONTINUOUS
10
5.237383503937008
20
-3.8130101968503936
11
5.2362313385826766
21
-3.8112859055118111
0
LINE
8
BLACK
6
CONTINUOUS
10
5.2362313385826766
20
-3.8112859055118111
11
5.2358267716535432
21
-3.8092519685039368
0
LINE
8
BLACK
6
CONTINUOUS
10
5.2358267716535432
20
-3.8092519685039368
11
5.2358267716535432
21
-3.7986220472440944
0
LINE
8
BLACK
6
CONTINUOUS
10
5.2358267716535432
20
-3.7986220472440944
11
5.2362313385826766
21
-3.7965881102362204
0
LINE
8
BLACK
6
CONTINUOUS
10
5.2362313385826766
20
-3.7965881102362204
11
5.237383503937008
21
-3.7948638188976376
0
LINE
8
BLACK
6
CONTINUOUS
10
5.237383503937008
20
-3.7948638188976376
11
5.23910779527559
21
-3.7937116535433071
0
LINE
8
BLACK
6
CONTINUOUS
10
5.23910779527559
20
-3.7937116535433071
11
5.2411417322834648
21
-3.7933070866141732
0
LINE
8
BLACK
6
CONTINUOUS
10
5.2411417322834648
20
-3.7933070866141732
11
5.255708661417323
21
-3.7933070866141732
0
LINE
8
BLACK
6
CONTINUOUS
10
5.255708661417323
20
-3.7933070866141732
11
5.2577425984251969
21
-3.7937116535433071
0
LINE
8
BLACK
6
CONTINUOUS
10
5.3855738582677164
20
-3.7673487007874016
11
5.3873620078740156
21
-3.7685435039370079
0
LINE
8
BLACK
6
CONTINUOUS
10
5.3873620078740156
20
-3.7685435039370079
11
5.3885568110236219
21
-3.7703316535433071
0
LINE
8
BLACK
6
CONTINUOUS
10
5.3885568110236219
20
-3.7703316535433071
11
5.3889763779527557
21
-3.7724409448818896
0
LINE
8
BLACK
6
CONTINUOUS
10
5.3889763779527557
20
-3.7724409448818896
11
5.3889763779527557
21
-3.7834645669291338
0
LINE
8
BLACK
6
CONTINUOUS
10
5.3889763779527557
20
-3.7834645669291338
11
5.3885568110236219
21
-3.7855738582677163
0
LINE
8
BLACK
6
CONTINUOUS
10
5.3885568110236219
20
-3.7855738582677163
11
5.3873620078740156
21
-3.7873620078740156
0
LINE
8
BLACK
6
CONTINUOUS
10
5.3873620078740156
20
-3.7873620078740156
11
5.3855738582677164
21
-3.7885568110236219
0
LINE
8
BLACK
6
CONTINUOUS
10
5.3855738582677164
20
-3.7885568110236219
11
5.3834645669291339
21
-3.7889763779527557
0
LINE
8
BLACK
6
CONTINUOUS
10
5.3834645669291339
20
-3.7889763779527557
11
5.3700787401574805
21
-3.7889763779527557
0
LINE
8
BLACK
6
CONTINUOUS
10
5.3700787401574805
20
-3.7889763779527557
11
5.3679694488188971
21
-3.7885568110236219
0
LINE
8
BLACK
6
CONTINUOUS
10
5.3679694488188971
20
-3.7885568110236219
11
5.3661812992125979
21
-3.7873620078740156
0
LINE
8
BLACK
6
CONTINUOUS
10
5.3661812992125979
20
-3.7873620078740156
11
5.3649864960629916
21
-3.7855738582677163
0
LINE
8
BLACK
6
CONTINUOUS
10
5.3649864960629916
20
-3.7855738582677163
11
5.3645669291338578
21
-3.7834645669291338
0
LINE
8
BLACK
6
CONTINUOUS
10
5.3645669291338578
20
-3.7834645669291338
11
5.3645669291338578
21
-3.7724409448818896
0
LINE
8
BLACK
6
CONTINUOUS
10
5.3645669291338578
20
-3.7724409448818896
11
5.3649864960629916
21
-3.7703316535433071
0
LINE
8
BLACK
6
CONTINUOUS
10
5.3649864960629916
20
-3.7703316535433071
11
5.3661812992125979
21
-3.7685435039370079
0
LINE
8
BLACK
6
CONTINUOUS
10
5.3661812992125979
20
-3.7685435039370079
11
5.3679694488188971
21
-3.7673487007874016
0
LINE
8
BLACK
6
CONTINUOUS
10
5.3679694488188971
20
-3.7673487007874016
11
5.3700787401574805
21
-3.7669291338582678
0
LINE
8
BLACK
6
CONTINUOUS
10
5.3700787401574805
20
-3.7669291338582678
11
5.3834645669291339
21
-3.7669291338582678
0
LINE
8
BLACK
6
CONTINUOUS
10
5.3834645669291339
20
-3.7669291338582678
11
5.3855738582677164
21
-3.7673487007874016
0
LINE
8
BLACK
6
CONTINUOUS
10
5.551868582677165
20
-3.7406161811023622
11
5.5546625984251969
21
-3.7424830708661418
0
LINE
8
BLACK
6
CONTINUOUS
10
5.5546625984251969
20
-3.7424830708661418
11
5.5565294881889766
21
-3.7452770866141734
0
LINE
8
BLACK
6
CONTINUOUS
10
5.5565294881889766
20
-3.7452770866141734
11
5.5571850393700783
21
-3.7485728346456693
0
LINE
8
BLACK
6
CONTINUOUS
10
5.5571850393700783
20
-3.7485728346456693
11
5.5571850393700783
21
-3.7687499999999998
0
LINE
8
BLACK
6
CONTINUOUS
10
5.5571850393700783
20
-3.7687499999999998
11
5.5565294881889766
21
-3.7720457480314962
0
LINE
8
BLACK
6
CONTINUOUS
10
5.5565294881889766
20
-3.7720457480314962
11
5.5546625984251969
21
-3.7748397637795277
0
LINE
8
BLACK
6
CONTINUOUS
10
5.5546625984251969
20
-3.7748397637795277
11
5.551868582677165
21
-3.7767066535433069
0
LINE
8
BLACK
6
CONTINUOUS
10
5.551868582677165
20
-3.7767066535433069
11
5.5485728346456691
21
-3.7773622047244095
0
LINE
8
BLACK
6
CONTINUOUS
10
5.5485728346456691
20
-3.7773622047244095
11
5.5313484251968505
21
-3.7773622047244095
0
LINE
8
BLACK
6
CONTINUOUS
10
5.5313484251968505
20
-3.7773622047244095
11
5.5280526771653546
21
-3.7767066535433069
0
LINE
8
BLACK
6
CONTINUOUS
10
5.5280526771653546
20
-3.7767066535433069
11
5.5252586614173227
21
-3.7748397637795277
0
LINE
8
BLACK
6
CONTINUOUS
10
5.5252586614173227
20
-3.7748397637795277
11
5.523391771653543
21
-3.7720457480314962
0
LINE
8
BLACK
6
CONTINUOUS
10
5.523391771653543
20
-3.7720457480314962
11
5.5227362204724404
21
-3.7687499999999998
0
LINE
8
BLACK
6
CONTINUOUS
10
5.5227362204724404
20
-3.7687499999999998
11
5.5227362204724404
21
-3.7485728346456693
0
LINE
8
BLACK
6
CONTINUOUS
10
5.5227362204724404
20
-3.7485728346456693
11
5.523391771653543
21
-3.7452770866141734
0
LINE
8
BLACK
6
CONTINUOUS
10
5.523391771653543
20
-3.7452770866141734
11
5.5252586614173227
21
-3.7424830708661418
0
LINE
8
BLACK
6
CONTINUOUS
10
5.5252586614173227
20
-3.7424830708661418
11
5.5280526771653546
21
-3.7406161811023622
0
LINE
8
BLACK
6
CONTINUOUS
10
5.5280526771653546
20
-3.7406161811023622
11
5.5313484251968505
21
-3.7399606299212595
0
LINE
8
BLACK
6
CONTINUOUS
10
5.5313484251968505
20
-3.7399606299212595
11
5.5485728346456691
21
-3.7399606299212595
0
LINE
8
BLACK
6
CONTINUOUS
10
5.5485728346456691
20
-3.7399606299212595
11
5.551868582677165
21
-3.7406161811023622
0
LINE
8
BLACK
6
CONTINUOUS
10
5.6138764566929131
20
-3.7406161811023622
11
5.6166704724409451
21
-3.7424830708661418
0
LINE
8
BLACK
6
CONTINUOUS
10
5.6166704724409451
20
-3.7424830708661418
11
5.6185373622047239
21
-3.7452770866141734
0
LINE
8
BLACK
6
CONTINUOUS
10
5.6185373622047239
20
-3.7452770866141734
11
5.6191929133858265
21
-3.7485728346456693
0
LINE
8
BLACK
6
CONTINUOUS
10
5.6191929133858265
20
-3.7485728346456693
11
5.6191929133858265
21
-3.7687499999999998
0
LINE
8
BLACK
6
CONTINUOUS
10
5.6191929133858265
20
-3.7687499999999998
11
5.6185373622047239
21
-3.7720457480314962
0
LINE
8
BLACK
6
CONTINUOUS
10
5.6185373622047239
20
-3.7720457480314962
11
5.6166704724409451
21
-3.7748397637795277
0
LINE
8
BLACK
6
CONTINUOUS
10
5.6166704724409451
20
-3.7748397637795277
11
5.6138764566929131
21
-3.7767066535433069
0
LINE
8
BLACK
6
CONTINUOUS
10
5.6138764566929131
20
-3.7767066535433069
11
5.6105807086614172
21
-3.7773622047244095
0
LINE
8
BLACK
6
CONTINUOUS
10
5.6105807086614172
20
-3.7773622047244095
11
5.5933562992125987
21
-3.7773622047244095
0
LINE
8
BLACK
6
CONTINUOUS
10
5.5933562992125987
20
-3.7773622047244095
11
5.5900605511811019
21
-3.7767066535433069
0
LINE
8
BLACK
6
CONTINUOUS
10
5.5900605511811019
20
-3.7767066535433069
11
5.5872665354330708
21
-3.7748397637795277
0
LINE
8
BLACK
6
CONTINUOUS
10
5.5872665354330708
20
-3.7748397637795277
11
5.5853996456692911
21
-3.7720457480314962
0
LINE
8
BLACK
6
CONTINUOUS
10
5.5853996456692911
20
-3.7720457480314962
11
5.5847440944881885
21
-3.7687499999999998
0
LINE
8
BLACK
6
CONTINUOUS
10
5.5847440944881885
20
-3.7687499999999998
11
5.5847440944881885
21
-3.7485728346456693
0
LINE
8
BLACK
6
CONTINUOUS
10
5.5847440944881885
20
-3.7485728346456693
11
5.5853996456692911
21
-3.7452770866141734
0
LINE
8
BLACK
6
CONTINUOUS
10
5.5853996456692911
20
-3.7452770866141734
11
5.5872665354330708
21
-3.7424830708661418
0
LINE
8
BLACK
6
CONTINUOUS
10
5.5872665354330708
20
-3.7424830708661418
11
5.5900605511811019
21
-3.7406161811023622
0
LINE
8
BLACK
6
CONTINUOUS
10
5.5900605511811019
20
-3.7406161811023622
11
5.5933562992125987
21
-3.7399606299212595
0
LINE
8
BLACK
6
CONTINUOUS
10
5.5933562992125987
20
-3.7399606299212595
11
5.6105807086614172
21
-3.7399606299212595
0
LINE
8
BLACK
6
CONTINUOUS
10
5.6105807086614172
20
-3.7399606299212595
11
5.6138764566929131
21
-3.7406161811023622
0
LINE
8
BLACK
6
CONTINUOUS
10
5.2577425984251969
20
-3.7535541732283462
11
5.2594668897637797
21
-3.7547063385826771
0
LINE
8
BLACK
6
CONTINUOUS
10
5.2594668897637797
20
-3.7547063385826771
11
5.2606190551181102
21
-3.75643062992126
0
LINE
8
BLACK
6
CONTINUOUS
10
5.2606190551181102
20
-3.75643062992126
11
5.2610236220472437
21
-3.7584645669291339
0
LINE
8
BLACK
6
CONTINUOUS
10
5.2610236220472437
20
-3.7584645669291339
11
5.2610236220472437
21
-3.7690944881889763
0
LINE
8
BLACK
6
CONTINUOUS
10
5.2610236220472437
20
-3.7690944881889763
11
5.2606190551181102
21
-3.7711284251968502
0
LINE
8
BLACK
6
CONTINUOUS
10
5.2606190551181102
20
-3.7711284251968502
11
5.2594668897637797
21
-3.7728527165354331
0
LINE
8
BLACK
6
CONTINUOUS
10
5.2594668897637797
20
-3.7728527165354331
11
5.2577425984251969
21
-3.7740048818897636
0
LINE
8
BLACK
6
CONTINUOUS
10
5.2577425984251969
20
-3.7740048818897636
11
5.255708661417323
21
-3.7744094488188975
0
LINE
8
BLACK
6
CONTINUOUS
10
5.255708661417323
20
-3.7744094488188975
11
5.2411417322834648
21
-3.7744094488188975
0
LINE
8
BLACK
6
CONTINUOUS
10
5.2411417322834648
20
-3.7744094488188975
11
5.23910779527559
21
-3.7740048818897636
0
LINE
8
BLACK
6
CONTINUOUS
10
5.23910779527559
20
-3.7740048818897636
11
5.237383503937008
21
-3.7728527165354331
0
LINE
8
BLACK
6
CONTINUOUS
10
5.237383503937008
20
-3.7728527165354331
11
5.2362313385826766
21
-3.7711284251968502
0
LINE
8
BLACK
6
CONTINUOUS
10
5.2362313385826766
20
-3.7711284251968502
11
5.2358267716535432
21
-3.7690944881889763
0
LINE
8
BLACK
6
CONTINUOUS
10
5.2358267716535432
20
-3.7690944881889763
11
5.2358267716535432
21
-3.7584645669291339
0
LINE
8
BLACK
6
CONTINUOUS
10
5.2358267716535432
20
-3.7584645669291339
11
5.2362313385826766
21
-3.75643062992126
0
LINE
8
BLACK
6
CONTINUOUS
10
5.2362313385826766
20
-3.75643062992126
11
5.237383503937008
21
-3.7547063385826771
0
LINE
8
BLACK
6
CONTINUOUS
10
5.237383503937008
20
-3.7547063385826771
11
5.23910779527559
21
-3.7535541732283462
0
LINE
8
BLACK
6
CONTINUOUS
10
5.23910779527559
20
-3.7535541732283462
11
5.2411417322834648
21
-3.7531496062992127
0
LINE
8
BLACK
6
CONTINUOUS
10
5.2411417322834648
20
-3.7531496062992127
11
5.255708661417323
21
-3.7531496062992127
0
LINE
8
BLACK
6
CONTINUOUS
10
5.255708661417323
20
-3.7531496062992127
11
5.2577425984251969
21
-3.7535541732283462
0
LINE
8
BLACK
6
CONTINUOUS
10
5.4636481102362202
20
-3.7464675590551182
11
5.4653724015748031
21
-3.7476197244094487
0
LINE
8
BLACK
6
CONTINUOUS
10
5.4653724015748031
20
-3.7476197244094487
11
5.4665245669291336
21
-3.7493440157480316
0
LINE
8
BLACK
6
CONTINUOUS
10
5.4665245669291336
20
-3.7493440157480316
11
5.466929133858268
21
-3.7513779527559055
0
LINE
8
BLACK
6
CONTINUOUS
10
5.466929133858268
20
-3.7513779527559055
11
5.466929133858268
21
-3.7659448818897636
0
LINE
8
BLACK
6
CONTINUOUS
10
5.466929133858268
20
-3.7659448818897636
11
5.4665245669291336
21
-3.7679788188976375
0
LINE
8
BLACK
6
CONTINUOUS
10
5.4665245669291336
20
-3.7679788188976375
11
5.4653724015748031
21
-3.7697031102362204
0
LINE
8
BLACK
6
CONTINUOUS
10
5.4653724015748031
20
-3.7697031102362204
11
5.4636481102362202
21
-3.7708552755905509
0
LINE
8
BLACK
6
CONTINUOUS
10
5.4636481102362202
20
-3.7708552755905509
11
5.4616141732283463
21
-3.7712598425196848
0
LINE
8
BLACK
6
CONTINUOUS
10
5.4616141732283463
20
-3.7712598425196848
11
5.4509842519685039
21
-3.7712598425196848
0
LINE
8
BLACK
6
CONTINUOUS
10
5.4509842519685039
20
-3.7712598425196848
11
5.44895031496063
21
-3.7708552755905509
0
LINE
8
BLACK
6
CONTINUOUS
10
5.44895031496063
20
-3.7708552755905509
11
5.4472260236220471
21
-3.7697031102362204
0
LINE
8
BLACK
6
CONTINUOUS
10
5.4472260236220471
20
-3.7697031102362204
11
5.4460738582677166
21
-3.7679788188976375
0
LINE
8
BLACK
6
CONTINUOUS
10
5.4460738582677166
20
-3.7679788188976375
11
5.4456692913385822
21
-3.7659448818897636
0
LINE
8
BLACK
6
CONTINUOUS
10
5.4456692913385822
20
-3.7659448818897636
11
5.4456692913385822
21
-3.7513779527559055
0
LINE
8
BLACK
6
CONTINUOUS
10
5.4456692913385822
20
-3.7513779527559055
11
5.4460738582677166
21
-3.7493440157480316
0
LINE
8
BLACK
6
CONTINUOUS
10
5.4460738582677166
20
-3.7493440157480316
11
5.4472260236220471
21
-3.7476197244094487
0
LINE
8
BLACK
6
CONTINUOUS
10
5.4472260236220471
20
-3.7476197244094487
11
5.44895031496063
21
-3.7464675590551182
0
LINE
8
BLACK
6
CONTINUOUS
10
5.44895031496063
20
-3.7464675590551182
11
5.4509842519685039
21
-3.7460629921259843
0
LINE
8
BLACK
6
CONTINUOUS
10
5.4509842519685039
20
-3.7460629921259843
11
5.4616141732283463
21
-3.7460629921259843
0
LINE
8
BLACK
6
CONTINUOUS
10
5.4616141732283463
20
-3.7460629921259843
11
5.4636481102362202
21
-3.7464675590551182
0
LINE
8
BLACK
6
CONTINUOUS
10
5.5038055905511811
20
-3.7464675590551182
11
5.505529881889764
21
-3.7476197244094487
0
LINE
8
BLACK
6
CONTINUOUS
10
5.505529881889764
20
-3.7476197244094487
11
5.5066820472440945
21
-3.7493440157480316
0
LINE
8
BLACK
6
CONTINUOUS
10
5.5066820472440945
20
-3.7493440157480316
11
5.507086614173228
21
-3.7513779527559055
0
LINE
8
BLACK
6
CONTINUOUS
10
5.507086614173228
20
-3.7513779527559055
11
5.507086614173228
21
-3.7659448818897636
0
LINE
8
BLACK
6
CONTINUOUS
10
5.507086614173228
20
-3.7659448818897636
11
5.5066820472440945
21
-3.7679788188976375
0
LINE
8
BLACK
6
CONTINUOUS
10
5.5066820472440945
20
-3.7679788188976375
11
5.505529881889764
21
-3.7697031102362204
0
LINE
8
BLACK
6
CONTINUOUS
10
5.505529881889764
20
-3.7697031102362204
11
5.5038055905511811
21
-3.7708552755905509
0
LINE
8
BLACK
6
CONTINUOUS
10
5.5038055905511811
20
-3.7708552755905509
11
5.5017716535433072
21
-3.7712598425196848
0
LINE
8
BLACK
6
CONTINUOUS
10
5.5017716535433072
20
-3.7712598425196848
11
5.4911417322834648
21
-3.7712598425196848
0
LINE
8
BLACK
6
CONTINUOUS
10
5.4911417322834648
20
-3.7712598425196848
11
5.48910779527559
21
-3.7708552755905509
0
LINE
8
BLACK
6
CONTINUOUS
10
5.48910779527559
20
-3.7708552755905509
11
5.487383503937008
21
-3.7697031102362204
0
LINE
8
BLACK
6
CONTINUOUS
10
5.487383503937008
20
-3.7697031102362204
11
5.4862313385826766
21
-3.7679788188976375
0
LINE
8
BLACK
6
CONTINUOUS
10
5.4862313385826766
20
-3.7679788188976375
11
5.4858267716535432
21
-3.7659448818897636
0
LINE
8
BLACK
6
CONTINUOUS
10
5.4858267716535432
20
-3.7659448818897636
11
5.4858267716535432
21
-3.7513779527559055
0
LINE
8
BLACK
6
CONTINUOUS
10
5.4858267716535432
20
-3.7513779527559055
11
5.4862313385826766
21
-3.7493440157480316
0
LINE
8
BLACK
6
CONTINUOUS
10
5.4862313385826766
20
-3.7493440157480316
11
5.487383503937008
21
-3.7476197244094487
0
LINE
8
BLACK
6
CONTINUOUS
10
5.487383503937008
20
-3.7476197244094487
11
5.48910779527559
21
-3.7464675590551182
0
LINE
8
BLACK
6
CONTINUOUS
10
5.48910779527559
20
-3.7464675590551182
11
5.4911417322834648
21
-3.7460629921259843
0
LINE
8
BLACK
6
CONTINUOUS
10
5.4911417322834648
20
-3.7460629921259843
11
5.5017716535433072
21
-3.7460629921259843
0
LINE
8
BLACK
6
CONTINUOUS
10
5.5017716535433072
20
-3.7460629921259843
11
5.5038055905511811
21
-3.7464675590551182
0
LINE
8
BLACK
6
CONTINUOUS
10
5.0792746456692912
20
-3.7417581496062993
11
5.0810627952755905
21
-3.7429529527559056
0
LINE
8
BLACK
6
CONTINUOUS
10
5.0810627952755905
20
-3.7429529527559056
11
5.0822575984251968
21
-3.7447411023622048
0
LINE
8
BLACK
6
CONTINUOUS
10
5.0822575984251968
20
-3.7447411023622048
11
5.0826771653543306
21
-3.7468503937007873
0
LINE
8
BLACK
6
CONTINUOUS
10
5.0826771653543306
20
-3.7468503937007873
11
5.0826771653543306
21
-3.7578740157480315
0
LINE
8
BLACK
6
CONTINUOUS
10
5.0826771653543306
20
-3.7578740157480315
11
5.0822575984251968
21
-3.759983307086614
0
LINE
8
BLACK
6
CONTINUOUS
10
5.0822575984251968
20
-3.759983307086614
11
5.0810627952755905
21
-3.7617714566929132
0
LINE
8
BLACK
6
CONTINUOUS
10
5.0810627952755905
20
-3.7617714566929132
11
5.0792746456692912
21
-3.7629662598425195
0
LINE
8
BLACK
6
CONTINUOUS
10
5.0792746456692912
20
-3.7629662598425195
11
5.0771653543307087
21
-3.7633858267716533
0
LINE
8
BLACK
6
CONTINUOUS
10
5.0771653543307087
20
-3.7633858267716533
11
5.0637795275590554
21
-3.7633858267716533
0
LINE
8
BLACK
6
CONTINUOUS
10
5.0637795275590554
20
-3.7633858267716533
11
5.061670236220472
21
-3.7629662598425195
0
LINE
8
BLACK
6
CONTINUOUS
10
5.061670236220472
20
-3.7629662598425195
11
5.0598820866141727
21
-3.7617714566929132
0
LINE
8
BLACK
6
CONTINUOUS
10
5.0598820866141727
20
-3.7617714566929132
11
5.0586872834645664
21
-3.759983307086614
0
LINE
8
BLACK
6
CONTINUOUS
10
5.0586872834645664
20
-3.759983307086614
11
5.0582677165354326
21
-3.7578740157480315
0
LINE
8
BLACK
6
CONTINUOUS
10
5.0582677165354326
20
-3.7578740157480315
11
5.0582677165354326
21
-3.7468503937007873
0
LINE
8
BLACK
6
CONTINUOUS
10
5.0582677165354326
20
-3.7468503937007873
11
5.0586872834645664
21
-3.7447411023622048
0
LINE
8
BLACK
6
CONTINUOUS
10
5.0586872834645664
20
-3.7447411023622048
11
5.0598820866141727
21
-3.7429529527559056
0
LINE
8
BLACK
6
CONTINUOUS
10
5.0598820866141727
20
-3.7429529527559056
11
5.061670236220472
21
-3.7417581496062993
0
LINE
8
BLACK
6
CONTINUOUS
10
5.061670236220472
20
-3.7417581496062993
11
5.0637795275590554
21
-3.7413385826771655
0
LINE
8
BLACK
6
CONTINUOUS
10
5.0637795275590554
20
-3.7413385826771655
11
5.0771653543307087
21
-3.7413385826771655
0
LINE
8
BLACK
6
CONTINUOUS
10
5.0771653543307087
20
-3.7413385826771655
11
5.0792746456692912
21
-3.7417581496062993
0
LINE
8
BLACK
6
CONTINUOUS
10
5.3855738582677164
20
-3.7295534251968503
11
5.3873620078740156
21
-3.7307482283464566
0
LINE
8
BLACK
6
CONTINUOUS
10
5.3873620078740156
20
-3.7307482283464566
11
5.3885568110236219
21
-3.7325363779527558
0
LINE
8
BLACK
6
CONTINUOUS
10
5.3885568110236219
20
-3.7325363779527558
11
5.3889763779527557
21
-3.7346456692913383
0
LINE
8
BLACK
6
CONTINUOUS
10
5.3889763779527557
20
-3.7346456692913383
11
5.3889763779527557
21
-3.7456692913385825
0
LINE
8
BLACK
6
CONTINUOUS
10
5.3889763779527557
20
-3.7456692913385825
11
5.3885568110236219
21
-3.7477785826771655
0
LINE
8
BLACK
6
CONTINUOUS
10
5.3885568110236219
20
-3.7477785826771655
11
5.3873620078740156
21
-3.7495667322834643
0
LINE
8
BLACK
6
CONTINUOUS
10
5.3873620078740156
20
-3.7495667322834643
11
5.3855738582677164
21
-3.7507615354330706
0
LINE
8
BLACK
6
CONTINUOUS
10
5.3855738582677164
20
-3.7507615354330706
11
5.3834645669291339
21
-3.7511811023622048
0
LINE
8
BLACK
6
CONTINUOUS
10
5.3834645669291339
20
-3.7511811023622048
11
5.3700787401574805
21
-3.7511811023622048
0
LINE
8
BLACK
6
CONTINUOUS
10
5.3700787401574805
20
-3.7511811023622048
11
5.3679694488188971
21
-3.7507615354330706
0
LINE
8
BLACK
6
CONTINUOUS
10
5.3679694488188971
20
-3.7507615354330706
11
5.3661812992125979
21
-3.7495667322834643
0
LINE
8
BLACK
6
CONTINUOUS
10
5.3661812992125979
20
-3.7495667322834643
11
5.3649864960629916
21
-3.7477785826771655
0
LINE
8
BLACK
6
CONTINUOUS
10
5.3649864960629916
20
-3.7477785826771655
11
5.3645669291338578
21
-3.7456692913385825
0
LINE
8
BLACK
6
CONTINUOUS
10
5.3645669291338578
20
-3.7456692913385825
11
5.3645669291338578
21
-3.7346456692913383
0
LINE
8
BLACK
6
CONTINUOUS
10
5.3645669291338578
20
-3.7346456692913383
11
5.3649864960629916
21
-3.7325363779527558
0
LINE
8
BLACK
6
CONTINUOUS
10
5.3649864960629916
20
-3.7325363779527558
11
5.3661812992125979
21
-3.7307482283464566
0
LINE
8
BLACK
6
CONTINUOUS
10
5.3661812992125979
20
-3.7307482283464566
11
5.3679694488188971
21
-3.7295534251968503
0
LINE
8
BLACK
6
CONTINUOUS
10
5.3679694488188971
20
-3.7295534251968503
11
5.3700787401574805
21
-3.7291338582677165
0
LINE
8
BLACK
6
CONTINUOUS
10
5.3700787401574805
20
-3.7291338582677165
11
5.3834645669291339
21
-3.7291338582677165
0
LINE
8
BLACK
6
CONTINUOUS
10
5.3834645669291339
20
-3.7291338582677165
11
5.3855738582677164
21
-3.7295534251968503
0
LINE
8
BLACK
6
CONTINUOUS
10
5.2577425984251969
20
-3.7204833070866141
11
5.2594668897637797
21
-3.7216354724409446
0
LINE
8
BLACK
6
CONTINUOUS
10
5.2594668897637797
20
-3.7216354724409446
11
5.2606190551181102
21
-3.7233597637795275
0
LINE
8
BLACK
6
CONTINUOUS
10
5.2606190551181102
20
-3.7233597637795275
11
5.2610236220472437
21
-3.7253937007874014
0
LINE
8
BLACK
6
CONTINUOUS
10
5.2610236220472437
20
-3.7253937007874014
11
5.2610236220472437
21
-3.7360236220472438
0
LINE
8
BLACK
6
CONTINUOUS
10
5.2610236220472437
20
-3.7360236220472438
11
5.2606190551181102
21
-3.7380575590551182
0
LINE
8
BLACK
6
CONTINUOUS
10
5.2606190551181102
20
-3.7380575590551182
11
5.2594668897637797
21
-3.7397818503937006
0
LINE
8
BLACK
6
CONTINUOUS
10
5.2594668897637797
20
-3.7397818503937006
11
5.2577425984251969
21
-3.7409340157480315
0
LINE
8
BLACK
6
CONTINUOUS
10
5.2577425984251969
20
-3.7409340157480315
11
5.255708661417323
21
-3.7413385826771655
0
LINE
8
BLACK
6
CONTINUOUS
10
5.255708661417323
20
-3.7413385826771655
11
5.2411417322834648
21
-3.7413385826771655
0
LINE
8
BLACK
6
CONTINUOUS
10
5.2411417322834648
20
-3.7413385826771655
11
5.23910779527559
21
-3.7409340157480315
0
LINE
8
BLACK
6
CONTINUOUS
10
5.23910779527559
20
-3.7409340157480315
11
5.237383503937008
21
-3.7397818503937006
0
LINE
8
BLACK
6
CONTINUOUS
10
5.237383503937008
20
-3.7397818503937006
11
5.2362313385826766
21
-3.7380575590551182
0
LINE
8
BLACK
6
CONTINUOUS
10
5.2362313385826766
20
-3.7380575590551182
11
5.2358267716535432
21
-3.7360236220472438
0
LINE
8
BLACK
6
CONTINUOUS
10
5.2358267716535432
20
-3.7360236220472438
11
5.2358267716535432
21
-3.7253937007874014
0
LINE
8
BLACK
6
CONTINUOUS
10
5.2358267716535432
20
-3.7253937007874014
11
5.2362313385826766
21
-3.7233597637795275
0
LINE
8
BLACK
6
CONTINUOUS
10
5.2362313385826766
20
-3.7233597637795275
11
5.237383503937008
21
-3.7216354724409446
0
LINE
8
BLACK
6
CONTINUOUS
10
5.237383503937008
20
-3.7216354724409446
11
5.23910779527559
21
-3.7204833070866141
0
LINE
8
BLACK
6
CONTINUOUS
10
5.23910779527559
20
-3.7204833070866141
11
5.2411417322834648
21
-3.7200787401574802
0
LINE
8
BLACK
6
CONTINUOUS
10
5.2411417322834648
20
-3.7200787401574802
11
5.255708661417323
21
-3.7200787401574802
0
LINE
8
BLACK
6
CONTINUOUS
10
5.255708661417323
20
-3.7200787401574802
11
5.2577425984251969
21
-3.7204833070866141
0
LINE
8
BLACK
6
CONTINUOUS
10
5.1282442125984247
20
-3.688933779527559
11
5.1301600787401576
21
-3.6902139370078739
0
LINE
8
BLACK
6
CONTINUOUS
10
5.1301600787401576
20
-3.6902139370078739
11
5.1314402362204721
21
-3.6921298031496064
0
LINE
8
BLACK
6
CONTINUOUS
10
5.1314402362204721
20
-3.6921298031496064
11
5.1318897637795278
21
-3.6943897637795273
0
LINE
8
BLACK
6
CONTINUOUS
10
5.1318897637795278
20
-3.6943897637795273
11
5.1318897637795278
21
-3.7347440944881889
0
LINE
8
BLACK
6
CONTINUOUS
10
5.1318897637795278
20
-3.7347440944881889
11
5.1314402362204721
21
-3.7370040551181103
0
LINE
8
BLACK
6
CONTINUOUS
10
5.1314402362204721
20
-3.7370040551181103
11
5.1301600787401576
21
-3.7389199212598423
0
LINE
8
BLACK
6
CONTINUOUS
10
5.1301600787401576
20
-3.7389199212598423
11
5.1282442125984247
21
-3.7402000787401573
0
LINE
8
BLACK
6
CONTINUOUS
10
5.1282442125984247
20
-3.7402000787401573
11
5.1259842519685037
21
-3.7406496062992125
0
LINE
8
BLACK
6
CONTINUOUS
10
5.1259842519685037
20
-3.7406496062992125
11
5.1141732283464565
21
-3.7406496062992125
0
LINE
8
BLACK
6
CONTINUOUS
10
5.1141732283464565
20
-3.7406496062992125
11
5.1119132677165355
21
-3.7402000787401573
0
LINE
8
BLACK
6
CONTINUOUS
10
5.1119132677165355
20
-3.7402000787401573
11
5.1099974015748026
21
-3.7389199212598423
0
LINE
8
BLACK
6
CONTINUOUS
10
5.1099974015748026
20
-3.7389199212598423
11
5.1087172440944881
21
-3.7370040551181103
0
LINE
8
BLACK
6
CONTINUOUS
10
5.1087172440944881
20
-3.7370040551181103
11
5.1082677165354333
21
-3.7347440944881889
0
LINE
8
BLACK
6
CONTINUOUS
10
5.1082677165354333
20
-3.7347440944881889
11
5.1082677165354333
21
-3.6943897637795273
0
LINE
8
BLACK
6
CONTINUOUS
10
5.1082677165354333
20
-3.6943897637795273
11
5.1087172440944881
21
-3.6921298031496064
0
LINE
8
BLACK
6
CONTINUOUS
10
5.1087172440944881
20
-3.6921298031496064
11
5.1099974015748026
21
-3.6902139370078739
0
LINE
8
BLACK
6
CONTINUOUS
10
5.1099974015748026
20
-3.6902139370078739
11
5.1119132677165355
21
-3.688933779527559
0
LINE
8
BLACK
6
CONTINUOUS
10
5.1119132677165355
20
-3.688933779527559
11
5.1141732283464565
21
-3.6884842519685037
0
LINE
8
BLACK
6
CONTINUOUS
10
5.1141732283464565
20
-3.6884842519685037
11
5.1259842519685037
21
-3.6884842519685037
0
LINE
8
BLACK
6
CONTINUOUS
10
5.1259842519685037
20
-3.6884842519685037
11
5.1282442125984247
21
-3.688933779527559
0
LINE
8
BLACK
6
CONTINUOUS
10
5.1656457874015747
20
-3.688933779527559
11
5.1675616535433067
21
-3.6902139370078739
0
LINE
8
BLACK
6
CONTINUOUS
10
5.1675616535433067
20
-3.6902139370078739
11
5.1688418110236221
21
-3.6921298031496064
0
LINE
8
BLACK
6
CONTINUOUS
10
5.1688418110236221
20
-3.6921298031496064
11
5.1692913385826769
21
-3.6943897637795273
0
LINE
8
BLACK
6
CONTINUOUS
10
5.1692913385826769
20
-3.6943897637795273
11
5.1692913385826769
21
-3.7347440944881889
0
LINE
8
BLACK
6
CONTINUOUS
10
5.1692913385826769
20
-3.7347440944881889
11
5.1688418110236221
21
-3.7370040551181103
0
LINE
8
BLACK
6
CONTINUOUS
10
5.1688418110236221
20
-3.7370040551181103
11
5.1675616535433067
21
-3.7389199212598423
0
LINE
8
BLACK
6
CONTINUOUS
10
5.1675616535433067
20
-3.7389199212598423
11
5.1656457874015747
21
-3.7402000787401573
0
LINE
8
BLACK
6
CONTINUOUS
10
5.1656457874015747
20
-3.7402000787401573
11
5.1633858267716537
21
-3.7406496062992125
0
LINE
8
BLACK
6
CONTINUOUS
10
5.1633858267716537
20
-3.7406496062992125
11
5.1515748031496065
21
-3.7406496062992125
0
LINE
8
BLACK
6
CONTINUOUS
10
5.1515748031496065
20
-3.7406496062992125
11
5.1493148425196846
21
-3.7402000787401573
0
LINE
8
BLACK
6
CONTINUOUS
10
5.1493148425196846
20
-3.7402000787401573
11
5.1473989763779526
21
-3.7389199212598423
0
LINE
8
BLACK
6
CONTINUOUS
10
5.1473989763779526
20
-3.7389199212598423
11
5.1461188188976381
21
-3.7370040551181103
0
LINE
8
BLACK
6
CONTINUOUS
10
5.1461188188976381
20
-3.7370040551181103
11
5.1456692913385824
21
-3.7347440944881889
0
LINE
8
BLACK
6
CONTINUOUS
10
5.1456692913385824
20
-3.7347440944881889
11
5.1456692913385824
21
-3.6943897637795273
0
LINE
8
BLACK
6
CONTINUOUS
10
5.1456692913385824
20
-3.6943897637795273
11
5.1461188188976381
21
-3.6921298031496064
0
LINE
8
BLACK
6
CONTINUOUS
10
5.1461188188976381
20
-3.6921298031496064
11
5.1473989763779526
21
-3.6902139370078739
0
LINE
8
BLACK
6
CONTINUOUS
10
5.1473989763779526
20
-3.6902139370078739
11
5.1493148425196846
21
-3.688933779527559
0
LINE
8
BLACK
6
CONTINUOUS
10
5.1493148425196846
20
-3.688933779527559
11
5.1515748031496065
21
-3.6884842519685037
0
LINE
8
BLACK
6
CONTINUOUS
10
5.1515748031496065
20
-3.6884842519685037
11
5.1633858267716537
21
-3.6884842519685037
0
LINE
8
BLACK
6
CONTINUOUS
10
5.1633858267716537
20
-3.6884842519685037
11
5.1656457874015747
21
-3.688933779527559
0
LINE
8
BLACK
6
CONTINUOUS
10
5.2030473622047246
20
-3.688933779527559
11
5.2049632283464566
21
-3.6902139370078739
0
LINE
8
BLACK
6
CONTINUOUS
10
5.2049632283464566
20
-3.6902139370078739
11
5.2062433858267712
21
-3.6921298031496064
0
LINE
8
BLACK
6
CONTINUOUS
10
5.2062433858267712
20
-3.6921298031496064
11
5.2066929133858268
21
-3.6943897637795273
0
LINE
8
BLACK
6
CONTINUOUS
10
5.2066929133858268
20
-3.6943897637795273
11
5.2066929133858268
21
-3.7347440944881889
0
LINE
8
BLACK
6
CONTINUOUS
10
5.2066929133858268
20
-3.7347440944881889
11
5.2062433858267712
21
-3.7370040551181103
0
LINE
8
BLACK
6
CONTINUOUS
10
5.2062433858267712
20
-3.7370040551181103
11
5.2049632283464566
21
-3.7389199212598423
0
LINE
8
BLACK
6
CONTINUOUS
10
5.2049632283464566
20
-3.7389199212598423
11
5.2030473622047246
21
-3.7402000787401573
0
LINE
8
BLACK
6
CONTINUOUS
10
5.2030473622047246
20
-3.7402000787401573
11
5.2007874015748028
21
-3.7406496062992125
0
LINE
8
BLACK
6
CONTINUOUS
10
5.2007874015748028
20
-3.7406496062992125
11
5.1889763779527556
21
-3.7406496062992125
0
LINE
8
BLACK
6
CONTINUOUS
10
5.1889763779527556
20
-3.7406496062992125
11
5.1867164173228346
21
-3.7402000787401573
0
LINE
8
BLACK
6
CONTINUOUS
10
5.1867164173228346
20
-3.7402000787401573
11
5.1848005511811026
21
-3.7389199212598423
0
LINE
8
BLACK
6
CONTINUOUS
10
5.1848005511811026
20
-3.7389199212598423
11
5.1835203937007872
21
-3.7370040551181103
0
LINE
8
BLACK
6
CONTINUOUS
10
5.1835203937007872
20
-3.7370040551181103
11
5.1830708661417324
21
-3.7347440944881889
0
LINE
8
BLACK
6
CONTINUOUS
10
5.1830708661417324
20
-3.7347440944881889
11
5.1830708661417324
21
-3.6943897637795273
0
LINE
8
BLACK
6
CONTINUOUS
10
5.1830708661417324
20
-3.6943897637795273
11
5.1835203937007872
21
-3.6921298031496064
0
LINE
8
BLACK
6
CONTINUOUS
10
5.1835203937007872
20
-3.6921298031496064
11
5.1848005511811026
21
-3.6902139370078739
0
LINE
8
BLACK
6
CONTINUOUS
10
5.1848005511811026
20
-3.6902139370078739
11
5.1867164173228346
21
-3.688933779527559
0
LINE
8
BLACK
6
CONTINUOUS
10
5.1867164173228346
20
-3.688933779527559
11
5.1889763779527556
21
-3.6884842519685037
0
LINE
8
BLACK
6
CONTINUOUS
10
5.1889763779527556
20
-3.6884842519685037
11
5.2007874015748028
21
-3.6884842519685037
0
LINE
8
BLACK
6
CONTINUOUS
10
5.2007874015748028
20
-3.6884842519685037
11
5.2030473622047246
21
-3.688933779527559
0
LINE
8
BLACK
6
CONTINUOUS
10
5.0792746456692912
20
-3.703962874015748
11
5.0810627952755905
21
-3.7051576771653543
0
LINE
8
BLACK
6
CONTINUOUS
10
5.0810627952755905
20
-3.7051576771653543
11
5.0822575984251968
21
-3.7069458267716535
0
LINE
8
BLACK
6
CONTINUOUS
10
5.0822575984251968
20
-3.7069458267716535
11
5.0826771653543306
21
-3.709055118110236
0
LINE
8
BLACK
6
CONTINUOUS
10
5.0826771653543306
20
-3.709055118110236
11
5.0826771653543306
21
-3.7200787401574802
0
LINE
8
BLACK
6
CONTINUOUS
10
5.0826771653543306
20
-3.7200787401574802
11
5.0822575984251968
21
-3.7221880314960627
0
LINE
8
BLACK
6
CONTINUOUS
10
5.0822575984251968
20
-3.7221880314960627
11
5.0810627952755905
21
-3.7239761811023619
0
LINE
8
BLACK
6
CONTINUOUS
10
5.0810627952755905
20
-3.7239761811023619
11
5.0792746456692912
21
-3.7251709842519682
0
LINE
8
BLACK
6
CONTINUOUS
10
5.0792746456692912
20
-3.7251709842519682
11
5.0771653543307087
21
-3.7255905511811025
0
LINE
8
BLACK
6
CONTINUOUS
10
5.0771653543307087
20
-3.7255905511811025
11
5.0637795275590554
21
-3.7255905511811025
0
LINE
8
BLACK
6
CONTINUOUS
10
5.0637795275590554
20
-3.7255905511811025
11
5.061670236220472
21
-3.7251709842519682
0
LINE
8
BLACK
6
CONTINUOUS
10
5.061670236220472
20
-3.7251709842519682
11
5.0598820866141727
21
-3.7239761811023619
0
LINE
8
BLACK
6
CONTINUOUS
10
5.0598820866141727
20
-3.7239761811023619
11
5.0586872834645664
21
-3.7221880314960627
0
LINE
8
BLACK
6
CONTINUOUS
10
5.0586872834645664
20
-3.7221880314960627
11
5.0582677165354326
21
-3.7200787401574802
0
LINE
8
BLACK
6
CONTINUOUS
10
5.0582677165354326
20
-3.7200787401574802
11
5.0582677165354326
21
-3.709055118110236
0
LINE
8
BLACK
6
CONTINUOUS
10
5.0582677165354326
20
-3.709055118110236
11
5.0586872834645664
21
-3.7069458267716535
0
LINE
8
BLACK
6
CONTINUOUS
10
5.0586872834645664
20
-3.7069458267716535
11
5.0598820866141727
21
-3.7051576771653543
0
LINE
8
BLACK
6
CONTINUOUS
10
5.0598820866141727
20
-3.7051576771653543
11
5.061670236220472
21
-3.703962874015748
0
LINE
8
BLACK
6
CONTINUOUS
10
5.061670236220472
20
-3.703962874015748
11
5.0637795275590554
21
-3.7035433070866142
0
LINE
8
BLACK
6
CONTINUOUS
10
5.0637795275590554
20
-3.7035433070866142
11
5.0771653543307087
21
-3.7035433070866142
0
LINE
8
BLACK
6
CONTINUOUS
10
5.0771653543307087
20
-3.7035433070866142
11
5.0792746456692912
21
-3.703962874015748
0
LINE
8
BLACK
6
CONTINUOUS
10
5.2577425984251969
20
-3.6803258267716537
11
5.2594668897637797
21
-3.6814779921259841
0
LINE
8
BLACK
6
CONTINUOUS
10
5.2594668897637797
20
-3.6814779921259841
11
5.2606190551181102
21
-3.683202283464567
0
LINE
8
BLACK
6
CONTINUOUS
10
5.2606190551181102
20
-3.683202283464567
11
5.2610236220472437
21
-3.6852362204724409
0
LINE
8
BLACK
6
CONTINUOUS
10
5.2610236220472437
20
-3.6852362204724409
11
5.2610236220472437
21
-3.6958661417322833
0
LINE
8
BLACK
6
CONTINUOUS
10
5.2610236220472437
20
-3.6958661417322833
11
5.2606190551181102
21
-3.6979000787401572
0
LINE
8
BLACK
6
CONTINUOUS
10
5.2606190551181102
20
-3.6979000787401572
11
5.2594668897637797
21
-3.6996243700787401
0
LINE
8
BLACK
6
CONTINUOUS
10
5.2594668897637797
20
-3.6996243700787401
11
5.2577425984251969
21
-3.7007765354330706
0
LINE
8
BLACK
6
CONTINUOUS
10
5.2577425984251969
20
-3.7007765354330706
11
5.255708661417323
21
-3.7011811023622045
0
LINE
8
BLACK
6
CONTINUOUS
10
5.255708661417323
20
-3.7011811023622045
11
5.2411417322834648
21
-3.7011811023622045
0
LINE
8
BLACK
6
CONTINUOUS
10
5.2411417322834648
20
-3.7011811023622045
11
5.23910779527559
21
-3.7007765354330706
0
LINE
8
BLACK
6
CONTINUOUS
10
5.23910779527559
20
-3.7007765354330706
11
5.237383503937008
21
-3.6996243700787401
0
LINE
8
BLACK
6
CONTINUOUS
10
5.237383503937008
20
-3.6996243700787401
11
5.2362313385826766
21
-3.6979000787401572
0
LINE
8
BLACK
6
CONTINUOUS
10
5.2362313385826766
20
-3.6979000787401572
11
5.2358267716535432
21
-3.6958661417322833
0
LINE
8
BLACK
6
CONTINUOUS
10
5.2358267716535432
20
-3.6958661417322833
11
5.2358267716535432
21
-3.6852362204724409
0
LINE
8
BLACK
6
CONTINUOUS
10
5.2358267716535432
20
-3.6852362204724409
11
5.2362313385826766
21
-3.683202283464567
0
LINE
8
BLACK
6
CONTINUOUS
10
5.2362313385826766
20
-3.683202283464567
11
5.237383503937008
21
-3.6814779921259841
0
LINE
8
BLACK
6
CONTINUOUS
10
5.237383503937008
20
-3.6814779921259841
11
5.23910779527559
21
-3.6803258267716537
0
LINE
8
BLACK
6
CONTINUOUS
10
5.23910779527559
20
-3.6803258267716537
11
5.2411417322834648
21
-3.6799212598425197
0
LINE
8
BLACK
6
CONTINUOUS
10
5.2411417322834648
20
-3.6799212598425197
11
5.255708661417323
21
-3.6799212598425197
0
LINE
8
BLACK
6
CONTINUOUS
10
5.255708661417323
20
-3.6799212598425197
11
5.2577425984251969
21
-3.6803258267716537
0
LINE
8
BLACK
6
CONTINUOUS
10
5.0792746456692912
20
-3.6697109055118111
11
5.0810627952755905
21
-3.6709057086614174
0
LINE
8
BLACK
6
CONTINUOUS
10
5.0810627952755905
20
-3.6709057086614174
11
5.0822575984251968
21
-3.6726938582677167
0
LINE
8
BLACK
6
CONTINUOUS
10
5.0822575984251968
20
-3.6726938582677167
11
5.0826771653543306
21
-3.6748031496062992
0
LINE
8
BLACK
6
CONTINUOUS
10
5.0826771653543306
20
-3.6748031496062992
11
5.0826771653543306
21
-3.6858267716535433
0
LINE
8
BLACK
6
CONTINUOUS
10
5.0826771653543306
20
-3.6858267716535433
11
5.0822575984251968
21
-3.6879360629921258
0
LINE
8
BLACK
6
CONTINUOUS
10
5.0822575984251968
20
-3.6879360629921258
11
5.0810627952755905
21
-3.6897242125984251
0
LINE
8
BLACK
6
CONTINUOUS
10
5.0810627952755905
20
-3.6897242125984251
11
5.0792746456692912
21
-3.6909190157480314
0
LINE
8
BLACK
6
CONTINUOUS
10
5.0792746456692912
20
-3.6909190157480314
11
5.0771653543307087
21
-3.6913385826771652
0
LINE
8
BLACK
6
CONTINUOUS
10
5.0771653543307087
20
-3.6913385826771652
11
5.0637795275590554
21
-3.6913385826771652
0
LINE
8
BLACK
6
CONTINUOUS
10
5.0637795275590554
20
-3.6913385826771652
11
5.061670236220472
21
-3.6909190157480314
0
LINE
8
BLACK
6
CONTINUOUS
10
5.061670236220472
20
-3.6909190157480314
11
5.0598820866141727
21
-3.6897242125984251
0
LINE
8
BLACK
6
CONTINUOUS
10
5.0598820866141727
20
-3.6897242125984251
11
5.0586872834645664
21
-3.6879360629921258
0
LINE
8
BLACK
6
CONTINUOUS
10
5.0586872834645664
20
-3.6879360629921258
11
5.0582677165354326
21
-3.6858267716535433
0
LINE
8
BLACK
6
CONTINUOUS
10
5.0582677165354326
20
-3.6858267716535433
11
5.0582677165354326
21
-3.6748031496062992
0
LINE
8
BLACK
6
CONTINUOUS
10
5.0582677165354326
20
-3.6748031496062992
11
5.0586872834645664
21
-3.6726938582677167
0
LINE
8
BLACK
6
CONTINUOUS
10
5.0586872834645664
20
-3.6726938582677167
11
5.0598820866141727
21
-3.6709057086614174
0
LINE
8
BLACK
6
CONTINUOUS
10
5.0598820866141727
20
-3.6709057086614174
11
5.061670236220472
21
-3.6697109055118111
0
LINE
8
BLACK
6
CONTINUOUS
10
5.061670236220472
20
-3.6697109055118111
11
5.0637795275590554
21
-3.6692913385826769
0
LINE
8
BLACK
6
CONTINUOUS
10
5.0637795275590554
20
-3.6692913385826769
11
5.0771653543307087
21
-3.6692913385826769
0
LINE
8
BLACK
6
CONTINUOUS
10
5.0771653543307087
20
-3.6692913385826769
11
5.0792746456692912
21
-3.6697109055118111
0
LINE
8
BLACK
6
CONTINUOUS
10
5.1674636220472436
20
-3.6330967322834646
11
5.1692517716535429
21
-3.6342915354330709
0
LINE
8
BLACK
6
CONTINUOUS
10
5.1692517716535429
20
-3.6342915354330709
11
5.1704465748031492
21
-3.6360796850393702
0
LINE
8
BLACK
6
CONTINUOUS
10
5.1704465748031492
20
-3.6360796850393702
11
5.170866141732283
21
-3.6381889763779527
0
LINE
8
BLACK
6
CONTINUOUS
10
5.170866141732283
20
-3.6381889763779527
11
5.170866141732283
21
-3.651574803149606
0
LINE
8
BLACK
6
CONTINUOUS
10
5.170866141732283
20
-3.651574803149606
11
5.1704465748031492
21
-3.653684094488189
0
LINE
8
BLACK
6
CONTINUOUS
10
5.1704465748031492
20
-3.653684094488189
11
5.1692517716535429
21
-3.6554722440944882
0
LINE
8
BLACK
6
CONTINUOUS
10
5.1692517716535429
20
-3.6554722440944882
11
5.1674636220472436
21
-3.6566670472440945
0
LINE
8
BLACK
6
CONTINUOUS
10
5.1674636220472436
20
-3.6566670472440945
11
5.1653543307086611
21
-3.6570866141732283
0
LINE
8
BLACK
6
CONTINUOUS
10
5.1653543307086611
20
-3.6570866141732283
11
5.1543307086614174
21
-3.6570866141732283
0
LINE
8
BLACK
6
CONTINUOUS
10
5.1543307086614174
20
-3.6570866141732283
11
5.1522214173228349
21
-3.6566670472440945
0
LINE
8
BLACK
6
CONTINUOUS
10
5.1522214173228349
20
-3.6566670472440945
11
5.1504332677165356
21
-3.6554722440944882
0
LINE
8
BLACK
6
CONTINUOUS
10
5.1504332677165356
20
-3.6554722440944882
11
5.1492384645669294
21
-3.653684094488189
0
LINE
8
BLACK
6
CONTINUOUS
10
5.1492384645669294
20
-3.653684094488189
11
5.1488188976377955
21
-3.651574803149606
0
LINE
8
BLACK
6
CONTINUOUS
10
5.1488188976377955
20
-3.651574803149606
11
5.1488188976377955
21
-3.6381889763779527
0
LINE
8
BLACK
6
CONTINUOUS
10
5.1488188976377955
20
-3.6381889763779527
11
5.1492384645669294
21
-3.6360796850393702
0
LINE
8
BLACK
6
CONTINUOUS
10
5.1492384645669294
20
-3.6360796850393702
11
5.1504332677165356
21
-3.6342915354330709
0
LINE
8
BLACK
6
CONTINUOUS
10
5.1504332677165356
20
-3.6342915354330709
11
5.1522214173228349
21
-3.6330967322834646
0
LINE
8
BLACK
6
CONTINUOUS
10
5.1522214173228349
20
-3.6330967322834646
11
5.1543307086614174
21
-3.6326771653543308
0
LINE
8
BLACK
6
CONTINUOUS
10
5.1543307086614174
20
-3.6326771653543308
11
5.1653543307086611
21
-3.6326771653543308
0
LINE
8
BLACK
6
CONTINUOUS
10
5.1653543307086611
20
-3.6326771653543308
11
5.1674636220472436
21
-3.6330967322834646
0
LINE
8
BLACK
6
CONTINUOUS
10
5.2052588976377949
20
-3.6330967322834646
11
5.2070470472440942
21
-3.6342915354330709
0
LINE
8
BLACK
6
CONTINUOUS
10
5.2070470472440942
20
-3.6342915354330709
11
5.2082418503937005
21
-3.6360796850393702
0
LINE
8
BLACK
6
CONTINUOUS
10
5.2082418503937005
20
-3.6360796850393702
11
5.2086614173228343
21
-3.6381889763779527
0
LINE
8
BLACK
6
CONTINUOUS
10
5.2086614173228343
20
-3.6381889763779527
11
5.2086614173228343
21
-3.651574803149606
0
LINE
8
BLACK
6
CONTINUOUS
10
5.2086614173228343
20
-3.651574803149606
11
5.2082418503937005
21
-3.653684094488189
0
LINE
8
BLACK
6
CONTINUOUS
10
5.2082418503937005
20
-3.653684094488189
11
5.2070470472440942
21
-3.6554722440944882
0
LINE
8
BLACK
6
CONTINUOUS
10
5.2070470472440942
20
-3.6554722440944882
11
5.2052588976377949
21
-3.6566670472440945
0
LINE
8
BLACK
6
CONTINUOUS
10
5.2052588976377949
20
-3.6566670472440945
11
5.2031496062992124
21
-3.6570866141732283
0
LINE
8
BLACK
6
CONTINUOUS
10
5.2031496062992124
20
-3.6570866141732283
11
5.1921259842519687
21
-3.6570866141732283
0
LINE
8
BLACK
6
CONTINUOUS
10
5.1921259842519687
20
-3.6570866141732283
11
5.1900166929133853
21
-3.6566670472440945
0
LINE
8
BLACK
6
CONTINUOUS
10
5.1900166929133853
20
-3.6566670472440945
11
5.1882285433070869
21
-3.6554722440944882
0
LINE
8
BLACK
6
CONTINUOUS
10
5.1882285433070869
20
-3.6554722440944882
11
5.1870337401574798
21
-3.653684094488189
0
LINE
8
BLACK
6
CONTINUOUS
10
5.1870337401574798
20
-3.653684094488189
11
5.1866141732283459
21
-3.651574803149606
0
LINE
8
BLACK
6
CONTINUOUS
10
5.1866141732283459
20
-3.651574803149606
11
5.1866141732283459
21
-3.6381889763779527
0
LINE
8
BLACK
6
CONTINUOUS
10
5.1866141732283459
20
-3.6381889763779527
11
5.1870337401574798
21
-3.6360796850393702
0
LINE
8
BLACK
6
CONTINUOUS
10
5.1870337401574798
20
-3.6360796850393702
11
5.1882285433070869
21
-3.6342915354330709
0
LINE
8
BLACK
6
CONTINUOUS
10
5.1882285433070869
20
-3.6342915354330709
11
5.1900166929133853
21
-3.6330967322834646
0
LINE
8
BLACK
6
CONTINUOUS
10
5.1900166929133853
20
-3.6330967322834646
11
5.1921259842519687
21
-3.6326771653543308
0
LINE
8
BLACK
6
CONTINUOUS
10
5.1921259842519687
20
-3.6326771653543308
11
5.2031496062992124
21
-3.6326771653543308
0
LINE
8
BLACK
6
CONTINUOUS
10
5.2031496062992124
20
-3.6326771653543308
11
5.2052588976377949
21
-3.6330967322834646
0
LINE
8
BLACK
6
CONTINUOUS
10
5.0792746456692912
20
-3.6319156299212598
11
5.0810627952755905
21
-3.6331104330708661
0
LINE
8
BLACK
6
CONTINUOUS
10
5.0810627952755905
20
-3.6331104330708661
11
5.0822575984251968
21
-3.6348985826771654
0
LINE
8
BLACK
6
CONTINUOUS
10
5.0822575984251968
20
-3.6348985826771654
11
5.0826771653543306
21
-3.6370078740157479
0
LINE
8
BLACK
6
CONTINUOUS
10
5.0826771653543306
20
-3.6370078740157479
11
5.0826771653543306
21
-3.648031496062992
0
LINE
8
BLACK
6
CONTINUOUS
10
5.0826771653543306
20
-3.648031496062992
11
5.0822575984251968
21
-3.6501407874015745
0
LINE
8
BLACK
6
CONTINUOUS
10
5.0822575984251968
20
-3.6501407874015745
11
5.0810627952755905
21
-3.6519289370078738
0
LINE
8
BLACK
6
CONTINUOUS
10
5.0810627952755905
20
-3.6519289370078738
11
5.0792746456692912
21
-3.6531237401574801
0
LINE
8
BLACK
6
CONTINUOUS
10
5.0792746456692912
20
-3.6531237401574801
11
5.0771653543307087
21
-3.6535433070866139
0
LINE
8
BLACK
6
CONTINUOUS
10
5.0771653543307087
20
-3.6535433070866139
11
5.0637795275590554
21
-3.6535433070866139
0
LINE
8
BLACK
6
CONTINUOUS
10
5.0637795275590554
20
-3.6535433070866139
11
5.061670236220472
21
-3.6531237401574801
0
LINE
8
BLACK
6
CONTINUOUS
10
5.061670236220472
20
-3.6531237401574801
11
5.0598820866141727
21
-3.6519289370078738
0
LINE
8
BLACK
6
CONTINUOUS
10
5.0598820866141727
20
-3.6519289370078738
11
5.0586872834645664
21
-3.6501407874015745
0
LINE
8
BLACK
6
CONTINUOUS
10
5.0586872834645664
20
-3.6501407874015745
11
5.0582677165354326
21
-3.648031496062992
0
LINE
8
BLACK
6
CONTINUOUS
10
5.0582677165354326
20
-3.648031496062992
11
5.0582677165354326
21
-3.6370078740157479
0
LINE
8
BLACK
6
CONTINUOUS
10
5.0582677165354326
20
-3.6370078740157479
11
5.0586872834645664
21
-3.6348985826771654
0
LINE
8
BLACK
6
CONTINUOUS
10
5.0586872834645664
20
-3.6348985826771654
11
5.0598820866141727
21
-3.6331104330708661
0
LINE
8
BLACK
6
CONTINUOUS
10
5.0598820866141727
20
-3.6331104330708661
11
5.061670236220472
21
-3.6319156299212598
0
LINE
8
BLACK
6
CONTINUOUS
10
5.061670236220472
20
-3.6319156299212598
11
5.0637795275590554
21
-3.631496062992126
0
LINE
8
BLACK
6
CONTINUOUS
10
5.0637795275590554
20
-3.631496062992126
11
5.0771653543307087
21
-3.631496062992126
0
LINE
8
BLACK
6
CONTINUOUS
10
5.0771653543307087
20
-3.631496062992126
11
5.0792746456692912
21
-3.6319156299212598
0
LINE
8
BLACK
6
CONTINUOUS
10
5.4986205511811024
20
-3.6099075196850392
11
5.5014145669291334
21
-3.6117744094488189
0
LINE
8
BLACK
6
CONTINUOUS
10
5.5014145669291334
20
-3.6117744094488189
11
5.5032814566929131
21
-3.6145684251968504
0
LINE
8
BLACK
6
CONTINUOUS
10
5.5032814566929131
20
-3.6145684251968504
11
5.5039370078740157
21
-3.6178641732283463
0
LINE
8
BLACK
6
CONTINUOUS
10
5.5039370078740157
20
-3.6178641732283463
11
5.5039370078740157
21
-3.6380413385826769
0
LINE
8
BLACK
6
CONTINUOUS
10
5.5039370078740157
20
-3.6380413385826769
11
5.5032814566929131
21
-3.6413370866141732
0
LINE
8
BLACK
6
CONTINUOUS
10
5.5032814566929131
20
-3.6413370866141732
11
5.5014145669291334
21
-3.6441311023622047
0
LINE
8
BLACK
6
CONTINUOUS
10
5.5014145669291334
20
-3.6441311023622047
11
5.4986205511811024
21
-3.645997992125984
0
LINE
8
BLACK
6
CONTINUOUS
10
5.4986205511811024
20
-3.645997992125984
11
5.4953248031496065
21
-3.6466535433070866
0
LINE
8
BLACK
6
CONTINUOUS
10
5.4953248031496065
20
-3.6466535433070866
11
5.4781003937007871
21
-3.6466535433070866
0
LINE
8
BLACK
6
CONTINUOUS
10
5.4781003937007871
20
-3.6466535433070866
11
5.4748046456692911
21
-3.645997992125984
0
LINE
8
BLACK
6
CONTINUOUS
10
5.4748046456692911
20
-3.645997992125984
11
5.4720106299212601
21
-3.6441311023622047
0
LINE
8
BLACK
6
CONTINUOUS
10
5.4720106299212601
20
-3.6441311023622047
11
5.4701437401574804
21
-3.6413370866141732
0
LINE
8
BLACK
6
CONTINUOUS
10
5.4701437401574804
20
-3.6413370866141732
11
5.4694881889763778
21
-3.6380413385826769
0
LINE
8
BLACK
6
CONTINUOUS
10
5.4694881889763778
20
-3.6380413385826769
11
5.4694881889763778
21
-3.6178641732283463
0
LINE
8
BLACK
6
CONTINUOUS
10
5.4694881889763778
20
-3.6178641732283463
11
5.4701437401574804
21
-3.6145684251968504
0
LINE
8
BLACK
6
CONTINUOUS
10
5.4701437401574804
20
-3.6145684251968504
11
5.4720106299212601
21
-3.6117744094488189
0
LINE
8
BLACK
6
CONTINUOUS
10
5.4720106299212601
20
-3.6117744094488189
11
5.4748046456692911
21
-3.6099075196850392
0
LINE
8
BLACK
6
CONTINUOUS
10
5.4748046456692911
20
-3.6099075196850392
11
5.4781003937007871
21
-3.609251968503937
0
LINE
8
BLACK
6
CONTINUOUS
10
5.4781003937007871
20
-3.609251968503937
11
5.4953248031496065
21
-3.609251968503937
0
LINE
8
BLACK
6
CONTINUOUS
10
5.4953248031496065
20
-3.609251968503937
11
5.4986205511811024
21
-3.6099075196850392
0
LINE
8
BLACK
6
CONTINUOUS
10
5.5606284251968505
20
-3.6099075196850392
11
5.5634224409448816
21
-3.6117744094488189
0
LINE
8
BLACK
6
CONTINUOUS
10
5.5634224409448816
20
-3.6117744094488189
11
5.5652893307086613
21
-3.6145684251968504
0
LINE
8
BLACK
6
CONTINUOUS
10
5.5652893307086613
20
-3.6145684251968504
11
5.5659448818897639
21
-3.6178641732283463
0
LINE
8
BLACK
6
CONTINUOUS
10
5.5659448818897639
20
-3.6178641732283463
11
5.5659448818897639
21
-3.6380413385826769
0
LINE
8
BLACK
6
CONTINUOUS
10
5.5659448818897639
20
-3.6380413385826769
11
5.5652893307086613
21
-3.6413370866141732
0
LINE
8
BLACK
6
CONTINUOUS
10
5.5652893307086613
20
-3.6413370866141732
11
5.5634224409448816
21
-3.6441311023622047
0
LINE
8
BLACK
6
CONTINUOUS
10
5.5634224409448816
20
-3.6441311023622047
11
5.5606284251968505
21
-3.645997992125984
0
LINE
8
BLACK
6
CONTINUOUS
10
5.5606284251968505
20
-3.645997992125984
11
5.5573326771653546
21
-3.6466535433070866
0
LINE
8
BLACK
6
CONTINUOUS
10
5.5573326771653546
20
-3.6466535433070866
11
5.5401082677165352
21
-3.6466535433070866
0
LINE
8
BLACK
6
CONTINUOUS
10
5.5401082677165352
20
-3.6466535433070866
11
5.5368125196850393
21
-3.645997992125984
0
LINE
8
BLACK
6
CONTINUOUS
10
5.5368125196850393
20
-3.645997992125984
11
5.5340185039370073
21
-3.6441311023622047
0
LINE
8
BLACK
6
CONTINUOUS
10
5.5340185039370073
20
-3.6441311023622047
11
5.5321516141732285
21
-3.6413370866141732
0
LINE
8
BLACK
6
CONTINUOUS
10
5.5321516141732285
20
-3.6413370866141732
11
5.5314960629921259
21
-3.6380413385826769
0
LINE
8
BLACK
6
CONTINUOUS
10
5.5314960629921259
20
-3.6380413385826769
11
5.5314960629921259
21
-3.6178641732283463
0
LINE
8
BLACK
6
CONTINUOUS
10
5.5314960629921259
20
-3.6178641732283463
11
5.5321516141732285
21
-3.6145684251968504
0
LINE
8
BLACK
6
CONTINUOUS
10
5.5321516141732285
20
-3.6145684251968504
11
5.5340185039370073
21
-3.6117744094488189
0
LINE
8
BLACK
6
CONTINUOUS
10
5.5340185039370073
20
-3.6117744094488189
11
5.5368125196850393
21
-3.6099075196850392
0
LINE
8
BLACK
6
CONTINUOUS
10
5.5368125196850393
20
-3.6099075196850392
11
5.5401082677165352
21
-3.609251968503937
0
LINE
8
BLACK
6
CONTINUOUS
10
5.5401082677165352
20
-3.609251968503937
11
5.5573326771653546
21
-3.609251968503937
0
LINE
8
BLACK
6
CONTINUOUS
10
5.5573326771653546
20
-3.609251968503937
11
5.5606284251968505
21
-3.6099075196850392
0
LINE
8
BLACK
6
CONTINUOUS
10
5.387400078740157
20
-3.6112854724409447
11
5.390194094488189
21
-3.6131523622047244
0
LINE
8
BLACK
6
CONTINUOUS
10
5.390194094488189
20
-3.6131523622047244
11
5.3920609842519687
21
-3.6159463779527559
0
LINE
8
BLACK
6
CONTINUOUS
10
5.3920609842519687
20
-3.6159463779527559
11
5.3927165354330704
21
-3.6192421259842518
0
LINE
8
BLACK
6
CONTINUOUS
10
5.3927165354330704
20
-3.6192421259842518
11
5.3927165354330704
21
-3.6364665354330707
0
LINE
8
BLACK
6
CONTINUOUS
10
5.3927165354330704
20
-3.6364665354330707
11
5.3920609842519687
21
-3.6397622834645667
0
LINE
8
BLACK
6
CONTINUOUS
10
5.3920609842519687
20
-3.6397622834645667
11
5.390194094488189
21
-3.6425562992125982
0
LINE
8
BLACK
6
CONTINUOUS
10
5.390194094488189
20
-3.6425562992125982
11
5.387400078740157
21
-3.6444231889763778
0
LINE
8
BLACK
6
CONTINUOUS
10
5.387400078740157
20
-3.6444231889763778
11
5.3841043307086611
21
-3.64507874015748
0
LINE
8
BLACK
6
CONTINUOUS
10
5.3841043307086611
20
-3.64507874015748
11
5.3639271653543306
21
-3.64507874015748
0
LINE
8
BLACK
6
CONTINUOUS
10
5.3639271653543306
20
-3.64507874015748
11
5.3606314173228347
21
-3.6444231889763778
0
LINE
8
BLACK
6
CONTINUOUS
10
5.3606314173228347
20
-3.6444231889763778
11
5.3578374015748027
21
-3.6425562992125982
0
LINE
8
BLACK
6
CONTINUOUS
10
5.3578374015748027
20
-3.6425562992125982
11
5.3559705118110239
21
-3.6397622834645667
0
LINE
8
BLACK
6
CONTINUOUS
10
5.3559705118110239
20
-3.6397622834645667
11
5.3553149606299213
21
-3.6364665354330707
0
LINE
8
BLACK
6
CONTINUOUS
10
5.3553149606299213
20
-3.6364665354330707
11
5.3553149606299213
21
-3.6192421259842518
0
LINE
8
BLACK
6
CONTINUOUS
10
5.3553149606299213
20
-3.6192421259842518
11
5.3559705118110239
21
-3.6159463779527559
0
LINE
8
BLACK
6
CONTINUOUS
10
5.3559705118110239
20
-3.6159463779527559
11
5.3578374015748027
21
-3.6131523622047244
0
LINE
8
BLACK
6
CONTINUOUS
10
5.3578374015748027
20
-3.6131523622047244
11
5.3606314173228347
21
-3.6112854724409447
0
LINE
8
BLACK
6
CONTINUOUS
10
5.3606314173228347
20
-3.6112854724409447
11
5.3639271653543306
21
-3.6106299212598425
0
LINE
8
BLACK
6
CONTINUOUS
10
5.3639271653543306
20
-3.6106299212598425
11
5.3841043307086611
21
-3.6106299212598425
0
LINE
8
BLACK
6
CONTINUOUS
10
5.3841043307086611
20
-3.6106299212598425
11
5.387400078740157
21
-3.6112854724409447
0
LINE
8
BLACK
6
CONTINUOUS
10
5.6135266141732281
20
-3.6086872834645667
11
5.6153147637795273
21
-3.609882086614173
0
LINE
8
BLACK
6
CONTINUOUS
10
5.6153147637795273
20
-3.609882086614173
11
5.6165095669291336
21
-3.6116702362204722
0
LINE
8
BLACK
6
CONTINUOUS
10
5.6165095669291336
20
-3.6116702362204722
11
5.6169291338582674
21
-3.6137795275590552
0
LINE
8
BLACK
6
CONTINUOUS
10
5.6169291338582674
20
-3.6137795275590552
11
5.6169291338582674
21
-3.6248031496062993
0
LINE
8
BLACK
6
CONTINUOUS
10
5.6169291338582674
20
-3.6248031496062993
11
5.6165095669291336
21
-3.6269124409448819
0
LINE
8
BLACK
6
CONTINUOUS
10
5.6165095669291336
20
-3.6269124409448819
11
5.6153147637795273
21
-3.6287005905511811
0
LINE
8
BLACK
6
CONTINUOUS
10
5.6153147637795273
20
-3.6287005905511811
11
5.6135266141732281
21
-3.6298953937007874
0
LINE
8
BLACK
6
CONTINUOUS
10
5.6135266141732281
20
-3.6298953937007874
11
5.6114173228346456
21
-3.6303149606299212
0
LINE
8
BLACK
6
CONTINUOUS
10
5.6114173228346456
20
-3.6303149606299212
11
5.5980314960629922
21
-3.6303149606299212
0
LINE
8
BLACK
6
CONTINUOUS
10
5.5980314960629922
20
-3.6303149606299212
11
5.5959222047244097
21
-3.6298953937007874
0
LINE
8
BLACK
6
CONTINUOUS
10
5.5959222047244097
20
-3.6298953937007874
11
5.5941340551181105
21
-3.6287005905511811
0
LINE
8
BLACK
6
CONTINUOUS
10
5.5941340551181105
20
-3.6287005905511811
11
5.5929392519685042
21
-3.6269124409448819
0
LINE
8
BLACK
6
CONTINUOUS
10
5.5929392519685042
20
-3.6269124409448819
11
5.5925196850393704
21
-3.6248031496062993
0
LINE
8
BLACK
6
CONTINUOUS
10
5.5925196850393704
20
-3.6248031496062993
11
5.5925196850393704
21
-3.6137795275590552
0
LINE
8
BLACK
6
CONTINUOUS
10
5.5925196850393704
20
-3.6137795275590552
11
5.5929392519685042
21
-3.6116702362204722
0
LINE
8
BLACK
6
CONTINUOUS
10
5.5929392519685042
20
-3.6116702362204722
11
5.5941340551181105
21
-3.609882086614173
0
LINE
8
BLACK
6
CONTINUOUS
10
5.5941340551181105
20
-3.609882086614173
11
5.5959222047244097
21
-3.6086872834645667
0
LINE
8
BLACK
6
CONTINUOUS
10
5.5959222047244097
20
-3.6086872834645667
11
5.5980314960629922
21
-3.6082677165354329
0
LINE
8
BLACK
6
CONTINUOUS
10
5.5980314960629922
20
-3.6082677165354329
11
5.6114173228346456
21
-3.6082677165354329
0
LINE
8
BLACK
6
CONTINUOUS
10
5.6114173228346456
20
-3.6082677165354329
11
5.6135266141732281
21
-3.6086872834645667
0
LINE
8
BLACK
6
CONTINUOUS
10
5.4379360629921258
20
-3.6078998818897636
11
5.4397242125984251
21
-3.6090946850393699
0
LINE
8
BLACK
6
CONTINUOUS
10
5.4397242125984251
20
-3.6090946850393699
11
5.4409190157480314
21
-3.6108828346456692
0
LINE
8
BLACK
6
CONTINUOUS
10
5.4409190157480314
20
-3.6108828346456692
11
5.4413385826771652
21
-3.6129921259842517
0
LINE
8
BLACK
6
CONTINUOUS
10
5.4413385826771652
20
-3.6129921259842517
11
5.4413385826771652
21
-3.6240157480314958
0
LINE
8
BLACK
6
CONTINUOUS
10
5.4413385826771652
20
-3.6240157480314958
11
5.4409190157480314
21
-3.6261250393700788
0
LINE
8
BLACK
6
CONTINUOUS
10
5.4409190157480314
20
-3.6261250393700788
11
5.4397242125984251
21
-3.627913188976378
0
LINE
8
BLACK
6
CONTINUOUS
10
5.4397242125984251
20
-3.627913188976378
11
5.4379360629921258
21
-3.6291079921259843
0
LINE
8
BLACK
6
CONTINUOUS
10
5.4379360629921258
20
-3.6291079921259843
11
5.4358267716535433
21
-3.6295275590551181
0
LINE
8
BLACK
6
CONTINUOUS
10
5.4358267716535433
20
-3.6295275590551181
11
5.42244094488189
21
-3.6295275590551181
0
LINE
8
BLACK
6
CONTINUOUS
10
5.42244094488189
20
-3.6295275590551181
11
5.4203316535433066
21
-3.6291079921259843
0
LINE
8
BLACK
6
CONTINUOUS
10
5.4203316535433066
20
-3.6291079921259843
11
5.4185435039370073
21
-3.627913188976378
0
LINE
8
BLACK
6
CONTINUOUS
10
5.4185435039370073
20
-3.627913188976378
11
5.4173487007874011
21
-3.6261250393700788
0
LINE
8
BLACK
6
CONTINUOUS
10
5.4173487007874011
20
-3.6261250393700788
11
5.4169291338582672
21
-3.6240157480314958
0
LINE
8
BLACK
6
CONTINUOUS
10
5.4169291338582672
20
-3.6240157480314958
11
5.4169291338582672
21
-3.6129921259842517
0
LINE
8
BLACK
6
CONTINUOUS
10
5.4169291338582672
20
-3.6129921259842517
11
5.4173487007874011
21
-3.6108828346456692
0
LINE
8
BLACK
6
CONTINUOUS
10
5.4173487007874011
20
-3.6108828346456692
11
5.4185435039370073
21
-3.6090946850393699
0
LINE
8
BLACK
6
CONTINUOUS
10
5.4185435039370073
20
-3.6090946850393699
11
5.4203316535433066
21
-3.6078998818897636
0
LINE
8
BLACK
6
CONTINUOUS
10
5.4203316535433066
20
-3.6078998818897636
11
5.42244094488189
21
-3.6074803149606298
0
LINE
8
BLACK
6
CONTINUOUS
10
5.42244094488189
20
-3.6074803149606298
11
5.4358267716535433
21
-3.6074803149606298
0
LINE
8
BLACK
6
CONTINUOUS
10
5.4358267716535433
20
-3.6074803149606298
11
5.4379360629921258
21
-3.6078998818897636
0
LINE
8
BLACK
6
CONTINUOUS
10
5.3312431496062995
20
-3.6023880708661418
11
5.3330312992125979
21
-3.6035828740157481
0
LINE
8
BLACK
6
CONTINUOUS
10
5.3330312992125979
20
-3.6035828740157481
11
5.3342261023622042
21
-3.6053710236220473
0
LINE
8
BLACK
6
CONTINUOUS
10
5.3342261023622042
20
-3.6053710236220473
11
5.3346456692913389
21
-3.6074803149606298
0
LINE
8
BLACK
6
CONTINUOUS
10
5.3346456692913389
20
-3.6074803149606298
11
5.3346456692913389
21
-3.618503937007874
0
LINE
8
BLACK
6
CONTINUOUS
10
5.3346456692913389
20
-3.618503937007874
11
5.3342261023622042
21
-3.6206132283464565
0
LINE
8
BLACK
6
CONTINUOUS
10
5.3342261023622042
20
-3.6206132283464565
11
5.3330312992125979
21
-3.6224013779527557
0
LINE
8
BLACK
6
CONTINUOUS
10
5.3330312992125979
20
-3.6224013779527557
11
5.3312431496062995
21
-3.623596181102362
0
LINE
8
BLACK
6
CONTINUOUS
10
5.3312431496062995
20
-3.623596181102362
11
5.3291338582677161
21
-3.6240157480314958
0
LINE
8
BLACK
6
CONTINUOUS
10
5.3291338582677161
20
-3.6240157480314958
11
5.3157480314960628
21
-3.6240157480314958
0
LINE
8
BLACK
6
CONTINUOUS
10
5.3157480314960628
20
-3.6240157480314958
11
5.3136387401574803
21
-3.623596181102362
0
LINE
8
BLACK
6
CONTINUOUS
10
5.3136387401574803
20
-3.623596181102362
11
5.311850590551181
21
-3.6224013779527557
0
LINE
8
BLACK
6
CONTINUOUS
10
5.311850590551181
20
-3.6224013779527557
11
5.3106557874015747
21
-3.6206132283464565
0
LINE
8
BLACK
6
CONTINUOUS
10
5.3106557874015747
20
-3.6206132283464565
11
5.3102362204724409
21
-3.618503937007874
0
LINE
8
BLACK
6
CONTINUOUS
10
5.3102362204724409
20
-3.618503937007874
11
5.3102362204724409
21
-3.6074803149606298
0
LINE
8
BLACK
6
CONTINUOUS
10
5.3102362204724409
20
-3.6074803149606298
11
5.3106557874015747
21
-3.6053710236220473
0
LINE
8
BLACK
6
CONTINUOUS
10
5.3106557874015747
20
-3.6053710236220473
11
5.311850590551181
21
-3.6035828740157481
0
LINE
8
BLACK
6
CONTINUOUS
10
5.311850590551181
20
-3.6035828740157481
11
5.3136387401574803
21
-3.6023880708661418
0
LINE
8
BLACK
6
CONTINUOUS
10
5.3136387401574803
20
-3.6023880708661418
11
5.3157480314960628
21
-3.601968503937008
0
LINE
8
BLACK
6
CONTINUOUS
10
5.3157480314960628
20
-3.601968503937008
11
5.3291338582677161
21
-3.601968503937008
0
LINE
8
BLACK
6
CONTINUOUS
10
5.3291338582677161
20
-3.601968503937008
11
5.3312431496062995
21
-3.6023880708661418
0
LINE
8
BLACK
6
CONTINUOUS
10
5.166676220472441
20
-3.5992384645669291
11
5.1684643700787403
21
-3.6004332677165354
0
LINE
8
BLACK
6
CONTINUOUS
10
5.1684643700787403
20
-3.6004332677165354
11
5.1696591732283466
21
-3.6022214173228346
0
LINE
8
BLACK
6
CONTINUOUS
10
5.1696591732283466
20
-3.6022214173228346
11
5.1700787401574804
21
-3.6043307086614171
0
LINE
8
BLACK
6
CONTINUOUS
10
5.1700787401574804
20
-3.6043307086614171
11
5.1700787401574804
21
-3.6153543307086613
0
LINE
8
BLACK
6
CONTINUOUS
10
5.1700787401574804
20
-3.6153543307086613
11
5.1696591732283466
21
-3.6174636220472438
0
LINE
8
BLACK
6
CONTINUOUS
10
5.1696591732283466
20
-3.6174636220472438
11
5.1684643700787403
21
-3.6192517716535431
0
LINE
8
BLACK
6
CONTINUOUS
10
5.1684643700787403
20
-3.6192517716535431
11
5.166676220472441
21
-3.6204465748031494
0
LINE
8
BLACK
6
CONTINUOUS
10
5.166676220472441
20
-3.6204465748031494
11
5.1645669291338585
21
-3.6208661417322832
0
LINE
8
BLACK
6
CONTINUOUS
10
5.1645669291338585
20
-3.6208661417322832
11
5.1511811023622043
21
-3.6208661417322832
0
LINE
8
BLACK
6
CONTINUOUS
10
5.1511811023622043
20
-3.6208661417322832
11
5.1490718110236218
21
-3.6204465748031494
0
LINE
8
BLACK
6
CONTINUOUS
10
5.1490718110236218
20
-3.6204465748031494
11
5.1472836614173225
21
-3.6192517716535431
0
LINE
8
BLACK
6
CONTINUOUS
10
5.1472836614173225
20
-3.6192517716535431
11
5.1460888582677162
21
-3.6174636220472438
0
LINE
8
BLACK
6
CONTINUOUS
10
5.1460888582677162
20
-3.6174636220472438
11
5.1456692913385824
21
-3.6153543307086613
0
LINE
8
BLACK
6
CONTINUOUS
10
5.1456692913385824
20
-3.6153543307086613
11
5.1456692913385824
21
-3.6043307086614171
0
LINE
8
BLACK
6
CONTINUOUS
10
5.1456692913385824
20
-3.6043307086614171
11
5.1460888582677162
21
-3.6022214173228346
0
LINE
8
BLACK
6
CONTINUOUS
10
5.1460888582677162
20
-3.6022214173228346
11
5.1472836614173225
21
-3.6004332677165354
0
LINE
8
BLACK
6
CONTINUOUS
10
5.1472836614173225
20
-3.6004332677165354
11
5.1490718110236218
21
-3.5992384645669291
0
LINE
8
BLACK
6
CONTINUOUS
10
5.1490718110236218
20
-3.5992384645669291
11
5.1511811023622043
21
-3.5988188976377953
0
LINE
8
BLACK
6
CONTINUOUS
10
5.1511811023622043
20
-3.5988188976377953
11
5.1645669291338585
21
-3.5988188976377953
0
LINE
8
BLACK
6
CONTINUOUS
10
5.1645669291338585
20
-3.5988188976377953
11
5.166676220472441
21
-3.5992384645669291
0
LINE
8
BLACK
6
CONTINUOUS
10
5.1220457480314963
20
-3.5597106692913383
11
5.1248397637795273
21
-3.561577559055118
0
LINE
8
BLACK
6
CONTINUOUS
10
5.1248397637795273
20
-3.561577559055118
11
5.126706653543307
21
-3.5643715748031495
0
LINE
8
BLACK
6
CONTINUOUS
10
5.126706653543307
20
-3.5643715748031495
11
5.1273622047244096
21
-3.5676673228346454
0
LINE
8
BLACK
6
CONTINUOUS
10
5.1273622047244096
20
-3.5676673228346454
11
5.1273622047244096
21
-3.5848917322834644
0
LINE
8
BLACK
6
CONTINUOUS
10
5.1273622047244096
20
-3.5848917322834644
11
5.126706653543307
21
-3.5881874803149607
0
LINE
8
BLACK
6
CONTINUOUS
10
5.126706653543307
20
-3.5881874803149607
11
5.1248397637795273
21
-3.5909814960629922
0
LINE
8
BLACK
6
CONTINUOUS
10
5.1248397637795273
20
-3.5909814960629922
11
5.1220457480314963
21
-3.5928483858267715
0
LINE
8
BLACK
6
CONTINUOUS
10
5.1220457480314963
20
-3.5928483858267715
11
5.1187499999999995
21
-3.5935039370078741
0
LINE
8
BLACK
6
CONTINUOUS
10
5.1187499999999995
20
-3.5935039370078741
11
5.0985728346456689
21
-3.5935039370078741
0
LINE
8
BLACK
6
CONTINUOUS
10
5.0985728346456689
20
-3.5935039370078741
11
5.095277086614173
21
-3.5928483858267715
0
LINE
8
BLACK
6
CONTINUOUS
10
5.095277086614173
20
-3.5928483858267715
11
5.0924830708661419
21
-3.5909814960629922
0
LINE
8
BLACK
6
CONTINUOUS
10
5.0924830708661419
20
-3.5909814960629922
11
5.0906161811023622
21
-3.5881874803149607
0
LINE
8
BLACK
6
CONTINUOUS
10
5.0906161811023622
20
-3.5881874803149607
11
5.0899606299212596
21
-3.5848917322834644
0
LINE
8
BLACK
6
CONTINUOUS
10
5.0899606299212596
20
-3.5848917322834644
11
5.0899606299212596
21
-3.5676673228346454
0
LINE
8
BLACK
6
CONTINUOUS
10
5.0899606299212596
20
-3.5676673228346454
11
5.0906161811023622
21
-3.5643715748031495
0
LINE
8
BLACK
6
CONTINUOUS
10
5.0906161811023622
20
-3.5643715748031495
11
5.0924830708661419
21
-3.561577559055118
0
LINE
8
BLACK
6
CONTINUOUS
10
5.0924830708661419
20
-3.561577559055118
11
5.095277086614173
21
-3.5597106692913383
0
LINE
8
BLACK
6
CONTINUOUS
10
5.095277086614173
20
-3.5597106692913383
11
5.0985728346456689
21
-3.5590551181102361
0
LINE
8
BLACK
6
CONTINUOUS
10
5.0985728346456689
20
-3.5590551181102361
11
5.1187499999999995
21
-3.5590551181102361
0
LINE
8
BLACK
6
CONTINUOUS
10
5.1187499999999995
20
-3.5590551181102361
11
5.1220457480314963
21
-3.5597106692913383
0
LINE
8
BLACK
6
CONTINUOUS
10
5.6135266141732281
20
-3.5708920078740158
11
5.6153147637795273
21
-3.5720868110236221
0
LINE
8
BLACK
6
CONTINUOUS
10
5.6153147637795273
20
-3.5720868110236221
11
5.6165095669291336
21
-3.5738749606299214
0
LINE
8
BLACK
6
CONTINUOUS
10
5.6165095669291336
20
-3.5738749606299214
11
5.6169291338582674
21
-3.5759842519685039
0
LINE
8
BLACK
6
CONTINUOUS
10
5.6169291338582674
20
-3.5759842519685039
11
5.6169291338582674
21
-3.5870078740157481
0
LINE
8
BLACK
6
CONTINUOUS
10
5.6169291338582674
20
-3.5870078740157481
11
5.6165095669291336
21
-3.5891171653543306
0
LINE
8
BLACK
6
CONTINUOUS
10
5.6165095669291336
20
-3.5891171653543306
11
5.6153147637795273
21
-3.5909053149606298
0
LINE
8
BLACK
6
CONTINUOUS
10
5.6153147637795273
20
-3.5909053149606298
11
5.6135266141732281
21
-3.5921001181102361
0
LINE
8
BLACK
6
CONTINUOUS
10
5.6135266141732281
20
-3.5921001181102361
11
5.6114173228346456
21
-3.5925196850393699
0
LINE
8
BLACK
6
CONTINUOUS
10
5.6114173228346456
20
-3.5925196850393699
11
5.5980314960629922
21
-3.5925196850393699
0
LINE
8
BLACK
6
CONTINUOUS
10
5.5980314960629922
20
-3.5925196850393699
11
5.5959222047244097
21
-3.5921001181102361
0
LINE
8
BLACK
6
CONTINUOUS
10
5.5959222047244097
20
-3.5921001181102361
11
5.5941340551181105
21
-3.5909053149606298
0
LINE
8
BLACK
6
CONTINUOUS
10
5.5941340551181105
20
-3.5909053149606298
11
5.5929392519685042
21
-3.5891171653543306
0
LINE
8
BLACK
6
CONTINUOUS
10
5.5929392519685042
20
-3.5891171653543306
11
5.5925196850393704
21
-3.5870078740157481
0
LINE
8
BLACK
6
CONTINUOUS
10
5.5925196850393704
20
-3.5870078740157481
11
5.5925196850393704
21
-3.5759842519685039
0
LINE
8
BLACK
6
CONTINUOUS
10
5.5925196850393704
20
-3.5759842519685039
11
5.5929392519685042
21
-3.5738749606299214
0
LINE
8
BLACK
6
CONTINUOUS
10
5.5929392519685042
20
-3.5738749606299214
11
5.5941340551181105
21
-3.5720868110236221
0
LINE
8
BLACK
6
CONTINUOUS
10
5.5941340551181105
20
-3.5720868110236221
11
5.5959222047244097
21
-3.5708920078740158
0
LINE
8
BLACK
6
CONTINUOUS
10
5.5959222047244097
20
-3.5708920078740158
11
5.5980314960629922
21
-3.5704724409448816
0
LINE
8
BLACK
6
CONTINUOUS
10
5.5980314960629922
20
-3.5704724409448816
11
5.6114173228346456
21
-3.5704724409448816
0
LINE
8
BLACK
6
CONTINUOUS
10
5.6114173228346456
20
-3.5704724409448816
11
5.6135266141732281
21
-3.5708920078740158
0
LINE
8
BLACK
6
CONTINUOUS
10
5.4379360629921258
20
-3.5701046062992123
11
5.4397242125984251
21
-3.5712994094488186
0
LINE
8
BLACK
6
CONTINUOUS
10
5.4397242125984251
20
-3.5712994094488186
11
5.4409190157480314
21
-3.5730875590551179
0
LINE
8
BLACK
6
CONTINUOUS
10
5.4409190157480314
20
-3.5730875590551179
11
5.4413385826771652
21
-3.5751968503937008
0
LINE
8
BLACK
6
CONTINUOUS
10
5.4413385826771652
20
-3.5751968503937008
11
5.4413385826771652
21
-3.586220472440945
0
LINE
8
BLACK
6
CONTINUOUS
10
5.4413385826771652
20
-3.586220472440945
11
5.4409190157480314
21
-3.5883297637795275
0
LINE
8
BLACK
6
CONTINUOUS
10
5.4409190157480314
20
-3.5883297637795275
11
5.4397242125984251
21
-3.5901179133858268
0
LINE
8
BLACK
6
CONTINUOUS
10
5.4397242125984251
20
-3.5901179133858268
11
5.4379360629921258
21
-3.591312716535433
0
LINE
8
BLACK
6
CONTINUOUS
10
5.4379360629921258
20
-3.591312716535433
11
5.4358267716535433
21
-3.5917322834645669
0
LINE
8
BLACK
6
CONTINUOUS
10
5.4358267716535433
20
-3.5917322834645669
11
5.42244094488189
21
-3.5917322834645669
0
LINE
8
BLACK
6
CONTINUOUS
10
5.42244094488189
20
-3.5917322834645669
11
5.4203316535433066
21
-3.591312716535433
0
LINE
8
BLACK
6
CONTINUOUS
10
5.4203316535433066
20
-3.591312716535433
11
5.4185435039370073
21
-3.5901179133858268
0
LINE
8
BLACK
6
CONTINUOUS
10
5.4185435039370073
20
-3.5901179133858268
11
5.4173487007874011
21
-3.5883297637795275
0
LINE
8
BLACK
6
CONTINUOUS
10
5.4173487007874011
20
-3.5883297637795275
11
5.4169291338582672
21
-3.586220472440945
0
LINE
8
BLACK
6
CONTINUOUS
10
5.4169291338582672
20
-3.586220472440945
11
5.4169291338582672
21
-3.5751968503937008
0
LINE
8
BLACK
6
CONTINUOUS
10
5.4169291338582672
20
-3.5751968503937008
11
5.4173487007874011
21
-3.5730875590551179
0
LINE
8
BLACK
6
CONTINUOUS
10
5.4173487007874011
20
-3.5730875590551179
11
5.4185435039370073
21
-3.5712994094488186
0
LINE
8
BLACK
6
CONTINUOUS
10
5.4185435039370073
20
-3.5712994094488186
11
5.4203316535433066
21
-3.5701046062992123
0
LINE
8
BLACK
6
CONTINUOUS
10
5.4203316535433066
20
-3.5701046062992123
11
5.42244094488189
21
-3.5696850393700785
0
LINE
8
BLACK
6
CONTINUOUS
10
5.42244094488189
20
-3.5696850393700785
11
5.4358267716535433
21
-3.5696850393700785
0
LINE
8
BLACK
6
CONTINUOUS
10
5.4358267716535433
20
-3.5696850393700785
11
5.4379360629921258
21
-3.5701046062992123
0
LINE
8
BLACK
6
CONTINUOUS
10
5.3312431496062995
20
-3.5645927952755905
11
5.3330312992125979
21
-3.5657875984251968
0
LINE
8
BLACK
6
CONTINUOUS
10
5.3330312992125979
20
-3.5657875984251968
11
5.3342261023622042
21
-3.567575748031496
0
LINE
8
BLACK
6
CONTINUOUS
10
5.3342261023622042
20
-3.567575748031496
11
5.3346456692913389
21
-3.5696850393700785
0
LINE
8
BLACK
6
CONTINUOUS
10
5.3346456692913389
20
-3.5696850393700785
11
5.3346456692913389
21
-3.5807086614173227
0
LINE
8
BLACK
6
CONTINUOUS
10
5.3346456692913389
20
-3.5807086614173227
11
5.3342261023622042
21
-3.5828179527559056
0
LINE
8
BLACK
6
CONTINUOUS
10
5.3342261023622042
20
-3.5828179527559056
11
5.3330312992125979
21
-3.5846061023622044
0
LINE
8
BLACK
6
CONTINUOUS
10
5.3330312992125979
20
-3.5846061023622044
11
5.3312431496062995
21
-3.5858009055118107
0
LINE
8
BLACK
6
CONTINUOUS
10
5.3312431496062995
20
-3.5858009055118107
11
5.3291338582677161
21
-3.586220472440945
0
LINE
8
BLACK
6
CONTINUOUS
10
5.3291338582677161
20
-3.586220472440945
11
5.3157480314960628
21
-3.586220472440945
0
LINE
8
BLACK
6
CONTINUOUS
10
5.3157480314960628
20
-3.586220472440945
11
5.3136387401574803
21
-3.5858009055118107
0
LINE
8
BLACK
6
CONTINUOUS
10
5.3136387401574803
20
-3.5858009055118107
11
5.311850590551181
21
-3.5846061023622044
0
LINE
8
BLACK
6
CONTINUOUS
10
5.311850590551181
20
-3.5846061023622044
11
5.3106557874015747
21
-3.5828179527559056
0
LINE
8
BLACK
6
CONTINUOUS
10
5.3106557874015747
20
-3.5828179527559056
11
5.3102362204724409
21
-3.5807086614173227
0
LINE
8
BLACK
6
CONTINUOUS
10
5.3102362204724409
20
-3.5807086614173227
11
5.3102362204724409
21
-3.5696850393700785
0
LINE
8
BLACK
6
CONTINUOUS
10
5.3102362204724409
20
-3.5696850393700785
11
5.3106557874015747
21
-3.567575748031496
0
LINE
8
BLACK
6
CONTINUOUS
10
5.3106557874015747
20
-3.567575748031496
11
5.311850590551181
21
-3.5657875984251968
0
LINE
8
BLACK
6
CONTINUOUS
10
5.311850590551181
20
-3.5657875984251968
11
5.3136387401574803
21
-3.5645927952755905
0
LINE
8
BLACK
6
CONTINUOUS
10
5.3136387401574803
20
-3.5645927952755905
11
5.3157480314960628
21
-3.5641732283464567
0
LINE
8
BLACK
6
CONTINUOUS
10
5.3157480314960628
20
-3.5641732283464567
11
5.3291338582677161
21
-3.5641732283464567
0
LINE
8
BLACK
6
CONTINUOUS
10
5.3291338582677161
20
-3.5641732283464567
11
5.3312431496062995
21
-3.5645927952755905
0
LINE
8
BLACK
6
CONTINUOUS
10
5.2234237007874018
20
-3.5480964960629922
11
5.2262177165354329
21
-3.5499633858267714
0
LINE
8
BLACK
6
CONTINUOUS
10
5.2262177165354329
20
-3.5499633858267714
11
5.2280846062992126
21
-3.5527574015748029
0
LINE
8
BLACK
6
CONTINUOUS
10
5.2280846062992126
20
-3.5527574015748029
11
5.2287401574803152
21
-3.5560531496062993
0
LINE
8
BLACK
6
CONTINUOUS
10
5.2287401574803152
20
-3.5560531496062993
11
5.2287401574803152
21
-3.5762303149606298
0
LINE
8
BLACK
6
CONTINUOUS
10
5.2287401574803152
20
-3.5762303149606298
11
5.2280846062992126
21
-3.5795260629921257
0
LINE
8
BLACK
6
CONTINUOUS
10
5.2280846062992126
20
-3.5795260629921257
11
5.2262177165354329
21
-3.5823200787401572
0
LINE
8
BLACK
6
CONTINUOUS
10
5.2262177165354329
20
-3.5823200787401572
11
5.2234237007874018
21
-3.5841869685039369
0
LINE
8
BLACK
6
CONTINUOUS
10
5.2234237007874018
20
-3.5841869685039369
11
5.220127952755905
21
-3.5848425196850391
0
LINE
8
BLACK
6
CONTINUOUS
10
5.220127952755905
20
-3.5848425196850391
11
5.2029035433070865
21
-3.5848425196850391
0
LINE
8
BLACK
6
CONTINUOUS
10
5.2029035433070865
20
-3.5848425196850391
11
5.1996077952755906
21
-3.5841869685039369
0
LINE
8
BLACK
6
CONTINUOUS
10
5.1996077952755906
20
-3.5841869685039369
11
5.1968137795275586
21
-3.5823200787401572
0
LINE
8
BLACK
6
CONTINUOUS
10
5.1968137795275586
20
-3.5823200787401572
11
5.1949468897637798
21
-3.5795260629921257
0
LINE
8
BLACK
6
CONTINUOUS
10
5.1949468897637798
20
-3.5795260629921257
11
5.1942913385826772
21
-3.5762303149606298
0
LINE
8
BLACK
6
CONTINUOUS
10
5.1942913385826772
20
-3.5762303149606298
11
5.1942913385826772
21
-3.5560531496062993
0
LINE
8
BLACK
6
CONTINUOUS
10
5.1942913385826772
20
-3.5560531496062993
11
5.1949468897637798
21
-3.5527574015748029
0
LINE
8
BLACK
6
CONTINUOUS
10
5.1949468897637798
20
-3.5527574015748029
11
5.1968137795275586
21
-3.5499633858267714
0
LINE
8
BLACK
6
CONTINUOUS
10
5.1968137795275586
20
-3.5499633858267714
11
5.1996077952755906
21
-3.5480964960629922
0
LINE
8
BLACK
6
CONTINUOUS
10
5.1996077952755906
20
-3.5480964960629922
11
5.2029035433070865
21
-3.5474409448818895
0
LINE
8
BLACK
6
CONTINUOUS
10
5.2029035433070865
20
-3.5474409448818895
11
5.220127952755905
21
-3.5474409448818895
0
LINE
8
BLACK
6
CONTINUOUS
10
5.220127952755905
20
-3.5474409448818895
11
5.2234237007874018
21
-3.5480964960629922
0
LINE
8
BLACK
6
CONTINUOUS
10
5.2854315748031491
20
-3.5480964960629922
11
5.288225590551181
21
-3.5499633858267714
0
LINE
8
BLACK
6
CONTINUOUS
10
5.288225590551181
20
-3.5499633858267714
11
5.2900924803149607
21
-3.5527574015748029
0
LINE
8
BLACK
6
CONTINUOUS
10
5.2900924803149607
20
-3.5527574015748029
11
5.2907480314960624
21
-3.5560531496062993
0
LINE
8
BLACK
6
CONTINUOUS
10
5.2907480314960624
20
-3.5560531496062993
11
5.2907480314960624
21
-3.5762303149606298
0
LINE
8
BLACK
6
CONTINUOUS
10
5.2907480314960624
20
-3.5762303149606298
11
5.2900924803149607
21
-3.5795260629921257
0
LINE
8
BLACK
6
CONTINUOUS
10
5.2900924803149607
20
-3.5795260629921257
11
5.288225590551181
21
-3.5823200787401572
0
LINE
8
BLACK
6
CONTINUOUS
10
5.288225590551181
20
-3.5823200787401572
11
5.2854315748031491
21
-3.5841869685039369
0
LINE
8
BLACK
6
CONTINUOUS
10
5.2854315748031491
20
-3.5841869685039369
11
5.2821358267716532
21
-3.5848425196850391
0
LINE
8
BLACK
6
CONTINUOUS
10
5.2821358267716532
20
-3.5848425196850391
11
5.2649114173228346
21
-3.5848425196850391
0
LINE
8
BLACK
6
CONTINUOUS
10
5.2649114173228346
20
-3.5848425196850391
11
5.2616156692913387
21
-3.5841869685039369
0
LINE
8
BLACK
6
CONTINUOUS
10
5.2616156692913387
20
-3.5841869685039369
11
5.2588216535433068
21
-3.5823200787401572
0
LINE
8
BLACK
6
CONTINUOUS
10
5.2588216535433068
20
-3.5823200787401572
11
5.2569547637795271
21
-3.5795260629921257
0
LINE
8
BLACK
6
CONTINUOUS
10
5.2569547637795271
20
-3.5795260629921257
11
5.2562992125984254
21
-3.5762303149606298
0
LINE
8
BLACK
6
CONTINUOUS
10
5.2562992125984254
20
-3.5762303149606298
11
5.2562992125984254
21
-3.5560531496062993
0
LINE
8
BLACK
6
CONTINUOUS
10
5.2562992125984254
20
-3.5560531496062993
11
5.2569547637795271
21
-3.5527574015748029
0
LINE
8
BLACK
6
CONTINUOUS
10
5.2569547637795271
20
-3.5527574015748029
11
5.2588216535433068
21
-3.5499633858267714
0
LINE
8
BLACK
6
CONTINUOUS
10
5.2588216535433068
20
-3.5499633858267714
11
5.2616156692913387
21
-3.5480964960629922
0
LINE
8
BLACK
6
CONTINUOUS
10
5.2616156692913387
20
-3.5480964960629922
11
5.2649114173228346
21
-3.5474409448818895
0
LINE
8
BLACK
6
CONTINUOUS
10
5.2649114173228346
20
-3.5474409448818895
11
5.2821358267716532
21
-3.5474409448818895
0
LINE
8
BLACK
6
CONTINUOUS
10
5.2821358267716532
20
-3.5474409448818895
11
5.2854315748031491
21
-3.5480964960629922
0
LINE
8
BLACK
6
CONTINUOUS
10
5.166676220472441
20
-3.5614431889763778
11
5.1684643700787403
21
-3.5626379921259841
0
LINE
8
BLACK
6
CONTINUOUS
10
5.1684643700787403
20
-3.5626379921259841
11
5.1696591732283466
21
-3.5644261417322833
0
LINE
8
BLACK
6
CONTINUOUS
10
5.1696591732283466
20
-3.5644261417322833
11
5.1700787401574804
21
-3.5665354330708658
0
LINE
8
BLACK
6
CONTINUOUS
10
5.1700787401574804
20
-3.5665354330708658
11
5.1700787401574804
21
-3.57755905511811
0
LINE
8
BLACK
6
CONTINUOUS
10
5.1700787401574804
20
-3.57755905511811
11
5.1696591732283466
21
-3.579668346456693
0
LINE
8
BLACK
6
CONTINUOUS
10
5.1696591732283466
20
-3.579668346456693
11
5.1684643700787403
21
-3.5814564960629922
0
LINE
8
BLACK
6
CONTINUOUS
10
5.1684643700787403
20
-3.5814564960629922
11
5.166676220472441
21
-3.5826512992125985
0
LINE
8
BLACK
6
CONTINUOUS
10
5.166676220472441
20
-3.5826512992125985
11
5.1645669291338585
21
-3.5830708661417323
0
LINE
8
BLACK
6
CONTINUOUS
10
5.1645669291338585
20
-3.5830708661417323
11
5.1511811023622043
21
-3.5830708661417323
0
LINE
8
BLACK
6
CONTINUOUS
10
5.1511811023622043
20
-3.5830708661417323
11
5.1490718110236218
21
-3.5826512992125985
0
LINE
8
BLACK
6
CONTINUOUS
10
5.1490718110236218
20
-3.5826512992125985
11
5.1472836614173225
21
-3.5814564960629922
0
LINE
8
BLACK
6
CONTINUOUS
10
5.1472836614173225
20
-3.5814564960629922
11
5.1460888582677162
21
-3.579668346456693
0
LINE
8
BLACK
6
CONTINUOUS
10
5.1460888582677162
20
-3.579668346456693
11
5.1456692913385824
21
-3.57755905511811
0
LINE
8
BLACK
6
CONTINUOUS
10
5.1456692913385824
20
-3.57755905511811
11
5.1456692913385824
21
-3.5665354330708658
0
LINE
8
BLACK
6
CONTINUOUS
10
5.1456692913385824
20
-3.5665354330708658
11
5.1460888582677162
21
-3.5644261417322833
0
LINE
8
BLACK
6
CONTINUOUS
10
5.1460888582677162
20
-3.5644261417322833
11
5.1472836614173225
21
-3.5626379921259841
0
LINE
8
BLACK
6
CONTINUOUS
10
5.1472836614173225
20
-3.5626379921259841
11
5.1490718110236218
21
-3.5614431889763778
0
LINE
8
BLACK
6
CONTINUOUS
10
5.1490718110236218
20
-3.5614431889763778
11
5.1511811023622043
21
-3.561023622047244
0
LINE
8
BLACK
6
CONTINUOUS
10
5.1511811023622043
20
-3.561023622047244
11
5.1645669291338585
21
-3.561023622047244
0
LINE
8
BLACK
6
CONTINUOUS
10
5.1645669291338585
20
-3.561023622047244
11
5.166676220472441
21
-3.5614431889763778
0
LINE
8
BLACK
6
CONTINUOUS
10
5.387400078740157
20
-3.549277598425197
11
5.390194094488189
21
-3.5511444881889762
0
LINE
8
BLACK
6
CONTINUOUS
10
5.390194094488189
20
-3.5511444881889762
11
5.3920609842519687
21
-3.5539385039370077
0
LINE
8
BLACK
6
CONTINUOUS
10
5.3920609842519687
20
-3.5539385039370077
11
5.3927165354330704
21
-3.5572342519685041
0
LINE
8
BLACK
6
CONTINUOUS
10
5.3927165354330704
20
-3.5572342519685041
11
5.3927165354330704
21
-3.5744586614173226
0
LINE
8
BLACK
6
CONTINUOUS
10
5.3927165354330704
20
-3.5744586614173226
11
5.3920609842519687
21
-3.577754409448819
0
LINE
8
BLACK
6
CONTINUOUS
10
5.3920609842519687
20
-3.577754409448819
11
5.390194094488189
21
-3.5805484251968505
0
LINE
8
BLACK
6
CONTINUOUS
10
5.390194094488189
20
-3.5805484251968505
11
5.387400078740157
21
-3.5824153149606297
0
LINE
8
BLACK
6
CONTINUOUS
10
5.387400078740157
20
-3.5824153149606297
11
5.3841043307086611
21
-3.5830708661417323
0
LINE
8
BLACK
6
CONTINUOUS
10
5.3841043307086611
20
-3.5830708661417323
11
5.3639271653543306
21
-3.5830708661417323
0
LINE
8
BLACK
6
CONTINUOUS
10
5.3639271653543306
20
-3.5830708661417323
11
5.3606314173228347
21
-3.5824153149606297
0
LINE
8
BLACK
6
CONTINUOUS
10
5.3606314173228347
20
-3.5824153149606297
11
5.3578374015748027
21
-3.5805484251968505
0
LINE
8
BLACK
6
CONTINUOUS
10
5.3578374015748027
20
-3.5805484251968505
11
5.3559705118110239
21
-3.577754409448819
0
LINE
8
BLACK
6
CONTINUOUS
10
5.3559705118110239
20
-3.577754409448819
11
5.3553149606299213
21
-3.5744586614173226
0
LINE
8
BLACK
6
CONTINUOUS
10
5.3553149606299213
20
-3.5744586614173226
11
5.3553149606299213
21
-3.5572342519685041
0
LINE
8
BLACK
6
CONTINUOUS
10
5.3553149606299213
20
-3.5572342519685041
11
5.3559705118110239
21
-3.5539385039370077
0
LINE
8
BLACK
6
CONTINUOUS
10
5.3559705118110239
20
-3.5539385039370077
11
5.3578374015748027
21
-3.5511444881889762
0
LINE
8
BLACK
6
CONTINUOUS
10
5.3578374015748027
20
-3.5511444881889762
11
5.3606314173228347
21
-3.549277598425197
0
LINE
8
BLACK
6
CONTINUOUS
10
5.3606314173228347
20
-3.549277598425197
11
5.3639271653543306
21
-3.5486220472440944
0
LINE
8
BLACK
6
CONTINUOUS
10
5.3639271653543306
20
-3.5486220472440944
11
5.3841043307086611
21
-3.5486220472440944
0
LINE
8
BLACK
6
CONTINUOUS
10
5.3841043307086611
20
-3.5486220472440944
11
5.387400078740157
21
-3.549277598425197
0
LINE
8
BLACK
6
CONTINUOUS
10
5.1220457480314963
20
-3.4977027952755906
11
5.1248397637795273
21
-3.4995696850393698
0
LINE
8
BLACK
6
CONTINUOUS
10
5.1248397637795273
20
-3.4995696850393698
11
5.126706653543307
21
-3.5023637007874013
0
LINE
8
BLACK
6
CONTINUOUS
10
5.126706653543307
20
-3.5023637007874013
11
5.1273622047244096
21
-3.5056594488188977
0
LINE
8
BLACK
6
CONTINUOUS
10
5.1273622047244096
20
-3.5056594488188977
11
5.1273622047244096
21
-3.5228838582677167
0
LINE
8
BLACK
6
CONTINUOUS
10
5.1273622047244096
20
-3.5228838582677167
11
5.126706653543307
21
-3.5261796062992126
0
LINE
8
BLACK
6
CONTINUOUS
10
5.126706653543307
20
-3.5261796062992126
11
5.1248397637795273
21
-3.5289736220472441
0
LINE
8
BLACK
6
CONTINUOUS
10
5.1248397637795273
20
-3.5289736220472441
11
5.1220457480314963
21
-3.5308405118110238
0
LINE
8
BLACK
6
CONTINUOUS
10
5.1220457480314963
20
-3.5308405118110238
11
5.1187499999999995
21
-3.5314960629921259
0
LINE
8
BLACK
6
CONTINUOUS
10
5.1187499999999995
20
-3.5314960629921259
11
5.0985728346456689
21
-3.5314960629921259
0
LINE
8
BLACK
6
CONTINUOUS
10
5.0985728346456689
20
-3.5314960629921259
11
5.095277086614173
21
-3.5308405118110238
0
LINE
8
BLACK
6
CONTINUOUS
10
5.095277086614173
20
-3.5308405118110238
11
5.0924830708661419
21
-3.5289736220472441
0
LINE
8
BLACK
6
CONTINUOUS
10
5.0924830708661419
20
-3.5289736220472441
11
5.0906161811023622
21
-3.5261796062992126
0
LINE
8
BLACK
6
CONTINUOUS
10
5.0906161811023622
20
-3.5261796062992126
11
5.0899606299212596
21
-3.5228838582677167
0
LINE
8
BLACK
6
CONTINUOUS
10
5.0899606299212596
20
-3.5228838582677167
11
5.0899606299212596
21
-3.5056594488188977
0
LINE
8
BLACK
6
CONTINUOUS
10
5.0899606299212596
20
-3.5056594488188977
11
5.0906161811023622
21
-3.5023637007874013
0
LINE
8
BLACK
6
CONTINUOUS
10
5.0906161811023622
20
-3.5023637007874013
11
5.0924830708661419
21
-3.4995696850393698
0
LINE
8
BLACK
6
CONTINUOUS
10
5.0924830708661419
20
-3.4995696850393698
11
5.095277086614173
21
-3.4977027952755906
0
LINE
8
BLACK
6
CONTINUOUS
10
5.095277086614173
20
-3.4977027952755906
11
5.0985728346456689
21
-3.497047244094488
0
LINE
8
BLACK
6
CONTINUOUS
10
5.0985728346456689
20
-3.497047244094488
11
5.1187499999999995
21
-3.497047244094488
0
LINE
8
BLACK
6
CONTINUOUS
10
5.1187499999999995
20
-3.497047244094488
11
5.1220457480314963
21
-3.4977027952755906
0
LINE
8
BLACK
6
CONTINUOUS
10
5.4848689370078736
20
-3.455473622047244
11
5.4880620866141729
21
-3.4576072047244093
0
LINE
8
BLACK
6
CONTINUOUS
10
5.4880620866141729
20
-3.4576072047244093
11
5.4901956692913387
21
-3.4608003543307087
0
LINE
8
BLACK
6
CONTINUOUS
10
5.4901956692913387
20
-3.4608003543307087
11
5.4909448818897637
21
-3.4645669291338583
0
LINE
8
BLACK
6
CONTINUOUS
10
5.4909448818897637
20
-3.4645669291338583
11
5.4909448818897637
21
-3.515748031496063
0
LINE
8
BLACK
6
CONTINUOUS
10
5.4909448818897637
20
-3.515748031496063
11
5.4901956692913387
21
-3.5195146062992126
0
LINE
8
BLACK
6
CONTINUOUS
10
5.4901956692913387
20
-3.5195146062992126
11
5.4880620866141729
21
-3.5227077559055116
0
LINE
8
BLACK
6
CONTINUOUS
10
5.4880620866141729
20
-3.5227077559055116
11
5.4848689370078736
21
-3.5248413385826769
0
LINE
8
BLACK
6
CONTINUOUS
10
5.4848689370078736
20
-3.5248413385826769
11
5.4811023622047239
21
-3.5255905511811023
0
LINE
8
BLACK
6
CONTINUOUS
10
5.4811023622047239
20
-3.5255905511811023
11
5.455511811023622
21
-3.5255905511811023
0
LINE
8
BLACK
6
CONTINUOUS
10
5.455511811023622
20
-3.5255905511811023
11
5.4517452362204724
21
-3.5248413385826769
0
LINE
8
BLACK
6
CONTINUOUS
10
5.4517452362204724
20
-3.5248413385826769
11
5.448552086614173
21
-3.5227077559055116
0
LINE
8
BLACK
6
CONTINUOUS
10
5.448552086614173
20
-3.5227077559055116
11
5.4464185039370081
21
-3.5195146062992126
0
LINE
8
BLACK
6
CONTINUOUS
10
5.4464185039370081
20
-3.5195146062992126
11
5.4456692913385822
21
-3.515748031496063
0
LINE
8
BLACK
6
CONTINUOUS
10
5.4456692913385822
20
-3.515748031496063
11
5.4456692913385822
21
-3.4645669291338583
0
LINE
8
BLACK
6
CONTINUOUS
10
5.4456692913385822
20
-3.4645669291338583
11
5.4464185039370081
21
-3.4608003543307087
0
LINE
8
BLACK
6
CONTINUOUS
10
5.4464185039370081
20
-3.4608003543307087
11
5.448552086614173
21
-3.4576072047244093
0
LINE
8
BLACK
6
CONTINUOUS
10
5.448552086614173
20
-3.4576072047244093
11
5.4517452362204724
21
-3.455473622047244
0
LINE
8
BLACK
6
CONTINUOUS
10
5.4517452362204724
20
-3.455473622047244
11
5.455511811023622
21
-3.454724409448819
0
LINE
8
BLACK
6
CONTINUOUS
10
5.455511811023622
20
-3.454724409448819
11
5.4811023622047239
21
-3.454724409448819
0
LINE
8
BLACK
6
CONTINUOUS
10
5.4811023622047239
20
-3.454724409448819
11
5.4848689370078736
21
-3.455473622047244
0
LINE
8
BLACK
6
CONTINUOUS
10
5.6010106692913384
20
-3.455473622047244
11
5.6042038188976377
21
-3.4576072047244093
0
LINE
8
BLACK
6
CONTINUOUS
10
5.6042038188976377
20
-3.4576072047244093
11
5.6063374015748026
21
-3.4608003543307087
0
LINE
8
BLACK
6
CONTINUOUS
10
5.6063374015748026
20
-3.4608003543307087
11
5.6070866141732285
21
-3.4645669291338583
0
LINE
8
BLACK
6
CONTINUOUS
10
5.6070866141732285
20
-3.4645669291338583
11
5.6070866141732285
21
-3.515748031496063
0
LINE
8
BLACK
6
CONTINUOUS
10
5.6070866141732285
20
-3.515748031496063
11
5.6063374015748026
21
-3.5195146062992126
0
LINE
8
BLACK
6
CONTINUOUS
10
5.6063374015748026
20
-3.5195146062992126
11
5.6042038188976377
21
-3.5227077559055116
0
LINE
8
BLACK
6
CONTINUOUS
10
5.6042038188976377
20
-3.5227077559055116
11
5.6010106692913384
21
-3.5248413385826769
0
LINE
8
BLACK
6
CONTINUOUS
10
5.6010106692913384
20
-3.5248413385826769
11
5.5972440944881887
21
-3.5255905511811023
0
LINE
8
BLACK
6
CONTINUOUS
10
5.5972440944881887
20
-3.5255905511811023
11
5.5716535433070868
21
-3.5255905511811023
0
LINE
8
BLACK
6
CONTINUOUS
10
5.5716535433070868
20
-3.5255905511811023
11
5.5678869685039372
21
-3.5248413385826769
0
LINE
8
BLACK
6
CONTINUOUS
10
5.5678869685039372
20
-3.5248413385826769
11
5.5646938188976378
21
-3.5227077559055116
0
LINE
8
BLACK
6
CONTINUOUS
10
5.5646938188976378
20
-3.5227077559055116
11
5.562560236220472
21
-3.5195146062992126
0
LINE
8
BLACK
6
CONTINUOUS
10
5.562560236220472
20
-3.5195146062992126
11
5.561811023622047
21
-3.515748031496063
0
LINE
8
BLACK
6
CONTINUOUS
10
5.561811023622047
20
-3.515748031496063
11
5.561811023622047
21
-3.4645669291338583
0
LINE
8
BLACK
6
CONTINUOUS
10
5.561811023622047
20
-3.4645669291338583
11
5.562560236220472
21
-3.4608003543307087
0
LINE
8
BLACK
6
CONTINUOUS
10
5.562560236220472
20
-3.4608003543307087
11
5.5646938188976378
21
-3.4576072047244093
0
LINE
8
BLACK
6
CONTINUOUS
10
5.5646938188976378
20
-3.4576072047244093
11
5.5678869685039372
21
-3.455473622047244
0
LINE
8
BLACK
6
CONTINUOUS
10
5.5678869685039372
20
-3.455473622047244
11
5.5716535433070868
21
-3.454724409448819
0
LINE
8
BLACK
6
CONTINUOUS
10
5.5716535433070868
20
-3.454724409448819
11
5.5972440944881887
21
-3.454724409448819
0
LINE
8
BLACK
6
CONTINUOUS
10
5.5972440944881887
20
-3.454724409448819
11
5.6010106692913384
21
-3.455473622047244
0
LINE
8
BLACK
6
CONTINUOUS
10
5.1658888188976375
20
-3.4917581496062993
11
5.1676769685039368
21
-3.4929529527559056
0
LINE
8
BLACK
6
CONTINUOUS
10
5.1676769685039368
20
-3.4929529527559056
11
5.1688717716535431
21
-3.4947411023622048
0
LINE
8
BLACK
6
CONTINUOUS
10
5.1688717716535431
20
-3.4947411023622048
11
5.1692913385826769
21
-3.4968503937007873
0
LINE
8
BLACK
6
CONTINUOUS
10
5.1692913385826769
20
-3.4968503937007873
11
5.1692913385826769
21
-3.5078740157480315
0
LINE
8
BLACK
6
CONTINUOUS
10
5.1692913385826769
20
-3.5078740157480315
11
5.1688717716535431
21
-3.509983307086614
0
LINE
8
BLACK
6
CONTINUOUS
10
5.1688717716535431
20
-3.509983307086614
11
5.1676769685039368
21
-3.5117714566929132
0
LINE
8
BLACK
6
CONTINUOUS
10
5.1676769685039368
20
-3.5117714566929132
11
5.1658888188976375
21
-3.5129662598425195
0
LINE
8
BLACK
6
CONTINUOUS
10
5.1658888188976375
20
-3.5129662598425195
11
5.163779527559055
21
-3.5133858267716533
0
LINE
8
BLACK
6
CONTINUOUS
10
5.163779527559055
20
-3.5133858267716533
11
5.1503937007874017
21
-3.5133858267716533
0
LINE
8
BLACK
6
CONTINUOUS
10
5.1503937007874017
20
-3.5133858267716533
11
5.1482844094488192
21
-3.5129662598425195
0
LINE
8
BLACK
6
CONTINUOUS
10
5.1482844094488192
20
-3.5129662598425195
11
5.1464962598425199
21
-3.5117714566929132
0
LINE
8
BLACK
6
CONTINUOUS
10
5.1464962598425199
20
-3.5117714566929132
11
5.1453014566929136
21
-3.509983307086614
0
LINE
8
BLACK
6
CONTINUOUS
10
5.1453014566929136
20
-3.509983307086614
11
5.1448818897637798
21
-3.5078740157480315
0
LINE
8
BLACK
6
CONTINUOUS
10
5.1448818897637798
20
-3.5078740157480315
11
5.1448818897637798
21
-3.4968503937007873
0
LINE
8
BLACK
6
CONTINUOUS
10
5.1448818897637798
20
-3.4968503937007873
11
5.1453014566929136
21
-3.4947411023622048
0
LINE
8
BLACK
6
CONTINUOUS
10
5.1453014566929136
20
-3.4947411023622048
11
5.1464962598425199
21
-3.4929529527559056
0
LINE
8
BLACK
6
CONTINUOUS
10
5.1464962598425199
20
-3.4929529527559056
11
5.1482844094488192
21
-3.4917581496062993
0
LINE
8
BLACK
6
CONTINUOUS
10
5.1482844094488192
20
-3.4917581496062993
11
5.1503937007874017
21
-3.4913385826771655
0
LINE
8
BLACK
6
CONTINUOUS
10
5.1503937007874017
20
-3.4913385826771655
11
5.163779527559055
21
-3.4913385826771655
0
LINE
8
BLACK
6
CONTINUOUS
10
5.163779527559055
20
-3.4913385826771655
11
5.1658888188976375
21
-3.4917581496062993
0
LINE
8
BLACK
6
CONTINUOUS
10
5.202502992125984
20
-3.4913644488188975
11
5.2042911417322832
21
-3.4925592519685038
0
LINE
8
BLACK
6
CONTINUOUS
10
5.2042911417322832
20
-3.4925592519685038
11
5.2054859448818895
21
-3.4943474015748031
0
LINE
8
BLACK
6
CONTINUOUS
10
5.2054859448818895
20
-3.4943474015748031
11
5.2059055118110233
21
-3.4964566929133856
0
LINE
8
BLACK
6
CONTINUOUS
10
5.2059055118110233
20
-3.4964566929133856
11
5.2059055118110233
21
-3.5074803149606297
0
LINE
8
BLACK
6
CONTINUOUS
10
5.2059055118110233
20
-3.5074803149606297
11
5.2054859448818895
21
-3.5095896062992127
0
LINE
8
BLACK
6
CONTINUOUS
10
5.2054859448818895
20
-3.5095896062992127
11
5.2042911417322832
21
-3.5113777559055119
0
LINE
8
BLACK
6
CONTINUOUS
10
5.2042911417322832
20
-3.5113777559055119
11
5.202502992125984
21
-3.5125725590551182
0
LINE
8
BLACK
6
CONTINUOUS
10
5.202502992125984
20
-3.5125725590551182
11
5.2003937007874015
21
-3.512992125984252
0
LINE
8
BLACK
6
CONTINUOUS
10
5.2003937007874015
20
-3.512992125984252
11
5.1870078740157481
21
-3.512992125984252
0
LINE
8
BLACK
6
CONTINUOUS
10
5.1870078740157481
20
-3.512992125984252
11
5.1848985826771656
21
-3.5125725590551182
0
LINE
8
BLACK
6
CONTINUOUS
10
5.1848985826771656
20
-3.5125725590551182
11
5.1831104330708664
21
-3.5113777559055119
0
LINE
8
BLACK
6
CONTINUOUS
10
5.1831104330708664
20
-3.5113777559055119
11
5.1819156299212601
21
-3.5095896062992127
0
LINE
8
BLACK
6
CONTINUOUS
10
5.1819156299212601
20
-3.5095896062992127
11
5.1814960629921263
21
-3.5074803149606297
0
LINE
8
BLACK
6
CONTINUOUS
10
5.1814960629921263
20
-3.5074803149606297
11
5.1814960629921263
21
-3.4964566929133856
0
LINE
8
BLACK
6
CONTINUOUS
10
5.1814960629921263
20
-3.4964566929133856
11
5.1819156299212601
21
-3.4943474015748031
0
LINE
8
BLACK
6
CONTINUOUS
10
5.1819156299212601
20
-3.4943474015748031
11
5.1831104330708664
21
-3.4925592519685038
0
LINE
8
BLACK
6
CONTINUOUS
10
5.1831104330708664
20
-3.4925592519685038
11
5.1848985826771656
21
-3.4913644488188975
0
LINE
8
BLACK
6
CONTINUOUS
10
5.1848985826771656
20
-3.4913644488188975
11
5.1870078740157481
21
-3.4909448818897637
0
LINE
8
BLACK
6
CONTINUOUS
10
5.1870078740157481
20
-3.4909448818897637
11
5.2003937007874015
21
-3.4909448818897637
0
LINE
8
BLACK
6
CONTINUOUS
10
5.2003937007874015
20
-3.4909448818897637
11
5.202502992125984
21
-3.4913644488188975
0
LINE
8
BLACK
6
CONTINUOUS
10
5.1658888188976375
20
-3.453962874015748
11
5.1676769685039368
21
-3.4551576771653543
0
LINE
8
BLACK
6
CONTINUOUS
10
5.1676769685039368
20
-3.4551576771653543
11
5.1688717716535431
21
-3.4569458267716535
0
LINE
8
BLACK
6
CONTINUOUS
10
5.1688717716535431
20
-3.4569458267716535
11
5.1692913385826769
21
-3.459055118110236
0
LINE
8
BLACK
6
CONTINUOUS
10
5.1692913385826769
20
-3.459055118110236
11
5.1692913385826769
21
-3.4700787401574802
0
LINE
8
BLACK
6
CONTINUOUS
10
5.1692913385826769
20
-3.4700787401574802
11
5.1688717716535431
21
-3.4721880314960627
0
LINE
8
BLACK
6
CONTINUOUS
10
5.1688717716535431
20
-3.4721880314960627
11
5.1676769685039368
21
-3.4739761811023619
0
LINE
8
BLACK
6
CONTINUOUS
10
5.1676769685039368
20
-3.4739761811023619
11
5.1658888188976375
21
-3.4751709842519682
0
LINE
8
BLACK
6
CONTINUOUS
10
5.1658888188976375
20
-3.4751709842519682
11
5.163779527559055
21
-3.4755905511811025
0
LINE
8
BLACK
6
CONTINUOUS
10
5.163779527559055
20
-3.4755905511811025
11
5.1503937007874017
21
-3.4755905511811025
0
LINE
8
BLACK
6
CONTINUOUS
10
5.1503937007874017
20
-3.4755905511811025
11
5.1482844094488192
21
-3.4751709842519682
0
LINE
8
BLACK
6
CONTINUOUS
10
5.1482844094488192
20
-3.4751709842519682
11
5.1464962598425199
21
-3.4739761811023619
0
LINE
8
BLACK
6
CONTINUOUS
10
5.1464962598425199
20
-3.4739761811023619
11
5.1453014566929136
21
-3.4721880314960627
0
LINE
8
BLACK
6
CONTINUOUS
10
5.1453014566929136
20
-3.4721880314960627
11
5.1448818897637798
21
-3.4700787401574802
0
LINE
8
BLACK
6
CONTINUOUS
10
5.1448818897637798
20
-3.4700787401574802
11
5.1448818897637798
21
-3.459055118110236
0
LINE
8
BLACK
6
CONTINUOUS
10
5.1448818897637798
20
-3.459055118110236
11
5.1453014566929136
21
-3.4569458267716535
0
LINE
8
BLACK
6
CONTINUOUS
10
5.1453014566929136
20
-3.4569458267716535
11
5.1464962598425199
21
-3.4551576771653543
0
LINE
8
BLACK
6
CONTINUOUS
10
5.1464962598425199
20
-3.4551576771653543
11
5.1482844094488192
21
-3.453962874015748
0
LINE
8
BLACK
6
CONTINUOUS
10
5.1482844094488192
20
-3.453962874015748
11
5.1503937007874017
21
-3.4535433070866142
0
LINE
8
BLACK
6
CONTINUOUS
10
5.1503937007874017
20
-3.4535433070866142
11
5.163779527559055
21
-3.4535433070866142
0
LINE
8
BLACK
6
CONTINUOUS
10
5.163779527559055
20
-3.4535433070866142
11
5.1658888188976375
21
-3.453962874015748
0
LINE
8
BLACK
6
CONTINUOUS
10
5.202502992125984
20
-3.4535691732283462
11
5.2042911417322832
21
-3.4547639763779525
0
LINE
8
BLACK
6
CONTINUOUS
10
5.2042911417322832
20
-3.4547639763779525
11
5.2054859448818895
21
-3.4565521259842518
0
LINE
8
BLACK
6
CONTINUOUS
10
5.2054859448818895
20
-3.4565521259842518
11
5.2059055118110233
21
-3.4586614173228347
0
LINE
8
BLACK
6
CONTINUOUS
10
5.2059055118110233
20
-3.4586614173228347
11
5.2059055118110233
21
-3.4696850393700789
0
LINE
8
BLACK
6
CONTINUOUS
10
5.2059055118110233
20
-3.4696850393700789
11
5.2054859448818895
21
-3.4717943307086614
0
LINE
8
BLACK
6
CONTINUOUS
10
5.2054859448818895
20
-3.4717943307086614
11
5.2042911417322832
21
-3.4735824803149606
0
LINE
8
BLACK
6
CONTINUOUS
10
5.2042911417322832
20
-3.4735824803149606
11
5.202502992125984
21
-3.4747772834645669
0
LINE
8
BLACK
6
CONTINUOUS
10
5.202502992125984
20
-3.4747772834645669
11
5.2003937007874015
21
-3.4751968503937007
0
LINE
8
BLACK
6
CONTINUOUS
10
5.2003937007874015
20
-3.4751968503937007
11
5.1870078740157481
21
-3.4751968503937007
0
LINE
8
BLACK
6
CONTINUOUS
10
5.1870078740157481
20
-3.4751968503937007
11
5.1848985826771656
21
-3.4747772834645669
0
LINE
8
BLACK
6
CONTINUOUS
10
5.1848985826771656
20
-3.4747772834645669
11
5.1831104330708664
21
-3.4735824803149606
0
LINE
8
BLACK
6
CONTINUOUS
10
5.1831104330708664
20
-3.4735824803149606
11
5.1819156299212601
21
-3.4717943307086614
0
LINE
8
BLACK
6
CONTINUOUS
10
5.1819156299212601
20
-3.4717943307086614
11
5.1814960629921263
21
-3.4696850393700789
0
LINE
8
BLACK
6
CONTINUOUS
10
5.1814960629921263
20
-3.4696850393700789
11
5.1814960629921263
21
-3.4586614173228347
0
LINE
8
BLACK
6
CONTINUOUS
10
5.1814960629921263
20
-3.4586614173228347
11
5.1819156299212601
21
-3.4565521259842518
0
LINE
8
BLACK
6
CONTINUOUS
10
5.1819156299212601
20
-3.4565521259842518
11
5.1831104330708664
21
-3.4547639763779525
0
LINE
8
BLACK
6
CONTINUOUS
10
5.1831104330708664
20
-3.4547639763779525
11
5.1848985826771656
21
-3.4535691732283462
0
LINE
8
BLACK
6
CONTINUOUS
10
5.1848985826771656
20
-3.4535691732283462
11
5.1870078740157481
21
-3.4531496062992124
0
LINE
8
BLACK
6
CONTINUOUS
10
5.1870078740157481
20
-3.4531496062992124
11
5.2003937007874015
21
-3.4531496062992124
0
LINE
8
BLACK
6
CONTINUOUS
10
5.2003937007874015
20
-3.4531496062992124
11
5.202502992125984
21
-3.4535691732283462
0
LINE
8
BLACK
6
CONTINUOUS
10
5.5533728740157482
20
-3.3794893700787401
11
5.5565660236220475
21
-3.3816229527559054
0
LINE
8
BLACK
6
CONTINUOUS
10
5.5565660236220475
20
-3.3816229527559054
11
5.5586996062992124
21
-3.3848161023622048
0
LINE
8
BLACK
6
CONTINUOUS
10
5.5586996062992124
20
-3.3848161023622048
11
5.5594488188976374
21
-3.3885826771653544
0
LINE
8
BLACK
6
CONTINUOUS
10
5.5594488188976374
20
-3.3885826771653544
11
5.5594488188976374
21
-3.4141732283464568
0
LINE
8
BLACK
6
CONTINUOUS
10
5.5594488188976374
20
-3.4141732283464568
11
5.5586996062992124
21
-3.4179398031496064
0
LINE
8
BLACK
6
CONTINUOUS
10
5.5586996062992124
20
-3.4179398031496064
11
5.5565660236220475
21
-3.4211329527559053
0
LINE
8
BLACK
6
CONTINUOUS
10
5.5565660236220475
20
-3.4211329527559053
11
5.5533728740157482
21
-3.4232665354330707
0
LINE
8
BLACK
6
CONTINUOUS
10
5.5533728740157482
20
-3.4232665354330707
11
5.5496062992125985
21
-3.4240157480314961
0
LINE
8
BLACK
6
CONTINUOUS
10
5.5496062992125985
20
-3.4240157480314961
11
5.4984251968503939
21
-3.4240157480314961
0
LINE
8
BLACK
6
CONTINUOUS
10
5.4984251968503939
20
-3.4240157480314961
11
5.4946586220472442
21
-3.4232665354330707
0
LINE
8
BLACK
6
CONTINUOUS
10
5.4946586220472442
20
-3.4232665354330707
11
5.4914654724409449
21
-3.4211329527559053
0
LINE
8
BLACK
6
CONTINUOUS
10
5.4914654724409449
20
-3.4211329527559053
11
5.4893318897637791
21
-3.4179398031496064
0
LINE
8
BLACK
6
CONTINUOUS
10
5.4893318897637791
20
-3.4179398031496064
11
5.4885826771653541
21
-3.4141732283464568
0
LINE
8
BLACK
6
CONTINUOUS
10
5.4885826771653541
20
-3.4141732283464568
11
5.4885826771653541
21
-3.3885826771653544
0
LINE
8
BLACK
6
CONTINUOUS
10
5.4885826771653541
20
-3.3885826771653544
11
5.4893318897637791
21
-3.3848161023622048
0
LINE
8
BLACK
6
CONTINUOUS
10
5.4893318897637791
20
-3.3848161023622048
11
5.4914654724409449
21
-3.3816229527559054
0
LINE
8
BLACK
6
CONTINUOUS
10
5.4914654724409449
20
-3.3816229527559054
11
5.4946586220472442
21
-3.3794893700787401
0
LINE
8
BLACK
6
CONTINUOUS
10
5.4946586220472442
20
-3.3794893700787401
11
5.4984251968503939
21
-3.3787401574803151
0
LINE
8
BLACK
6
CONTINUOUS
10
5.4984251968503939
20
-3.3787401574803151
11
5.5496062992125985
21
-3.3787401574803151
0
LINE
8
BLACK
6
CONTINUOUS
10
5.5496062992125985
20
-3.3787401574803151
11
5.5533728740157482
21
-3.3794893700787401
0
LINE
8
BLACK
6
CONTINUOUS
10
5.6307521259842517
20
-3.3845325590551179
11
5.6336259448818895
21
-3.3864527952755905
0
LINE
8
BLACK
6
CONTINUOUS
10
5.6336259448818895
20
-3.3864527952755905
11
5.6355461811023622
21
-3.3893266141732283
0
LINE
8
BLACK
6
CONTINUOUS
10
5.6355461811023622
20
-3.3893266141732283
11
5.6362204724409448
21
-3.3927165354330708
0
LINE
8
BLACK
6
CONTINUOUS
10
5.6362204724409448
20
-3.3927165354330708
11
5.6362204724409448
21
-3.4104330708661417
0
LINE
8
BLACK
6
CONTINUOUS
10
5.6362204724409448
20
-3.4104330708661417
11
5.6355461811023622
21
-3.4138229921259842
0
LINE
8
BLACK
6
CONTINUOUS
10
5.6355461811023622
20
-3.4138229921259842
11
5.6336259448818895
21
-3.416696811023622
0
LINE
8
BLACK
6
CONTINUOUS
10
5.6336259448818895
20
-3.416696811023622
11
5.6307521259842517
21
-3.4186170472440942
0
LINE
8
BLACK
6
CONTINUOUS
10
5.6307521259842517
20
-3.4186170472440942
11
5.6273622047244096
21
-3.4192913385826773
0
LINE
8
BLACK
6
CONTINUOUS
10
5.6273622047244096
20
-3.4192913385826773
11
5.5938976377952754
21
-3.4192913385826773
0
LINE
8
BLACK
6
CONTINUOUS
10
5.5938976377952754
20
-3.4192913385826773
11
5.5905077165354333
21
-3.4186170472440942
0
LINE
8
BLACK
6
CONTINUOUS
10
5.5905077165354333
20
-3.4186170472440942
11
5.5876338976377955
21
-3.416696811023622
0
LINE
8
BLACK
6
CONTINUOUS
10
5.5876338976377955
20
-3.416696811023622
11
5.5857136614173228
21
-3.4138229921259842
0
LINE
8
BLACK
6
CONTINUOUS
10
5.5857136614173228
20
-3.4138229921259842
11
5.5850393700787402
21
-3.4104330708661417
0
LINE
8
BLACK
6
CONTINUOUS
10
5.5850393700787402
20
-3.4104330708661417
11
5.5850393700787402
21
-3.3927165354330708
0
LINE
8
BLACK
6
CONTINUOUS
10
5.5850393700787402
20
-3.3927165354330708
11
5.5857136614173228
21
-3.3893266141732283
0
LINE
8
BLACK
6
CONTINUOUS
10
5.5857136614173228
20
-3.3893266141732283
11
5.5876338976377955
21
-3.3864527952755905
0
LINE
8
BLACK
6
CONTINUOUS
10
5.5876338976377955
20
-3.3864527952755905
11
5.5905077165354333
21
-3.3845325590551179
0
LINE
8
BLACK
6
CONTINUOUS
10
5.5905077165354333
20
-3.3845325590551179
11
5.5938976377952754
21
-3.3838582677165352
0
LINE
8
BLACK
6
CONTINUOUS
10
5.5938976377952754
20
-3.3838582677165352
11
5.6273622047244096
21
-3.3838582677165352
0
LINE
8
BLACK
6
CONTINUOUS
10
5.6273622047244096
20
-3.3838582677165352
11
5.6307521259842517
21
-3.3845325590551179
0
LINE
8
BLACK
6
CONTINUOUS
10
5.7661417322834643
20
-3.3766338582677164
11
5.6431102362204726
21
-3.3766338582677164
0
LINE
8
BLACK
6
CONTINUOUS
10
5.6431102362204726
20
-3.3766338582677164
11
5.6431102362204726
21
-3.3602362204724407
0
LINE
8
BLACK
6
CONTINUOUS
10
5.6431102362204726
20
-3.3602362204724407
11
5.5850393700787402
21
-3.3602362204724407
0
LINE
8
BLACK
6
CONTINUOUS
10
5.5850393700787402
20
-3.3602362204724407
11
5.5850393700787402
21
-3.3248031496062991
0
LINE
8
BLACK
6
CONTINUOUS
10
5.5850393700787402
20
-3.3248031496062991
11
5.6431102362204726
21
-3.3248031496062991
0
LINE
8
BLACK
6
CONTINUOUS
10
5.6431102362204726
20
-3.3248031496062991
11
5.6431102362204726
21
-3.3084055118110234
0
LINE
8
BLACK
6
CONTINUOUS
10
5.6431102362204726
20
-3.3084055118110234
11
5.7661417322834643
21
-3.3084055118110234
0
LINE
8
BLACK
6
CONTINUOUS
10
5.7661417322834643
20
-3.3084055118110234
11
5.7661417322834643
21
-3.3766338582677164
0
LINE
8
BLACK
6
CONTINUOUS
10
5.5533728740157482
20
-3.2633476377952757
11
5.5565660236220475
21
-3.265481220472441
0
LINE
8
BLACK
6
CONTINUOUS
10
5.5565660236220475
20
-3.265481220472441
11
5.5586996062992124
21
-3.26867437007874
0
LINE
8
BLACK
6
CONTINUOUS
10
5.5586996062992124
20
-3.26867437007874
11
5.5594488188976374
21
-3.2724409448818896
0
LINE
8
BLACK
6
CONTINUOUS
10
5.5594488188976374
20
-3.2724409448818896
11
5.5594488188976374
21
-3.298031496062992
0
LINE
8
BLACK
6
CONTINUOUS
10
5.5594488188976374
20
-3.298031496062992
11
5.5586996062992124
21
-3.3017980708661416
0
LINE
8
BLACK
6
CONTINUOUS
10
5.5586996062992124
20
-3.3017980708661416
11
5.5565660236220475
21
-3.304991220472441
0
LINE
8
BLACK
6
CONTINUOUS
10
5.5565660236220475
20
-3.304991220472441
11
5.5533728740157482
21
-3.3071248031496063
0
LINE
8
BLACK
6
CONTINUOUS
10
5.5533728740157482
20
-3.3071248031496063
11
5.5496062992125985
21
-3.3078740157480313
0
LINE
8
BLACK
6
CONTINUOUS
10
5.5496062992125985
20
-3.3078740157480313
11
5.4984251968503939
21
-3.3078740157480313
0
LINE
8
BLACK
6
CONTINUOUS
10
5.4984251968503939
20
-3.3078740157480313
11
5.4946586220472442
21
-3.3071248031496063
0
LINE
8
BLACK
6
CONTINUOUS
10
5.4946586220472442
20
-3.3071248031496063
11
5.4914654724409449
21
-3.304991220472441
0
LINE
8
BLACK
6
CONTINUOUS
10
5.4914654724409449
20
-3.304991220472441
11
5.4893318897637791
21
-3.3017980708661416
0
LINE
8
BLACK
6
CONTINUOUS
10
5.4893318897637791
20
-3.3017980708661416
11
5.4885826771653541
21
-3.298031496062992
0
LINE
8
BLACK
6
CONTINUOUS
10
5.4885826771653541
20
-3.298031496062992
11
5.4885826771653541
21
-3.2724409448818896
0
LINE
8
BLACK
6
CONTINUOUS
10
5.4885826771653541
20
-3.2724409448818896
11
5.4893318897637791
21
-3.26867437007874
0
LINE
8
BLACK
6
CONTINUOUS
10
5.4893318897637791
20
-3.26867437007874
11
5.4914654724409449
21
-3.265481220472441
0
LINE
8
BLACK
6
CONTINUOUS
10
5.4914654724409449
20
-3.265481220472441
11
5.4946586220472442
21
-3.2633476377952757
0
LINE
8
BLACK
6
CONTINUOUS
10
5.4946586220472442
20
-3.2633476377952757
11
5.4984251968503939
21
-3.2625984251968503
0
LINE
8
BLACK
6
CONTINUOUS
10
5.4984251968503939
20
-3.2625984251968503
11
5.5496062992125985
21
-3.2625984251968503
0
LINE
8
BLACK
6
CONTINUOUS
10
5.5496062992125985
20
-3.2625984251968503
11
5.5533728740157482
21
-3.2633476377952757
0
LINE
8
BLACK
6
CONTINUOUS
10
5.6307521259842517
20
-3.2664223228346456
11
5.6336259448818895
21
-3.2683425590551178
0
LINE
8
BLACK
6
CONTINUOUS
10
5.6336259448818895
20
-3.2683425590551178
11
5.6355461811023622
21
-3.2712163779527557
0
LINE
8
BLACK
6
CONTINUOUS
10
5.6355461811023622
20
-3.2712163779527557
11
5.6362204724409448
21
-3.2746062992125982
0
LINE
8
BLACK
6
CONTINUOUS
10
5.6362204724409448
20
-3.2746062992125982
11
5.6362204724409448
21
-3.2923228346456694
0
LINE
8
BLACK
6
CONTINUOUS
10
5.6362204724409448
20
-3.2923228346456694
11
5.6355461811023622
21
-3.2957127559055119
0
LINE
8
BLACK
6
CONTINUOUS
10
5.6355461811023622
20
-3.2957127559055119
11
5.6336259448818895
21
-3.2985865748031493
0
LINE
8
BLACK
6
CONTINUOUS
10
5.6336259448818895
20
-3.2985865748031493
11
5.6307521259842517
21
-3.300506811023622
0
LINE
8
BLACK
6
CONTINUOUS
10
5.6307521259842517
20
-3.300506811023622
11
5.6273622047244096
21
-3.3011811023622046
0
LINE
8
BLACK
6
CONTINUOUS
10
5.6273622047244096
20
-3.3011811023622046
11
5.5938976377952754
21
-3.3011811023622046
0
LINE
8
BLACK
6
CONTINUOUS
10
5.5938976377952754
20
-3.3011811023622046
11
5.5905077165354333
21
-3.300506811023622
0
LINE
8
BLACK
6
CONTINUOUS
10
5.5905077165354333
20
-3.300506811023622
11
5.5876338976377955
21
-3.2985865748031493
0
LINE
8
BLACK
6
CONTINUOUS
10
5.5876338976377955
20
-3.2985865748031493
11
5.5857136614173228
21
-3.2957127559055119
0
LINE
8
BLACK
6
CONTINUOUS
10
5.5857136614173228
20
-3.2957127559055119
11
5.5850393700787402
21
-3.2923228346456694
0
LINE
8
BLACK
6
CONTINUOUS
10
5.5850393700787402
20
-3.2923228346456694
11
5.5850393700787402
21
-3.2746062992125982
0
LINE
8
BLACK
6
CONTINUOUS
10
5.5850393700787402
20
-3.2746062992125982
11
5.5857136614173228
21
-3.2712163779527557
0
LINE
8
BLACK
6
CONTINUOUS
10
5.5857136614173228
20
-3.2712163779527557
11
5.5876338976377955
21
-3.2683425590551178
0
LINE
8
BLACK
6
CONTINUOUS
10
5.5876338976377955
20
-3.2683425590551178
11
5.5905077165354333
21
-3.2664223228346456
0
LINE
8
BLACK
6
CONTINUOUS
10
5.5905077165354333
20
-3.2664223228346456
11
5.5938976377952754
21
-3.265748031496063
0
LINE
8
BLACK
6
CONTINUOUS
10
5.5938976377952754
20
-3.265748031496063
11
5.6273622047244096
21
-3.265748031496063
0
LINE
8
BLACK
6
CONTINUOUS
10
5.6273622047244096
20
-3.265748031496063
11
5.6307521259842517
21
-3.2664223228346456
  0
ENDSEC
  0
EOF
