%TF.GenerationSoftware,KiCad,Pcbnew,9.0.6-9.0.6~ubuntu24.04.1*%
%TF.CreationDate,2025-12-04T22:19:58-06:00*%
%TF.ProjectId,RF Throwie!,52462054-6872-46f7-9769-65212e6b6963,rev?*%
%TF.SameCoordinates,Original*%
%TF.FileFunction,Legend,Top*%
%TF.FilePolarity,Positive*%
%FSLAX46Y46*%
G04 Gerber Fmt 4.6, Leading zero omitted, Abs format (unit mm)*
G04 Created by KiCad (PCBNEW 9.0.6-9.0.6~ubuntu24.04.1) date 2025-12-04 22:19:58*
%MOMM*%
%LPD*%
G01*
G04 APERTURE LIST*
%ADD10C,0.100000*%
%ADD11C,0.120000*%
G04 APERTURE END LIST*
D10*
X136629133Y-86829122D02*
X137329133Y-86595789D01*
X137329133Y-86595789D02*
X136629133Y-86362455D01*
X137262466Y-85729122D02*
X137295800Y-85762455D01*
X137295800Y-85762455D02*
X137329133Y-85862455D01*
X137329133Y-85862455D02*
X137329133Y-85929122D01*
X137329133Y-85929122D02*
X137295800Y-86029122D01*
X137295800Y-86029122D02*
X137229133Y-86095789D01*
X137229133Y-86095789D02*
X137162466Y-86129122D01*
X137162466Y-86129122D02*
X137029133Y-86162455D01*
X137029133Y-86162455D02*
X136929133Y-86162455D01*
X136929133Y-86162455D02*
X136795800Y-86129122D01*
X136795800Y-86129122D02*
X136729133Y-86095789D01*
X136729133Y-86095789D02*
X136662466Y-86029122D01*
X136662466Y-86029122D02*
X136629133Y-85929122D01*
X136629133Y-85929122D02*
X136629133Y-85862455D01*
X136629133Y-85862455D02*
X136662466Y-85762455D01*
X136662466Y-85762455D02*
X136695800Y-85729122D01*
X137262466Y-85029122D02*
X137295800Y-85062455D01*
X137295800Y-85062455D02*
X137329133Y-85162455D01*
X137329133Y-85162455D02*
X137329133Y-85229122D01*
X137329133Y-85229122D02*
X137295800Y-85329122D01*
X137295800Y-85329122D02*
X137229133Y-85395789D01*
X137229133Y-85395789D02*
X137162466Y-85429122D01*
X137162466Y-85429122D02*
X137029133Y-85462455D01*
X137029133Y-85462455D02*
X136929133Y-85462455D01*
X136929133Y-85462455D02*
X136795800Y-85429122D01*
X136795800Y-85429122D02*
X136729133Y-85395789D01*
X136729133Y-85395789D02*
X136662466Y-85329122D01*
X136662466Y-85329122D02*
X136629133Y-85229122D01*
X136629133Y-85229122D02*
X136629133Y-85162455D01*
X136629133Y-85162455D02*
X136662466Y-85062455D01*
X136662466Y-85062455D02*
X136695800Y-85029122D01*
X136870000Y-101252172D02*
X136870000Y-100552172D01*
X136870000Y-100552172D02*
X137136667Y-100552172D01*
X137136667Y-100552172D02*
X137203334Y-100585505D01*
X137203334Y-100585505D02*
X137236667Y-100618839D01*
X137236667Y-100618839D02*
X137270000Y-100685505D01*
X137270000Y-100685505D02*
X137270000Y-100785505D01*
X137270000Y-100785505D02*
X137236667Y-100852172D01*
X137236667Y-100852172D02*
X137203334Y-100885505D01*
X137203334Y-100885505D02*
X137136667Y-100918839D01*
X137136667Y-100918839D02*
X136870000Y-100918839D01*
X137970000Y-101252172D02*
X137736667Y-100918839D01*
X137570000Y-101252172D02*
X137570000Y-100552172D01*
X137570000Y-100552172D02*
X137836667Y-100552172D01*
X137836667Y-100552172D02*
X137903334Y-100585505D01*
X137903334Y-100585505D02*
X137936667Y-100618839D01*
X137936667Y-100618839D02*
X137970000Y-100685505D01*
X137970000Y-100685505D02*
X137970000Y-100785505D01*
X137970000Y-100785505D02*
X137936667Y-100852172D01*
X137936667Y-100852172D02*
X137903334Y-100885505D01*
X137903334Y-100885505D02*
X137836667Y-100918839D01*
X137836667Y-100918839D02*
X137570000Y-100918839D01*
X138403334Y-100552172D02*
X138536667Y-100552172D01*
X138536667Y-100552172D02*
X138603334Y-100585505D01*
X138603334Y-100585505D02*
X138670000Y-100652172D01*
X138670000Y-100652172D02*
X138703334Y-100785505D01*
X138703334Y-100785505D02*
X138703334Y-101018839D01*
X138703334Y-101018839D02*
X138670000Y-101152172D01*
X138670000Y-101152172D02*
X138603334Y-101218839D01*
X138603334Y-101218839D02*
X138536667Y-101252172D01*
X138536667Y-101252172D02*
X138403334Y-101252172D01*
X138403334Y-101252172D02*
X138336667Y-101218839D01*
X138336667Y-101218839D02*
X138270000Y-101152172D01*
X138270000Y-101152172D02*
X138236667Y-101018839D01*
X138236667Y-101018839D02*
X138236667Y-100785505D01*
X138236667Y-100785505D02*
X138270000Y-100652172D01*
X138270000Y-100652172D02*
X138336667Y-100585505D01*
X138336667Y-100585505D02*
X138403334Y-100552172D01*
X139370000Y-100585505D02*
X139303333Y-100552172D01*
X139303333Y-100552172D02*
X139203333Y-100552172D01*
X139203333Y-100552172D02*
X139103333Y-100585505D01*
X139103333Y-100585505D02*
X139036667Y-100652172D01*
X139036667Y-100652172D02*
X139003333Y-100718839D01*
X139003333Y-100718839D02*
X138970000Y-100852172D01*
X138970000Y-100852172D02*
X138970000Y-100952172D01*
X138970000Y-100952172D02*
X139003333Y-101085505D01*
X139003333Y-101085505D02*
X139036667Y-101152172D01*
X139036667Y-101152172D02*
X139103333Y-101218839D01*
X139103333Y-101218839D02*
X139203333Y-101252172D01*
X139203333Y-101252172D02*
X139270000Y-101252172D01*
X139270000Y-101252172D02*
X139370000Y-101218839D01*
X139370000Y-101218839D02*
X139403333Y-101185505D01*
X139403333Y-101185505D02*
X139403333Y-100952172D01*
X139403333Y-100952172D02*
X139270000Y-100952172D01*
X136670000Y-101679133D02*
X137103333Y-101679133D01*
X137103333Y-101679133D02*
X136870000Y-101945800D01*
X136870000Y-101945800D02*
X136970000Y-101945800D01*
X136970000Y-101945800D02*
X137036666Y-101979133D01*
X137036666Y-101979133D02*
X137070000Y-102012466D01*
X137070000Y-102012466D02*
X137103333Y-102079133D01*
X137103333Y-102079133D02*
X137103333Y-102245800D01*
X137103333Y-102245800D02*
X137070000Y-102312466D01*
X137070000Y-102312466D02*
X137036666Y-102345800D01*
X137036666Y-102345800D02*
X136970000Y-102379133D01*
X136970000Y-102379133D02*
X136770000Y-102379133D01*
X136770000Y-102379133D02*
X136703333Y-102345800D01*
X136703333Y-102345800D02*
X136670000Y-102312466D01*
X137903333Y-102345800D02*
X138003333Y-102379133D01*
X138003333Y-102379133D02*
X138170000Y-102379133D01*
X138170000Y-102379133D02*
X138236666Y-102345800D01*
X138236666Y-102345800D02*
X138270000Y-102312466D01*
X138270000Y-102312466D02*
X138303333Y-102245800D01*
X138303333Y-102245800D02*
X138303333Y-102179133D01*
X138303333Y-102179133D02*
X138270000Y-102112466D01*
X138270000Y-102112466D02*
X138236666Y-102079133D01*
X138236666Y-102079133D02*
X138170000Y-102045800D01*
X138170000Y-102045800D02*
X138036666Y-102012466D01*
X138036666Y-102012466D02*
X137970000Y-101979133D01*
X137970000Y-101979133D02*
X137936666Y-101945800D01*
X137936666Y-101945800D02*
X137903333Y-101879133D01*
X137903333Y-101879133D02*
X137903333Y-101812466D01*
X137903333Y-101812466D02*
X137936666Y-101745800D01*
X137936666Y-101745800D02*
X137970000Y-101712466D01*
X137970000Y-101712466D02*
X138036666Y-101679133D01*
X138036666Y-101679133D02*
X138203333Y-101679133D01*
X138203333Y-101679133D02*
X138303333Y-101712466D01*
X139503333Y-101712466D02*
X139436666Y-101679133D01*
X139436666Y-101679133D02*
X139336666Y-101679133D01*
X139336666Y-101679133D02*
X139236666Y-101712466D01*
X139236666Y-101712466D02*
X139170000Y-101779133D01*
X139170000Y-101779133D02*
X139136666Y-101845800D01*
X139136666Y-101845800D02*
X139103333Y-101979133D01*
X139103333Y-101979133D02*
X139103333Y-102079133D01*
X139103333Y-102079133D02*
X139136666Y-102212466D01*
X139136666Y-102212466D02*
X139170000Y-102279133D01*
X139170000Y-102279133D02*
X139236666Y-102345800D01*
X139236666Y-102345800D02*
X139336666Y-102379133D01*
X139336666Y-102379133D02*
X139403333Y-102379133D01*
X139403333Y-102379133D02*
X139503333Y-102345800D01*
X139503333Y-102345800D02*
X139536666Y-102312466D01*
X139536666Y-102312466D02*
X139536666Y-102079133D01*
X139536666Y-102079133D02*
X139403333Y-102079133D01*
X129042466Y-86495788D02*
X129009133Y-86562455D01*
X129009133Y-86562455D02*
X129009133Y-86662455D01*
X129009133Y-86662455D02*
X129042466Y-86762455D01*
X129042466Y-86762455D02*
X129109133Y-86829122D01*
X129109133Y-86829122D02*
X129175800Y-86862455D01*
X129175800Y-86862455D02*
X129309133Y-86895788D01*
X129309133Y-86895788D02*
X129409133Y-86895788D01*
X129409133Y-86895788D02*
X129542466Y-86862455D01*
X129542466Y-86862455D02*
X129609133Y-86829122D01*
X129609133Y-86829122D02*
X129675800Y-86762455D01*
X129675800Y-86762455D02*
X129709133Y-86662455D01*
X129709133Y-86662455D02*
X129709133Y-86595788D01*
X129709133Y-86595788D02*
X129675800Y-86495788D01*
X129675800Y-86495788D02*
X129642466Y-86462455D01*
X129642466Y-86462455D02*
X129409133Y-86462455D01*
X129409133Y-86462455D02*
X129409133Y-86595788D01*
X129709133Y-86162455D02*
X129009133Y-86162455D01*
X129009133Y-86162455D02*
X129709133Y-85762455D01*
X129709133Y-85762455D02*
X129009133Y-85762455D01*
X129709133Y-85429122D02*
X129009133Y-85429122D01*
X129009133Y-85429122D02*
X129009133Y-85262455D01*
X129009133Y-85262455D02*
X129042466Y-85162455D01*
X129042466Y-85162455D02*
X129109133Y-85095789D01*
X129109133Y-85095789D02*
X129175800Y-85062455D01*
X129175800Y-85062455D02*
X129309133Y-85029122D01*
X129309133Y-85029122D02*
X129409133Y-85029122D01*
X129409133Y-85029122D02*
X129542466Y-85062455D01*
X129542466Y-85062455D02*
X129609133Y-85095789D01*
X129609133Y-85095789D02*
X129675800Y-85162455D01*
X129675800Y-85162455D02*
X129709133Y-85262455D01*
X129709133Y-85262455D02*
X129709133Y-85429122D01*
X133585153Y-86915789D02*
X133585153Y-86515789D01*
X134285153Y-86715789D02*
X133585153Y-86715789D01*
X133585153Y-86349123D02*
X134285153Y-85882456D01*
X133585153Y-85882456D02*
X134285153Y-86349123D01*
X134018486Y-85615789D02*
X134018486Y-85082456D01*
X134151820Y-85215789D02*
X134018486Y-85082456D01*
X134018486Y-85082456D02*
X133885153Y-85215789D01*
X135345447Y-86315789D02*
X135378781Y-86349122D01*
X135378781Y-86349122D02*
X135412114Y-86449122D01*
X135412114Y-86449122D02*
X135412114Y-86515789D01*
X135412114Y-86515789D02*
X135378781Y-86615789D01*
X135378781Y-86615789D02*
X135312114Y-86682456D01*
X135312114Y-86682456D02*
X135245447Y-86715789D01*
X135245447Y-86715789D02*
X135112114Y-86749122D01*
X135112114Y-86749122D02*
X135012114Y-86749122D01*
X135012114Y-86749122D02*
X134878781Y-86715789D01*
X134878781Y-86715789D02*
X134812114Y-86682456D01*
X134812114Y-86682456D02*
X134745447Y-86615789D01*
X134745447Y-86615789D02*
X134712114Y-86515789D01*
X134712114Y-86515789D02*
X134712114Y-86449122D01*
X134712114Y-86449122D02*
X134745447Y-86349122D01*
X134745447Y-86349122D02*
X134778781Y-86315789D01*
X135412114Y-85682456D02*
X135412114Y-86015789D01*
X135412114Y-86015789D02*
X134712114Y-86015789D01*
X135412114Y-85449122D02*
X134712114Y-85449122D01*
X135412114Y-85049122D02*
X135012114Y-85349122D01*
X134712114Y-85049122D02*
X135112114Y-85449122D01*
X131735153Y-86552456D02*
X131401820Y-86785789D01*
X131735153Y-86952456D02*
X131035153Y-86952456D01*
X131035153Y-86952456D02*
X131035153Y-86685789D01*
X131035153Y-86685789D02*
X131068486Y-86619123D01*
X131068486Y-86619123D02*
X131101820Y-86585789D01*
X131101820Y-86585789D02*
X131168486Y-86552456D01*
X131168486Y-86552456D02*
X131268486Y-86552456D01*
X131268486Y-86552456D02*
X131335153Y-86585789D01*
X131335153Y-86585789D02*
X131368486Y-86619123D01*
X131368486Y-86619123D02*
X131401820Y-86685789D01*
X131401820Y-86685789D02*
X131401820Y-86952456D01*
X131035153Y-86319123D02*
X131735153Y-85852456D01*
X131035153Y-85852456D02*
X131735153Y-86319123D01*
X131468486Y-85052456D02*
X131468486Y-85585789D01*
X131601820Y-85452456D02*
X131468486Y-85585789D01*
X131468486Y-85585789D02*
X131335153Y-85452456D01*
X132862114Y-87152455D02*
X132162114Y-87152455D01*
X132162114Y-87152455D02*
X132162114Y-86985788D01*
X132162114Y-86985788D02*
X132195447Y-86885788D01*
X132195447Y-86885788D02*
X132262114Y-86819122D01*
X132262114Y-86819122D02*
X132328781Y-86785788D01*
X132328781Y-86785788D02*
X132462114Y-86752455D01*
X132462114Y-86752455D02*
X132562114Y-86752455D01*
X132562114Y-86752455D02*
X132695447Y-86785788D01*
X132695447Y-86785788D02*
X132762114Y-86819122D01*
X132762114Y-86819122D02*
X132828781Y-86885788D01*
X132828781Y-86885788D02*
X132862114Y-86985788D01*
X132862114Y-86985788D02*
X132862114Y-87152455D01*
X132662114Y-86485788D02*
X132662114Y-86152455D01*
X132862114Y-86552455D02*
X132162114Y-86319122D01*
X132162114Y-86319122D02*
X132862114Y-86085788D01*
X132162114Y-85952455D02*
X132162114Y-85552455D01*
X132862114Y-85752455D02*
X132162114Y-85752455D01*
X132662114Y-85352455D02*
X132662114Y-85019122D01*
X132862114Y-85419122D02*
X132162114Y-85185789D01*
X132162114Y-85185789D02*
X132862114Y-84952455D01*
X138933333Y-94498633D02*
X138700000Y-94165300D01*
X138533333Y-94498633D02*
X138533333Y-93798633D01*
X138533333Y-93798633D02*
X138800000Y-93798633D01*
X138800000Y-93798633D02*
X138866667Y-93831966D01*
X138866667Y-93831966D02*
X138900000Y-93865300D01*
X138900000Y-93865300D02*
X138933333Y-93931966D01*
X138933333Y-93931966D02*
X138933333Y-94031966D01*
X138933333Y-94031966D02*
X138900000Y-94098633D01*
X138900000Y-94098633D02*
X138866667Y-94131966D01*
X138866667Y-94131966D02*
X138800000Y-94165300D01*
X138800000Y-94165300D02*
X138533333Y-94165300D01*
X139600000Y-94498633D02*
X139200000Y-94498633D01*
X139400000Y-94498633D02*
X139400000Y-93798633D01*
X139400000Y-93798633D02*
X139333333Y-93898633D01*
X139333333Y-93898633D02*
X139266667Y-93965300D01*
X139266667Y-93965300D02*
X139200000Y-93998633D01*
X133013333Y-89788633D02*
X132679999Y-89788633D01*
X132679999Y-89788633D02*
X132679999Y-89088633D01*
X133213333Y-89155300D02*
X133246666Y-89121966D01*
X133246666Y-89121966D02*
X133313333Y-89088633D01*
X133313333Y-89088633D02*
X133480000Y-89088633D01*
X133480000Y-89088633D02*
X133546666Y-89121966D01*
X133546666Y-89121966D02*
X133580000Y-89155300D01*
X133580000Y-89155300D02*
X133613333Y-89221966D01*
X133613333Y-89221966D02*
X133613333Y-89288633D01*
X133613333Y-89288633D02*
X133580000Y-89388633D01*
X133580000Y-89388633D02*
X133180000Y-89788633D01*
X133180000Y-89788633D02*
X133613333Y-89788633D01*
X135519999Y-95681966D02*
X135486666Y-95715300D01*
X135486666Y-95715300D02*
X135386666Y-95748633D01*
X135386666Y-95748633D02*
X135319999Y-95748633D01*
X135319999Y-95748633D02*
X135219999Y-95715300D01*
X135219999Y-95715300D02*
X135153333Y-95648633D01*
X135153333Y-95648633D02*
X135119999Y-95581966D01*
X135119999Y-95581966D02*
X135086666Y-95448633D01*
X135086666Y-95448633D02*
X135086666Y-95348633D01*
X135086666Y-95348633D02*
X135119999Y-95215300D01*
X135119999Y-95215300D02*
X135153333Y-95148633D01*
X135153333Y-95148633D02*
X135219999Y-95081966D01*
X135219999Y-95081966D02*
X135319999Y-95048633D01*
X135319999Y-95048633D02*
X135386666Y-95048633D01*
X135386666Y-95048633D02*
X135486666Y-95081966D01*
X135486666Y-95081966D02*
X135519999Y-95115300D01*
X136186666Y-95748633D02*
X135786666Y-95748633D01*
X135986666Y-95748633D02*
X135986666Y-95048633D01*
X135986666Y-95048633D02*
X135919999Y-95148633D01*
X135919999Y-95148633D02*
X135853333Y-95215300D01*
X135853333Y-95215300D02*
X135786666Y-95248633D01*
X136853333Y-95748633D02*
X136453333Y-95748633D01*
X136653333Y-95748633D02*
X136653333Y-95048633D01*
X136653333Y-95048633D02*
X136586666Y-95148633D01*
X136586666Y-95148633D02*
X136520000Y-95215300D01*
X136520000Y-95215300D02*
X136453333Y-95248633D01*
X134598633Y-94046666D02*
X134265300Y-94279999D01*
X134598633Y-94446666D02*
X133898633Y-94446666D01*
X133898633Y-94446666D02*
X133898633Y-94179999D01*
X133898633Y-94179999D02*
X133931966Y-94113333D01*
X133931966Y-94113333D02*
X133965300Y-94079999D01*
X133965300Y-94079999D02*
X134031966Y-94046666D01*
X134031966Y-94046666D02*
X134131966Y-94046666D01*
X134131966Y-94046666D02*
X134198633Y-94079999D01*
X134198633Y-94079999D02*
X134231966Y-94113333D01*
X134231966Y-94113333D02*
X134265300Y-94179999D01*
X134265300Y-94179999D02*
X134265300Y-94446666D01*
X133898633Y-93813333D02*
X133898633Y-93379999D01*
X133898633Y-93379999D02*
X134165300Y-93613333D01*
X134165300Y-93613333D02*
X134165300Y-93513333D01*
X134165300Y-93513333D02*
X134198633Y-93446666D01*
X134198633Y-93446666D02*
X134231966Y-93413333D01*
X134231966Y-93413333D02*
X134298633Y-93379999D01*
X134298633Y-93379999D02*
X134465300Y-93379999D01*
X134465300Y-93379999D02*
X134531966Y-93413333D01*
X134531966Y-93413333D02*
X134565300Y-93446666D01*
X134565300Y-93446666D02*
X134598633Y-93513333D01*
X134598633Y-93513333D02*
X134598633Y-93713333D01*
X134598633Y-93713333D02*
X134565300Y-93779999D01*
X134565300Y-93779999D02*
X134531966Y-93813333D01*
X144426666Y-82868633D02*
X144426666Y-83435300D01*
X144426666Y-83435300D02*
X144460000Y-83501966D01*
X144460000Y-83501966D02*
X144493333Y-83535300D01*
X144493333Y-83535300D02*
X144560000Y-83568633D01*
X144560000Y-83568633D02*
X144693333Y-83568633D01*
X144693333Y-83568633D02*
X144760000Y-83535300D01*
X144760000Y-83535300D02*
X144793333Y-83501966D01*
X144793333Y-83501966D02*
X144826666Y-83435300D01*
X144826666Y-83435300D02*
X144826666Y-82868633D01*
X145093333Y-82868633D02*
X145526666Y-82868633D01*
X145526666Y-82868633D02*
X145293333Y-83135300D01*
X145293333Y-83135300D02*
X145393333Y-83135300D01*
X145393333Y-83135300D02*
X145459999Y-83168633D01*
X145459999Y-83168633D02*
X145493333Y-83201966D01*
X145493333Y-83201966D02*
X145526666Y-83268633D01*
X145526666Y-83268633D02*
X145526666Y-83435300D01*
X145526666Y-83435300D02*
X145493333Y-83501966D01*
X145493333Y-83501966D02*
X145459999Y-83535300D01*
X145459999Y-83535300D02*
X145393333Y-83568633D01*
X145393333Y-83568633D02*
X145193333Y-83568633D01*
X145193333Y-83568633D02*
X145126666Y-83535300D01*
X145126666Y-83535300D02*
X145093333Y-83501966D01*
X139081966Y-85420000D02*
X139115300Y-85453333D01*
X139115300Y-85453333D02*
X139148633Y-85553333D01*
X139148633Y-85553333D02*
X139148633Y-85620000D01*
X139148633Y-85620000D02*
X139115300Y-85720000D01*
X139115300Y-85720000D02*
X139048633Y-85786667D01*
X139048633Y-85786667D02*
X138981966Y-85820000D01*
X138981966Y-85820000D02*
X138848633Y-85853333D01*
X138848633Y-85853333D02*
X138748633Y-85853333D01*
X138748633Y-85853333D02*
X138615300Y-85820000D01*
X138615300Y-85820000D02*
X138548633Y-85786667D01*
X138548633Y-85786667D02*
X138481966Y-85720000D01*
X138481966Y-85720000D02*
X138448633Y-85620000D01*
X138448633Y-85620000D02*
X138448633Y-85553333D01*
X138448633Y-85553333D02*
X138481966Y-85453333D01*
X138481966Y-85453333D02*
X138515300Y-85420000D01*
X139148633Y-84753333D02*
X139148633Y-85153333D01*
X139148633Y-84953333D02*
X138448633Y-84953333D01*
X138448633Y-84953333D02*
X138548633Y-85020000D01*
X138548633Y-85020000D02*
X138615300Y-85086667D01*
X138615300Y-85086667D02*
X138648633Y-85153333D01*
X138448633Y-84520000D02*
X138448633Y-84086666D01*
X138448633Y-84086666D02*
X138715300Y-84320000D01*
X138715300Y-84320000D02*
X138715300Y-84220000D01*
X138715300Y-84220000D02*
X138748633Y-84153333D01*
X138748633Y-84153333D02*
X138781966Y-84120000D01*
X138781966Y-84120000D02*
X138848633Y-84086666D01*
X138848633Y-84086666D02*
X139015300Y-84086666D01*
X139015300Y-84086666D02*
X139081966Y-84120000D01*
X139081966Y-84120000D02*
X139115300Y-84153333D01*
X139115300Y-84153333D02*
X139148633Y-84220000D01*
X139148633Y-84220000D02*
X139148633Y-84420000D01*
X139148633Y-84420000D02*
X139115300Y-84486666D01*
X139115300Y-84486666D02*
X139081966Y-84520000D01*
X142003333Y-92981966D02*
X141970000Y-93015300D01*
X141970000Y-93015300D02*
X141870000Y-93048633D01*
X141870000Y-93048633D02*
X141803333Y-93048633D01*
X141803333Y-93048633D02*
X141703333Y-93015300D01*
X141703333Y-93015300D02*
X141636667Y-92948633D01*
X141636667Y-92948633D02*
X141603333Y-92881966D01*
X141603333Y-92881966D02*
X141570000Y-92748633D01*
X141570000Y-92748633D02*
X141570000Y-92648633D01*
X141570000Y-92648633D02*
X141603333Y-92515300D01*
X141603333Y-92515300D02*
X141636667Y-92448633D01*
X141636667Y-92448633D02*
X141703333Y-92381966D01*
X141703333Y-92381966D02*
X141803333Y-92348633D01*
X141803333Y-92348633D02*
X141870000Y-92348633D01*
X141870000Y-92348633D02*
X141970000Y-92381966D01*
X141970000Y-92381966D02*
X142003333Y-92415300D01*
X142603333Y-92581966D02*
X142603333Y-93048633D01*
X142436667Y-92315300D02*
X142270000Y-92815300D01*
X142270000Y-92815300D02*
X142703333Y-92815300D01*
X130466666Y-95128633D02*
X130466666Y-95695300D01*
X130466666Y-95695300D02*
X130500000Y-95761966D01*
X130500000Y-95761966D02*
X130533333Y-95795300D01*
X130533333Y-95795300D02*
X130600000Y-95828633D01*
X130600000Y-95828633D02*
X130733333Y-95828633D01*
X130733333Y-95828633D02*
X130800000Y-95795300D01*
X130800000Y-95795300D02*
X130833333Y-95761966D01*
X130833333Y-95761966D02*
X130866666Y-95695300D01*
X130866666Y-95695300D02*
X130866666Y-95128633D01*
X131166666Y-95195300D02*
X131199999Y-95161966D01*
X131199999Y-95161966D02*
X131266666Y-95128633D01*
X131266666Y-95128633D02*
X131433333Y-95128633D01*
X131433333Y-95128633D02*
X131499999Y-95161966D01*
X131499999Y-95161966D02*
X131533333Y-95195300D01*
X131533333Y-95195300D02*
X131566666Y-95261966D01*
X131566666Y-95261966D02*
X131566666Y-95328633D01*
X131566666Y-95328633D02*
X131533333Y-95428633D01*
X131533333Y-95428633D02*
X131133333Y-95828633D01*
X131133333Y-95828633D02*
X131566666Y-95828633D01*
X135451966Y-89536666D02*
X135485300Y-89569999D01*
X135485300Y-89569999D02*
X135518633Y-89669999D01*
X135518633Y-89669999D02*
X135518633Y-89736666D01*
X135518633Y-89736666D02*
X135485300Y-89836666D01*
X135485300Y-89836666D02*
X135418633Y-89903333D01*
X135418633Y-89903333D02*
X135351966Y-89936666D01*
X135351966Y-89936666D02*
X135218633Y-89969999D01*
X135218633Y-89969999D02*
X135118633Y-89969999D01*
X135118633Y-89969999D02*
X134985300Y-89936666D01*
X134985300Y-89936666D02*
X134918633Y-89903333D01*
X134918633Y-89903333D02*
X134851966Y-89836666D01*
X134851966Y-89836666D02*
X134818633Y-89736666D01*
X134818633Y-89736666D02*
X134818633Y-89669999D01*
X134818633Y-89669999D02*
X134851966Y-89569999D01*
X134851966Y-89569999D02*
X134885300Y-89536666D01*
X134885300Y-89269999D02*
X134851966Y-89236666D01*
X134851966Y-89236666D02*
X134818633Y-89169999D01*
X134818633Y-89169999D02*
X134818633Y-89003333D01*
X134818633Y-89003333D02*
X134851966Y-88936666D01*
X134851966Y-88936666D02*
X134885300Y-88903333D01*
X134885300Y-88903333D02*
X134951966Y-88869999D01*
X134951966Y-88869999D02*
X135018633Y-88869999D01*
X135018633Y-88869999D02*
X135118633Y-88903333D01*
X135118633Y-88903333D02*
X135518633Y-89303333D01*
X135518633Y-89303333D02*
X135518633Y-88869999D01*
X134598633Y-95626666D02*
X134265300Y-95859999D01*
X134598633Y-96026666D02*
X133898633Y-96026666D01*
X133898633Y-96026666D02*
X133898633Y-95759999D01*
X133898633Y-95759999D02*
X133931966Y-95693333D01*
X133931966Y-95693333D02*
X133965300Y-95659999D01*
X133965300Y-95659999D02*
X134031966Y-95626666D01*
X134031966Y-95626666D02*
X134131966Y-95626666D01*
X134131966Y-95626666D02*
X134198633Y-95659999D01*
X134198633Y-95659999D02*
X134231966Y-95693333D01*
X134231966Y-95693333D02*
X134265300Y-95759999D01*
X134265300Y-95759999D02*
X134265300Y-96026666D01*
X133965300Y-95359999D02*
X133931966Y-95326666D01*
X133931966Y-95326666D02*
X133898633Y-95259999D01*
X133898633Y-95259999D02*
X133898633Y-95093333D01*
X133898633Y-95093333D02*
X133931966Y-95026666D01*
X133931966Y-95026666D02*
X133965300Y-94993333D01*
X133965300Y-94993333D02*
X134031966Y-94959999D01*
X134031966Y-94959999D02*
X134098633Y-94959999D01*
X134098633Y-94959999D02*
X134198633Y-94993333D01*
X134198633Y-94993333D02*
X134598633Y-95393333D01*
X134598633Y-95393333D02*
X134598633Y-94959999D01*
X129773333Y-88211966D02*
X129740000Y-88245300D01*
X129740000Y-88245300D02*
X129640000Y-88278633D01*
X129640000Y-88278633D02*
X129573333Y-88278633D01*
X129573333Y-88278633D02*
X129473333Y-88245300D01*
X129473333Y-88245300D02*
X129406667Y-88178633D01*
X129406667Y-88178633D02*
X129373333Y-88111966D01*
X129373333Y-88111966D02*
X129340000Y-87978633D01*
X129340000Y-87978633D02*
X129340000Y-87878633D01*
X129340000Y-87878633D02*
X129373333Y-87745300D01*
X129373333Y-87745300D02*
X129406667Y-87678633D01*
X129406667Y-87678633D02*
X129473333Y-87611966D01*
X129473333Y-87611966D02*
X129573333Y-87578633D01*
X129573333Y-87578633D02*
X129640000Y-87578633D01*
X129640000Y-87578633D02*
X129740000Y-87611966D01*
X129740000Y-87611966D02*
X129773333Y-87645300D01*
X130373333Y-87578633D02*
X130240000Y-87578633D01*
X130240000Y-87578633D02*
X130173333Y-87611966D01*
X130173333Y-87611966D02*
X130140000Y-87645300D01*
X130140000Y-87645300D02*
X130073333Y-87745300D01*
X130073333Y-87745300D02*
X130040000Y-87878633D01*
X130040000Y-87878633D02*
X130040000Y-88145300D01*
X130040000Y-88145300D02*
X130073333Y-88211966D01*
X130073333Y-88211966D02*
X130106667Y-88245300D01*
X130106667Y-88245300D02*
X130173333Y-88278633D01*
X130173333Y-88278633D02*
X130306667Y-88278633D01*
X130306667Y-88278633D02*
X130373333Y-88245300D01*
X130373333Y-88245300D02*
X130406667Y-88211966D01*
X130406667Y-88211966D02*
X130440000Y-88145300D01*
X130440000Y-88145300D02*
X130440000Y-87978633D01*
X130440000Y-87978633D02*
X130406667Y-87911966D01*
X130406667Y-87911966D02*
X130373333Y-87878633D01*
X130373333Y-87878633D02*
X130306667Y-87845300D01*
X130306667Y-87845300D02*
X130173333Y-87845300D01*
X130173333Y-87845300D02*
X130106667Y-87878633D01*
X130106667Y-87878633D02*
X130073333Y-87911966D01*
X130073333Y-87911966D02*
X130040000Y-87978633D01*
X128069999Y-98411966D02*
X128036666Y-98445300D01*
X128036666Y-98445300D02*
X127936666Y-98478633D01*
X127936666Y-98478633D02*
X127869999Y-98478633D01*
X127869999Y-98478633D02*
X127769999Y-98445300D01*
X127769999Y-98445300D02*
X127703333Y-98378633D01*
X127703333Y-98378633D02*
X127669999Y-98311966D01*
X127669999Y-98311966D02*
X127636666Y-98178633D01*
X127636666Y-98178633D02*
X127636666Y-98078633D01*
X127636666Y-98078633D02*
X127669999Y-97945300D01*
X127669999Y-97945300D02*
X127703333Y-97878633D01*
X127703333Y-97878633D02*
X127769999Y-97811966D01*
X127769999Y-97811966D02*
X127869999Y-97778633D01*
X127869999Y-97778633D02*
X127936666Y-97778633D01*
X127936666Y-97778633D02*
X128036666Y-97811966D01*
X128036666Y-97811966D02*
X128069999Y-97845300D01*
X128736666Y-98478633D02*
X128336666Y-98478633D01*
X128536666Y-98478633D02*
X128536666Y-97778633D01*
X128536666Y-97778633D02*
X128469999Y-97878633D01*
X128469999Y-97878633D02*
X128403333Y-97945300D01*
X128403333Y-97945300D02*
X128336666Y-97978633D01*
X129170000Y-97778633D02*
X129236666Y-97778633D01*
X129236666Y-97778633D02*
X129303333Y-97811966D01*
X129303333Y-97811966D02*
X129336666Y-97845300D01*
X129336666Y-97845300D02*
X129370000Y-97911966D01*
X129370000Y-97911966D02*
X129403333Y-98045300D01*
X129403333Y-98045300D02*
X129403333Y-98211966D01*
X129403333Y-98211966D02*
X129370000Y-98345300D01*
X129370000Y-98345300D02*
X129336666Y-98411966D01*
X129336666Y-98411966D02*
X129303333Y-98445300D01*
X129303333Y-98445300D02*
X129236666Y-98478633D01*
X129236666Y-98478633D02*
X129170000Y-98478633D01*
X129170000Y-98478633D02*
X129103333Y-98445300D01*
X129103333Y-98445300D02*
X129070000Y-98411966D01*
X129070000Y-98411966D02*
X129036666Y-98345300D01*
X129036666Y-98345300D02*
X129003333Y-98211966D01*
X129003333Y-98211966D02*
X129003333Y-98045300D01*
X129003333Y-98045300D02*
X129036666Y-97911966D01*
X129036666Y-97911966D02*
X129070000Y-97845300D01*
X129070000Y-97845300D02*
X129103333Y-97811966D01*
X129103333Y-97811966D02*
X129170000Y-97778633D01*
X140985833Y-94358633D02*
X140985833Y-93658633D01*
X140985833Y-93658633D02*
X141152500Y-93658633D01*
X141152500Y-93658633D02*
X141252500Y-93691966D01*
X141252500Y-93691966D02*
X141319167Y-93758633D01*
X141319167Y-93758633D02*
X141352500Y-93825300D01*
X141352500Y-93825300D02*
X141385833Y-93958633D01*
X141385833Y-93958633D02*
X141385833Y-94058633D01*
X141385833Y-94058633D02*
X141352500Y-94191966D01*
X141352500Y-94191966D02*
X141319167Y-94258633D01*
X141319167Y-94258633D02*
X141252500Y-94325300D01*
X141252500Y-94325300D02*
X141152500Y-94358633D01*
X141152500Y-94358633D02*
X140985833Y-94358633D01*
X142052500Y-94358633D02*
X141652500Y-94358633D01*
X141852500Y-94358633D02*
X141852500Y-93658633D01*
X141852500Y-93658633D02*
X141785833Y-93758633D01*
X141785833Y-93758633D02*
X141719167Y-93825300D01*
X141719167Y-93825300D02*
X141652500Y-93858633D01*
X128151966Y-93206666D02*
X128185300Y-93239999D01*
X128185300Y-93239999D02*
X128218633Y-93339999D01*
X128218633Y-93339999D02*
X128218633Y-93406666D01*
X128218633Y-93406666D02*
X128185300Y-93506666D01*
X128185300Y-93506666D02*
X128118633Y-93573333D01*
X128118633Y-93573333D02*
X128051966Y-93606666D01*
X128051966Y-93606666D02*
X127918633Y-93639999D01*
X127918633Y-93639999D02*
X127818633Y-93639999D01*
X127818633Y-93639999D02*
X127685300Y-93606666D01*
X127685300Y-93606666D02*
X127618633Y-93573333D01*
X127618633Y-93573333D02*
X127551966Y-93506666D01*
X127551966Y-93506666D02*
X127518633Y-93406666D01*
X127518633Y-93406666D02*
X127518633Y-93339999D01*
X127518633Y-93339999D02*
X127551966Y-93239999D01*
X127551966Y-93239999D02*
X127585300Y-93206666D01*
X127518633Y-92773333D02*
X127518633Y-92706666D01*
X127518633Y-92706666D02*
X127551966Y-92639999D01*
X127551966Y-92639999D02*
X127585300Y-92606666D01*
X127585300Y-92606666D02*
X127651966Y-92573333D01*
X127651966Y-92573333D02*
X127785300Y-92539999D01*
X127785300Y-92539999D02*
X127951966Y-92539999D01*
X127951966Y-92539999D02*
X128085300Y-92573333D01*
X128085300Y-92573333D02*
X128151966Y-92606666D01*
X128151966Y-92606666D02*
X128185300Y-92639999D01*
X128185300Y-92639999D02*
X128218633Y-92706666D01*
X128218633Y-92706666D02*
X128218633Y-92773333D01*
X128218633Y-92773333D02*
X128185300Y-92839999D01*
X128185300Y-92839999D02*
X128151966Y-92873333D01*
X128151966Y-92873333D02*
X128085300Y-92906666D01*
X128085300Y-92906666D02*
X127951966Y-92939999D01*
X127951966Y-92939999D02*
X127785300Y-92939999D01*
X127785300Y-92939999D02*
X127651966Y-92906666D01*
X127651966Y-92906666D02*
X127585300Y-92873333D01*
X127585300Y-92873333D02*
X127551966Y-92839999D01*
X127551966Y-92839999D02*
X127518633Y-92773333D01*
X130311966Y-92336666D02*
X130345300Y-92369999D01*
X130345300Y-92369999D02*
X130378633Y-92469999D01*
X130378633Y-92469999D02*
X130378633Y-92536666D01*
X130378633Y-92536666D02*
X130345300Y-92636666D01*
X130345300Y-92636666D02*
X130278633Y-92703333D01*
X130278633Y-92703333D02*
X130211966Y-92736666D01*
X130211966Y-92736666D02*
X130078633Y-92769999D01*
X130078633Y-92769999D02*
X129978633Y-92769999D01*
X129978633Y-92769999D02*
X129845300Y-92736666D01*
X129845300Y-92736666D02*
X129778633Y-92703333D01*
X129778633Y-92703333D02*
X129711966Y-92636666D01*
X129711966Y-92636666D02*
X129678633Y-92536666D01*
X129678633Y-92536666D02*
X129678633Y-92469999D01*
X129678633Y-92469999D02*
X129711966Y-92369999D01*
X129711966Y-92369999D02*
X129745300Y-92336666D01*
X130378633Y-91669999D02*
X130378633Y-92069999D01*
X130378633Y-91869999D02*
X129678633Y-91869999D01*
X129678633Y-91869999D02*
X129778633Y-91936666D01*
X129778633Y-91936666D02*
X129845300Y-92003333D01*
X129845300Y-92003333D02*
X129878633Y-92069999D01*
X137823333Y-93011966D02*
X137790000Y-93045300D01*
X137790000Y-93045300D02*
X137690000Y-93078633D01*
X137690000Y-93078633D02*
X137623333Y-93078633D01*
X137623333Y-93078633D02*
X137523333Y-93045300D01*
X137523333Y-93045300D02*
X137456667Y-92978633D01*
X137456667Y-92978633D02*
X137423333Y-92911966D01*
X137423333Y-92911966D02*
X137390000Y-92778633D01*
X137390000Y-92778633D02*
X137390000Y-92678633D01*
X137390000Y-92678633D02*
X137423333Y-92545300D01*
X137423333Y-92545300D02*
X137456667Y-92478633D01*
X137456667Y-92478633D02*
X137523333Y-92411966D01*
X137523333Y-92411966D02*
X137623333Y-92378633D01*
X137623333Y-92378633D02*
X137690000Y-92378633D01*
X137690000Y-92378633D02*
X137790000Y-92411966D01*
X137790000Y-92411966D02*
X137823333Y-92445300D01*
X138056667Y-92378633D02*
X138490000Y-92378633D01*
X138490000Y-92378633D02*
X138256667Y-92645300D01*
X138256667Y-92645300D02*
X138356667Y-92645300D01*
X138356667Y-92645300D02*
X138423333Y-92678633D01*
X138423333Y-92678633D02*
X138456667Y-92711966D01*
X138456667Y-92711966D02*
X138490000Y-92778633D01*
X138490000Y-92778633D02*
X138490000Y-92945300D01*
X138490000Y-92945300D02*
X138456667Y-93011966D01*
X138456667Y-93011966D02*
X138423333Y-93045300D01*
X138423333Y-93045300D02*
X138356667Y-93078633D01*
X138356667Y-93078633D02*
X138156667Y-93078633D01*
X138156667Y-93078633D02*
X138090000Y-93045300D01*
X138090000Y-93045300D02*
X138056667Y-93011966D01*
X134766667Y-100405300D02*
X134766667Y-100738633D01*
X134533333Y-100038633D02*
X134766667Y-100405300D01*
X134766667Y-100405300D02*
X135000000Y-100038633D01*
X135200000Y-100105300D02*
X135233333Y-100071966D01*
X135233333Y-100071966D02*
X135300000Y-100038633D01*
X135300000Y-100038633D02*
X135466667Y-100038633D01*
X135466667Y-100038633D02*
X135533333Y-100071966D01*
X135533333Y-100071966D02*
X135566667Y-100105300D01*
X135566667Y-100105300D02*
X135600000Y-100171966D01*
X135600000Y-100171966D02*
X135600000Y-100238633D01*
X135600000Y-100238633D02*
X135566667Y-100338633D01*
X135566667Y-100338633D02*
X135166667Y-100738633D01*
X135166667Y-100738633D02*
X135600000Y-100738633D01*
X135236666Y-99068633D02*
X135236666Y-99635300D01*
X135236666Y-99635300D02*
X135270000Y-99701966D01*
X135270000Y-99701966D02*
X135303333Y-99735300D01*
X135303333Y-99735300D02*
X135370000Y-99768633D01*
X135370000Y-99768633D02*
X135503333Y-99768633D01*
X135503333Y-99768633D02*
X135570000Y-99735300D01*
X135570000Y-99735300D02*
X135603333Y-99701966D01*
X135603333Y-99701966D02*
X135636666Y-99635300D01*
X135636666Y-99635300D02*
X135636666Y-99068633D01*
X136336666Y-99768633D02*
X135936666Y-99768633D01*
X136136666Y-99768633D02*
X136136666Y-99068633D01*
X136136666Y-99068633D02*
X136069999Y-99168633D01*
X136069999Y-99168633D02*
X136003333Y-99235300D01*
X136003333Y-99235300D02*
X135936666Y-99268633D01*
X132963333Y-88841966D02*
X132930000Y-88875300D01*
X132930000Y-88875300D02*
X132830000Y-88908633D01*
X132830000Y-88908633D02*
X132763333Y-88908633D01*
X132763333Y-88908633D02*
X132663333Y-88875300D01*
X132663333Y-88875300D02*
X132596667Y-88808633D01*
X132596667Y-88808633D02*
X132563333Y-88741966D01*
X132563333Y-88741966D02*
X132530000Y-88608633D01*
X132530000Y-88608633D02*
X132530000Y-88508633D01*
X132530000Y-88508633D02*
X132563333Y-88375300D01*
X132563333Y-88375300D02*
X132596667Y-88308633D01*
X132596667Y-88308633D02*
X132663333Y-88241966D01*
X132663333Y-88241966D02*
X132763333Y-88208633D01*
X132763333Y-88208633D02*
X132830000Y-88208633D01*
X132830000Y-88208633D02*
X132930000Y-88241966D01*
X132930000Y-88241966D02*
X132963333Y-88275300D01*
X133196667Y-88208633D02*
X133663333Y-88208633D01*
X133663333Y-88208633D02*
X133363333Y-88908633D01*
X128151966Y-94946666D02*
X128185300Y-94979999D01*
X128185300Y-94979999D02*
X128218633Y-95079999D01*
X128218633Y-95079999D02*
X128218633Y-95146666D01*
X128218633Y-95146666D02*
X128185300Y-95246666D01*
X128185300Y-95246666D02*
X128118633Y-95313333D01*
X128118633Y-95313333D02*
X128051966Y-95346666D01*
X128051966Y-95346666D02*
X127918633Y-95379999D01*
X127918633Y-95379999D02*
X127818633Y-95379999D01*
X127818633Y-95379999D02*
X127685300Y-95346666D01*
X127685300Y-95346666D02*
X127618633Y-95313333D01*
X127618633Y-95313333D02*
X127551966Y-95246666D01*
X127551966Y-95246666D02*
X127518633Y-95146666D01*
X127518633Y-95146666D02*
X127518633Y-95079999D01*
X127518633Y-95079999D02*
X127551966Y-94979999D01*
X127551966Y-94979999D02*
X127585300Y-94946666D01*
X127518633Y-94313333D02*
X127518633Y-94646666D01*
X127518633Y-94646666D02*
X127851966Y-94679999D01*
X127851966Y-94679999D02*
X127818633Y-94646666D01*
X127818633Y-94646666D02*
X127785300Y-94579999D01*
X127785300Y-94579999D02*
X127785300Y-94413333D01*
X127785300Y-94413333D02*
X127818633Y-94346666D01*
X127818633Y-94346666D02*
X127851966Y-94313333D01*
X127851966Y-94313333D02*
X127918633Y-94279999D01*
X127918633Y-94279999D02*
X128085300Y-94279999D01*
X128085300Y-94279999D02*
X128151966Y-94313333D01*
X128151966Y-94313333D02*
X128185300Y-94346666D01*
X128185300Y-94346666D02*
X128218633Y-94413333D01*
X128218633Y-94413333D02*
X128218633Y-94579999D01*
X128218633Y-94579999D02*
X128185300Y-94646666D01*
X128185300Y-94646666D02*
X128151966Y-94679999D01*
X131338633Y-90006667D02*
X131338633Y-90340000D01*
X131338633Y-90340000D02*
X130638633Y-90340000D01*
X131338633Y-89406666D02*
X131338633Y-89806666D01*
X131338633Y-89606666D02*
X130638633Y-89606666D01*
X130638633Y-89606666D02*
X130738633Y-89673333D01*
X130738633Y-89673333D02*
X130805300Y-89740000D01*
X130805300Y-89740000D02*
X130838633Y-89806666D01*
X139983333Y-91378633D02*
X139649999Y-91378633D01*
X139649999Y-91378633D02*
X139649999Y-90678633D01*
X140516666Y-90911966D02*
X140516666Y-91378633D01*
X140350000Y-90645300D02*
X140183333Y-91145300D01*
X140183333Y-91145300D02*
X140616666Y-91145300D01*
X143289999Y-88201966D02*
X143256666Y-88235300D01*
X143256666Y-88235300D02*
X143156666Y-88268633D01*
X143156666Y-88268633D02*
X143089999Y-88268633D01*
X143089999Y-88268633D02*
X142989999Y-88235300D01*
X142989999Y-88235300D02*
X142923333Y-88168633D01*
X142923333Y-88168633D02*
X142889999Y-88101966D01*
X142889999Y-88101966D02*
X142856666Y-87968633D01*
X142856666Y-87968633D02*
X142856666Y-87868633D01*
X142856666Y-87868633D02*
X142889999Y-87735300D01*
X142889999Y-87735300D02*
X142923333Y-87668633D01*
X142923333Y-87668633D02*
X142989999Y-87601966D01*
X142989999Y-87601966D02*
X143089999Y-87568633D01*
X143089999Y-87568633D02*
X143156666Y-87568633D01*
X143156666Y-87568633D02*
X143256666Y-87601966D01*
X143256666Y-87601966D02*
X143289999Y-87635300D01*
X143956666Y-88268633D02*
X143556666Y-88268633D01*
X143756666Y-88268633D02*
X143756666Y-87568633D01*
X143756666Y-87568633D02*
X143689999Y-87668633D01*
X143689999Y-87668633D02*
X143623333Y-87735300D01*
X143623333Y-87735300D02*
X143556666Y-87768633D01*
X144223333Y-87635300D02*
X144256666Y-87601966D01*
X144256666Y-87601966D02*
X144323333Y-87568633D01*
X144323333Y-87568633D02*
X144490000Y-87568633D01*
X144490000Y-87568633D02*
X144556666Y-87601966D01*
X144556666Y-87601966D02*
X144590000Y-87635300D01*
X144590000Y-87635300D02*
X144623333Y-87701966D01*
X144623333Y-87701966D02*
X144623333Y-87768633D01*
X144623333Y-87768633D02*
X144590000Y-87868633D01*
X144590000Y-87868633D02*
X144190000Y-88268633D01*
X144190000Y-88268633D02*
X144623333Y-88268633D01*
X132983333Y-92881966D02*
X132950000Y-92915300D01*
X132950000Y-92915300D02*
X132850000Y-92948633D01*
X132850000Y-92948633D02*
X132783333Y-92948633D01*
X132783333Y-92948633D02*
X132683333Y-92915300D01*
X132683333Y-92915300D02*
X132616667Y-92848633D01*
X132616667Y-92848633D02*
X132583333Y-92781966D01*
X132583333Y-92781966D02*
X132550000Y-92648633D01*
X132550000Y-92648633D02*
X132550000Y-92548633D01*
X132550000Y-92548633D02*
X132583333Y-92415300D01*
X132583333Y-92415300D02*
X132616667Y-92348633D01*
X132616667Y-92348633D02*
X132683333Y-92281966D01*
X132683333Y-92281966D02*
X132783333Y-92248633D01*
X132783333Y-92248633D02*
X132850000Y-92248633D01*
X132850000Y-92248633D02*
X132950000Y-92281966D01*
X132950000Y-92281966D02*
X132983333Y-92315300D01*
X133383333Y-92548633D02*
X133316667Y-92515300D01*
X133316667Y-92515300D02*
X133283333Y-92481966D01*
X133283333Y-92481966D02*
X133250000Y-92415300D01*
X133250000Y-92415300D02*
X133250000Y-92381966D01*
X133250000Y-92381966D02*
X133283333Y-92315300D01*
X133283333Y-92315300D02*
X133316667Y-92281966D01*
X133316667Y-92281966D02*
X133383333Y-92248633D01*
X133383333Y-92248633D02*
X133516667Y-92248633D01*
X133516667Y-92248633D02*
X133583333Y-92281966D01*
X133583333Y-92281966D02*
X133616667Y-92315300D01*
X133616667Y-92315300D02*
X133650000Y-92381966D01*
X133650000Y-92381966D02*
X133650000Y-92415300D01*
X133650000Y-92415300D02*
X133616667Y-92481966D01*
X133616667Y-92481966D02*
X133583333Y-92515300D01*
X133583333Y-92515300D02*
X133516667Y-92548633D01*
X133516667Y-92548633D02*
X133383333Y-92548633D01*
X133383333Y-92548633D02*
X133316667Y-92581966D01*
X133316667Y-92581966D02*
X133283333Y-92615300D01*
X133283333Y-92615300D02*
X133250000Y-92681966D01*
X133250000Y-92681966D02*
X133250000Y-92815300D01*
X133250000Y-92815300D02*
X133283333Y-92881966D01*
X133283333Y-92881966D02*
X133316667Y-92915300D01*
X133316667Y-92915300D02*
X133383333Y-92948633D01*
X133383333Y-92948633D02*
X133516667Y-92948633D01*
X133516667Y-92948633D02*
X133583333Y-92915300D01*
X133583333Y-92915300D02*
X133616667Y-92881966D01*
X133616667Y-92881966D02*
X133650000Y-92815300D01*
X133650000Y-92815300D02*
X133650000Y-92681966D01*
X133650000Y-92681966D02*
X133616667Y-92615300D01*
X133616667Y-92615300D02*
X133583333Y-92581966D01*
X133583333Y-92581966D02*
X133516667Y-92548633D01*
X136353333Y-89768633D02*
X136019999Y-89768633D01*
X136019999Y-89768633D02*
X136019999Y-89068633D01*
X136520000Y-89068633D02*
X136953333Y-89068633D01*
X136953333Y-89068633D02*
X136720000Y-89335300D01*
X136720000Y-89335300D02*
X136820000Y-89335300D01*
X136820000Y-89335300D02*
X136886666Y-89368633D01*
X136886666Y-89368633D02*
X136920000Y-89401966D01*
X136920000Y-89401966D02*
X136953333Y-89468633D01*
X136953333Y-89468633D02*
X136953333Y-89635300D01*
X136953333Y-89635300D02*
X136920000Y-89701966D01*
X136920000Y-89701966D02*
X136886666Y-89735300D01*
X136886666Y-89735300D02*
X136820000Y-89768633D01*
X136820000Y-89768633D02*
X136620000Y-89768633D01*
X136620000Y-89768633D02*
X136553333Y-89735300D01*
X136553333Y-89735300D02*
X136520000Y-89701966D01*
D11*
%TO.C,R1*%
X139203641Y-94700000D02*
X138896359Y-94700000D01*
X139203641Y-95460000D02*
X138896359Y-95460000D01*
%TO.C,J4*%
X141130000Y-97705000D02*
X142180000Y-97705000D01*
X141130000Y-100205000D02*
X141130000Y-97705000D01*
X142180000Y-97705000D02*
X142180000Y-96715000D01*
X142300000Y-102175000D02*
X145180000Y-102175000D01*
X146350000Y-97705000D02*
X145300000Y-97705000D01*
X146350000Y-100205000D02*
X146350000Y-97705000D01*
%TO.C,L2*%
X132997221Y-90070000D02*
X133322779Y-90070000D01*
X132997221Y-91090000D02*
X133322779Y-91090000D01*
%TO.C,C11*%
X136077836Y-94090000D02*
X135862164Y-94090000D01*
X136077836Y-94810000D02*
X135862164Y-94810000D01*
%TO.C,R3*%
X132930000Y-94403641D02*
X132930000Y-94096359D01*
X133690000Y-94403641D02*
X133690000Y-94096359D01*
%TO.C,U3*%
X143240000Y-82540000D02*
X145820000Y-82540000D01*
X145820000Y-83520000D02*
X145820000Y-82540000D01*
X145820000Y-86280000D02*
X145820000Y-87260000D01*
X145820000Y-87260000D02*
X143100000Y-87260000D01*
X142690000Y-82690000D02*
X142450000Y-82360000D01*
X142930000Y-82360000D01*
X142690000Y-82690000D01*
G36*
X142690000Y-82690000D02*
G01*
X142450000Y-82360000D01*
X142930000Y-82360000D01*
X142690000Y-82690000D01*
G37*
%TO.C,C13*%
X139400000Y-85631252D02*
X139400000Y-84208748D01*
X141220000Y-85631252D02*
X141220000Y-84208748D01*
%TO.C,C4*%
X142000000Y-91557836D02*
X142000000Y-91342164D01*
X142720000Y-91557836D02*
X142720000Y-91342164D01*
%TO.C,U2*%
X129440000Y-94577500D02*
X129490000Y-94577500D01*
X129440000Y-96397500D02*
X129440000Y-94577500D01*
X129490000Y-96397500D02*
X129440000Y-96397500D01*
X132510000Y-94577500D02*
X132560000Y-94577500D01*
X132560000Y-94577500D02*
X132560000Y-96397500D01*
X132560000Y-96397500D02*
X132510000Y-96397500D01*
X129490000Y-96937500D02*
X129160000Y-97177500D01*
X129160000Y-96697500D01*
X129490000Y-96937500D01*
G36*
X129490000Y-96937500D02*
G01*
X129160000Y-97177500D01*
X129160000Y-96697500D01*
X129490000Y-96937500D01*
G37*
%TO.C,C2*%
X134830000Y-91182164D02*
X134830000Y-91397836D01*
X135550000Y-91182164D02*
X135550000Y-91397836D01*
%TO.C,R2*%
X132930000Y-95956359D02*
X132930000Y-96263641D01*
X133690000Y-95956359D02*
X133690000Y-96263641D01*
%TO.C,C6*%
X130630000Y-88587836D02*
X130630000Y-88372164D01*
X131350000Y-88587836D02*
X131350000Y-88372164D01*
%TO.C,C10*%
X130412164Y-97760000D02*
X130627836Y-97760000D01*
X130412164Y-98480000D02*
X130627836Y-98480000D01*
%TO.C,D1*%
X140017500Y-94735000D02*
X140017500Y-96205000D01*
X140017500Y-96205000D02*
X142302500Y-96205000D01*
X142302500Y-94735000D02*
X140017500Y-94735000D01*
%TO.C,C0*%
X128430000Y-93107836D02*
X128430000Y-92892164D01*
X129150000Y-93107836D02*
X129150000Y-92892164D01*
%TO.C,C1*%
X130650000Y-91317836D02*
X130650000Y-91102164D01*
X131370000Y-91317836D02*
X131370000Y-91102164D01*
%TO.C,C3*%
X137540000Y-91537836D02*
X137540000Y-91322164D01*
X138260000Y-91537836D02*
X138260000Y-91322164D01*
%TO.C,Y2*%
X134380000Y-97660000D02*
X131560000Y-97660000D01*
X134380000Y-100080000D02*
X134380000Y-97660000D01*
%TO.C,U1*%
X136570000Y-96540000D02*
X137020000Y-96540000D01*
X136570000Y-96990000D02*
X136570000Y-96540000D01*
X136570000Y-99760000D02*
X136570000Y-99310000D01*
X137020000Y-99760000D02*
X136570000Y-99760000D01*
X139340000Y-96540000D02*
X139790000Y-96540000D01*
X139790000Y-96540000D02*
X139790000Y-96990000D01*
X139790000Y-99310000D02*
X139790000Y-99760000D01*
X139790000Y-99760000D02*
X139340000Y-99760000D01*
X138980000Y-96010000D02*
X138740000Y-95680000D01*
X139220000Y-95680000D01*
X138980000Y-96010000D01*
G36*
X138980000Y-96010000D02*
G01*
X138740000Y-95680000D01*
X139220000Y-95680000D01*
X138980000Y-96010000D01*
G37*
%TO.C,C7*%
X131560000Y-88577836D02*
X131560000Y-88362164D01*
X132280000Y-88577836D02*
X132280000Y-88362164D01*
%TO.C,C5*%
X128430000Y-94722164D02*
X128430000Y-94937836D01*
X129150000Y-94722164D02*
X129150000Y-94937836D01*
%TO.C,L1*%
X129250000Y-89887221D02*
X129250000Y-90212779D01*
X130270000Y-89887221D02*
X130270000Y-90212779D01*
%TO.C,L4*%
X139987221Y-91640000D02*
X140312779Y-91640000D01*
X139987221Y-92660000D02*
X140312779Y-92660000D01*
%TO.C,C12*%
X141081252Y-87740000D02*
X139658748Y-87740000D01*
X141081252Y-89560000D02*
X139658748Y-89560000D01*
%TO.C,J2*%
X142927500Y-91900000D02*
X142927500Y-92400000D01*
X142927500Y-92400000D02*
X143427500Y-92150000D01*
X143427500Y-92150000D02*
X142927500Y-91900000D01*
X143977500Y-91310000D02*
X143977500Y-90200000D01*
X143977500Y-94100000D02*
X143977500Y-92990000D01*
X147227500Y-91310000D02*
X147227500Y-90200000D01*
X147227500Y-94100000D02*
X147227500Y-92990000D01*
%TO.C,C8*%
X131432164Y-92220000D02*
X131647836Y-92220000D01*
X131432164Y-92940000D02*
X131647836Y-92940000D01*
%TO.C,L3*%
X135990000Y-91197221D02*
X135990000Y-91522779D01*
X137010000Y-91197221D02*
X137010000Y-91522779D01*
%TD*%
M02*
