%TF.GenerationSoftware,KiCad,Pcbnew,9.0.6-9.0.6~ubuntu24.04.1*%
%TF.CreationDate,2025-12-04T22:19:58-06:00*%
%TF.ProjectId,RF Throwie!,52462054-6872-46f7-9769-65212e6b6963,rev?*%
%TF.SameCoordinates,Original*%
%TF.FileFunction,Copper,L1,Top*%
%TF.FilePolarity,Positive*%
%FSLAX46Y46*%
G04 Gerber Fmt 4.6, Leading zero omitted, Abs format (unit mm)*
G04 Created by KiCad (PCBNEW 9.0.6-9.0.6~ubuntu24.04.1) date 2025-12-04 22:19:58*
%MOMM*%
%LPD*%
G01*
G04 APERTURE LIST*
G04 Aperture macros list*
%AMRoundRect*
0 Rectangle with rounded corners*
0 $1 Rounding radius*
0 $2 $3 $4 $5 $6 $7 $8 $9 X,Y pos of 4 corners*
0 Add a 4 corners polygon primitive as box body*
4,1,4,$2,$3,$4,$5,$6,$7,$8,$9,$2,$3,0*
0 Add four circle primitives for the rounded corners*
1,1,$1+$1,$2,$3*
1,1,$1+$1,$4,$5*
1,1,$1+$1,$6,$7*
1,1,$1+$1,$8,$9*
0 Add four rect primitives between the rounded corners*
20,1,$1+$1,$2,$3,$4,$5,0*
20,1,$1+$1,$4,$5,$6,$7,0*
20,1,$1+$1,$6,$7,$8,$9,0*
20,1,$1+$1,$8,$9,$2,$3,0*%
%AMFreePoly0*
4,1,9,3.862500,-0.866500,0.737500,-0.866500,0.737500,-0.450000,-0.737500,-0.450000,-0.737500,0.450000,0.737500,0.450000,0.737500,0.866500,3.862500,0.866500,3.862500,-0.866500,3.862500,-0.866500,$1*%
G04 Aperture macros list end*
%TA.AperFunction,SMDPad,CuDef*%
%ADD10RoundRect,0.135000X0.135000X0.185000X-0.135000X0.185000X-0.135000X-0.185000X0.135000X-0.185000X0*%
%TD*%
%TA.AperFunction,ComponentPad*%
%ADD11R,1.700000X1.700000*%
%TD*%
%TA.AperFunction,ComponentPad*%
%ADD12C,1.700000*%
%TD*%
%TA.AperFunction,SMDPad,CuDef*%
%ADD13RoundRect,0.150000X-0.150000X-0.625000X0.150000X-0.625000X0.150000X0.625000X-0.150000X0.625000X0*%
%TD*%
%TA.AperFunction,SMDPad,CuDef*%
%ADD14RoundRect,0.250000X-0.350000X-0.650000X0.350000X-0.650000X0.350000X0.650000X-0.350000X0.650000X0*%
%TD*%
%TA.AperFunction,SMDPad,CuDef*%
%ADD15RoundRect,0.218750X-0.218750X-0.256250X0.218750X-0.256250X0.218750X0.256250X-0.218750X0.256250X0*%
%TD*%
%TA.AperFunction,SMDPad,CuDef*%
%ADD16RoundRect,0.140000X0.140000X0.170000X-0.140000X0.170000X-0.140000X-0.170000X0.140000X-0.170000X0*%
%TD*%
%TA.AperFunction,SMDPad,CuDef*%
%ADD17RoundRect,0.135000X0.185000X-0.135000X0.185000X0.135000X-0.185000X0.135000X-0.185000X-0.135000X0*%
%TD*%
%TA.AperFunction,SMDPad,CuDef*%
%ADD18RoundRect,0.225000X-0.425000X-0.225000X0.425000X-0.225000X0.425000X0.225000X-0.425000X0.225000X0*%
%TD*%
%TA.AperFunction,SMDPad,CuDef*%
%ADD19FreePoly0,0.000000*%
%TD*%
%TA.AperFunction,SMDPad,CuDef*%
%ADD20RoundRect,0.250000X0.650000X-0.325000X0.650000X0.325000X-0.650000X0.325000X-0.650000X-0.325000X0*%
%TD*%
%TA.AperFunction,SMDPad,CuDef*%
%ADD21RoundRect,0.140000X0.170000X-0.140000X0.170000X0.140000X-0.170000X0.140000X-0.170000X-0.140000X0*%
%TD*%
%TA.AperFunction,SMDPad,CuDef*%
%ADD22RoundRect,0.150000X0.150000X-0.512500X0.150000X0.512500X-0.150000X0.512500X-0.150000X-0.512500X0*%
%TD*%
%TA.AperFunction,SMDPad,CuDef*%
%ADD23RoundRect,0.140000X-0.170000X0.140000X-0.170000X-0.140000X0.170000X-0.140000X0.170000X0.140000X0*%
%TD*%
%TA.AperFunction,SMDPad,CuDef*%
%ADD24RoundRect,0.135000X-0.185000X0.135000X-0.185000X-0.135000X0.185000X-0.135000X0.185000X0.135000X0*%
%TD*%
%TA.AperFunction,SMDPad,CuDef*%
%ADD25RoundRect,0.140000X-0.140000X-0.170000X0.140000X-0.170000X0.140000X0.170000X-0.140000X0.170000X0*%
%TD*%
%TA.AperFunction,SMDPad,CuDef*%
%ADD26RoundRect,0.200000X0.250000X0.200000X-0.250000X0.200000X-0.250000X-0.200000X0.250000X-0.200000X0*%
%TD*%
%TA.AperFunction,SMDPad,CuDef*%
%ADD27RoundRect,0.050000X-0.050000X0.375000X-0.050000X-0.375000X0.050000X-0.375000X0.050000X0.375000X0*%
%TD*%
%TA.AperFunction,SMDPad,CuDef*%
%ADD28RoundRect,0.050000X-0.375000X0.050000X-0.375000X-0.050000X0.375000X-0.050000X0.375000X0.050000X0*%
%TD*%
%TA.AperFunction,HeatsinkPad*%
%ADD29R,1.650000X1.650000*%
%TD*%
%TA.AperFunction,SMDPad,CuDef*%
%ADD30RoundRect,0.218750X-0.256250X0.218750X-0.256250X-0.218750X0.256250X-0.218750X0.256250X0.218750X0*%
%TD*%
%TA.AperFunction,SMDPad,CuDef*%
%ADD31RoundRect,0.250000X0.325000X0.650000X-0.325000X0.650000X-0.325000X-0.650000X0.325000X-0.650000X0*%
%TD*%
%TA.AperFunction,SMDPad,CuDef*%
%ADD32RoundRect,0.250000X1.350000X-0.385000X1.350000X0.385000X-1.350000X0.385000X-1.350000X-0.385000X0*%
%TD*%
%TA.AperFunction,ComponentPad*%
%ADD33C,1.905000*%
%TD*%
%TA.AperFunction,SMDPad,CuDef*%
%ADD34RoundRect,0.250000X1.600000X-0.425000X1.600000X0.425000X-1.600000X0.425000X-1.600000X-0.425000X0*%
%TD*%
%TA.AperFunction,ViaPad*%
%ADD35C,0.600000*%
%TD*%
%TA.AperFunction,ViaPad*%
%ADD36C,0.610000*%
%TD*%
%TA.AperFunction,Conductor*%
%ADD37C,0.300000*%
%TD*%
%TA.AperFunction,Conductor*%
%ADD38C,0.200000*%
%TD*%
%TA.AperFunction,Conductor*%
%ADD39C,1.050000*%
%TD*%
G04 APERTURE END LIST*
D10*
%TO.P,R1,1*%
%TO.N,Net-(D1-K)*%
X139560000Y-95080000D03*
%TO.P,R1,2*%
%TO.N,Net-(U1-PA1)*%
X138540000Y-95080000D03*
%TD*%
D11*
%TO.P,J1,1,Pin_1*%
%TO.N,GND*%
X129380000Y-83940000D03*
D12*
%TO.P,J1,2,Pin_2*%
%TO.N,RX*%
X131920000Y-83940000D03*
%TO.P,J1,3,Pin_3*%
%TO.N,TX*%
X134460000Y-83940000D03*
%TO.P,J1,4,Pin_4*%
%TO.N,VCC*%
X137000000Y-83940000D03*
%TD*%
D13*
%TO.P,J4,1,Pin_1*%
%TO.N,+3.3V*%
X142740000Y-97490000D03*
%TO.P,J4,2,Pin_2*%
%TO.N,SWIO*%
X143740000Y-97490000D03*
%TO.P,J4,3,Pin_3*%
%TO.N,GND*%
X144740000Y-97490000D03*
D14*
%TO.P,J4,MP*%
%TO.N,N/C*%
X141440000Y-101365000D03*
X146040000Y-101365000D03*
%TD*%
D15*
%TO.P,L2,1,1*%
%TO.N,Net-(C1-Pad2)*%
X132372500Y-90580000D03*
%TO.P,L2,2,2*%
%TO.N,Net-(C2-Pad1)*%
X133947500Y-90580000D03*
%TD*%
D16*
%TO.P,C11,1*%
%TO.N,+3.3V*%
X136450000Y-94450000D03*
%TO.P,C11,2*%
%TO.N,GND*%
X135490000Y-94450000D03*
%TD*%
D17*
%TO.P,R3,1*%
%TO.N,+3.3V*%
X133310000Y-94760000D03*
%TO.P,R3,2*%
%TO.N,CLK*%
X133310000Y-93740000D03*
%TD*%
D18*
%TO.P,U3,1,GND*%
%TO.N,GND*%
X142510000Y-83400000D03*
D19*
%TO.P,U3,2,OUT*%
%TO.N,+3.3V*%
X142597500Y-84900000D03*
D18*
%TO.P,U3,3,IN*%
%TO.N,VCC*%
X142510000Y-86400000D03*
%TD*%
D20*
%TO.P,C13,1*%
%TO.N,+3.3V*%
X140310000Y-86395000D03*
%TO.P,C13,2*%
%TO.N,GND*%
X140310000Y-83445000D03*
%TD*%
D21*
%TO.P,C4,1*%
%TO.N,Net-(J2-In)*%
X142360000Y-91930000D03*
%TO.P,C4,2*%
%TO.N,GND*%
X142360000Y-90970000D03*
%TD*%
D22*
%TO.P,U2,1,XTAL*%
%TO.N,Net-(U2-XTAL)*%
X130050000Y-96625000D03*
%TO.P,U2,2,GND*%
%TO.N,GND*%
X131000000Y-96625000D03*
%TO.P,U2,3,DATA*%
%TO.N,DATA*%
X131950000Y-96625000D03*
%TO.P,U2,4,CLK*%
%TO.N,CLK*%
X131950000Y-94350000D03*
%TO.P,U2,5,RFO*%
%TO.N,Net-(U2-RFO)*%
X131000000Y-94350000D03*
%TO.P,U2,6,VDD*%
%TO.N,+3.3V*%
X130050000Y-94350000D03*
%TD*%
D23*
%TO.P,C2,1*%
%TO.N,Net-(C2-Pad1)*%
X135190000Y-90810000D03*
%TO.P,C2,2*%
%TO.N,GND*%
X135190000Y-91770000D03*
%TD*%
D24*
%TO.P,R2,1*%
%TO.N,+3.3V*%
X133310000Y-95600000D03*
%TO.P,R2,2*%
%TO.N,DATA*%
X133310000Y-96620000D03*
%TD*%
D21*
%TO.P,C6,1*%
%TO.N,+3.3V*%
X130990000Y-88960000D03*
%TO.P,C6,2*%
%TO.N,GND*%
X130990000Y-88000000D03*
%TD*%
D25*
%TO.P,C10,1*%
%TO.N,Net-(U2-XTAL)*%
X130040000Y-98120000D03*
%TO.P,C10,2*%
%TO.N,GND*%
X131000000Y-98120000D03*
%TD*%
D15*
%TO.P,D1,1,K*%
%TO.N,Net-(D1-K)*%
X140715000Y-95470000D03*
%TO.P,D1,2,A*%
%TO.N,+3.3V*%
X142290000Y-95470000D03*
%TD*%
D21*
%TO.P,C0,1*%
%TO.N,+3.3V*%
X128790000Y-93480000D03*
%TO.P,C0,2*%
%TO.N,GND*%
X128790000Y-92520000D03*
%TD*%
%TO.P,C1,1*%
%TO.N,Net-(U2-RFO)*%
X131010000Y-91690000D03*
%TO.P,C1,2*%
%TO.N,Net-(C1-Pad2)*%
X131010000Y-90730000D03*
%TD*%
%TO.P,C3,1*%
%TO.N,Net-(C3-Pad1)*%
X137900000Y-91910000D03*
%TO.P,C3,2*%
%TO.N,GND*%
X137900000Y-90950000D03*
%TD*%
D26*
%TO.P,Y2,1,1*%
%TO.N,GND*%
X133670000Y-98320000D03*
%TO.P,Y2,2,2*%
X132270000Y-98320000D03*
%TO.P,Y2,3,3*%
%TO.N,Net-(U2-XTAL)*%
X132270000Y-99420000D03*
%TO.P,Y2,4,4*%
%TO.N,GND*%
X133670000Y-99420000D03*
%TD*%
D27*
%TO.P,U1,1,PD7*%
%TO.N,unconnected-(U1-PD7-Pad1)*%
X138980000Y-96700000D03*
%TO.P,U1,2,PA1*%
%TO.N,Net-(U1-PA1)*%
X138580000Y-96700000D03*
%TO.P,U1,3,PA2*%
%TO.N,unconnected-(U1-PA2-Pad3)*%
X138180000Y-96700000D03*
%TO.P,U1,4,VSS*%
%TO.N,GND*%
X137780000Y-96700000D03*
%TO.P,U1,5,PD0*%
%TO.N,unconnected-(U1-PD0-Pad5)*%
X137380000Y-96700000D03*
D28*
%TO.P,U1,6,VDD*%
%TO.N,+3.3V*%
X136730000Y-97350000D03*
%TO.P,U1,7,PC0*%
%TO.N,unconnected-(U1-PC0-Pad7)*%
X136730000Y-97750000D03*
%TO.P,U1,8,PC1*%
%TO.N,CLK*%
X136730000Y-98150000D03*
%TO.P,U1,9,PC2*%
%TO.N,DATA*%
X136730000Y-98550000D03*
%TO.P,U1,10,PC3*%
%TO.N,unconnected-(U1-PC3-Pad10)*%
X136730000Y-98950000D03*
D27*
%TO.P,U1,11,PC4*%
%TO.N,unconnected-(U1-PC4-Pad11)*%
X137380000Y-99600000D03*
%TO.P,U1,12,PC5*%
%TO.N,unconnected-(U1-PC5-Pad12)*%
X137780000Y-99600000D03*
%TO.P,U1,13,PC6*%
%TO.N,unconnected-(U1-PC6-Pad13)*%
X138180000Y-99600000D03*
%TO.P,U1,14,PC7*%
%TO.N,unconnected-(U1-PC7-Pad14)*%
X138580000Y-99600000D03*
%TO.P,U1,15,PD1*%
%TO.N,SWIO*%
X138980000Y-99600000D03*
D28*
%TO.P,U1,16,PD2*%
%TO.N,unconnected-(U1-PD2-Pad16)*%
X139630000Y-98950000D03*
%TO.P,U1,17,PD3*%
%TO.N,unconnected-(U1-PD3-Pad17)*%
X139630000Y-98550000D03*
%TO.P,U1,18,PD4*%
%TO.N,unconnected-(U1-PD4-Pad18)*%
X139630000Y-98150000D03*
%TO.P,U1,19,PD5*%
%TO.N,TX*%
X139630000Y-97750000D03*
%TO.P,U1,20,PD6*%
%TO.N,RX*%
X139630000Y-97350000D03*
D29*
%TO.P,U1,21,VSS*%
%TO.N,GND*%
X138180000Y-98150000D03*
%TD*%
D21*
%TO.P,C7,1*%
%TO.N,+3.3V*%
X131920000Y-88950000D03*
%TO.P,C7,2*%
%TO.N,GND*%
X131920000Y-87990000D03*
%TD*%
D23*
%TO.P,C5,1*%
%TO.N,+3.3V*%
X128790000Y-94350000D03*
%TO.P,C5,2*%
%TO.N,GND*%
X128790000Y-95310000D03*
%TD*%
D30*
%TO.P,L1,1,1*%
%TO.N,+3.3V*%
X129760000Y-89262500D03*
%TO.P,L1,2,2*%
%TO.N,Net-(U2-RFO)*%
X129760000Y-90837500D03*
%TD*%
D15*
%TO.P,L4,1,1*%
%TO.N,Net-(C3-Pad1)*%
X139362500Y-92150000D03*
%TO.P,L4,2,2*%
%TO.N,Net-(J2-In)*%
X140937500Y-92150000D03*
%TD*%
D31*
%TO.P,C12,1*%
%TO.N,VCC*%
X141845000Y-88650000D03*
%TO.P,C12,2*%
%TO.N,GND*%
X138895000Y-88650000D03*
%TD*%
D32*
%TO.P,J2,1,In*%
%TO.N,Net-(J2-In)*%
X145687500Y-92150000D03*
D33*
X145687500Y-92150000D03*
D34*
%TO.P,J2,2,Ext*%
%TO.N,GND*%
X145437500Y-89325000D03*
X145437500Y-94975000D03*
D33*
X145687500Y-89610000D03*
X145687500Y-94600000D03*
%TD*%
D25*
%TO.P,C8,1*%
%TO.N,Net-(U2-RFO)*%
X131060000Y-92580000D03*
%TO.P,C8,2*%
%TO.N,GND*%
X132020000Y-92580000D03*
%TD*%
D30*
%TO.P,L3,1,1*%
%TO.N,Net-(C2-Pad1)*%
X136500000Y-90572500D03*
%TO.P,L3,2,2*%
%TO.N,Net-(C3-Pad1)*%
X136500000Y-92147500D03*
%TD*%
D35*
%TO.N,VCC*%
X141890000Y-87260000D03*
%TO.N,GND*%
X143620000Y-91020000D03*
X130210000Y-93187500D03*
X135320000Y-89480000D03*
X132790000Y-91640000D03*
X134520000Y-89480000D03*
X140240000Y-90940000D03*
X134990000Y-92590000D03*
X146820000Y-90970000D03*
X141200000Y-93320000D03*
X138000000Y-93320000D03*
X136920000Y-89470000D03*
X138165504Y-98675000D03*
X137650000Y-88580000D03*
X133630000Y-92390000D03*
X135690000Y-92870000D03*
X142350000Y-90330000D03*
X140670000Y-90180000D03*
X139870000Y-90180000D03*
X136400000Y-93320000D03*
X130810000Y-89810000D03*
X138620000Y-90940000D03*
X132530000Y-93140000D03*
X134280000Y-92860000D03*
X130220000Y-88150000D03*
X141040000Y-90940000D03*
X136260000Y-101160000D03*
X130160000Y-92370000D03*
X132470000Y-95450000D03*
X131590000Y-89750000D03*
X139440000Y-90940000D03*
X139600000Y-93320000D03*
X134360000Y-92020000D03*
X138160000Y-90180000D03*
X133610000Y-91640000D03*
X142000000Y-93320000D03*
X144400000Y-93320000D03*
X130992372Y-95512500D03*
X135470000Y-93650000D03*
X133720000Y-89480000D03*
X143150000Y-90330000D03*
X142800000Y-93320000D03*
X144420000Y-90970000D03*
X138800000Y-93320000D03*
X141490000Y-83430000D03*
X132920000Y-89480000D03*
X139010000Y-90180000D03*
X137500000Y-90180000D03*
X141550000Y-90330000D03*
X129660000Y-91820000D03*
X137200000Y-93320000D03*
X137490000Y-95198735D03*
X132800000Y-92440000D03*
X143600000Y-93320000D03*
X140400000Y-93320000D03*
X146800000Y-93320000D03*
X144690000Y-98690000D03*
X131950000Y-91650000D03*
X140200000Y-84410000D03*
X136120000Y-89480000D03*
X137750000Y-89480000D03*
X129520000Y-95460000D03*
%TO.N,TX*%
X140630000Y-98600000D03*
X140870679Y-96445000D03*
%TO.N,DATA*%
X135080000Y-98550000D03*
%TO.N,CLK*%
X135540000Y-95798735D03*
%TO.N,RX*%
X139883955Y-96922503D03*
%TO.N,+3.3V*%
X134939265Y-97400735D03*
X129130000Y-97400000D03*
D36*
X141011988Y-97753613D03*
%TD*%
D37*
%TO.N,VCC*%
X142510000Y-87290000D02*
X141920000Y-87290000D01*
X142510000Y-87290000D02*
X142510000Y-87985000D01*
X141920000Y-87290000D02*
X141890000Y-87260000D01*
X142510000Y-86400000D02*
X142510000Y-87290000D01*
X142510000Y-87985000D02*
X141845000Y-88650000D01*
D38*
%TO.N,SWIO*%
X143740000Y-97490000D02*
X143740000Y-98774999D01*
X143740000Y-98774999D02*
X142914999Y-99600000D01*
D37*
X143730000Y-97500000D02*
X143740000Y-97490000D01*
D38*
X142914999Y-99600000D02*
X139031000Y-99600000D01*
D37*
X143730000Y-98010000D02*
X143730000Y-97500000D01*
D38*
%TO.N,Net-(U1-PA1)*%
X138580000Y-96700000D02*
X138580000Y-95120000D01*
X138580000Y-95120000D02*
X138540000Y-95080000D01*
%TO.N,TX*%
X140878027Y-96452348D02*
X140878027Y-97031973D01*
X140870679Y-96445000D02*
X140878027Y-96452348D01*
X140630000Y-98600000D02*
X140630000Y-98227226D01*
X140630000Y-98227226D02*
X140152774Y-97750000D01*
X140160000Y-97750000D02*
X139630000Y-97750000D01*
X140152774Y-97750000D02*
X139630000Y-97750000D01*
X140878027Y-97031973D02*
X140160000Y-97750000D01*
%TO.N,DATA*%
X135080000Y-98550000D02*
X135080000Y-98430000D01*
X133310000Y-96660000D02*
X133310000Y-96620000D01*
X135080000Y-98550000D02*
X136730000Y-98550000D01*
X135080000Y-98430000D02*
X133310000Y-96660000D01*
X131950000Y-96625000D02*
X133305000Y-96625000D01*
%TO.N,CLK*%
X132560000Y-93740000D02*
X133310000Y-93740000D01*
X135528735Y-95798735D02*
X133470000Y-93740000D01*
X135540000Y-97950000D02*
X135740000Y-98150000D01*
X131950000Y-94350000D02*
X132560000Y-93740000D01*
X133470000Y-93740000D02*
X133310000Y-93740000D01*
X135540000Y-95798735D02*
X135540000Y-97950000D01*
X135540000Y-95798735D02*
X135528735Y-95798735D01*
X135740000Y-98150000D02*
X136730000Y-98150000D01*
%TO.N,RX*%
X139883955Y-97096045D02*
X139630000Y-97350000D01*
X139883955Y-96922503D02*
X139883955Y-97096045D01*
D37*
%TO.N,+3.3V*%
X142290000Y-95470000D02*
X141100000Y-94280000D01*
X142290000Y-96475601D02*
X142740000Y-96925601D01*
X128790000Y-94350000D02*
X130050000Y-94350000D01*
D38*
X133310000Y-94760000D02*
X133310000Y-95600000D01*
X136730000Y-97350000D02*
X136450000Y-97070000D01*
D37*
X141425000Y-84900000D02*
X140200000Y-86125000D01*
D38*
X136450000Y-97070000D02*
X136450000Y-94450000D01*
D37*
X141100000Y-94280000D02*
X136620000Y-94280000D01*
X129130000Y-97400000D02*
X128170000Y-96440000D01*
X130072500Y-88950000D02*
X131920000Y-88950000D01*
X134930000Y-96945000D02*
X133585000Y-95600000D01*
X134939265Y-97400735D02*
X134930000Y-97391470D01*
X132950000Y-88229999D02*
X132229999Y-88950000D01*
X142597500Y-84900000D02*
X141425000Y-84900000D01*
X142740000Y-96925601D02*
X142740000Y-97490000D01*
X140200000Y-86125000D02*
X139025000Y-87300000D01*
X128129000Y-89111000D02*
X129940000Y-87300000D01*
X136620000Y-94280000D02*
X136450000Y-94450000D01*
X133580000Y-87300000D02*
X132970000Y-87300000D01*
X142290000Y-96475601D02*
X141011988Y-97753613D01*
X132970000Y-87300000D02*
X132950000Y-87320000D01*
X129940000Y-87300000D02*
X133580000Y-87300000D01*
X132950000Y-87320000D02*
X132950000Y-88229999D01*
X142290000Y-95470000D02*
X142290000Y-96475601D01*
X128129000Y-95729000D02*
X128129000Y-89111000D01*
X132229999Y-88950000D02*
X131920000Y-88950000D01*
X128129000Y-93480000D02*
X128790000Y-93480000D01*
X139025000Y-87300000D02*
X133580000Y-87300000D01*
X128790000Y-93480000D02*
X128790000Y-94350000D01*
X134930000Y-97391470D02*
X134930000Y-96945000D01*
X133585000Y-95600000D02*
X133310000Y-95600000D01*
X128170000Y-95770000D02*
X128129000Y-95729000D01*
X128170000Y-96440000D02*
X128170000Y-95770000D01*
X129760000Y-89262500D02*
X130072500Y-88950000D01*
D38*
%TO.N,Net-(U2-RFO)*%
X131010000Y-91690000D02*
X131010000Y-94340000D01*
X130612500Y-91690000D02*
X131010000Y-91690000D01*
X129760000Y-90837500D02*
X130612500Y-91690000D01*
D37*
%TO.N,Net-(U2-XTAL)*%
X130652740Y-98781000D02*
X130701000Y-98781000D01*
X130040000Y-98120000D02*
X130369000Y-98449000D01*
X130369000Y-98449000D02*
X130369000Y-98497260D01*
X131340000Y-99420000D02*
X132270000Y-99420000D01*
X130050000Y-98110000D02*
X130040000Y-98120000D01*
X130050000Y-96625000D02*
X130050000Y-98110000D01*
X130369000Y-98497260D02*
X130652740Y-98781000D01*
X130701000Y-98781000D02*
X131340000Y-99420000D01*
D38*
%TO.N,Net-(C1-Pad2)*%
X131160000Y-90580000D02*
X131010000Y-90730000D01*
X132372500Y-90580000D02*
X131160000Y-90580000D01*
D39*
%TO.N,Net-(C2-Pad1)*%
X136500000Y-90572500D02*
X133955000Y-90572500D01*
%TO.N,Net-(C3-Pad1)*%
X139362500Y-92150000D02*
X136502500Y-92150000D01*
X136502500Y-92150000D02*
X136500000Y-92147500D01*
%TO.N,Net-(J2-In)*%
X145687500Y-92150000D02*
X140937500Y-92150000D01*
D38*
%TO.N,Net-(D1-K)*%
X140715000Y-95470000D02*
X139950000Y-95470000D01*
X139950000Y-95470000D02*
X139560000Y-95080000D01*
%TD*%
%TA.AperFunction,Conductor*%
%TO.N,+3.3V*%
G36*
X146425394Y-82640972D02*
G01*
X146455903Y-82643641D01*
X146584492Y-82654891D01*
X146605772Y-82658643D01*
X146754792Y-82698572D01*
X146775102Y-82705965D01*
X146914915Y-82771161D01*
X146933633Y-82781968D01*
X147060010Y-82870458D01*
X147076568Y-82884352D01*
X147185647Y-82993431D01*
X147199541Y-83009989D01*
X147288031Y-83136366D01*
X147298838Y-83155084D01*
X147364034Y-83294897D01*
X147371427Y-83315209D01*
X147411355Y-83464224D01*
X147415108Y-83485509D01*
X147429028Y-83644605D01*
X147429500Y-83655413D01*
X147429500Y-87540500D01*
X147409815Y-87607539D01*
X147357011Y-87653294D01*
X147305500Y-87664500D01*
X143504000Y-87664500D01*
X143436961Y-87644815D01*
X143391206Y-87592011D01*
X143380000Y-87540500D01*
X143380000Y-82764500D01*
X143399685Y-82697461D01*
X143452489Y-82651706D01*
X143504000Y-82640500D01*
X146354108Y-82640500D01*
X146414587Y-82640500D01*
X146425394Y-82640972D01*
G37*
%TD.AperFunction*%
%TD*%
%TA.AperFunction,Conductor*%
%TO.N,GND*%
G36*
X143136268Y-82659407D02*
G01*
X143172232Y-82708907D01*
X143176068Y-82753588D01*
X143174500Y-82764500D01*
X143174500Y-82764501D01*
X143174500Y-83878787D01*
X143155593Y-83936978D01*
X143152916Y-83940493D01*
X143150552Y-83943457D01*
X143149850Y-83944338D01*
X143129500Y-84033500D01*
X143129500Y-84145500D01*
X143110593Y-84203691D01*
X143061093Y-84239655D01*
X143030500Y-84244500D01*
X141859998Y-84244500D01*
X141814272Y-84249651D01*
X141731872Y-84289334D01*
X141674850Y-84360837D01*
X141654500Y-84450000D01*
X141654500Y-84450500D01*
X141654413Y-84450767D01*
X141653877Y-84455525D01*
X141652902Y-84455415D01*
X141635593Y-84508691D01*
X141586093Y-84544655D01*
X141555500Y-84549500D01*
X141378856Y-84549500D01*
X141289712Y-84573386D01*
X141209788Y-84619530D01*
X140238814Y-85590504D01*
X140184297Y-85618281D01*
X140168810Y-85619500D01*
X139605725Y-85619500D01*
X139575305Y-85622353D01*
X139575296Y-85622355D01*
X139447116Y-85667207D01*
X139337855Y-85747845D01*
X139337845Y-85747855D01*
X139257207Y-85857116D01*
X139212355Y-85985296D01*
X139212353Y-85985305D01*
X139209500Y-86015725D01*
X139209500Y-86578810D01*
X139190593Y-86637001D01*
X139180504Y-86648814D01*
X138908814Y-86920504D01*
X138854297Y-86948281D01*
X138838810Y-86949500D01*
X133626144Y-86949500D01*
X129893856Y-86949500D01*
X129881966Y-86952686D01*
X129842032Y-86963386D01*
X129842031Y-86963385D01*
X129804715Y-86973384D01*
X129804712Y-86973386D01*
X129724788Y-87019530D01*
X127848530Y-88895788D01*
X127802386Y-88975712D01*
X127778500Y-89064856D01*
X127778500Y-95775144D01*
X127798949Y-95851462D01*
X127802386Y-95864288D01*
X127809869Y-95877248D01*
X127812544Y-95884003D01*
X127813408Y-95897725D01*
X127819500Y-95920457D01*
X127819500Y-96486144D01*
X127839554Y-96560988D01*
X127839555Y-96560990D01*
X127843386Y-96575289D01*
X127843387Y-96575291D01*
X127879700Y-96638186D01*
X127889530Y-96655212D01*
X128600505Y-97366187D01*
X128628281Y-97420702D01*
X128629500Y-97436189D01*
X128629500Y-97465892D01*
X128653078Y-97553888D01*
X128663609Y-97593190D01*
X128729496Y-97707309D01*
X128729498Y-97707311D01*
X128729500Y-97707314D01*
X128822686Y-97800500D01*
X128822688Y-97800501D01*
X128822690Y-97800503D01*
X128936810Y-97866390D01*
X128936808Y-97866390D01*
X128936812Y-97866391D01*
X128936814Y-97866392D01*
X129064108Y-97900500D01*
X129064110Y-97900500D01*
X129195890Y-97900500D01*
X129195892Y-97900500D01*
X129323186Y-97866392D01*
X129411370Y-97815478D01*
X129471216Y-97802757D01*
X129527112Y-97827643D01*
X129557705Y-97880631D01*
X129559658Y-97907675D01*
X129559500Y-97910091D01*
X129559500Y-98329896D01*
X129559501Y-98329907D01*
X129566027Y-98379486D01*
X129566027Y-98379488D01*
X129616774Y-98488313D01*
X129616775Y-98488314D01*
X129616776Y-98488316D01*
X129701684Y-98573224D01*
X129810513Y-98623972D01*
X129860099Y-98630500D01*
X129984044Y-98630499D01*
X130042235Y-98649406D01*
X130069781Y-98679998D01*
X130088530Y-98712472D01*
X130437528Y-99061470D01*
X130477618Y-99084616D01*
X130498368Y-99096596D01*
X130498373Y-99096598D01*
X130500350Y-99097740D01*
X130517452Y-99107614D01*
X130521984Y-99108828D01*
X130531517Y-99113766D01*
X130540193Y-99122559D01*
X130555988Y-99131670D01*
X131124787Y-99700469D01*
X131124789Y-99700470D01*
X131124790Y-99700471D01*
X131124791Y-99700472D01*
X131202436Y-99745301D01*
X131202437Y-99745301D01*
X131203877Y-99746132D01*
X131204712Y-99746614D01*
X131293856Y-99770500D01*
X131586525Y-99770500D01*
X131644716Y-99789407D01*
X131674734Y-99824554D01*
X131691950Y-99858342D01*
X131781658Y-99948050D01*
X131894696Y-100005646D01*
X131988481Y-100020500D01*
X132551518Y-100020499D01*
X132551520Y-100020499D01*
X132551521Y-100020498D01*
X132598411Y-100013072D01*
X132645299Y-100005647D01*
X132645299Y-100005646D01*
X132645304Y-100005646D01*
X132758342Y-99948050D01*
X132848050Y-99858342D01*
X132905646Y-99745304D01*
X132920500Y-99651519D01*
X132920499Y-99188482D01*
X132907692Y-99107614D01*
X132905647Y-99094700D01*
X132905646Y-99094698D01*
X132905646Y-99094696D01*
X132848050Y-98981658D01*
X132758342Y-98891950D01*
X132645304Y-98834354D01*
X132645305Y-98834354D01*
X132551522Y-98819500D01*
X131988479Y-98819500D01*
X131988476Y-98819501D01*
X131894700Y-98834352D01*
X131894695Y-98834354D01*
X131781659Y-98891949D01*
X131691949Y-98981659D01*
X131674734Y-99015446D01*
X131658344Y-99031835D01*
X131644716Y-99050593D01*
X131637117Y-99053061D01*
X131631469Y-99058710D01*
X131586525Y-99069500D01*
X131526190Y-99069500D01*
X131467999Y-99050593D01*
X131456186Y-99040504D01*
X131188253Y-98772571D01*
X130916212Y-98500530D01*
X130836288Y-98454386D01*
X130836286Y-98454385D01*
X130836284Y-98454384D01*
X130830295Y-98451904D01*
X130831215Y-98449681D01*
X130797751Y-98430329D01*
X130719670Y-98352248D01*
X130700357Y-98318767D01*
X130698096Y-98319704D01*
X130695614Y-98313712D01*
X130649470Y-98233789D01*
X130649468Y-98233787D01*
X130584212Y-98168530D01*
X130584212Y-98168531D01*
X130549495Y-98133814D01*
X130521718Y-98079297D01*
X130520499Y-98063810D01*
X130520499Y-97910103D01*
X130520498Y-97910092D01*
X130513972Y-97860513D01*
X130513972Y-97860511D01*
X130463225Y-97751686D01*
X130463223Y-97751683D01*
X130429496Y-97717955D01*
X130425870Y-97710838D01*
X130419407Y-97706143D01*
X130412242Y-97684091D01*
X130401719Y-97663438D01*
X130400500Y-97647952D01*
X130400500Y-97473688D01*
X130419407Y-97415497D01*
X130429490Y-97403690D01*
X130489198Y-97343983D01*
X130540573Y-97238893D01*
X130550500Y-97170760D01*
X130550500Y-96079240D01*
X130540573Y-96011107D01*
X130489198Y-95906017D01*
X130406483Y-95823302D01*
X130406219Y-95823173D01*
X130301395Y-95771927D01*
X130274139Y-95767956D01*
X130233260Y-95762000D01*
X129866740Y-95762000D01*
X129832673Y-95766963D01*
X129798604Y-95771927D01*
X129693518Y-95823301D01*
X129610801Y-95906018D01*
X129559427Y-96011104D01*
X129554463Y-96045173D01*
X129550090Y-96075195D01*
X129549500Y-96079243D01*
X129549500Y-96892797D01*
X129530593Y-96950988D01*
X129481093Y-96986952D01*
X129419907Y-96986952D01*
X129401000Y-96978534D01*
X129323187Y-96933608D01*
X129280754Y-96922238D01*
X129195892Y-96899500D01*
X129195890Y-96899500D01*
X129166190Y-96899500D01*
X129107999Y-96880593D01*
X129096186Y-96870504D01*
X128549496Y-96323814D01*
X128521719Y-96269297D01*
X128520500Y-96253810D01*
X128520500Y-95723857D01*
X128520500Y-95723856D01*
X128496614Y-95634712D01*
X128493602Y-95629496D01*
X128492763Y-95628042D01*
X128479500Y-95578542D01*
X128479500Y-94929499D01*
X128498407Y-94871308D01*
X128547907Y-94835344D01*
X128578500Y-94830499D01*
X128580091Y-94830499D01*
X128580099Y-94830500D01*
X128999900Y-94830499D01*
X129049487Y-94823972D01*
X129049488Y-94823972D01*
X129115921Y-94792993D01*
X129158316Y-94773224D01*
X129180180Y-94751359D01*
X129202045Y-94729496D01*
X129209161Y-94725870D01*
X129213857Y-94719407D01*
X129235908Y-94712242D01*
X129256562Y-94701719D01*
X129272048Y-94700500D01*
X129450500Y-94700500D01*
X129508691Y-94719407D01*
X129544655Y-94768907D01*
X129549500Y-94799500D01*
X129549500Y-94895760D01*
X129551778Y-94911394D01*
X129559427Y-94963895D01*
X129609307Y-95065925D01*
X129610802Y-95068983D01*
X129693517Y-95151698D01*
X129719731Y-95164513D01*
X129798604Y-95203072D01*
X129798605Y-95203072D01*
X129798607Y-95203073D01*
X129866740Y-95213000D01*
X129866743Y-95213000D01*
X130233257Y-95213000D01*
X130233260Y-95213000D01*
X130301393Y-95203073D01*
X130406483Y-95151698D01*
X130454998Y-95103182D01*
X130509513Y-95075407D01*
X130569945Y-95084978D01*
X130595000Y-95103181D01*
X130643517Y-95151698D01*
X130669731Y-95164513D01*
X130748604Y-95203072D01*
X130748605Y-95203072D01*
X130748607Y-95203073D01*
X130816740Y-95213000D01*
X130816743Y-95213000D01*
X131183257Y-95213000D01*
X131183260Y-95213000D01*
X131251393Y-95203073D01*
X131356483Y-95151698D01*
X131404998Y-95103182D01*
X131459513Y-95075407D01*
X131519945Y-95084978D01*
X131545000Y-95103181D01*
X131593517Y-95151698D01*
X131619731Y-95164513D01*
X131698604Y-95203072D01*
X131698605Y-95203072D01*
X131698607Y-95203073D01*
X131766740Y-95213000D01*
X131766743Y-95213000D01*
X132133257Y-95213000D01*
X132133260Y-95213000D01*
X132201393Y-95203073D01*
X132306483Y-95151698D01*
X132389198Y-95068983D01*
X132440573Y-94963893D01*
X132450500Y-94895760D01*
X132450500Y-94315479D01*
X132469407Y-94257288D01*
X132479496Y-94245475D01*
X132655475Y-94069496D01*
X132662592Y-94065869D01*
X132667288Y-94059407D01*
X132689336Y-94052243D01*
X132709992Y-94041719D01*
X132725479Y-94040500D01*
X132775024Y-94040500D01*
X132833215Y-94059407D01*
X132845028Y-94069496D01*
X132845934Y-94070402D01*
X132845935Y-94070404D01*
X132929596Y-94154065D01*
X132929597Y-94154065D01*
X132929598Y-94154066D01*
X132942915Y-94160276D01*
X132987663Y-94202005D01*
X132999337Y-94262066D01*
X132973478Y-94317518D01*
X132942915Y-94339724D01*
X132929598Y-94345933D01*
X132845933Y-94429598D01*
X132795932Y-94536824D01*
X132795932Y-94536825D01*
X132795932Y-94536827D01*
X132789500Y-94585684D01*
X132789500Y-94934316D01*
X132790994Y-94945663D01*
X132795932Y-94983174D01*
X132795932Y-94983175D01*
X132845933Y-95090401D01*
X132845934Y-95090402D01*
X132845935Y-95090404D01*
X132865529Y-95109998D01*
X132893305Y-95164513D01*
X132883734Y-95224945D01*
X132865530Y-95250000D01*
X132847841Y-95267690D01*
X132845933Y-95269598D01*
X132795932Y-95376824D01*
X132795932Y-95376825D01*
X132793783Y-95393153D01*
X132789500Y-95425684D01*
X132789500Y-95774316D01*
X132791487Y-95789407D01*
X132795932Y-95823174D01*
X132795932Y-95823175D01*
X132845933Y-95930401D01*
X132845934Y-95930402D01*
X132845935Y-95930404D01*
X132929596Y-96014065D01*
X132929597Y-96014065D01*
X132929598Y-96014066D01*
X132942915Y-96020276D01*
X132987663Y-96062005D01*
X132999337Y-96122066D01*
X132973478Y-96177518D01*
X132966533Y-96184271D01*
X132955835Y-96193699D01*
X132929596Y-96205935D01*
X132845935Y-96289596D01*
X132845173Y-96291229D01*
X132835482Y-96299771D01*
X132810132Y-96310735D01*
X132785511Y-96323281D01*
X132780156Y-96323702D01*
X132779325Y-96324062D01*
X132778352Y-96323844D01*
X132770024Y-96324500D01*
X132549500Y-96324500D01*
X132491309Y-96305593D01*
X132455345Y-96256093D01*
X132450500Y-96225500D01*
X132450500Y-96079243D01*
X132450500Y-96079240D01*
X132440573Y-96011107D01*
X132389198Y-95906017D01*
X132306483Y-95823302D01*
X132306219Y-95823173D01*
X132201395Y-95771927D01*
X132174139Y-95767956D01*
X132133260Y-95762000D01*
X131766740Y-95762000D01*
X131732673Y-95766963D01*
X131698604Y-95771927D01*
X131593518Y-95823301D01*
X131510801Y-95906018D01*
X131459427Y-96011104D01*
X131454463Y-96045173D01*
X131449500Y-96079240D01*
X131449500Y-97170760D01*
X131449789Y-97172742D01*
X131459427Y-97238895D01*
X131503041Y-97328107D01*
X131510802Y-97343983D01*
X131593517Y-97426698D01*
X131647285Y-97452983D01*
X131698604Y-97478072D01*
X131698605Y-97478072D01*
X131698607Y-97478073D01*
X131766740Y-97488000D01*
X131766743Y-97488000D01*
X132133257Y-97488000D01*
X132133260Y-97488000D01*
X132201393Y-97478073D01*
X132306483Y-97426698D01*
X132389198Y-97343983D01*
X132440573Y-97238893D01*
X132450500Y-97170760D01*
X132450500Y-97024500D01*
X132469407Y-96966309D01*
X132518907Y-96930345D01*
X132549500Y-96925500D01*
X132780024Y-96925500D01*
X132838215Y-96944407D01*
X132850021Y-96954490D01*
X132929596Y-97034065D01*
X132929597Y-97034065D01*
X132929598Y-97034066D01*
X133036824Y-97084067D01*
X133036825Y-97084067D01*
X133036827Y-97084068D01*
X133085684Y-97090500D01*
X133274521Y-97090500D01*
X133332712Y-97109407D01*
X133344525Y-97119496D01*
X134566478Y-98341449D01*
X134594255Y-98395966D01*
X134592101Y-98437073D01*
X134579500Y-98484103D01*
X134579500Y-98484108D01*
X134579500Y-98615892D01*
X134593385Y-98667711D01*
X134613609Y-98743190D01*
X134679496Y-98857309D01*
X134679498Y-98857311D01*
X134679500Y-98857314D01*
X134772686Y-98950500D01*
X134772688Y-98950501D01*
X134772690Y-98950503D01*
X134886810Y-99016390D01*
X134886808Y-99016390D01*
X134886812Y-99016391D01*
X134886814Y-99016392D01*
X135014108Y-99050500D01*
X135014110Y-99050500D01*
X135145890Y-99050500D01*
X135145892Y-99050500D01*
X135273186Y-99016392D01*
X135273188Y-99016390D01*
X135273190Y-99016390D01*
X135387309Y-98950503D01*
X135387309Y-98950502D01*
X135387314Y-98950500D01*
X135458319Y-98879494D01*
X135512834Y-98851719D01*
X135528321Y-98850500D01*
X136005500Y-98850500D01*
X136063691Y-98869407D01*
X136099655Y-98918907D01*
X136104500Y-98949500D01*
X136104500Y-99024672D01*
X136104501Y-99024684D01*
X136119033Y-99097736D01*
X136119035Y-99097742D01*
X136174397Y-99180599D01*
X136174399Y-99180601D01*
X136257260Y-99235966D01*
X136312808Y-99247015D01*
X136330315Y-99250498D01*
X136330320Y-99250498D01*
X136330326Y-99250500D01*
X136980500Y-99250500D01*
X137038691Y-99269407D01*
X137074655Y-99318907D01*
X137079500Y-99349500D01*
X137079500Y-99999672D01*
X137079501Y-99999684D01*
X137094033Y-100072736D01*
X137094035Y-100072742D01*
X137149397Y-100155599D01*
X137149400Y-100155602D01*
X137179999Y-100176047D01*
X137232260Y-100210966D01*
X137287808Y-100222015D01*
X137305315Y-100225498D01*
X137305320Y-100225498D01*
X137305326Y-100225500D01*
X137305327Y-100225500D01*
X137454673Y-100225500D01*
X137454674Y-100225500D01*
X137527740Y-100210966D01*
X137527746Y-100210961D01*
X137536752Y-100207233D01*
X137537586Y-100209248D01*
X137583880Y-100196189D01*
X137622610Y-100208773D01*
X137623248Y-100207233D01*
X137632255Y-100210962D01*
X137632260Y-100210966D01*
X137687808Y-100222015D01*
X137705315Y-100225498D01*
X137705320Y-100225498D01*
X137705326Y-100225500D01*
X137705327Y-100225500D01*
X137854673Y-100225500D01*
X137854674Y-100225500D01*
X137927740Y-100210966D01*
X137927746Y-100210961D01*
X137936752Y-100207233D01*
X137937586Y-100209248D01*
X137983880Y-100196189D01*
X138022610Y-100208773D01*
X138023248Y-100207233D01*
X138032255Y-100210962D01*
X138032260Y-100210966D01*
X138087808Y-100222015D01*
X138105315Y-100225498D01*
X138105320Y-100225498D01*
X138105326Y-100225500D01*
X138105327Y-100225500D01*
X138254673Y-100225500D01*
X138254674Y-100225500D01*
X138327740Y-100210966D01*
X138327746Y-100210961D01*
X138336752Y-100207233D01*
X138337586Y-100209248D01*
X138383880Y-100196189D01*
X138422610Y-100208773D01*
X138423248Y-100207233D01*
X138432255Y-100210962D01*
X138432260Y-100210966D01*
X138487808Y-100222015D01*
X138505315Y-100225498D01*
X138505320Y-100225498D01*
X138505326Y-100225500D01*
X138505327Y-100225500D01*
X138654673Y-100225500D01*
X138654674Y-100225500D01*
X138727740Y-100210966D01*
X138727746Y-100210961D01*
X138736752Y-100207233D01*
X138737586Y-100209248D01*
X138783880Y-100196189D01*
X138822610Y-100208773D01*
X138823248Y-100207233D01*
X138832255Y-100210962D01*
X138832260Y-100210966D01*
X138887808Y-100222015D01*
X138905315Y-100225498D01*
X138905320Y-100225498D01*
X138905326Y-100225500D01*
X138905327Y-100225500D01*
X139054673Y-100225500D01*
X139054674Y-100225500D01*
X139127740Y-100210966D01*
X139210601Y-100155601D01*
X139265966Y-100072740D01*
X139280500Y-99999674D01*
X139280500Y-99999500D01*
X139280524Y-99999424D01*
X139280976Y-99994838D01*
X139281982Y-99994937D01*
X139299407Y-99941309D01*
X139348907Y-99905345D01*
X139379500Y-99900500D01*
X142954562Y-99900500D01*
X142954562Y-99900499D01*
X143030988Y-99880021D01*
X143099510Y-99840460D01*
X143155459Y-99784511D01*
X143980460Y-98959510D01*
X143981294Y-98958065D01*
X144020020Y-98890991D01*
X144020020Y-98890989D01*
X144020022Y-98890987D01*
X144040500Y-98814561D01*
X144040500Y-98735437D01*
X144040500Y-98493365D01*
X144059407Y-98435174D01*
X144090108Y-98409389D01*
X144089806Y-98408965D01*
X144095197Y-98405115D01*
X144096020Y-98404423D01*
X144096483Y-98404198D01*
X144179198Y-98321483D01*
X144230573Y-98216393D01*
X144240500Y-98148260D01*
X144240500Y-96831740D01*
X144230573Y-96763607D01*
X144225052Y-96752314D01*
X144179198Y-96658518D01*
X144179198Y-96658517D01*
X144096483Y-96575802D01*
X144095432Y-96575288D01*
X143991395Y-96524427D01*
X143961674Y-96520097D01*
X143923260Y-96514500D01*
X143556740Y-96514500D01*
X143522673Y-96519463D01*
X143488604Y-96524427D01*
X143383518Y-96575801D01*
X143383517Y-96575801D01*
X143383517Y-96575802D01*
X143310001Y-96649317D01*
X143255487Y-96677093D01*
X143195055Y-96667522D01*
X143169999Y-96649318D01*
X143096483Y-96575802D01*
X143095432Y-96575288D01*
X142991395Y-96524427D01*
X142961674Y-96520097D01*
X142923260Y-96514500D01*
X142923257Y-96514500D01*
X142865589Y-96514500D01*
X142857991Y-96512031D01*
X142850102Y-96513281D01*
X142829446Y-96502756D01*
X142807398Y-96495593D01*
X142795585Y-96485504D01*
X142669496Y-96359415D01*
X142641719Y-96304898D01*
X142640500Y-96289411D01*
X142640500Y-96190322D01*
X142659407Y-96132131D01*
X142694553Y-96102113D01*
X142758251Y-96069658D01*
X142852158Y-95975751D01*
X142912451Y-95857420D01*
X142925613Y-95774316D01*
X142928000Y-95759248D01*
X142928000Y-95180751D01*
X142919253Y-95125529D01*
X142912451Y-95082580D01*
X142852158Y-94964249D01*
X142758251Y-94870342D01*
X142729483Y-94855684D01*
X142639923Y-94810050D01*
X142639920Y-94810049D01*
X142615376Y-94806161D01*
X142541749Y-94794500D01*
X142541746Y-94794500D01*
X142151190Y-94794500D01*
X142092999Y-94775593D01*
X142081186Y-94765504D01*
X141867482Y-94551800D01*
X141605182Y-94289500D01*
X141315212Y-93999530D01*
X141235288Y-93953386D01*
X141146144Y-93929500D01*
X136573856Y-93929500D01*
X136573853Y-93929500D01*
X136549121Y-93936127D01*
X136523500Y-93939500D01*
X136270104Y-93939500D01*
X136270092Y-93939501D01*
X136220513Y-93946027D01*
X136220511Y-93946027D01*
X136111686Y-93996774D01*
X136026774Y-94081686D01*
X135976029Y-94190510D01*
X135976028Y-94190511D01*
X135969500Y-94240100D01*
X135969500Y-94659896D01*
X135969501Y-94659907D01*
X135976027Y-94709486D01*
X135976027Y-94709488D01*
X136026774Y-94818313D01*
X136026775Y-94818314D01*
X136026776Y-94818316D01*
X136111684Y-94903224D01*
X136111685Y-94903224D01*
X136117809Y-94909348D01*
X136115762Y-94911394D01*
X136144106Y-94949006D01*
X136149500Y-94981239D01*
X136149500Y-95483946D01*
X136130593Y-95542137D01*
X136081093Y-95578101D01*
X136019907Y-95578101D01*
X135970407Y-95542137D01*
X135964764Y-95533446D01*
X135940503Y-95491425D01*
X135940501Y-95491423D01*
X135940500Y-95491421D01*
X135847314Y-95398235D01*
X135847311Y-95398233D01*
X135847309Y-95398231D01*
X135733189Y-95332344D01*
X135733191Y-95332344D01*
X135676925Y-95317268D01*
X135605892Y-95298235D01*
X135494214Y-95298235D01*
X135436023Y-95279328D01*
X135424210Y-95269239D01*
X133859496Y-93704525D01*
X133831719Y-93650008D01*
X133830500Y-93634521D01*
X133830500Y-93565685D01*
X133829544Y-93558424D01*
X133824068Y-93516827D01*
X133823703Y-93516045D01*
X133774066Y-93409598D01*
X133774065Y-93409597D01*
X133774065Y-93409596D01*
X133690404Y-93325935D01*
X133690402Y-93325934D01*
X133690401Y-93325933D01*
X133583175Y-93275932D01*
X133550601Y-93271644D01*
X133534316Y-93269500D01*
X133085684Y-93269500D01*
X133069398Y-93271644D01*
X133036825Y-93275932D01*
X133036824Y-93275932D01*
X132929598Y-93325933D01*
X132929596Y-93325934D01*
X132929596Y-93325935D01*
X132845935Y-93409596D01*
X132845934Y-93409597D01*
X132845028Y-93410504D01*
X132790511Y-93438281D01*
X132775024Y-93439500D01*
X132520435Y-93439500D01*
X132444014Y-93459977D01*
X132444009Y-93459979D01*
X132397208Y-93487000D01*
X132375489Y-93499539D01*
X132370054Y-93504974D01*
X132315534Y-93532746D01*
X132256577Y-93523904D01*
X132201395Y-93496927D01*
X132174139Y-93492956D01*
X132133260Y-93487000D01*
X131766740Y-93487000D01*
X131732673Y-93491963D01*
X131698604Y-93496927D01*
X131593518Y-93548301D01*
X131593517Y-93548301D01*
X131593517Y-93548302D01*
X131545001Y-93596817D01*
X131532110Y-93603385D01*
X131522138Y-93613870D01*
X131505531Y-93616927D01*
X131490487Y-93624593D01*
X131476195Y-93622329D01*
X131461964Y-93624950D01*
X131447434Y-93617774D01*
X131430055Y-93615022D01*
X131406769Y-93598545D01*
X131405888Y-93597707D01*
X131356483Y-93548302D01*
X131351265Y-93545751D01*
X131341269Y-93536243D01*
X131329851Y-93515155D01*
X131315599Y-93495873D01*
X131313963Y-93485810D01*
X131312137Y-93482438D01*
X131312711Y-93478112D01*
X131310500Y-93464510D01*
X131310500Y-93137243D01*
X131329407Y-93079052D01*
X131367659Y-93047519D01*
X131398316Y-93033224D01*
X131483224Y-92948316D01*
X131533972Y-92839487D01*
X131540500Y-92789901D01*
X131540499Y-92370100D01*
X131533972Y-92320513D01*
X131533972Y-92320511D01*
X131483225Y-92211686D01*
X131483224Y-92211685D01*
X131483224Y-92211684D01*
X131451541Y-92180001D01*
X131423766Y-92125487D01*
X131433337Y-92065055D01*
X131451540Y-92039999D01*
X131463224Y-92028316D01*
X131513972Y-91919487D01*
X131520500Y-91869901D01*
X131520499Y-91510100D01*
X131513972Y-91460513D01*
X131513972Y-91460511D01*
X131463225Y-91351686D01*
X131463224Y-91351685D01*
X131463224Y-91351684D01*
X131391541Y-91280001D01*
X131363766Y-91225487D01*
X131373337Y-91165055D01*
X131391540Y-91139999D01*
X131463224Y-91068316D01*
X131513972Y-90959487D01*
X131513973Y-90959478D01*
X131516091Y-90952216D01*
X131517036Y-90952491D01*
X131517036Y-90948907D01*
X131529932Y-90931157D01*
X131539374Y-90911358D01*
X131547538Y-90906924D01*
X131553000Y-90899407D01*
X131573865Y-90892627D01*
X131593143Y-90882159D01*
X131611191Y-90880500D01*
X131651728Y-90880500D01*
X131709919Y-90899407D01*
X131745883Y-90948907D01*
X131749509Y-90964009D01*
X131750049Y-90967421D01*
X131779587Y-91025391D01*
X131810342Y-91085751D01*
X131904249Y-91179658D01*
X132022580Y-91239951D01*
X132089130Y-91250491D01*
X132120751Y-91255500D01*
X132120754Y-91255500D01*
X132624249Y-91255500D01*
X132652803Y-91250976D01*
X132722420Y-91239951D01*
X132840751Y-91179658D01*
X132934658Y-91085751D01*
X132994951Y-90967420D01*
X133010500Y-90869246D01*
X133010500Y-90290754D01*
X133010014Y-90287687D01*
X133003966Y-90249500D01*
X132994951Y-90192580D01*
X132934658Y-90074249D01*
X132840751Y-89980342D01*
X132807803Y-89963554D01*
X132722423Y-89920050D01*
X132722420Y-89920049D01*
X132697876Y-89916161D01*
X132624249Y-89904500D01*
X132624246Y-89904500D01*
X132120754Y-89904500D01*
X132120751Y-89904500D01*
X132022580Y-89920049D01*
X132022576Y-89920050D01*
X131904250Y-89980341D01*
X131810341Y-90074250D01*
X131750049Y-90192578D01*
X131749509Y-90195991D01*
X131747940Y-90199068D01*
X131747642Y-90199988D01*
X131747496Y-90199940D01*
X131721729Y-90250506D01*
X131667211Y-90278282D01*
X131651728Y-90279500D01*
X131341772Y-90279500D01*
X131299933Y-90270224D01*
X131269493Y-90256029D01*
X131269490Y-90256028D01*
X131239735Y-90252111D01*
X131219901Y-90249500D01*
X131219899Y-90249500D01*
X130800103Y-90249500D01*
X130800092Y-90249501D01*
X130750513Y-90256027D01*
X130750511Y-90256027D01*
X130641686Y-90306774D01*
X130556774Y-90391686D01*
X130553824Y-90398013D01*
X130512093Y-90442758D01*
X130452031Y-90454429D01*
X130396580Y-90428568D01*
X130375895Y-90401116D01*
X130359658Y-90369249D01*
X130265751Y-90275342D01*
X130255706Y-90270224D01*
X130147423Y-90215050D01*
X130147420Y-90215049D01*
X130122876Y-90211161D01*
X130049249Y-90199500D01*
X130049246Y-90199500D01*
X129470754Y-90199500D01*
X129470751Y-90199500D01*
X129372580Y-90215049D01*
X129372576Y-90215050D01*
X129254250Y-90275341D01*
X129160341Y-90369250D01*
X129100050Y-90487576D01*
X129100049Y-90487580D01*
X129084500Y-90585751D01*
X129084500Y-91089248D01*
X129088127Y-91112147D01*
X129096318Y-91163866D01*
X129100049Y-91187419D01*
X129100050Y-91187423D01*
X129146229Y-91278053D01*
X129160342Y-91305751D01*
X129254249Y-91399658D01*
X129372580Y-91459951D01*
X129439130Y-91470491D01*
X129470751Y-91475500D01*
X129470754Y-91475500D01*
X129932021Y-91475500D01*
X129990212Y-91494407D01*
X130002025Y-91504496D01*
X130372040Y-91874511D01*
X130372039Y-91874511D01*
X130417016Y-91919487D01*
X130427989Y-91930460D01*
X130496511Y-91970021D01*
X130496520Y-91970023D01*
X130501944Y-91972271D01*
X130538399Y-91998357D01*
X130547779Y-92009024D01*
X130556776Y-92028316D01*
X130622876Y-92094416D01*
X130624970Y-92096797D01*
X130635889Y-92122116D01*
X130648409Y-92146688D01*
X130647936Y-92150050D01*
X130649200Y-92152980D01*
X130644732Y-92172852D01*
X130640353Y-92204014D01*
X130636776Y-92211683D01*
X130636776Y-92211684D01*
X130633385Y-92218957D01*
X130586028Y-92320513D01*
X130579500Y-92370100D01*
X130579500Y-92789896D01*
X130579501Y-92789907D01*
X130586027Y-92839486D01*
X130586027Y-92839488D01*
X130636774Y-92948313D01*
X130636775Y-92948314D01*
X130636776Y-92948316D01*
X130680505Y-92992045D01*
X130708281Y-93046560D01*
X130709500Y-93062047D01*
X130709500Y-93454246D01*
X130690593Y-93512437D01*
X130674561Y-93529725D01*
X130665111Y-93537745D01*
X130643517Y-93548302D01*
X130592148Y-93599670D01*
X130589061Y-93602291D01*
X130564326Y-93612446D01*
X130540487Y-93624593D01*
X130536341Y-93623936D01*
X130532461Y-93625530D01*
X130506479Y-93619206D01*
X130480055Y-93615022D01*
X130475406Y-93611645D01*
X130473011Y-93611062D01*
X130470448Y-93608042D01*
X130454999Y-93596818D01*
X130406483Y-93548302D01*
X130381816Y-93536243D01*
X130301395Y-93496927D01*
X130274139Y-93492956D01*
X130233260Y-93487000D01*
X129866740Y-93487000D01*
X129832673Y-93491963D01*
X129798604Y-93496927D01*
X129693518Y-93548301D01*
X129610801Y-93631018D01*
X129559427Y-93736104D01*
X129549500Y-93804243D01*
X129549500Y-93900500D01*
X129544655Y-93915411D01*
X129544655Y-93931093D01*
X129535438Y-93943778D01*
X129530593Y-93958691D01*
X129517907Y-93967907D01*
X129508691Y-93980593D01*
X129493778Y-93985438D01*
X129481093Y-93994655D01*
X129450500Y-93999500D01*
X129301047Y-93999500D01*
X129242856Y-93980593D01*
X129206892Y-93931093D01*
X129206892Y-93869907D01*
X129231041Y-93830498D01*
X129243224Y-93818316D01*
X129293972Y-93709487D01*
X129300500Y-93659901D01*
X129300499Y-93300100D01*
X129296089Y-93266600D01*
X129293972Y-93250513D01*
X129293972Y-93250511D01*
X129243225Y-93141686D01*
X129243224Y-93141685D01*
X129243224Y-93141684D01*
X129158316Y-93056776D01*
X129158314Y-93056775D01*
X129158313Y-93056774D01*
X129049489Y-93006029D01*
X129049488Y-93006028D01*
X129024694Y-93002764D01*
X128999901Y-92999500D01*
X128999900Y-92999500D01*
X128578500Y-92999500D01*
X128520309Y-92980593D01*
X128484345Y-92931093D01*
X128479500Y-92900500D01*
X128479500Y-89297190D01*
X128498407Y-89238999D01*
X128508496Y-89227187D01*
X128945766Y-88789916D01*
X129000283Y-88762138D01*
X129060715Y-88771709D01*
X129103980Y-88814974D01*
X129113551Y-88875406D01*
X129103981Y-88904861D01*
X129100051Y-88912574D01*
X129100049Y-88912580D01*
X129084500Y-89010751D01*
X129084500Y-89514248D01*
X129100049Y-89612419D01*
X129100050Y-89612423D01*
X129157064Y-89724317D01*
X129160342Y-89730751D01*
X129254249Y-89824658D01*
X129372580Y-89884951D01*
X129439130Y-89895491D01*
X129470751Y-89900500D01*
X129470754Y-89900500D01*
X130049249Y-89900500D01*
X130077803Y-89895976D01*
X130147420Y-89884951D01*
X130265751Y-89824658D01*
X130359658Y-89730751D01*
X130419951Y-89612420D01*
X130435500Y-89514246D01*
X130435500Y-89436047D01*
X130454407Y-89377856D01*
X130503907Y-89341892D01*
X130565093Y-89341892D01*
X130604501Y-89366041D01*
X130621684Y-89383224D01*
X130730513Y-89433972D01*
X130780099Y-89440500D01*
X131199900Y-89440499D01*
X131249487Y-89433972D01*
X131249488Y-89433972D01*
X131308137Y-89406622D01*
X131358316Y-89383224D01*
X131389998Y-89351541D01*
X131444513Y-89323766D01*
X131504945Y-89333337D01*
X131530000Y-89351540D01*
X131551684Y-89373224D01*
X131660513Y-89423972D01*
X131710099Y-89430500D01*
X132129900Y-89430499D01*
X132179487Y-89423972D01*
X132179488Y-89423972D01*
X132263699Y-89384703D01*
X132288316Y-89373224D01*
X132373224Y-89288316D01*
X132373226Y-89288312D01*
X132378192Y-89281221D01*
X132380779Y-89283032D01*
X132410646Y-89250425D01*
X132445211Y-89230470D01*
X133230470Y-88445211D01*
X133276614Y-88365287D01*
X133284595Y-88335500D01*
X133300500Y-88276143D01*
X133300500Y-87749500D01*
X133319407Y-87691309D01*
X133368907Y-87655345D01*
X133399500Y-87650500D01*
X139071142Y-87650500D01*
X139071144Y-87650500D01*
X139160288Y-87626614D01*
X139240212Y-87580470D01*
X139494792Y-87325890D01*
X139621187Y-87199496D01*
X139675703Y-87171719D01*
X139691190Y-87170500D01*
X141014273Y-87170500D01*
X141014273Y-87170499D01*
X141044699Y-87167646D01*
X141172882Y-87122793D01*
X141239075Y-87073940D01*
X141297121Y-87054599D01*
X141355451Y-87073070D01*
X141391785Y-87122299D01*
X141393490Y-87179215D01*
X141389500Y-87194108D01*
X141389500Y-87325892D01*
X141423608Y-87453186D01*
X141425130Y-87458865D01*
X141421927Y-87519967D01*
X141383422Y-87567517D01*
X141362201Y-87577932D01*
X141307116Y-87597207D01*
X141197855Y-87677845D01*
X141197845Y-87677855D01*
X141117207Y-87787116D01*
X141072355Y-87915296D01*
X141072353Y-87915305D01*
X141069500Y-87945725D01*
X141069500Y-89354274D01*
X141072353Y-89384694D01*
X141072355Y-89384703D01*
X141117207Y-89512883D01*
X141197845Y-89622144D01*
X141197847Y-89622146D01*
X141197850Y-89622150D01*
X141197853Y-89622152D01*
X141197855Y-89622154D01*
X141307116Y-89702792D01*
X141307117Y-89702792D01*
X141307118Y-89702793D01*
X141435301Y-89747646D01*
X141465725Y-89750499D01*
X141465727Y-89750500D01*
X141465734Y-89750500D01*
X142224273Y-89750500D01*
X142224273Y-89750499D01*
X142254699Y-89747646D01*
X142382882Y-89702793D01*
X142492150Y-89622150D01*
X142572793Y-89512882D01*
X142617646Y-89384699D01*
X142620499Y-89354273D01*
X142620500Y-89354273D01*
X142620500Y-88411189D01*
X142639407Y-88352998D01*
X142649490Y-88341191D01*
X142790470Y-88200212D01*
X142836614Y-88120288D01*
X142838349Y-88113813D01*
X142843467Y-88094713D01*
X142843467Y-88094711D01*
X142860500Y-88031143D01*
X142860500Y-87149500D01*
X142863312Y-87140843D01*
X142862091Y-87131825D01*
X142872570Y-87112348D01*
X142879407Y-87091309D01*
X142886770Y-87085958D01*
X142891083Y-87077945D01*
X142906082Y-87071928D01*
X142928907Y-87055345D01*
X142946209Y-87051396D01*
X142952822Y-87050500D01*
X142968488Y-87050500D01*
X143061167Y-87035821D01*
X143062209Y-87035680D01*
X143091280Y-87040955D01*
X143120444Y-87045574D01*
X143121266Y-87046396D01*
X143122411Y-87046604D01*
X143142832Y-87067962D01*
X143163709Y-87088838D01*
X143164016Y-87090116D01*
X143164695Y-87090827D01*
X143165353Y-87095687D01*
X143174500Y-87133784D01*
X143174500Y-87540500D01*
X143179197Y-87584184D01*
X143188427Y-87626614D01*
X143190404Y-87635699D01*
X143192889Y-87645871D01*
X143192889Y-87645872D01*
X143192890Y-87645873D01*
X143235900Y-87726585D01*
X143281655Y-87779389D01*
X143281667Y-87779401D01*
X143299247Y-87797344D01*
X143299249Y-87797346D01*
X143379058Y-87841988D01*
X143379062Y-87841990D01*
X143420294Y-87854097D01*
X143446102Y-87861675D01*
X143504000Y-87870000D01*
X143380000Y-87870000D01*
X143375784Y-91424500D01*
X140866042Y-91424500D01*
X140725879Y-91452381D01*
X140675085Y-91473420D01*
X140652689Y-91479736D01*
X140587578Y-91490049D01*
X140469250Y-91550341D01*
X140375340Y-91644251D01*
X140315050Y-91762575D01*
X140312640Y-91769994D01*
X140312096Y-91769817D01*
X140312097Y-91773426D01*
X140300261Y-91797829D01*
X140294573Y-91806342D01*
X140294571Y-91806346D01*
X140294571Y-91806347D01*
X140247707Y-91919488D01*
X140241464Y-91934559D01*
X140201727Y-91981084D01*
X140142233Y-91995368D01*
X140085705Y-91971953D01*
X140058536Y-91934559D01*
X140052294Y-91919489D01*
X140005429Y-91806347D01*
X140005426Y-91806342D01*
X139999742Y-91797835D01*
X139992859Y-91780248D01*
X139987904Y-91773428D01*
X139987903Y-91769817D01*
X139987360Y-91769994D01*
X139984950Y-91762577D01*
X139924659Y-91644251D01*
X139924658Y-91644249D01*
X139830751Y-91550342D01*
X139712420Y-91490049D01*
X139712422Y-91490049D01*
X139647306Y-91479735D01*
X139624911Y-91473419D01*
X139574118Y-91452380D01*
X139433957Y-91424500D01*
X139433955Y-91424500D01*
X136836618Y-91424500D01*
X136827672Y-91421593D01*
X136818344Y-91422799D01*
X136799187Y-91412338D01*
X136778427Y-91405593D01*
X136772897Y-91397982D01*
X136764643Y-91393475D01*
X136755294Y-91373753D01*
X136742463Y-91356093D01*
X136742463Y-91346686D01*
X136738434Y-91338187D01*
X136742463Y-91316734D01*
X136742463Y-91294907D01*
X136747991Y-91287297D01*
X136749728Y-91278053D01*
X136764063Y-91265176D01*
X136778427Y-91245407D01*
X136794211Y-91236042D01*
X136796440Y-91234985D01*
X136843653Y-91215429D01*
X136858201Y-91205707D01*
X136864757Y-91202600D01*
X136873204Y-91201508D01*
X136880435Y-91198678D01*
X136880007Y-91197359D01*
X136887411Y-91194952D01*
X136887420Y-91194951D01*
X137005751Y-91134658D01*
X137099658Y-91040751D01*
X137159951Y-90922420D01*
X137170263Y-90857305D01*
X137176580Y-90834911D01*
X137191600Y-90798652D01*
X137197619Y-90784120D01*
X137225500Y-90643955D01*
X137225500Y-90501045D01*
X137197619Y-90360880D01*
X137176577Y-90310080D01*
X137170263Y-90287692D01*
X137159951Y-90222580D01*
X137099658Y-90104249D01*
X137005751Y-90010342D01*
X136946873Y-89980342D01*
X136887421Y-89950049D01*
X136880013Y-89947642D01*
X136880440Y-89946326D01*
X136852163Y-89935257D01*
X136843652Y-89929570D01*
X136711620Y-89874881D01*
X136571457Y-89847000D01*
X136571455Y-89847000D01*
X133883545Y-89847000D01*
X133883542Y-89847000D01*
X133743381Y-89874880D01*
X133667914Y-89906139D01*
X133645520Y-89912455D01*
X133597578Y-89920049D01*
X133479250Y-89980341D01*
X133385341Y-90074250D01*
X133325050Y-90192576D01*
X133325046Y-90192589D01*
X133324947Y-90193216D01*
X133324310Y-90194854D01*
X133322642Y-90199989D01*
X133322351Y-90199894D01*
X133313040Y-90223857D01*
X133314361Y-90224563D01*
X133312069Y-90228850D01*
X133257381Y-90360878D01*
X133257381Y-90360880D01*
X133229500Y-90501042D01*
X133229500Y-90501045D01*
X133229500Y-90643955D01*
X133257380Y-90784117D01*
X133257381Y-90784119D01*
X133257381Y-90784121D01*
X133313932Y-90920647D01*
X133313310Y-90920904D01*
X133321583Y-90945538D01*
X133325049Y-90967421D01*
X133354587Y-91025391D01*
X133385342Y-91085751D01*
X133479249Y-91179658D01*
X133597580Y-91239951D01*
X133665766Y-91250750D01*
X133699596Y-91256109D01*
X133699537Y-91256475D01*
X133725466Y-91262698D01*
X133743380Y-91270119D01*
X133883545Y-91298000D01*
X133883546Y-91298000D01*
X136157347Y-91298000D01*
X136166078Y-91300836D01*
X136175178Y-91299619D01*
X136194572Y-91310094D01*
X136215538Y-91316907D01*
X136220934Y-91324335D01*
X136229012Y-91328698D01*
X136238544Y-91348572D01*
X136251502Y-91366407D01*
X136251502Y-91375588D01*
X136255472Y-91383866D01*
X136251502Y-91405547D01*
X136251502Y-91427593D01*
X136246105Y-91435020D01*
X136244452Y-91444051D01*
X136230203Y-91456908D01*
X136215538Y-91477093D01*
X136200160Y-91486264D01*
X136197728Y-91487429D01*
X136156347Y-91504571D01*
X136141989Y-91514164D01*
X136135647Y-91517206D01*
X136127196Y-91518337D01*
X136119566Y-91521323D01*
X136119994Y-91522640D01*
X136112575Y-91525050D01*
X135994251Y-91585340D01*
X135900341Y-91679250D01*
X135840049Y-91797578D01*
X135829736Y-91862689D01*
X135823420Y-91885085D01*
X135802382Y-91935877D01*
X135802381Y-91935879D01*
X135774501Y-92076042D01*
X135774501Y-92218957D01*
X135802381Y-92359122D01*
X135802383Y-92359128D01*
X135823418Y-92409911D01*
X135829735Y-92432307D01*
X135840049Y-92497421D01*
X135898167Y-92611483D01*
X135900342Y-92615751D01*
X135994249Y-92709658D01*
X136112580Y-92769951D01*
X136112586Y-92769951D01*
X136119993Y-92772359D01*
X136119454Y-92774014D01*
X136146208Y-92784484D01*
X136158847Y-92792929D01*
X136290880Y-92847619D01*
X136431045Y-92875500D01*
X136431046Y-92875500D01*
X139433954Y-92875500D01*
X139433955Y-92875500D01*
X139574120Y-92847619D01*
X139624913Y-92826579D01*
X139647305Y-92820263D01*
X139712420Y-92809951D01*
X139830751Y-92749658D01*
X139924658Y-92655751D01*
X139984951Y-92537420D01*
X139984952Y-92537411D01*
X139987359Y-92530007D01*
X139987903Y-92530184D01*
X139987904Y-92526571D01*
X139999746Y-92502158D01*
X140005430Y-92493652D01*
X140005430Y-92493651D01*
X140058536Y-92365441D01*
X140098272Y-92318915D01*
X140157767Y-92304631D01*
X140214295Y-92328045D01*
X140241464Y-92365441D01*
X140294570Y-92493652D01*
X140300257Y-92502163D01*
X140307143Y-92519755D01*
X140312097Y-92526573D01*
X140312096Y-92530190D01*
X140312642Y-92530013D01*
X140315049Y-92537421D01*
X140354960Y-92615749D01*
X140375342Y-92655751D01*
X140469249Y-92749658D01*
X140587580Y-92809951D01*
X140652692Y-92820263D01*
X140675080Y-92826577D01*
X140725880Y-92847619D01*
X140866045Y-92875500D01*
X143374062Y-92875500D01*
X143370000Y-96300000D01*
X147429500Y-96300000D01*
X147429500Y-101345680D01*
X147429123Y-101354308D01*
X147429123Y-101354309D01*
X147414918Y-101516667D01*
X147411922Y-101533661D01*
X147370861Y-101686902D01*
X147364959Y-101703118D01*
X147297912Y-101846902D01*
X147289283Y-101861847D01*
X147198292Y-101991795D01*
X147187200Y-102005015D01*
X147075015Y-102117200D01*
X147061795Y-102128292D01*
X146994360Y-102175511D01*
X146935849Y-102193400D01*
X146877997Y-102173480D01*
X146842902Y-102123360D01*
X146839009Y-102085170D01*
X146840499Y-102069274D01*
X146840500Y-102069273D01*
X146840500Y-100660727D01*
X146840499Y-100660725D01*
X146837646Y-100630305D01*
X146837646Y-100630301D01*
X146792793Y-100502118D01*
X146712150Y-100392850D01*
X146712146Y-100392847D01*
X146712144Y-100392845D01*
X146602883Y-100312207D01*
X146474703Y-100267355D01*
X146474694Y-100267353D01*
X146444274Y-100264500D01*
X146444266Y-100264500D01*
X145635734Y-100264500D01*
X145635725Y-100264500D01*
X145605305Y-100267353D01*
X145605296Y-100267355D01*
X145477116Y-100312207D01*
X145367855Y-100392845D01*
X145367845Y-100392855D01*
X145287207Y-100502116D01*
X145242355Y-100630296D01*
X145242353Y-100630305D01*
X145239500Y-100660725D01*
X145239500Y-102069274D01*
X145242353Y-102099694D01*
X145242355Y-102099703D01*
X145287179Y-102227802D01*
X145288552Y-102288972D01*
X145253708Y-102339267D01*
X145195957Y-102359475D01*
X145193735Y-102359500D01*
X142286265Y-102359500D01*
X142228074Y-102340593D01*
X142192110Y-102291093D01*
X142192110Y-102229907D01*
X142192821Y-102227802D01*
X142211829Y-102173480D01*
X142237646Y-102099699D01*
X142240499Y-102069273D01*
X142240500Y-102069273D01*
X142240500Y-100660727D01*
X142240499Y-100660725D01*
X142237646Y-100630305D01*
X142237646Y-100630301D01*
X142192793Y-100502118D01*
X142112150Y-100392850D01*
X142112146Y-100392847D01*
X142112144Y-100392845D01*
X142002883Y-100312207D01*
X141874703Y-100267355D01*
X141874694Y-100267353D01*
X141844274Y-100264500D01*
X141844266Y-100264500D01*
X141035734Y-100264500D01*
X141035725Y-100264500D01*
X141005305Y-100267353D01*
X141005296Y-100267355D01*
X140877116Y-100312207D01*
X140767855Y-100392845D01*
X140767845Y-100392855D01*
X140687207Y-100502116D01*
X140642355Y-100630296D01*
X140642353Y-100630305D01*
X140639500Y-100660725D01*
X140639500Y-102069274D01*
X140642353Y-102099694D01*
X140642355Y-102099703D01*
X140687179Y-102227802D01*
X140688552Y-102288972D01*
X140653708Y-102339267D01*
X140595957Y-102359475D01*
X140593735Y-102359500D01*
X128524320Y-102359500D01*
X128515691Y-102359123D01*
X128353332Y-102344918D01*
X128336338Y-102341922D01*
X128326429Y-102339267D01*
X128315833Y-102336427D01*
X128183097Y-102300861D01*
X128166881Y-102294959D01*
X128023097Y-102227912D01*
X128008152Y-102219283D01*
X127878204Y-102128292D01*
X127864984Y-102117200D01*
X127752799Y-102005015D01*
X127741707Y-101991795D01*
X127650716Y-101861847D01*
X127642087Y-101846902D01*
X127582962Y-101720108D01*
X127575039Y-101703117D01*
X127569138Y-101686902D01*
X127528075Y-101533651D01*
X127525082Y-101516674D01*
X127510877Y-101354308D01*
X127510500Y-101345680D01*
X127510500Y-100583709D01*
X127829500Y-100583709D01*
X127829500Y-100796290D01*
X127862752Y-101006238D01*
X127928443Y-101208412D01*
X128024948Y-101397815D01*
X128024950Y-101397819D01*
X128149891Y-101569786D01*
X128149893Y-101569788D01*
X128149896Y-101569792D01*
X128300208Y-101720104D01*
X128300211Y-101720106D01*
X128300213Y-101720108D01*
X128472180Y-101845049D01*
X128472184Y-101845051D01*
X128661588Y-101941557D01*
X128863757Y-102007246D01*
X128863758Y-102007246D01*
X128863761Y-102007247D01*
X129073710Y-102040500D01*
X129073713Y-102040500D01*
X129286290Y-102040500D01*
X129496238Y-102007247D01*
X129496239Y-102007246D01*
X129496243Y-102007246D01*
X129698412Y-101941557D01*
X129887816Y-101845051D01*
X130059792Y-101720104D01*
X130210104Y-101569792D01*
X130335051Y-101397816D01*
X130431557Y-101208412D01*
X130497246Y-101006243D01*
X130530500Y-100796287D01*
X130530500Y-100583713D01*
X130530500Y-100583709D01*
X130497247Y-100373761D01*
X130477247Y-100312207D01*
X130431557Y-100171588D01*
X130335051Y-99982184D01*
X130335049Y-99982180D01*
X130210108Y-99810213D01*
X130210106Y-99810211D01*
X130210104Y-99810208D01*
X130059792Y-99659896D01*
X130059788Y-99659893D01*
X130059786Y-99659891D01*
X129887819Y-99534950D01*
X129887815Y-99534948D01*
X129698412Y-99438443D01*
X129496238Y-99372752D01*
X129286290Y-99339500D01*
X129286287Y-99339500D01*
X129073713Y-99339500D01*
X129073710Y-99339500D01*
X128863761Y-99372752D01*
X128661587Y-99438443D01*
X128472184Y-99534948D01*
X128472180Y-99534950D01*
X128300213Y-99659891D01*
X128149891Y-99810213D01*
X128024950Y-99982180D01*
X128024948Y-99982184D01*
X127928443Y-100171587D01*
X127862752Y-100373761D01*
X127829500Y-100583709D01*
X127510500Y-100583709D01*
X127510500Y-83654319D01*
X127510877Y-83645691D01*
X127510903Y-83645398D01*
X127525082Y-83483323D01*
X127528074Y-83466349D01*
X127569139Y-83313093D01*
X127575038Y-83296885D01*
X127642091Y-83153088D01*
X127650710Y-83138160D01*
X127741712Y-83008197D01*
X127752793Y-82994990D01*
X127864990Y-82882793D01*
X127878192Y-82871715D01*
X127887509Y-82865191D01*
X127946018Y-82847303D01*
X128003870Y-82867222D01*
X128038966Y-82917341D01*
X128037899Y-82978517D01*
X128037054Y-82980874D01*
X128036404Y-82982615D01*
X128036401Y-82982629D01*
X128030000Y-83042175D01*
X128030000Y-83689999D01*
X128030001Y-83690000D01*
X128946988Y-83690000D01*
X128914075Y-83747007D01*
X128880000Y-83874174D01*
X128880000Y-84005826D01*
X128914075Y-84132993D01*
X128946988Y-84190000D01*
X128030001Y-84190000D01*
X128030000Y-84190001D01*
X128030000Y-84837824D01*
X128029999Y-84837824D01*
X128036401Y-84897370D01*
X128036403Y-84897381D01*
X128086646Y-85032088D01*
X128086647Y-85032090D01*
X128172807Y-85147184D01*
X128172815Y-85147192D01*
X128287909Y-85233352D01*
X128287911Y-85233353D01*
X128422618Y-85283596D01*
X128422629Y-85283598D01*
X128482176Y-85290000D01*
X129129999Y-85290000D01*
X129130000Y-85289999D01*
X129130000Y-84373012D01*
X129187007Y-84405925D01*
X129314174Y-84440000D01*
X129445826Y-84440000D01*
X129572993Y-84405925D01*
X129630000Y-84373012D01*
X129630000Y-85289999D01*
X129630001Y-85290000D01*
X130277824Y-85290000D01*
X130337370Y-85283598D01*
X130337381Y-85283596D01*
X130472088Y-85233353D01*
X130472090Y-85233352D01*
X130587184Y-85147192D01*
X130587192Y-85147184D01*
X130673352Y-85032090D01*
X130673353Y-85032088D01*
X130723596Y-84897381D01*
X130723598Y-84897370D01*
X130730000Y-84837824D01*
X130730000Y-84309881D01*
X130748907Y-84251690D01*
X130798407Y-84215726D01*
X130859593Y-84215726D01*
X130909093Y-84251690D01*
X130920464Y-84271995D01*
X130989058Y-84437597D01*
X131063829Y-84549500D01*
X131104023Y-84609655D01*
X131250345Y-84755977D01*
X131422402Y-84870941D01*
X131613580Y-84950130D01*
X131816535Y-84990500D01*
X131816536Y-84990500D01*
X132023464Y-84990500D01*
X132023465Y-84990500D01*
X132226420Y-84950130D01*
X132417598Y-84870941D01*
X132589655Y-84755977D01*
X132735977Y-84609655D01*
X132850941Y-84437598D01*
X132930130Y-84246420D01*
X132970500Y-84043465D01*
X132970500Y-83836535D01*
X132970499Y-83836532D01*
X133409500Y-83836532D01*
X133409500Y-84043467D01*
X133449869Y-84246418D01*
X133529058Y-84437597D01*
X133603829Y-84549500D01*
X133644023Y-84609655D01*
X133790345Y-84755977D01*
X133962402Y-84870941D01*
X134153580Y-84950130D01*
X134356535Y-84990500D01*
X134356536Y-84990500D01*
X134563464Y-84990500D01*
X134563465Y-84990500D01*
X134766420Y-84950130D01*
X134957598Y-84870941D01*
X135129655Y-84755977D01*
X135275977Y-84609655D01*
X135390941Y-84437598D01*
X135470130Y-84246420D01*
X135510500Y-84043465D01*
X135510500Y-83836535D01*
X135510499Y-83836532D01*
X135949500Y-83836532D01*
X135949500Y-84043467D01*
X135989869Y-84246418D01*
X136069058Y-84437597D01*
X136143829Y-84549500D01*
X136184023Y-84609655D01*
X136330345Y-84755977D01*
X136502402Y-84870941D01*
X136693580Y-84950130D01*
X136896535Y-84990500D01*
X136896536Y-84990500D01*
X137103464Y-84990500D01*
X137103465Y-84990500D01*
X137306420Y-84950130D01*
X137497598Y-84870941D01*
X137669655Y-84755977D01*
X137815977Y-84609655D01*
X137930941Y-84437598D01*
X138010130Y-84246420D01*
X138050500Y-84043465D01*
X138050500Y-83836535D01*
X138010130Y-83633580D01*
X137930941Y-83442402D01*
X137815977Y-83270345D01*
X137669655Y-83124023D01*
X137497598Y-83009059D01*
X137497599Y-83009059D01*
X137497597Y-83009058D01*
X137306418Y-82929869D01*
X137103467Y-82889500D01*
X137103465Y-82889500D01*
X136896535Y-82889500D01*
X136896532Y-82889500D01*
X136693581Y-82929869D01*
X136502402Y-83009058D01*
X136330348Y-83124020D01*
X136184020Y-83270348D01*
X136069058Y-83442402D01*
X135989869Y-83633581D01*
X135949500Y-83836532D01*
X135510499Y-83836532D01*
X135470130Y-83633580D01*
X135390941Y-83442402D01*
X135275977Y-83270345D01*
X135129655Y-83124023D01*
X134957598Y-83009059D01*
X134957599Y-83009059D01*
X134957597Y-83009058D01*
X134766418Y-82929869D01*
X134563467Y-82889500D01*
X134563465Y-82889500D01*
X134356535Y-82889500D01*
X134356532Y-82889500D01*
X134153581Y-82929869D01*
X133962402Y-83009058D01*
X133790348Y-83124020D01*
X133644020Y-83270348D01*
X133529058Y-83442402D01*
X133449869Y-83633581D01*
X133409500Y-83836532D01*
X132970499Y-83836532D01*
X132930130Y-83633580D01*
X132850941Y-83442402D01*
X132735977Y-83270345D01*
X132589655Y-83124023D01*
X132417598Y-83009059D01*
X132417599Y-83009059D01*
X132417597Y-83009058D01*
X132226418Y-82929869D01*
X132023467Y-82889500D01*
X132023465Y-82889500D01*
X131816535Y-82889500D01*
X131816532Y-82889500D01*
X131613581Y-82929869D01*
X131422402Y-83009058D01*
X131250348Y-83124020D01*
X131104020Y-83270348D01*
X130989058Y-83442402D01*
X130920464Y-83608004D01*
X130880727Y-83654529D01*
X130821232Y-83668813D01*
X130764705Y-83645398D01*
X130732735Y-83593229D01*
X130730000Y-83570118D01*
X130730000Y-83042175D01*
X130723598Y-82982629D01*
X130723596Y-82982618D01*
X130673353Y-82847911D01*
X130673352Y-82847909D01*
X130636611Y-82798829D01*
X130616874Y-82740914D01*
X130634948Y-82682460D01*
X130683929Y-82645792D01*
X130715864Y-82640500D01*
X143078077Y-82640500D01*
X143136268Y-82659407D01*
G37*
%TD.AperFunction*%
%TA.AperFunction,Conductor*%
G36*
X138060947Y-94649407D02*
G01*
X138096911Y-94698907D01*
X138096911Y-94760093D01*
X138092484Y-94771331D01*
X138075932Y-94806827D01*
X138072816Y-94830500D01*
X138069500Y-94855685D01*
X138069500Y-95304314D01*
X138075932Y-95353174D01*
X138075932Y-95353175D01*
X138125933Y-95460401D01*
X138125934Y-95460402D01*
X138125935Y-95460404D01*
X138209596Y-95544065D01*
X138222339Y-95550007D01*
X138267086Y-95591733D01*
X138279500Y-95639731D01*
X138279500Y-95975500D01*
X138260593Y-96033691D01*
X138211093Y-96069655D01*
X138180500Y-96074500D01*
X138105326Y-96074500D01*
X138105325Y-96074500D01*
X138105315Y-96074501D01*
X138032263Y-96089033D01*
X138032257Y-96089035D01*
X137949400Y-96144397D01*
X137949397Y-96144400D01*
X137894035Y-96227257D01*
X137894033Y-96227263D01*
X137879501Y-96300315D01*
X137879500Y-96300327D01*
X137879500Y-97099672D01*
X137879501Y-97099684D01*
X137894033Y-97172736D01*
X137894035Y-97172742D01*
X137949397Y-97255599D01*
X137949400Y-97255602D01*
X137979999Y-97276047D01*
X138032260Y-97310966D01*
X138087808Y-97322015D01*
X138105315Y-97325498D01*
X138105320Y-97325498D01*
X138105326Y-97325500D01*
X138105327Y-97325500D01*
X138254673Y-97325500D01*
X138254674Y-97325500D01*
X138327740Y-97310966D01*
X138327746Y-97310961D01*
X138336752Y-97307233D01*
X138337586Y-97309248D01*
X138383880Y-97296189D01*
X138422610Y-97308773D01*
X138423248Y-97307233D01*
X138432255Y-97310962D01*
X138432260Y-97310966D01*
X138487808Y-97322015D01*
X138505315Y-97325498D01*
X138505320Y-97325498D01*
X138505326Y-97325500D01*
X138505327Y-97325500D01*
X138654673Y-97325500D01*
X138654674Y-97325500D01*
X138727740Y-97310966D01*
X138727746Y-97310961D01*
X138736752Y-97307233D01*
X138737586Y-97309248D01*
X138783880Y-97296189D01*
X138802571Y-97298720D01*
X138820062Y-97302815D01*
X138832260Y-97310966D01*
X138905326Y-97325500D01*
X138916938Y-97325500D01*
X138928071Y-97328107D01*
X138944939Y-97338314D01*
X138963691Y-97344407D01*
X138970503Y-97353784D01*
X138980419Y-97359784D01*
X138988065Y-97377955D01*
X138999655Y-97393907D01*
X139002598Y-97412492D01*
X139004150Y-97416180D01*
X139003572Y-97418645D01*
X139003765Y-97419863D01*
X139004024Y-97419838D01*
X139004455Y-97424215D01*
X139004500Y-97424500D01*
X139004500Y-97424672D01*
X139004501Y-97424684D01*
X139019033Y-97497736D01*
X139019034Y-97497740D01*
X139019035Y-97497742D01*
X139022766Y-97506749D01*
X139020751Y-97507583D01*
X139033811Y-97553888D01*
X139021227Y-97592613D01*
X139022766Y-97593251D01*
X139019033Y-97602263D01*
X139004501Y-97675315D01*
X139004500Y-97675327D01*
X139004500Y-97824672D01*
X139004501Y-97824684D01*
X139019033Y-97897736D01*
X139019034Y-97897740D01*
X139019035Y-97897742D01*
X139022766Y-97906749D01*
X139020751Y-97907583D01*
X139033811Y-97953888D01*
X139021227Y-97992613D01*
X139022766Y-97993251D01*
X139019033Y-98002263D01*
X139004501Y-98075315D01*
X139004500Y-98075327D01*
X139004500Y-98224672D01*
X139004501Y-98224684D01*
X139019033Y-98297736D01*
X139019034Y-98297740D01*
X139019035Y-98297742D01*
X139022766Y-98306749D01*
X139020751Y-98307583D01*
X139033811Y-98353888D01*
X139021227Y-98392613D01*
X139022766Y-98393251D01*
X139019033Y-98402263D01*
X139004501Y-98475315D01*
X139004500Y-98475327D01*
X139004500Y-98624672D01*
X139004501Y-98624684D01*
X139019033Y-98697736D01*
X139019034Y-98697740D01*
X139019035Y-98697742D01*
X139022766Y-98706749D01*
X139020751Y-98707583D01*
X139033811Y-98753888D01*
X139031280Y-98772571D01*
X139027184Y-98790061D01*
X139019034Y-98802260D01*
X139004500Y-98875326D01*
X139004500Y-98886937D01*
X139001893Y-98898071D01*
X138991685Y-98914939D01*
X138985593Y-98933691D01*
X138976215Y-98940503D01*
X138970216Y-98950419D01*
X138952044Y-98958065D01*
X138936093Y-98969655D01*
X138917507Y-98972598D01*
X138913820Y-98974150D01*
X138911354Y-98973572D01*
X138910136Y-98973765D01*
X138910162Y-98974024D01*
X138905784Y-98974455D01*
X138905500Y-98974500D01*
X138905326Y-98974500D01*
X138905325Y-98974500D01*
X138905315Y-98974501D01*
X138832263Y-98989033D01*
X138832261Y-98989033D01*
X138832260Y-98989034D01*
X138832259Y-98989034D01*
X138823251Y-98992766D01*
X138822416Y-98990751D01*
X138776112Y-99003811D01*
X138737386Y-98991227D01*
X138736749Y-98992766D01*
X138727742Y-98989035D01*
X138727740Y-98989034D01*
X138727736Y-98989033D01*
X138654684Y-98974501D01*
X138654674Y-98974500D01*
X138505326Y-98974500D01*
X138505325Y-98974500D01*
X138505315Y-98974501D01*
X138432263Y-98989033D01*
X138432261Y-98989033D01*
X138432260Y-98989034D01*
X138432259Y-98989034D01*
X138423251Y-98992766D01*
X138422416Y-98990751D01*
X138376112Y-99003811D01*
X138337386Y-98991227D01*
X138336749Y-98992766D01*
X138327742Y-98989035D01*
X138327740Y-98989034D01*
X138327736Y-98989033D01*
X138254684Y-98974501D01*
X138254674Y-98974500D01*
X138105326Y-98974500D01*
X138105325Y-98974500D01*
X138105315Y-98974501D01*
X138032263Y-98989033D01*
X138032261Y-98989033D01*
X138032260Y-98989034D01*
X138032259Y-98989034D01*
X138023251Y-98992766D01*
X138022416Y-98990751D01*
X137976112Y-99003811D01*
X137937386Y-98991227D01*
X137936749Y-98992766D01*
X137927742Y-98989035D01*
X137927740Y-98989034D01*
X137927736Y-98989033D01*
X137854684Y-98974501D01*
X137854674Y-98974500D01*
X137705326Y-98974500D01*
X137705325Y-98974500D01*
X137705315Y-98974501D01*
X137632263Y-98989033D01*
X137632261Y-98989033D01*
X137632260Y-98989034D01*
X137632259Y-98989034D01*
X137623251Y-98992766D01*
X137622416Y-98990751D01*
X137576112Y-99003811D01*
X137557429Y-99001280D01*
X137539938Y-98997184D01*
X137527740Y-98989034D01*
X137454674Y-98974500D01*
X137443062Y-98974500D01*
X137431929Y-98971893D01*
X137415060Y-98961685D01*
X137396309Y-98955593D01*
X137389496Y-98946215D01*
X137379581Y-98940216D01*
X137371934Y-98922044D01*
X137360345Y-98906093D01*
X137357401Y-98887507D01*
X137355850Y-98883820D01*
X137356427Y-98881354D01*
X137356234Y-98880136D01*
X137355976Y-98880162D01*
X137355544Y-98875784D01*
X137355500Y-98875500D01*
X137355500Y-98875327D01*
X137355498Y-98875315D01*
X137347350Y-98834354D01*
X137340966Y-98802260D01*
X137340962Y-98802255D01*
X137337233Y-98793248D01*
X137339248Y-98792413D01*
X137326189Y-98746120D01*
X137338773Y-98707389D01*
X137337233Y-98706752D01*
X137340961Y-98697746D01*
X137340966Y-98697740D01*
X137355500Y-98624674D01*
X137355500Y-98475326D01*
X137353545Y-98465500D01*
X137350280Y-98449085D01*
X137340966Y-98402260D01*
X137340962Y-98402255D01*
X137337233Y-98393248D01*
X137339248Y-98392413D01*
X137326189Y-98346120D01*
X137338773Y-98307389D01*
X137337233Y-98306752D01*
X137340961Y-98297746D01*
X137340966Y-98297740D01*
X137355500Y-98224674D01*
X137355500Y-98075326D01*
X137353246Y-98063997D01*
X137350363Y-98049500D01*
X137340966Y-98002260D01*
X137340962Y-98002255D01*
X137337233Y-97993248D01*
X137339248Y-97992413D01*
X137326189Y-97946120D01*
X137338773Y-97907389D01*
X137337233Y-97906752D01*
X137340961Y-97897746D01*
X137340966Y-97897740D01*
X137355500Y-97824674D01*
X137355500Y-97675326D01*
X137340966Y-97602260D01*
X137340962Y-97602255D01*
X137337233Y-97593248D01*
X137339248Y-97592413D01*
X137326189Y-97546120D01*
X137328720Y-97527429D01*
X137332815Y-97509937D01*
X137340966Y-97497740D01*
X137355500Y-97424674D01*
X137355500Y-97413062D01*
X137358107Y-97401929D01*
X137368314Y-97385060D01*
X137374407Y-97366309D01*
X137383784Y-97359496D01*
X137389784Y-97349581D01*
X137407955Y-97341934D01*
X137423907Y-97330345D01*
X137442492Y-97327401D01*
X137446180Y-97325850D01*
X137448645Y-97326427D01*
X137449863Y-97326234D01*
X137449838Y-97325976D01*
X137454215Y-97325544D01*
X137454500Y-97325500D01*
X137454673Y-97325500D01*
X137454674Y-97325500D01*
X137527740Y-97310966D01*
X137610601Y-97255601D01*
X137665966Y-97172740D01*
X137680500Y-97099674D01*
X137680500Y-96300326D01*
X137665966Y-96227260D01*
X137618307Y-96155932D01*
X137610602Y-96144400D01*
X137610599Y-96144397D01*
X137527742Y-96089035D01*
X137527740Y-96089034D01*
X137527737Y-96089033D01*
X137527736Y-96089033D01*
X137454684Y-96074501D01*
X137454674Y-96074500D01*
X137305326Y-96074500D01*
X137305325Y-96074500D01*
X137305315Y-96074501D01*
X137232263Y-96089033D01*
X137232257Y-96089035D01*
X137149400Y-96144397D01*
X137149397Y-96144400D01*
X137094035Y-96227257D01*
X137094033Y-96227263D01*
X137079501Y-96300315D01*
X137079500Y-96300327D01*
X137079500Y-96950500D01*
X137074655Y-96965411D01*
X137074655Y-96981093D01*
X137065438Y-96993778D01*
X137060593Y-97008691D01*
X137047907Y-97017907D01*
X137038691Y-97030593D01*
X137023778Y-97035438D01*
X137011093Y-97044655D01*
X136980500Y-97049500D01*
X136895479Y-97049500D01*
X136837288Y-97030593D01*
X136825475Y-97020504D01*
X136779496Y-96974525D01*
X136751719Y-96920008D01*
X136750500Y-96904521D01*
X136750500Y-94981239D01*
X136769407Y-94923048D01*
X136782764Y-94909921D01*
X136782191Y-94909348D01*
X136788314Y-94903224D01*
X136788316Y-94903224D01*
X136873224Y-94818316D01*
X136923972Y-94709487D01*
X136923973Y-94709478D01*
X136926091Y-94702216D01*
X136929425Y-94703187D01*
X136949374Y-94661358D01*
X137003143Y-94632159D01*
X137021191Y-94630500D01*
X138002756Y-94630500D01*
X138060947Y-94649407D01*
G37*
%TD.AperFunction*%
%TA.AperFunction,Conductor*%
G36*
X132558691Y-87669407D02*
G01*
X132594655Y-87718907D01*
X132599500Y-87749500D01*
X132599500Y-88043809D01*
X132580593Y-88102000D01*
X132570503Y-88113813D01*
X132239458Y-88444857D01*
X132184942Y-88472634D01*
X132156533Y-88473006D01*
X132129901Y-88469500D01*
X131710103Y-88469500D01*
X131710092Y-88469501D01*
X131660513Y-88476027D01*
X131660511Y-88476027D01*
X131551686Y-88526774D01*
X131551682Y-88526776D01*
X131520001Y-88558457D01*
X131465483Y-88586234D01*
X131405052Y-88576660D01*
X131379998Y-88558458D01*
X131358316Y-88536776D01*
X131358314Y-88536775D01*
X131358313Y-88536774D01*
X131249489Y-88486029D01*
X131249488Y-88486028D01*
X131232958Y-88483852D01*
X131199901Y-88479500D01*
X131199899Y-88479500D01*
X130780103Y-88479500D01*
X130780092Y-88479501D01*
X130730513Y-88486027D01*
X130730511Y-88486027D01*
X130621686Y-88536774D01*
X130621683Y-88536776D01*
X130587955Y-88570504D01*
X130533438Y-88598281D01*
X130517952Y-88599500D01*
X130026356Y-88599500D01*
X130016747Y-88602074D01*
X129980885Y-88611683D01*
X129980885Y-88611684D01*
X129945640Y-88621127D01*
X129920021Y-88624500D01*
X129470751Y-88624500D01*
X129372580Y-88640049D01*
X129372574Y-88640051D01*
X129364861Y-88643981D01*
X129304429Y-88653551D01*
X129249913Y-88625771D01*
X129222137Y-88571254D01*
X129231711Y-88510822D01*
X129249912Y-88485769D01*
X130056186Y-87679496D01*
X130110703Y-87651719D01*
X130126190Y-87650500D01*
X132500500Y-87650500D01*
X132558691Y-87669407D01*
G37*
%TD.AperFunction*%
%TA.AperFunction,Conductor*%
G36*
X147327294Y-87870000D02*
G01*
X147305500Y-87870000D01*
X147319914Y-87868450D01*
X147327294Y-87870000D01*
G37*
%TD.AperFunction*%
%TD*%
%TA.AperFunction,Conductor*%
%TO.N,GND*%
G36*
X144065828Y-92894407D02*
G01*
X144066425Y-92894845D01*
X144124616Y-92937792D01*
X144124617Y-92937792D01*
X144124618Y-92937793D01*
X144252801Y-92982646D01*
X144283225Y-92985499D01*
X144283227Y-92985500D01*
X144283234Y-92985500D01*
X144851405Y-92985500D01*
X144909596Y-93004407D01*
X144921402Y-93014490D01*
X144936371Y-93029459D01*
X145083196Y-93136134D01*
X145244902Y-93218527D01*
X145417505Y-93274609D01*
X145417506Y-93274609D01*
X145417509Y-93274610D01*
X145596754Y-93303000D01*
X145596757Y-93303000D01*
X145778246Y-93303000D01*
X145957490Y-93274610D01*
X145957491Y-93274609D01*
X145957495Y-93274609D01*
X146130098Y-93218527D01*
X146291804Y-93136134D01*
X146438629Y-93029459D01*
X146453593Y-93014494D01*
X146508108Y-92986719D01*
X146523595Y-92985500D01*
X147091773Y-92985500D01*
X147091773Y-92985499D01*
X147122199Y-92982646D01*
X147250382Y-92937793D01*
X147271712Y-92922050D01*
X147329759Y-92902709D01*
X147388089Y-92921180D01*
X147424423Y-92970409D01*
X147429500Y-93001706D01*
X147429500Y-96300000D01*
X143370000Y-96300000D01*
X143374062Y-92875500D01*
X144007637Y-92875500D01*
X144065828Y-92894407D01*
G37*
%TD.AperFunction*%
%TA.AperFunction,Conductor*%
G36*
X147429500Y-91298293D02*
G01*
X147410593Y-91356484D01*
X147361093Y-91392448D01*
X147299907Y-91392448D01*
X147271713Y-91377949D01*
X147250382Y-91362207D01*
X147250383Y-91362207D01*
X147122203Y-91317355D01*
X147122194Y-91317353D01*
X147091774Y-91314500D01*
X147091766Y-91314500D01*
X146523595Y-91314500D01*
X146465404Y-91295593D01*
X146453597Y-91285509D01*
X146438629Y-91270541D01*
X146291804Y-91163866D01*
X146291803Y-91163865D01*
X146291801Y-91163864D01*
X146130098Y-91081473D01*
X145957490Y-91025389D01*
X145778246Y-90997000D01*
X145778243Y-90997000D01*
X145596757Y-90997000D01*
X145596754Y-90997000D01*
X145417509Y-91025389D01*
X145244901Y-91081473D01*
X145083198Y-91163864D01*
X144936372Y-91270540D01*
X144936371Y-91270541D01*
X144921406Y-91285505D01*
X144866892Y-91313281D01*
X144851405Y-91314500D01*
X144283225Y-91314500D01*
X144252805Y-91317353D01*
X144252796Y-91317355D01*
X144124616Y-91362207D01*
X144066425Y-91405155D01*
X144008378Y-91424497D01*
X144007637Y-91424500D01*
X143375784Y-91424500D01*
X143380000Y-87870000D01*
X147429500Y-87870000D01*
X147429500Y-91298293D01*
G37*
%TD.AperFunction*%
%TD*%
M02*
