%TF.GenerationSoftware,KiCad,Pcbnew,9.0.6-9.0.6~ubuntu24.04.1*%
%TF.CreationDate,2025-12-04T22:19:58-06:00*%
%TF.ProjectId,RF Throwie!,52462054-6872-46f7-9769-65212e6b6963,rev?*%
%TF.SameCoordinates,Original*%
%TF.FileFunction,Copper,L2,Bot*%
%TF.FilePolarity,Positive*%
%FSLAX46Y46*%
G04 Gerber Fmt 4.6, Leading zero omitted, Abs format (unit mm)*
G04 Created by KiCad (PCBNEW 9.0.6-9.0.6~ubuntu24.04.1) date 2025-12-04 22:19:58*
%MOMM*%
%LPD*%
G01*
G04 APERTURE LIST*
G04 Aperture macros list*
%AMRoundRect*
0 Rectangle with rounded corners*
0 $1 Rounding radius*
0 $2 $3 $4 $5 $6 $7 $8 $9 X,Y pos of 4 corners*
0 Add a 4 corners polygon primitive as box body*
4,1,4,$2,$3,$4,$5,$6,$7,$8,$9,$2,$3,0*
0 Add four circle primitives for the rounded corners*
1,1,$1+$1,$2,$3*
1,1,$1+$1,$4,$5*
1,1,$1+$1,$6,$7*
1,1,$1+$1,$8,$9*
0 Add four rect primitives between the rounded corners*
20,1,$1+$1,$2,$3,$4,$5,0*
20,1,$1+$1,$4,$5,$6,$7,0*
20,1,$1+$1,$6,$7,$8,$9,0*
20,1,$1+$1,$8,$9,$2,$3,0*%
%AMFreePoly0*
4,1,23,0.500000,-0.750000,0.000000,-0.750000,0.000000,-0.745722,-0.065263,-0.745722,-0.191342,-0.711940,-0.304381,-0.646677,-0.396677,-0.554381,-0.461940,-0.441342,-0.495722,-0.315263,-0.495722,-0.250000,-0.500000,-0.250000,-0.500000,0.250000,-0.495722,0.250000,-0.495722,0.315263,-0.461940,0.441342,-0.396677,0.554381,-0.304381,0.646677,-0.191342,0.711940,-0.065263,0.745722,0.000000,0.745722,
0.000000,0.750000,0.500000,0.750000,0.500000,-0.750000,0.500000,-0.750000,$1*%
%AMFreePoly1*
4,1,23,0.000000,0.745722,0.065263,0.745722,0.191342,0.711940,0.304381,0.646677,0.396677,0.554381,0.461940,0.441342,0.495722,0.315263,0.495722,0.250000,0.500000,0.250000,0.500000,-0.250000,0.495722,-0.250000,0.495722,-0.315263,0.461940,-0.441342,0.396677,-0.554381,0.304381,-0.646677,0.191342,-0.711940,0.065263,-0.745722,0.000000,-0.745722,0.000000,-0.750000,-0.500000,-0.750000,
-0.500000,0.750000,0.000000,0.750000,0.000000,0.745722,0.000000,0.745722,$1*%
G04 Aperture macros list end*
%TA.AperFunction,ComponentPad*%
%ADD10R,1.700000X1.700000*%
%TD*%
%TA.AperFunction,ComponentPad*%
%ADD11C,1.700000*%
%TD*%
%TA.AperFunction,ComponentPad*%
%ADD12C,1.905000*%
%TD*%
%TA.AperFunction,SMDPad,CuDef*%
%ADD13RoundRect,0.250000X1.600000X-0.425000X1.600000X0.425000X-1.600000X0.425000X-1.600000X-0.425000X0*%
%TD*%
%TA.AperFunction,SMDPad,CuDef*%
%ADD14FreePoly0,270.000000*%
%TD*%
%TA.AperFunction,SMDPad,CuDef*%
%ADD15FreePoly1,270.000000*%
%TD*%
%TA.AperFunction,SMDPad,CuDef*%
%ADD16FreePoly0,180.000000*%
%TD*%
%TA.AperFunction,SMDPad,CuDef*%
%ADD17FreePoly1,180.000000*%
%TD*%
%TA.AperFunction,ViaPad*%
%ADD18C,0.600000*%
%TD*%
%TA.AperFunction,ViaPad*%
%ADD19C,0.610000*%
%TD*%
%TA.AperFunction,Conductor*%
%ADD20C,0.300000*%
%TD*%
%TA.AperFunction,Conductor*%
%ADD21C,0.200000*%
%TD*%
G04 APERTURE END LIST*
D10*
%TO.P,J1,1,Pin_1*%
%TO.N,GND*%
X129380000Y-83940000D03*
D11*
%TO.P,J1,2,Pin_2*%
%TO.N,RX*%
X131920000Y-83940000D03*
%TO.P,J1,3,Pin_3*%
%TO.N,TX*%
X134460000Y-83940000D03*
%TO.P,J1,4,Pin_4*%
%TO.N,VCC*%
X137000000Y-83940000D03*
%TD*%
D12*
%TO.P,J2,1,In*%
%TO.N,Net-(J2-In)*%
X145687500Y-92150000D03*
D13*
%TO.P,J2,2,Ext*%
%TO.N,GND*%
X145437500Y-89325000D03*
X145437500Y-94975000D03*
D12*
X145687500Y-89610000D03*
X145687500Y-94600000D03*
%TD*%
D14*
%TO.P,JP2,1,A*%
%TO.N,CLK*%
X142400000Y-97390000D03*
D15*
%TO.P,JP2,2,B*%
%TO.N,TX*%
X142400000Y-98690000D03*
%TD*%
D16*
%TO.P,JP1,1,A*%
%TO.N,DATA*%
X132930000Y-98920000D03*
D17*
%TO.P,JP1,2,B*%
%TO.N,RX*%
X131630000Y-98920000D03*
%TD*%
D18*
%TO.N,VCC*%
X141890000Y-87260000D03*
%TO.N,GND*%
X143620000Y-91020000D03*
X130210000Y-93187500D03*
X135320000Y-89480000D03*
X132790000Y-91640000D03*
X134520000Y-89480000D03*
X140240000Y-90940000D03*
X134990000Y-92590000D03*
X146820000Y-90970000D03*
X141200000Y-93320000D03*
X138000000Y-93320000D03*
X136920000Y-89470000D03*
X138165504Y-98675000D03*
X137650000Y-88580000D03*
X133630000Y-92390000D03*
X135690000Y-92870000D03*
X142350000Y-90330000D03*
X140670000Y-90180000D03*
X139870000Y-90180000D03*
X136400000Y-93320000D03*
X130810000Y-89810000D03*
X138620000Y-90940000D03*
X132530000Y-93140000D03*
X134280000Y-92860000D03*
X130220000Y-88150000D03*
X141040000Y-90940000D03*
X136260000Y-101160000D03*
X130160000Y-92370000D03*
X132470000Y-95450000D03*
X131590000Y-89750000D03*
X139440000Y-90940000D03*
X139600000Y-93320000D03*
X134360000Y-92020000D03*
X138160000Y-90180000D03*
X133610000Y-91640000D03*
X142000000Y-93320000D03*
X144400000Y-93320000D03*
X130992372Y-95512500D03*
X135470000Y-93650000D03*
X133720000Y-89480000D03*
X143150000Y-90330000D03*
X142800000Y-93320000D03*
X144420000Y-90970000D03*
X138800000Y-93320000D03*
X141490000Y-83430000D03*
X132920000Y-89480000D03*
X139010000Y-90180000D03*
X137500000Y-90180000D03*
X141550000Y-90330000D03*
X129660000Y-91820000D03*
X137200000Y-93320000D03*
X137490000Y-95198735D03*
X132800000Y-92440000D03*
X143600000Y-93320000D03*
X140400000Y-93320000D03*
X146800000Y-93320000D03*
X144690000Y-98690000D03*
X131950000Y-91650000D03*
X140200000Y-84410000D03*
X136120000Y-89480000D03*
X137750000Y-89480000D03*
X129520000Y-95460000D03*
%TO.N,TX*%
X140630000Y-98600000D03*
X140870679Y-96445000D03*
%TO.N,DATA*%
X135080000Y-98550000D03*
%TO.N,CLK*%
X135540000Y-95798735D03*
%TO.N,RX*%
X139883955Y-96922503D03*
%TO.N,+3.3V*%
X134939265Y-97400735D03*
X129130000Y-97400000D03*
D19*
X141011988Y-97753613D03*
%TD*%
D20*
%TO.N,VCC*%
X141890000Y-87260000D02*
X140320000Y-87260000D01*
X140320000Y-87260000D02*
X137000000Y-83940000D01*
D21*
%TO.N,TX*%
X139557780Y-96398735D02*
X128666835Y-96398735D01*
X128666835Y-96398735D02*
X128012000Y-95743900D01*
X142400000Y-98690000D02*
X140720000Y-98690000D01*
X139635012Y-96321503D02*
X139557780Y-96398735D01*
X128292000Y-86730000D02*
X131670000Y-86730000D01*
X140132898Y-96321503D02*
X139635012Y-96321503D01*
X140870679Y-96445000D02*
X140870679Y-96437652D01*
X140210130Y-96398735D02*
X140132898Y-96321503D01*
X140870679Y-96437652D02*
X140831762Y-96398735D01*
X140720000Y-98690000D02*
X140630000Y-98600000D01*
X128012000Y-95743900D02*
X128012000Y-87010000D01*
X140831762Y-96398735D02*
X140210130Y-96398735D01*
X128012000Y-87010000D02*
X128292000Y-86730000D01*
X131670000Y-86730000D02*
X134460000Y-83940000D01*
%TO.N,DATA*%
X134710000Y-98920000D02*
X135080000Y-98550000D01*
X132930000Y-98920000D02*
X134710000Y-98920000D01*
%TO.N,CLK*%
X142400000Y-96390000D02*
X142400000Y-97390000D01*
X135540000Y-95798735D02*
X141808735Y-95798735D01*
X141808735Y-95798735D02*
X142400000Y-96390000D01*
%TO.N,RX*%
X128140000Y-86130000D02*
X130750000Y-86130000D01*
X131920000Y-84960000D02*
X131920000Y-83940000D01*
X128500735Y-96799735D02*
X127611000Y-95910000D01*
X130750000Y-86130000D02*
X131920000Y-84960000D01*
X139883955Y-96922503D02*
X139761187Y-96799735D01*
X131630000Y-98920000D02*
X129800057Y-98920000D01*
X127611000Y-86659000D02*
X128140000Y-86130000D01*
X128500735Y-97620678D02*
X128500735Y-96799735D01*
X127611000Y-95910000D02*
X127611000Y-86659000D01*
X139761187Y-96799735D02*
X128500735Y-96799735D01*
X129800057Y-98920000D02*
X128500735Y-97620678D01*
D20*
%TO.N,+3.3V*%
X137710735Y-97400735D02*
X134939265Y-97400735D01*
X134455430Y-97400735D02*
X134939265Y-97400735D01*
X134454695Y-97400000D02*
X134455430Y-97400735D01*
X137920000Y-97610000D02*
X137710735Y-97400735D01*
X129130000Y-97400000D02*
X134454695Y-97400000D01*
X140868375Y-97610000D02*
X137920000Y-97610000D01*
X141011988Y-97753613D02*
X140868375Y-97610000D01*
%TD*%
%TA.AperFunction,Conductor*%
%TO.N,GND*%
G36*
X146424308Y-82640877D02*
G01*
X146440933Y-82642331D01*
X146586674Y-82655082D01*
X146603651Y-82658075D01*
X146756902Y-82699138D01*
X146773117Y-82705039D01*
X146916905Y-82772089D01*
X146931843Y-82780714D01*
X147061795Y-82871707D01*
X147075015Y-82882799D01*
X147187200Y-82994984D01*
X147198292Y-83008204D01*
X147289283Y-83138152D01*
X147297912Y-83153097D01*
X147364959Y-83296881D01*
X147370861Y-83313097D01*
X147411922Y-83466338D01*
X147414918Y-83483332D01*
X147428063Y-83633581D01*
X147429123Y-83645690D01*
X147429500Y-83654319D01*
X147429500Y-87870000D01*
X143380000Y-87870000D01*
X143370000Y-96300000D01*
X147429500Y-96300000D01*
X147429500Y-101345680D01*
X147429123Y-101354308D01*
X147429123Y-101354309D01*
X147414918Y-101516667D01*
X147411922Y-101533661D01*
X147370861Y-101686902D01*
X147364959Y-101703118D01*
X147297912Y-101846902D01*
X147289283Y-101861847D01*
X147198292Y-101991795D01*
X147187200Y-102005015D01*
X147075015Y-102117200D01*
X147061795Y-102128292D01*
X146931847Y-102219283D01*
X146916902Y-102227912D01*
X146773118Y-102294959D01*
X146756902Y-102300861D01*
X146603661Y-102341922D01*
X146586667Y-102344918D01*
X146424309Y-102359123D01*
X146415680Y-102359500D01*
X128524320Y-102359500D01*
X128515691Y-102359123D01*
X128353332Y-102344918D01*
X128336338Y-102341922D01*
X128183097Y-102300861D01*
X128166881Y-102294959D01*
X128023097Y-102227912D01*
X128008152Y-102219283D01*
X127878204Y-102128292D01*
X127864984Y-102117200D01*
X127752799Y-102005015D01*
X127741707Y-101991795D01*
X127650716Y-101861847D01*
X127642087Y-101846902D01*
X127582962Y-101720108D01*
X127575039Y-101703117D01*
X127569138Y-101686902D01*
X127528075Y-101533651D01*
X127525082Y-101516674D01*
X127510877Y-101354308D01*
X127510500Y-101345680D01*
X127510500Y-100583709D01*
X127829500Y-100583709D01*
X127829500Y-100796290D01*
X127862752Y-101006238D01*
X127928443Y-101208412D01*
X128024948Y-101397815D01*
X128024950Y-101397819D01*
X128149891Y-101569786D01*
X128149893Y-101569788D01*
X128149896Y-101569792D01*
X128300208Y-101720104D01*
X128300211Y-101720106D01*
X128300213Y-101720108D01*
X128472180Y-101845049D01*
X128472184Y-101845051D01*
X128661588Y-101941557D01*
X128863757Y-102007246D01*
X128863758Y-102007246D01*
X128863761Y-102007247D01*
X129073710Y-102040500D01*
X129073713Y-102040500D01*
X129286290Y-102040500D01*
X129496238Y-102007247D01*
X129496239Y-102007246D01*
X129496243Y-102007246D01*
X129698412Y-101941557D01*
X129887816Y-101845051D01*
X130059792Y-101720104D01*
X130210104Y-101569792D01*
X130335051Y-101397816D01*
X130431557Y-101208412D01*
X130497246Y-101006243D01*
X130530500Y-100796287D01*
X130530500Y-100583713D01*
X130530500Y-100583709D01*
X130497247Y-100373761D01*
X130497246Y-100373757D01*
X130431557Y-100171588D01*
X130335051Y-99982184D01*
X130335049Y-99982180D01*
X130210108Y-99810213D01*
X130210106Y-99810211D01*
X130210104Y-99810208D01*
X130059792Y-99659896D01*
X130059788Y-99659893D01*
X130059786Y-99659891D01*
X129887819Y-99534950D01*
X129887815Y-99534948D01*
X129698412Y-99438443D01*
X129496238Y-99372752D01*
X129286290Y-99339500D01*
X129286287Y-99339500D01*
X129073713Y-99339500D01*
X129073710Y-99339500D01*
X128863761Y-99372752D01*
X128661587Y-99438443D01*
X128472184Y-99534948D01*
X128472180Y-99534950D01*
X128300213Y-99659891D01*
X128149891Y-99810213D01*
X128024950Y-99982180D01*
X128024948Y-99982184D01*
X127928443Y-100171587D01*
X127862752Y-100373761D01*
X127829500Y-100583709D01*
X127510500Y-100583709D01*
X127510500Y-96473479D01*
X127529407Y-96415288D01*
X127578907Y-96379324D01*
X127640093Y-96379324D01*
X127679504Y-96403475D01*
X128171239Y-96895210D01*
X128199016Y-96949727D01*
X128200235Y-96965214D01*
X128200235Y-97660242D01*
X128220713Y-97736666D01*
X128220714Y-97736668D01*
X128242233Y-97773938D01*
X128242234Y-97773943D01*
X128242236Y-97773943D01*
X128260275Y-97805189D01*
X129615546Y-99160460D01*
X129615548Y-99160461D01*
X129615550Y-99160463D01*
X129684065Y-99200020D01*
X129684063Y-99200020D01*
X129684067Y-99200021D01*
X129684069Y-99200022D01*
X129760495Y-99220500D01*
X129839619Y-99220500D01*
X130837180Y-99220500D01*
X130895371Y-99239407D01*
X130931335Y-99288907D01*
X130932797Y-99293843D01*
X130965578Y-99416181D01*
X130974799Y-99438443D01*
X130986105Y-99465739D01*
X131051938Y-99579765D01*
X131084584Y-99622309D01*
X131084587Y-99622312D01*
X131084591Y-99622317D01*
X131177683Y-99715409D01*
X131177687Y-99715412D01*
X131177690Y-99715415D01*
X131220234Y-99748061D01*
X131220238Y-99748063D01*
X131220243Y-99748067D01*
X131334257Y-99813893D01*
X131383819Y-99834422D01*
X131510986Y-99868497D01*
X131564174Y-99875500D01*
X131564175Y-99875500D01*
X132129999Y-99875500D01*
X132130000Y-99875500D01*
X132175728Y-99870348D01*
X132234509Y-99842039D01*
X132295139Y-99833827D01*
X132339188Y-99853835D01*
X132340835Y-99855148D01*
X132340836Y-99855149D01*
X132430000Y-99875500D01*
X132995824Y-99875500D01*
X132995826Y-99875500D01*
X133049014Y-99868497D01*
X133176181Y-99834422D01*
X133225743Y-99813893D01*
X133339757Y-99748067D01*
X133382317Y-99715409D01*
X133475409Y-99622317D01*
X133508067Y-99579757D01*
X133573893Y-99465743D01*
X133594422Y-99416181D01*
X133627194Y-99293874D01*
X133660517Y-99242563D01*
X133717639Y-99220636D01*
X133722820Y-99220500D01*
X134749563Y-99220500D01*
X134749563Y-99220499D01*
X134825989Y-99200021D01*
X134894511Y-99160460D01*
X134950460Y-99104511D01*
X134975475Y-99079495D01*
X135029991Y-99051719D01*
X135045478Y-99050500D01*
X135145890Y-99050500D01*
X135145892Y-99050500D01*
X135273186Y-99016392D01*
X135273188Y-99016390D01*
X135273190Y-99016390D01*
X135387309Y-98950503D01*
X135387309Y-98950502D01*
X135387314Y-98950500D01*
X135480500Y-98857314D01*
X135517522Y-98793190D01*
X135546390Y-98743190D01*
X135546390Y-98743188D01*
X135546392Y-98743186D01*
X135580500Y-98615892D01*
X135580500Y-98484108D01*
X135546392Y-98356814D01*
X135546390Y-98356811D01*
X135546390Y-98356809D01*
X135480503Y-98242690D01*
X135480501Y-98242688D01*
X135480500Y-98242686D01*
X135387314Y-98149500D01*
X135387311Y-98149498D01*
X135387309Y-98149496D01*
X135273189Y-98083609D01*
X135273191Y-98083609D01*
X135192069Y-98061873D01*
X135151824Y-98051089D01*
X135134683Y-98039958D01*
X135115561Y-98032736D01*
X135109604Y-98023671D01*
X135100511Y-98017766D01*
X135093186Y-97998686D01*
X135081961Y-97981602D01*
X135082470Y-97970767D01*
X135078584Y-97960644D01*
X135083873Y-97940903D01*
X135084833Y-97920484D01*
X135091424Y-97912724D01*
X135094420Y-97901544D01*
X135123081Y-97872727D01*
X135131019Y-97867510D01*
X135132451Y-97867127D01*
X135246579Y-97801235D01*
X135274749Y-97773064D01*
X135283219Y-97767499D01*
X135303428Y-97761966D01*
X135322099Y-97752454D01*
X135337586Y-97751235D01*
X137524546Y-97751235D01*
X137582737Y-97770142D01*
X137594549Y-97780231D01*
X137639530Y-97825211D01*
X137639531Y-97825213D01*
X137704787Y-97890468D01*
X137704789Y-97890470D01*
X137723970Y-97901544D01*
X137784712Y-97936614D01*
X137873856Y-97960500D01*
X140367172Y-97960500D01*
X140425363Y-97979407D01*
X140461327Y-98028907D01*
X140461327Y-98090093D01*
X140425363Y-98139593D01*
X140416672Y-98145236D01*
X140322690Y-98199496D01*
X140229496Y-98292690D01*
X140163609Y-98406809D01*
X140144539Y-98477978D01*
X140129500Y-98534108D01*
X140129500Y-98665892D01*
X140150211Y-98743186D01*
X140163609Y-98793190D01*
X140229496Y-98907309D01*
X140229498Y-98907311D01*
X140229500Y-98907314D01*
X140322686Y-99000500D01*
X140322688Y-99000501D01*
X140322690Y-99000503D01*
X140436810Y-99066390D01*
X140436808Y-99066390D01*
X140436812Y-99066391D01*
X140436814Y-99066392D01*
X140564108Y-99100500D01*
X140564110Y-99100500D01*
X140695890Y-99100500D01*
X140695892Y-99100500D01*
X140823186Y-99066392D01*
X140823188Y-99066390D01*
X140823190Y-99066390D01*
X140931662Y-99003764D01*
X140981162Y-98990500D01*
X141451696Y-98990500D01*
X141509887Y-99009407D01*
X141537430Y-99039997D01*
X141571933Y-99099757D01*
X141571938Y-99099765D01*
X141604584Y-99142309D01*
X141604587Y-99142312D01*
X141604591Y-99142317D01*
X141697683Y-99235409D01*
X141697687Y-99235412D01*
X141697690Y-99235415D01*
X141740234Y-99268061D01*
X141740238Y-99268063D01*
X141740243Y-99268067D01*
X141854257Y-99333893D01*
X141903819Y-99354422D01*
X142030986Y-99388497D01*
X142084174Y-99395500D01*
X142084175Y-99395500D01*
X142715824Y-99395500D01*
X142715826Y-99395500D01*
X142769014Y-99388497D01*
X142896181Y-99354422D01*
X142945743Y-99333893D01*
X143059757Y-99268067D01*
X143102317Y-99235409D01*
X143195409Y-99142317D01*
X143228067Y-99099757D01*
X143293893Y-98985743D01*
X143314422Y-98936181D01*
X143348497Y-98809014D01*
X143355500Y-98755826D01*
X143355500Y-98190000D01*
X143350348Y-98144272D01*
X143322039Y-98085490D01*
X143313827Y-98024859D01*
X143333838Y-97980807D01*
X143334954Y-97979407D01*
X143335149Y-97979163D01*
X143355500Y-97890000D01*
X143355500Y-97324174D01*
X143348497Y-97270986D01*
X143314422Y-97143819D01*
X143293893Y-97094257D01*
X143228067Y-96980243D01*
X143228063Y-96980238D01*
X143228061Y-96980234D01*
X143195415Y-96937690D01*
X143195412Y-96937687D01*
X143195409Y-96937683D01*
X143102317Y-96844591D01*
X143102312Y-96844587D01*
X143102309Y-96844584D01*
X143059765Y-96811938D01*
X143059759Y-96811934D01*
X143059757Y-96811933D01*
X142945743Y-96746107D01*
X142945741Y-96746106D01*
X142945739Y-96746105D01*
X142931222Y-96740092D01*
X142896181Y-96725578D01*
X142773875Y-96692805D01*
X142722562Y-96659481D01*
X142700636Y-96602360D01*
X142700500Y-96597179D01*
X142700500Y-96350437D01*
X142700499Y-96350435D01*
X142680021Y-96274011D01*
X142680019Y-96274007D01*
X142640460Y-96205489D01*
X142584512Y-96149540D01*
X142255902Y-95820931D01*
X141993246Y-95558275D01*
X141983801Y-95552822D01*
X141924724Y-95518714D01*
X141924723Y-95518713D01*
X141924722Y-95518713D01*
X141848299Y-95498235D01*
X141848297Y-95498235D01*
X135988321Y-95498235D01*
X135930130Y-95479328D01*
X135918323Y-95469244D01*
X135847314Y-95398235D01*
X135847311Y-95398233D01*
X135847309Y-95398231D01*
X135733189Y-95332344D01*
X135733191Y-95332344D01*
X135683799Y-95319110D01*
X135605892Y-95298235D01*
X135474108Y-95298235D01*
X135396200Y-95319110D01*
X135346809Y-95332344D01*
X135232690Y-95398231D01*
X135139496Y-95491425D01*
X135073609Y-95605544D01*
X135054539Y-95676713D01*
X135039500Y-95732843D01*
X135039500Y-95864627D01*
X135068702Y-95973614D01*
X135065500Y-96034713D01*
X135026995Y-96082263D01*
X134973076Y-96098235D01*
X128832314Y-96098235D01*
X128774123Y-96079328D01*
X128762310Y-96069239D01*
X128341496Y-95648425D01*
X128313719Y-95593908D01*
X128312500Y-95578421D01*
X128312500Y-87175479D01*
X128314968Y-87167881D01*
X128313719Y-87159992D01*
X128324243Y-87139336D01*
X128331407Y-87117288D01*
X128341496Y-87105475D01*
X128387475Y-87059496D01*
X128441992Y-87031719D01*
X128457479Y-87030500D01*
X131709563Y-87030500D01*
X131709563Y-87030499D01*
X131785989Y-87010021D01*
X131854511Y-86970460D01*
X131910460Y-86914511D01*
X133909708Y-84915261D01*
X133964223Y-84887486D01*
X134017595Y-84893802D01*
X134153580Y-84950130D01*
X134356535Y-84990500D01*
X134356536Y-84990500D01*
X134563464Y-84990500D01*
X134563465Y-84990500D01*
X134766420Y-84950130D01*
X134957598Y-84870941D01*
X135129655Y-84755977D01*
X135275977Y-84609655D01*
X135390941Y-84437598D01*
X135470130Y-84246420D01*
X135510500Y-84043465D01*
X135510500Y-83836535D01*
X135510499Y-83836532D01*
X135949500Y-83836532D01*
X135949500Y-84043467D01*
X135989869Y-84246418D01*
X136069058Y-84437597D01*
X136184020Y-84609651D01*
X136184023Y-84609655D01*
X136330345Y-84755977D01*
X136502402Y-84870941D01*
X136693580Y-84950130D01*
X136896535Y-84990500D01*
X136896536Y-84990500D01*
X137103464Y-84990500D01*
X137103465Y-84990500D01*
X137306420Y-84950130D01*
X137392402Y-84914513D01*
X137453398Y-84909713D01*
X137500292Y-84935974D01*
X140104788Y-87540470D01*
X140104790Y-87540471D01*
X140174077Y-87580475D01*
X140174086Y-87580478D01*
X140174088Y-87580480D01*
X140184712Y-87586614D01*
X140273856Y-87610500D01*
X141491679Y-87610500D01*
X141549870Y-87629407D01*
X141561676Y-87639490D01*
X141582686Y-87660500D01*
X141582688Y-87660501D01*
X141582690Y-87660503D01*
X141696810Y-87726390D01*
X141696808Y-87726390D01*
X141696812Y-87726391D01*
X141696814Y-87726392D01*
X141824108Y-87760500D01*
X141824110Y-87760500D01*
X141955890Y-87760500D01*
X141955892Y-87760500D01*
X142083186Y-87726392D01*
X142083188Y-87726390D01*
X142083190Y-87726390D01*
X142197309Y-87660503D01*
X142197309Y-87660502D01*
X142197314Y-87660500D01*
X142290500Y-87567314D01*
X142305998Y-87540471D01*
X142356390Y-87453190D01*
X142356390Y-87453188D01*
X142356392Y-87453186D01*
X142390500Y-87325892D01*
X142390500Y-87194108D01*
X142356392Y-87066814D01*
X142356390Y-87066811D01*
X142356390Y-87066809D01*
X142290503Y-86952690D01*
X142290501Y-86952688D01*
X142290500Y-86952686D01*
X142197314Y-86859500D01*
X142197311Y-86859498D01*
X142197309Y-86859496D01*
X142083189Y-86793609D01*
X142083191Y-86793609D01*
X142033799Y-86780375D01*
X141955892Y-86759500D01*
X141824108Y-86759500D01*
X141746200Y-86780375D01*
X141696809Y-86793609D01*
X141582690Y-86859496D01*
X141582689Y-86859497D01*
X141582686Y-86859499D01*
X141582686Y-86859500D01*
X141561680Y-86880505D01*
X141507166Y-86908281D01*
X141491679Y-86909500D01*
X140506190Y-86909500D01*
X140447999Y-86890593D01*
X140436186Y-86880504D01*
X137995974Y-84440292D01*
X137968197Y-84385775D01*
X137974513Y-84332403D01*
X138010130Y-84246420D01*
X138050500Y-84043465D01*
X138050500Y-83836535D01*
X138010130Y-83633580D01*
X137930941Y-83442402D01*
X137815977Y-83270345D01*
X137669655Y-83124023D01*
X137497598Y-83009059D01*
X137497599Y-83009059D01*
X137497597Y-83009058D01*
X137306418Y-82929869D01*
X137103467Y-82889500D01*
X137103465Y-82889500D01*
X136896535Y-82889500D01*
X136896532Y-82889500D01*
X136693581Y-82929869D01*
X136502402Y-83009058D01*
X136330348Y-83124020D01*
X136184020Y-83270348D01*
X136069058Y-83442402D01*
X135989869Y-83633581D01*
X135949500Y-83836532D01*
X135510499Y-83836532D01*
X135470130Y-83633580D01*
X135390941Y-83442402D01*
X135275977Y-83270345D01*
X135129655Y-83124023D01*
X134957598Y-83009059D01*
X134957599Y-83009059D01*
X134957597Y-83009058D01*
X134766418Y-82929869D01*
X134563467Y-82889500D01*
X134563465Y-82889500D01*
X134356535Y-82889500D01*
X134356532Y-82889500D01*
X134153581Y-82929869D01*
X133962402Y-83009058D01*
X133790348Y-83124020D01*
X133644020Y-83270348D01*
X133529058Y-83442402D01*
X133449869Y-83633581D01*
X133409500Y-83836532D01*
X133409500Y-84043467D01*
X133449869Y-84246418D01*
X133506196Y-84382402D01*
X133510997Y-84443399D01*
X133484736Y-84490292D01*
X131574525Y-86400504D01*
X131520008Y-86428281D01*
X131504521Y-86429500D01*
X131114479Y-86429500D01*
X131056288Y-86410593D01*
X131020324Y-86361093D01*
X131020324Y-86299907D01*
X131044475Y-86260496D01*
X131209450Y-86095521D01*
X132160460Y-85144511D01*
X132200021Y-85075989D01*
X132220500Y-84999562D01*
X132220500Y-84999557D01*
X132222023Y-84993874D01*
X132255347Y-84942560D01*
X132279761Y-84928035D01*
X132417598Y-84870941D01*
X132589655Y-84755977D01*
X132735977Y-84609655D01*
X132850941Y-84437598D01*
X132930130Y-84246420D01*
X132970500Y-84043465D01*
X132970500Y-83836535D01*
X132930130Y-83633580D01*
X132850941Y-83442402D01*
X132735977Y-83270345D01*
X132589655Y-83124023D01*
X132417598Y-83009059D01*
X132417599Y-83009059D01*
X132417597Y-83009058D01*
X132226418Y-82929869D01*
X132023467Y-82889500D01*
X132023465Y-82889500D01*
X131816535Y-82889500D01*
X131816532Y-82889500D01*
X131613581Y-82929869D01*
X131422402Y-83009058D01*
X131250348Y-83124020D01*
X131104020Y-83270348D01*
X130989058Y-83442402D01*
X130920464Y-83608004D01*
X130880727Y-83654529D01*
X130821232Y-83668813D01*
X130764705Y-83645398D01*
X130732735Y-83593229D01*
X130730000Y-83570118D01*
X130730000Y-83042175D01*
X130723598Y-82982629D01*
X130723596Y-82982618D01*
X130673353Y-82847911D01*
X130673352Y-82847909D01*
X130636611Y-82798829D01*
X130616874Y-82740914D01*
X130634948Y-82682460D01*
X130683929Y-82645792D01*
X130715864Y-82640500D01*
X146354108Y-82640500D01*
X146415680Y-82640500D01*
X146424308Y-82640877D01*
G37*
%TD.AperFunction*%
%TA.AperFunction,Conductor*%
G36*
X128003870Y-82867222D02*
G01*
X128038966Y-82917341D01*
X128037899Y-82978517D01*
X128037054Y-82980874D01*
X128036404Y-82982615D01*
X128036401Y-82982629D01*
X128030000Y-83042175D01*
X128030000Y-83689999D01*
X128030001Y-83690000D01*
X128946988Y-83690000D01*
X128914075Y-83747007D01*
X128880000Y-83874174D01*
X128880000Y-84005826D01*
X128914075Y-84132993D01*
X128946988Y-84190000D01*
X128030001Y-84190000D01*
X128030000Y-84190001D01*
X128030000Y-84837824D01*
X128029999Y-84837824D01*
X128036401Y-84897370D01*
X128036403Y-84897381D01*
X128086646Y-85032088D01*
X128086647Y-85032090D01*
X128172807Y-85147184D01*
X128172815Y-85147192D01*
X128287909Y-85233352D01*
X128287911Y-85233353D01*
X128422618Y-85283596D01*
X128422629Y-85283598D01*
X128482176Y-85290000D01*
X129129999Y-85290000D01*
X129130000Y-85289999D01*
X129130000Y-84373012D01*
X129187007Y-84405925D01*
X129314174Y-84440000D01*
X129445826Y-84440000D01*
X129572993Y-84405925D01*
X129630000Y-84373012D01*
X129630000Y-85289999D01*
X129630001Y-85290000D01*
X130277824Y-85290000D01*
X130337370Y-85283598D01*
X130337381Y-85283596D01*
X130472088Y-85233353D01*
X130472090Y-85233352D01*
X130587184Y-85147192D01*
X130587192Y-85147184D01*
X130673352Y-85032090D01*
X130673353Y-85032088D01*
X130723596Y-84897381D01*
X130723598Y-84897370D01*
X130730000Y-84837824D01*
X130730000Y-84309881D01*
X130748907Y-84251690D01*
X130798407Y-84215726D01*
X130859593Y-84215726D01*
X130909093Y-84251690D01*
X130920464Y-84271995D01*
X130989058Y-84437597D01*
X131104020Y-84609651D01*
X131104023Y-84609655D01*
X131250345Y-84755977D01*
X131419022Y-84868683D01*
X131456902Y-84916732D01*
X131459304Y-84977870D01*
X131434025Y-85021001D01*
X130654525Y-85800503D01*
X130600008Y-85828281D01*
X130584521Y-85829500D01*
X128100435Y-85829500D01*
X128024011Y-85849978D01*
X128024007Y-85849980D01*
X127955489Y-85889539D01*
X127679503Y-86165525D01*
X127624987Y-86193302D01*
X127564555Y-86183731D01*
X127521290Y-86140466D01*
X127510500Y-86095521D01*
X127510500Y-83654319D01*
X127510877Y-83645691D01*
X127510903Y-83645398D01*
X127525082Y-83483321D01*
X127528074Y-83466349D01*
X127569139Y-83313093D01*
X127575038Y-83296885D01*
X127642091Y-83153088D01*
X127650710Y-83138160D01*
X127741712Y-83008197D01*
X127752793Y-82994990D01*
X127864990Y-82882793D01*
X127878192Y-82871715D01*
X127887509Y-82865191D01*
X127946018Y-82847303D01*
X128003870Y-82867222D01*
G37*
%TD.AperFunction*%
%TD*%
%TA.AperFunction,Conductor*%
%TO.N,GND*%
G36*
X147429500Y-96300000D02*
G01*
X143370000Y-96300000D01*
X143375031Y-92059253D01*
X144534500Y-92059253D01*
X144534500Y-92240746D01*
X144562889Y-92419990D01*
X144562891Y-92419995D01*
X144618973Y-92592598D01*
X144701366Y-92754304D01*
X144808041Y-92901129D01*
X144936371Y-93029459D01*
X145083196Y-93136134D01*
X145244902Y-93218527D01*
X145417505Y-93274609D01*
X145417506Y-93274609D01*
X145417509Y-93274610D01*
X145596754Y-93303000D01*
X145596757Y-93303000D01*
X145778246Y-93303000D01*
X145957490Y-93274610D01*
X145957491Y-93274609D01*
X145957495Y-93274609D01*
X146130098Y-93218527D01*
X146291804Y-93136134D01*
X146438629Y-93029459D01*
X146566959Y-92901129D01*
X146673634Y-92754304D01*
X146756027Y-92592598D01*
X146812109Y-92419995D01*
X146840500Y-92240743D01*
X146840500Y-92059257D01*
X146840500Y-92059253D01*
X146812110Y-91880009D01*
X146812109Y-91880005D01*
X146756027Y-91707402D01*
X146673634Y-91545696D01*
X146566959Y-91398871D01*
X146438629Y-91270541D01*
X146291804Y-91163866D01*
X146291803Y-91163865D01*
X146291801Y-91163864D01*
X146130098Y-91081473D01*
X145957490Y-91025389D01*
X145778246Y-90997000D01*
X145778243Y-90997000D01*
X145596757Y-90997000D01*
X145596754Y-90997000D01*
X145417509Y-91025389D01*
X145244901Y-91081473D01*
X145083198Y-91163864D01*
X144936372Y-91270540D01*
X144808040Y-91398872D01*
X144701364Y-91545698D01*
X144618973Y-91707401D01*
X144562889Y-91880009D01*
X144534500Y-92059253D01*
X143375031Y-92059253D01*
X143380000Y-87870000D01*
X147429500Y-87870000D01*
X147429500Y-96300000D01*
G37*
%TD.AperFunction*%
%TD*%
M02*
