%TF.GenerationSoftware,KiCad,Pcbnew,9.0.6-9.0.6~ubuntu24.04.1*%
%TF.CreationDate,2025-12-04T22:19:58-06:00*%
%TF.ProjectId,RF Throwie!,52462054-6872-46f7-9769-65212e6b6963,rev?*%
%TF.SameCoordinates,Original*%
%TF.FileFunction,Paste,Top*%
%TF.FilePolarity,Positive*%
%FSLAX46Y46*%
G04 Gerber Fmt 4.6, Leading zero omitted, Abs format (unit mm)*
G04 Created by KiCad (PCBNEW 9.0.6-9.0.6~ubuntu24.04.1) date 2025-12-04 22:19:58*
%MOMM*%
%LPD*%
G01*
G04 APERTURE LIST*
G04 Aperture macros list*
%AMRoundRect*
0 Rectangle with rounded corners*
0 $1 Rounding radius*
0 $2 $3 $4 $5 $6 $7 $8 $9 X,Y pos of 4 corners*
0 Add a 4 corners polygon primitive as box body*
4,1,4,$2,$3,$4,$5,$6,$7,$8,$9,$2,$3,0*
0 Add four circle primitives for the rounded corners*
1,1,$1+$1,$2,$3*
1,1,$1+$1,$4,$5*
1,1,$1+$1,$6,$7*
1,1,$1+$1,$8,$9*
0 Add four rect primitives between the rounded corners*
20,1,$1+$1,$2,$3,$4,$5,0*
20,1,$1+$1,$4,$5,$6,$7,0*
20,1,$1+$1,$6,$7,$8,$9,0*
20,1,$1+$1,$8,$9,$2,$3,0*%
%AMFreePoly0*
4,1,9,3.862500,-0.866500,0.737500,-0.866500,0.737500,-0.450000,-0.737500,-0.450000,-0.737500,0.450000,0.737500,0.450000,0.737500,0.866500,3.862500,0.866500,3.862500,-0.866500,3.862500,-0.866500,$1*%
G04 Aperture macros list end*
%ADD10RoundRect,0.135000X0.135000X0.185000X-0.135000X0.185000X-0.135000X-0.185000X0.135000X-0.185000X0*%
%ADD11RoundRect,0.150000X-0.150000X-0.625000X0.150000X-0.625000X0.150000X0.625000X-0.150000X0.625000X0*%
%ADD12RoundRect,0.250000X-0.350000X-0.650000X0.350000X-0.650000X0.350000X0.650000X-0.350000X0.650000X0*%
%ADD13RoundRect,0.218750X-0.218750X-0.256250X0.218750X-0.256250X0.218750X0.256250X-0.218750X0.256250X0*%
%ADD14RoundRect,0.140000X0.140000X0.170000X-0.140000X0.170000X-0.140000X-0.170000X0.140000X-0.170000X0*%
%ADD15RoundRect,0.135000X0.185000X-0.135000X0.185000X0.135000X-0.185000X0.135000X-0.185000X-0.135000X0*%
%ADD16RoundRect,0.225000X-0.425000X-0.225000X0.425000X-0.225000X0.425000X0.225000X-0.425000X0.225000X0*%
%ADD17FreePoly0,0.000000*%
%ADD18RoundRect,0.250000X0.650000X-0.325000X0.650000X0.325000X-0.650000X0.325000X-0.650000X-0.325000X0*%
%ADD19RoundRect,0.140000X0.170000X-0.140000X0.170000X0.140000X-0.170000X0.140000X-0.170000X-0.140000X0*%
%ADD20RoundRect,0.150000X0.150000X-0.512500X0.150000X0.512500X-0.150000X0.512500X-0.150000X-0.512500X0*%
%ADD21RoundRect,0.140000X-0.170000X0.140000X-0.170000X-0.140000X0.170000X-0.140000X0.170000X0.140000X0*%
%ADD22RoundRect,0.135000X-0.185000X0.135000X-0.185000X-0.135000X0.185000X-0.135000X0.185000X0.135000X0*%
%ADD23RoundRect,0.140000X-0.140000X-0.170000X0.140000X-0.170000X0.140000X0.170000X-0.140000X0.170000X0*%
%ADD24RoundRect,0.200000X0.250000X0.200000X-0.250000X0.200000X-0.250000X-0.200000X0.250000X-0.200000X0*%
%ADD25RoundRect,0.167500X-0.167500X0.167500X-0.167500X-0.167500X0.167500X-0.167500X0.167500X0.167500X0*%
%ADD26RoundRect,0.050000X-0.050000X0.375000X-0.050000X-0.375000X0.050000X-0.375000X0.050000X0.375000X0*%
%ADD27RoundRect,0.050000X-0.375000X0.050000X-0.375000X-0.050000X0.375000X-0.050000X0.375000X0.050000X0*%
%ADD28RoundRect,0.218750X-0.256250X0.218750X-0.256250X-0.218750X0.256250X-0.218750X0.256250X0.218750X0*%
%ADD29RoundRect,0.250000X0.325000X0.650000X-0.325000X0.650000X-0.325000X-0.650000X0.325000X-0.650000X0*%
G04 APERTURE END LIST*
D10*
%TO.C,R1*%
X139560000Y-95080000D03*
X138540000Y-95080000D03*
%TD*%
D11*
%TO.C,J4*%
X142740000Y-97490000D03*
X143740000Y-97490000D03*
X144740000Y-97490000D03*
D12*
X141440000Y-101365000D03*
X146040000Y-101365000D03*
%TD*%
D13*
%TO.C,L2*%
X132372500Y-90580000D03*
X133947500Y-90580000D03*
%TD*%
D14*
%TO.C,C11*%
X136450000Y-94450000D03*
X135490000Y-94450000D03*
%TD*%
D15*
%TO.C,R3*%
X133310000Y-94760000D03*
X133310000Y-93740000D03*
%TD*%
D16*
%TO.C,U3*%
X142510000Y-83400000D03*
D17*
X142597500Y-84900000D03*
D16*
X142510000Y-86400000D03*
%TD*%
D18*
%TO.C,C13*%
X140310000Y-86395000D03*
X140310000Y-83445000D03*
%TD*%
D19*
%TO.C,C4*%
X142360000Y-91930000D03*
X142360000Y-90970000D03*
%TD*%
D20*
%TO.C,U2*%
X130050000Y-96625000D03*
X131000000Y-96625000D03*
X131950000Y-96625000D03*
X131950000Y-94350000D03*
X131000000Y-94350000D03*
X130050000Y-94350000D03*
%TD*%
D21*
%TO.C,C2*%
X135190000Y-90810000D03*
X135190000Y-91770000D03*
%TD*%
D22*
%TO.C,R2*%
X133310000Y-95600000D03*
X133310000Y-96620000D03*
%TD*%
D19*
%TO.C,C6*%
X130990000Y-88960000D03*
X130990000Y-88000000D03*
%TD*%
D23*
%TO.C,C10*%
X130040000Y-98120000D03*
X131000000Y-98120000D03*
%TD*%
D13*
%TO.C,D1*%
X140715000Y-95470000D03*
X142290000Y-95470000D03*
%TD*%
D19*
%TO.C,C0*%
X128790000Y-93480000D03*
X128790000Y-92520000D03*
%TD*%
%TO.C,C1*%
X131010000Y-91690000D03*
X131010000Y-90730000D03*
%TD*%
%TO.C,C3*%
X137900000Y-91910000D03*
X137900000Y-90950000D03*
%TD*%
D24*
%TO.C,Y2*%
X133670000Y-98320000D03*
X132270000Y-98320000D03*
X132270000Y-99420000D03*
X133670000Y-99420000D03*
%TD*%
D25*
%TO.C,U1*%
X138590000Y-97740000D03*
X137770000Y-97740000D03*
X138590000Y-98560000D03*
X137770000Y-98560000D03*
D26*
X138980000Y-96700000D03*
X138580000Y-96700000D03*
X138180000Y-96700000D03*
X137780000Y-96700000D03*
X137380000Y-96700000D03*
D27*
X136730000Y-97350000D03*
X136730000Y-97750000D03*
X136730000Y-98150000D03*
X136730000Y-98550000D03*
X136730000Y-98950000D03*
D26*
X137380000Y-99600000D03*
X137780000Y-99600000D03*
X138180000Y-99600000D03*
X138580000Y-99600000D03*
X138980000Y-99600000D03*
D27*
X139630000Y-98950000D03*
X139630000Y-98550000D03*
X139630000Y-98150000D03*
X139630000Y-97750000D03*
X139630000Y-97350000D03*
%TD*%
D19*
%TO.C,C7*%
X131920000Y-88950000D03*
X131920000Y-87990000D03*
%TD*%
D21*
%TO.C,C5*%
X128790000Y-94350000D03*
X128790000Y-95310000D03*
%TD*%
D28*
%TO.C,L1*%
X129760000Y-89262500D03*
X129760000Y-90837500D03*
%TD*%
D13*
%TO.C,L4*%
X139362500Y-92150000D03*
X140937500Y-92150000D03*
%TD*%
D29*
%TO.C,C12*%
X141845000Y-88650000D03*
X138895000Y-88650000D03*
%TD*%
D23*
%TO.C,C8*%
X131060000Y-92580000D03*
X132020000Y-92580000D03*
%TD*%
D28*
%TO.C,L3*%
X136500000Y-90572500D03*
X136500000Y-92147500D03*
%TD*%
M02*
