M48
; DRILL file {KiCad 9.0.6-9.0.6~ubuntu24.04.1} date 2025-12-04T22:19:52-0600
; FORMAT={-:-/ absolute / inch / decimal}
; #@! TF.CreationDate,2025-12-04T22:19:52-06:00
; #@! TF.GenerationSoftware,Kicad,Pcbnew,9.0.6-9.0.6~ubuntu24.04.1
; #@! TF.FileFunction,Plated,1,2,PTH
FMAT,2
INCH
; #@! TA.AperFunction,Plated,PTH,ViaDrill
T1C0.0118
; #@! TA.AperFunction,Plated,PTH,ViaDrill
T2C0.0120
; #@! TA.AperFunction,Plated,PTH,ComponentDrill
T3C0.0394
%
G90
G05
T1
X5.0839Y-3.8346
X5.0992Y-3.7583
X5.1047Y-3.615
X5.1244Y-3.6366
X5.1264Y-3.6688
X5.1268Y-3.4705
X5.15Y-3.5358
X5.1572Y-3.7603
X5.1807Y-3.5335
X5.1949Y-3.6083
X5.2154Y-3.7579
X5.2177Y-3.6669
X5.228Y-3.6079
X5.2283Y-3.6394
X5.2331Y-3.5228
X5.2602Y-3.6079
X5.261Y-3.6374
X5.2646Y-3.5228
X5.2866Y-3.6559
X5.2898Y-3.6228
X5.2961Y-3.5228
X5.3126Y-3.8347
X5.3146Y-3.6453
X5.3181Y-3.8799
X5.3276Y-3.5228
X5.3335Y-3.687
X5.3362Y-3.7716
X5.3421Y-3.6563
X5.3591Y-3.5228
X5.3646Y-3.9827
X5.3701Y-3.674
X5.3906Y-3.5224
X5.4016Y-3.674
X5.413Y-3.748
X5.4134Y-3.5504
X5.4193Y-3.4874
X5.4232Y-3.5228
X5.4331Y-3.674
X5.4394Y-3.5504
X5.4396Y-3.8848
X5.4575Y-3.5803
X5.4646Y-3.674
X5.4728Y-3.5504
X5.4898Y-3.5803
X5.4961Y-3.674
X5.5067Y-3.5504
X5.5072Y-3.8158
X5.5197Y-3.3232
X5.5213Y-3.5803
X5.5276Y-3.674
X5.5366Y-3.8819
X5.5382Y-3.5504
X5.5461Y-3.797
X5.5528Y-3.5803
X5.5591Y-3.674
X5.5705Y-3.2846
X5.5728Y-3.5563
X5.5862Y-3.4354
X5.5906Y-3.674
X5.6043Y-3.5563
X5.622Y-3.674
X5.6358Y-3.5563
X5.6535Y-3.674
X5.6543Y-3.5835
X5.685Y-3.674
X5.6858Y-3.5815
X5.6965Y-3.8854
X5.7795Y-3.674
X5.7803Y-3.5815
T2
X5.5517Y-3.8486
T3
X5.0937Y-3.3047
X5.1937Y-3.3047
X5.2937Y-3.3047
X5.3937Y-3.3047
X5.7357Y-3.528
X5.7357Y-3.628
X5.7357Y-3.7244
M30
